# MagicaVoxel @ Ephtracy

# group
o 

# material
mtllib petit roche 2-6.mtl
usemtl palette

# normals
vn -1 0 0
vn 1 0 0
vn 0 0 1
vn 0 0 -1
vn 0 -1 0
vn 0 1 0

# texcoords
vt 0.537109 0.5
vt 0.677734 0.5
vt 0.982422 0.5
vt 0.986328 0.5

# verts
v 0 2 -0.5
v 0 2 -2.9
v 0 6.2 -0.5
v 0 6.2 -2.9
v 0 6.4 -0.5
v 0 6.4 -2.6
v 0 6.4 -2.7
v 0 6.4 -2.9
v 0 6.5 -2.6
v 0 6.5 -2.7
v 0.1 6.4 -2.4
v 0.1 6.4 -2.5
v 0.1 6.4 -2.6
v 0.1 6.4 -2.7
v 0.1 6.4 -2.8
v 0.1 6.5 -2.4
v 0.1 6.5 -2.5
v 0.1 6.5 -2.6
v 0.1 6.5 -2.7
v 0.1 6.5 -2.8
v 0.1 6.6 -2.5
v 0.1 6.6 -2.6
v 0.1 6.6 -2.7
v 0.3 6.4 -2.3
v 0.3 6.4 -2.4
v 0.3 6.5 -2.3
v 0.3 6.5 -2.4
v 0.4 6.5 -2.5
v 0.4 6.5 -2.6
v 0.4 6.6 -2.5
v 0.4 6.6 -2.6
v 0.5 6.4 -2.2
v 0.5 6.4 -2.3
v 0.5 6.5 -2.2
v 0.5 6.5 -2.3
v 0.5 6.5 -2.4
v 0.5 6.5 -2.5
v 0.5 6.6 -2.3
v 0.5 6.6 -2.4
v 0.5 6.6 -2.5
v 0.5 6.6 -2.6
v 0.5 6.7 -2.4
v 0.5 6.7 -2.6
v 0.3 6.5 -2.5
v 0.3 6.5 -2.6
v 0.3 6.6 -2.5
v 0.3 6.6 -2.6
v 0.4 6.4 -2.7
v 0.4 6.4 -2.8
v 0.4 6.5 -2.7
v 0.4 6.5 -2.8
v 0.5 6.5 -2.6
v 0.5 6.5 -2.7
v 0.5 6.6 -2.6
v 0.5 6.6 -2.7
v 0.6 6.6 -2.4
v 0.6 6.6 -2.5
v 0.6 6.6 -2.6
v 0.6 6.7 -2.4
v 0.6 6.7 -2.6
v 0.7 6.4 -2.6
v 0.7 6.4 -2.7
v 0.7 6.5 -2.3
v 0.7 6.5 -2.4
v 0.7 6.5 -2.5
v 0.7 6.5 -2.6
v 0.7 6.5 -2.7
v 0.7 6.6 -2.3
v 0.7 6.6 -2.4
v 0.7 6.6 -2.5
v 0.7 6.6 -2.6
v 0.8 6.4 -2.2
v 0.8 6.4 -2.3
v 0.8 6.4 -2.6
v 0.8 6.5 -2.2
v 0.8 6.5 -2.3
v 0.8 6.5 -2.4
v 0.8 6.5 -2.5
v 0.8 6.5 -2.6
v 0.8 6.6 -2.4
v 0.8 6.6 -2.5
v 2.4 2 -0.5
v 2.4 2 -2.9
v 2.4 6.2 -0.5
v 2.4 6.2 -2.9
v 2.4 6.4 -0.5
v 2.4 6.4 -2.9
v 0 2 -0.5
v 0 6.2 -0.5
v 0 6.4 -0.5
v 2.4 2 -0.5
v 2.4 6.2 -0.5
v 2.4 6.4 -0.5
v 0.5 6.4 -2.2
v 0.5 6.5 -2.2
v 0.7 6.4 -2.2
v 0.7 6.5 -2.2
v 0.8 6.4 -2.2
v 0.8 6.5 -2.2
v 0.3 6.4 -2.3
v 0.3 6.5 -2.3
v 0.5 6.4 -2.3
v 0.5 6.5 -2.3
v 0.5 6.6 -2.3
v 0.6 6.5 -2.3
v 0.6 6.6 -2.3
v 0.7 6.5 -2.3
v 0.7 6.6 -2.3
v 0.1 6.4 -2.4
v 0.1 6.5 -2.4
v 0.2 6.4 -2.4
v 0.2 6.5 -2.4
v 0.3 6.4 -2.4
v 0.3 6.5 -2.4
v 0.5 6.6 -2.4
v 0.5 6.7 -2.4
v 0.6 6.6 -2.4
v 0.6 6.7 -2.4
v 0.7 6.5 -2.4
v 0.7 6.6 -2.4
v 0.8 6.5 -2.4
v 0.8 6.6 -2.4
v 0.1 6.5 -2.5
v 0.1 6.6 -2.5
v 0.2 6.5 -2.5
v 0.2 6.6 -2.5
v 0.3 6.5 -2.5
v 0.3 6.6 -2.5
v 0.4 6.5 -2.5
v 0.4 6.6 -2.5
v 0.5 6.5 -2.5
v 0.5 6.6 -2.5
v 0 6.4 -2.6
v 0 6.5 -2.6
v 0.1 6.4 -2.6
v 0.1 6.5 -2.6
v 0.3 6.5 -2.6
v 0.3 6.6 -2.6
v 0.4 6.5 -2.6
v 0.4 6.6 -2.6
v 0.7 6.5 -2.5
v 0.7 6.6 -2.5
v 0.8 6.5 -2.5
v 0.8 6.6 -2.5
v 0.5 6.5 -2.6
v 0.5 6.6 -2.6
v 0.5 6.7 -2.6
v 0.6 6.5 -2.6
v 0.6 6.6 -2.6
v 0.6 6.7 -2.6
v 0.7 6.4 -2.6
v 0.7 6.5 -2.6
v 0.7 6.6 -2.6
v 0.8 6.4 -2.6
v 0.8 6.5 -2.6
v 0 6.4 -2.7
v 0 6.5 -2.7
v 0.1 6.4 -2.7
v 0.1 6.5 -2.7
v 0.1 6.6 -2.7
v 0.2 6.5 -2.7
v 0.4 6.4 -2.7
v 0.4 6.5 -2.7
v 0.5 6.5 -2.7
v 0.5 6.6 -2.7
v 0.7 6.4 -2.7
v 0.7 6.5 -2.7
v 0.1 6.4 -2.8
v 0.1 6.5 -2.8
v 0.2 6.4 -2.8
v 0.2 6.5 -2.8
v 0.4 6.4 -2.8
v 0.4 6.5 -2.8
v 0 2 -2.9
v 0 6.2 -2.9
v 0 6.4 -2.9
v 2.4 2 -2.9
v 2.4 6.2 -2.9
v 2.4 6.4 -2.9
v 0 2 -0.5
v 2.4 2 -0.5
v 0 2 -2.9
v 2.4 2 -2.9
v 0 6.4 -0.5
v 2.4 6.4 -0.5
v 0.5 6.4 -2.2
v 0.7 6.4 -2.2
v 0.8 6.4 -2.2
v 0.3 6.4 -2.3
v 0.5 6.4 -2.3
v 0.8 6.4 -2.3
v 0.1 6.4 -2.4
v 0.2 6.4 -2.4
v 0.3 6.4 -2.4
v 0.1 6.4 -2.5
v 0 6.4 -2.6
v 0.1 6.4 -2.6
v 0.7 6.4 -2.6
v 0.8 6.4 -2.6
v 0 6.4 -2.7
v 0.1 6.4 -2.7
v 0.4 6.4 -2.7
v 0.7 6.4 -2.7
v 0.1 6.4 -2.8
v 0.2 6.4 -2.8
v 0.4 6.4 -2.8
v 0 6.4 -2.9
v 2.4 6.4 -2.9
v 0.5 6.5 -2.2
v 0.7 6.5 -2.2
v 0.8 6.5 -2.2
v 0.3 6.5 -2.3
v 0.5 6.5 -2.3
v 0.6 6.5 -2.3
v 0.7 6.5 -2.3
v 0.8 6.5 -2.3
v 0.1 6.5 -2.4
v 0.2 6.5 -2.4
v 0.3 6.5 -2.4
v 0.5 6.5 -2.4
v 0.7 6.5 -2.4
v 0.8 6.5 -2.4
v 0.1 6.5 -2.5
v 0.2 6.5 -2.5
v 0.3 6.5 -2.5
v 0.4 6.5 -2.5
v 0.5 6.5 -2.5
v 0.7 6.5 -2.5
v 0.8 6.5 -2.5
v 0 6.5 -2.6
v 0.1 6.5 -2.6
v 0.3 6.5 -2.6
v 0.4 6.5 -2.6
v 0.5 6.5 -2.6
v 0.6 6.5 -2.6
v 0.7 6.5 -2.6
v 0.8 6.5 -2.6
v 0 6.5 -2.7
v 0.1 6.5 -2.7
v 0.2 6.5 -2.7
v 0.4 6.5 -2.7
v 0.5 6.5 -2.7
v 0.7 6.5 -2.7
v 0.1 6.5 -2.8
v 0.2 6.5 -2.8
v 0.4 6.5 -2.8
v 0.5 6.6 -2.3
v 0.6 6.6 -2.3
v 0.7 6.6 -2.3
v 0.5 6.6 -2.4
v 0.6 6.6 -2.4
v 0.7 6.6 -2.4
v 0.8 6.6 -2.4
v 0.1 6.6 -2.5
v 0.2 6.6 -2.5
v 0.3 6.6 -2.5
v 0.4 6.6 -2.5
v 0.5 6.6 -2.5
v 0.6 6.6 -2.5
v 0.7 6.6 -2.5
v 0.8 6.6 -2.5
v 0.1 6.6 -2.6
v 0.2 6.6 -2.6
v 0.3 6.6 -2.6
v 0.4 6.6 -2.6
v 0.5 6.6 -2.6
v 0.6 6.6 -2.6
v 0.7 6.6 -2.6
v 0.1 6.6 -2.7
v 0.5 6.6 -2.7
v 0.5 6.7 -2.4
v 0.6 6.7 -2.4
v 0.5 6.7 -2.6
v 0.6 6.7 -2.6

# faces
f 3/1/1 2/1/1 1/1/1
f 4/1/1 2/1/1 3/1/1
f 5/2/1 4/2/1 3/2/1
f 6/2/1 4/2/1 5/2/1
f 7/2/1 4/2/1 6/2/1
f 8/2/1 4/2/1 7/2/1
f 9/4/1 7/4/1 6/4/1
f 10/4/1 7/4/1 9/4/1
f 16/3/1 12/3/1 11/3/1
f 17/4/1 13/4/1 12/4/1
f 17/3/1 12/3/1 16/3/1
f 18/4/1 13/4/1 17/4/1
f 19/4/1 15/4/1 14/4/1
f 20/4/1 15/4/1 19/4/1
f 21/3/1 18/3/1 17/3/1
f 22/4/1 19/4/1 18/4/1
f 22/3/1 18/3/1 21/3/1
f 23/4/1 19/4/1 22/4/1
f 26/3/1 25/3/1 24/3/1
f 27/3/1 25/3/1 26/3/1
f 30/3/1 29/3/1 28/3/1
f 31/3/1 29/3/1 30/3/1
f 34/4/1 33/4/1 32/4/1
f 35/4/1 33/4/1 34/4/1
f 38/4/1 37/4/1 36/4/1
f 38/4/1 36/4/1 35/4/1
f 39/4/1 37/4/1 38/4/1
f 40/4/1 37/4/1 39/4/1
f 42/4/1 41/4/1 40/4/1
f 42/4/1 40/4/1 39/4/1
f 43/4/1 41/4/1 42/4/1
f 44/4/2 45/4/2 46/4/2
f 46/4/2 45/4/2 47/4/2
f 48/3/2 49/3/2 50/3/2
f 50/3/2 49/3/2 51/3/2
f 52/4/2 53/4/2 54/4/2
f 54/4/2 53/4/2 55/4/2
f 56/4/2 57/4/2 59/4/2
f 57/4/2 58/4/2 59/4/2
f 59/4/2 58/4/2 60/4/2
f 61/4/2 62/4/2 66/4/2
f 66/4/2 62/4/2 67/4/2
f 63/3/2 64/3/2 68/3/2
f 68/3/2 64/3/2 69/3/2
f 65/3/2 66/3/2 70/3/2
f 70/3/2 66/3/2 71/3/2
f 72/3/2 73/3/2 75/3/2
f 73/4/2 74/4/2 76/4/2
f 75/3/2 73/3/2 76/3/2
f 76/4/2 74/4/2 77/4/2
f 77/4/2 74/4/2 78/4/2
f 78/4/2 74/4/2 79/4/2
f 77/3/2 78/3/2 80/3/2
f 80/3/2 78/3/2 81/3/2
f 82/1/2 83/1/2 84/1/2
f 84/1/2 83/1/2 85/1/2
f 84/2/2 85/2/2 86/2/2
f 86/2/2 85/2/2 87/2/2
f 91/1/3 89/1/3 88/1/3
f 92/2/3 90/2/3 89/2/3
f 92/1/3 89/1/3 91/1/3
f 93/2/3 90/2/3 92/2/3
f 96/4/3 95/4/3 94/4/3
f 97/4/3 95/4/3 96/4/3
f 98/3/3 97/3/3 96/3/3
f 99/3/3 97/3/3 98/3/3
f 102/3/3 101/3/3 100/3/3
f 103/3/3 101/3/3 102/3/3
f 105/4/3 104/4/3 103/4/3
f 106/4/3 104/4/3 105/4/3
f 107/3/3 106/3/3 105/3/3
f 108/3/3 106/3/3 107/3/3
f 111/3/3 110/3/3 109/3/3
f 112/3/3 110/3/3 111/3/3
f 113/4/3 112/4/3 111/4/3
f 114/4/3 112/4/3 113/4/3
f 117/4/3 116/4/3 115/4/3
f 118/4/3 116/4/3 117/4/3
f 121/3/3 120/3/3 119/3/3
f 122/3/3 120/3/3 121/3/3
f 125/3/3 124/3/3 123/3/3
f 126/3/3 124/3/3 125/3/3
f 127/4/3 126/4/3 125/4/3
f 128/4/3 126/4/3 127/4/3
f 131/3/3 130/3/3 129/3/3
f 132/3/3 130/3/3 131/3/3
f 135/4/3 134/4/3 133/4/3
f 136/4/3 134/4/3 135/4/3
f 139/4/3 138/4/3 137/4/3
f 140/4/3 138/4/3 139/4/3
f 141/3/4 142/3/4 143/3/4
f 143/3/4 142/3/4 144/3/4
f 145/4/4 146/4/4 148/4/4
f 146/4/4 147/4/4 148/4/4
f 148/4/4 147/4/4 149/4/4
f 149/4/4 147/4/4 150/4/4
f 148/3/4 149/3/4 152/3/4
f 152/3/4 149/3/4 153/3/4
f 151/4/4 152/4/4 154/4/4
f 154/4/4 152/4/4 155/4/4
f 156/4/4 157/4/4 158/4/4
f 158/4/4 157/4/4 159/4/4
f 159/4/4 160/4/4 161/4/4
f 161/4/4 160/4/4 163/4/4
f 163/4/4 160/4/4 164/4/4
f 162/4/4 163/4/4 164/4/4
f 164/4/4 160/4/4 165/4/4
f 162/4/4 164/4/4 166/4/4
f 166/4/4 164/4/4 167/4/4
f 168/4/4 169/4/4 170/4/4
f 170/4/4 169/4/4 171/4/4
f 170/3/4 171/3/4 172/3/4
f 172/3/4 171/3/4 173/3/4
f 174/1/4 175/1/4 177/1/4
f 175/2/4 176/2/4 178/2/4
f 177/1/4 175/1/4 178/1/4
f 178/2/4 176/2/4 179/2/4
f 182/1/5 181/1/5 180/1/5
f 183/1/5 181/1/5 182/1/5
f 184/2/6 185/2/6 186/2/6
f 186/2/6 185/2/6 187/2/6
f 187/2/6 185/2/6 188/2/6
f 184/2/6 186/2/6 189/2/6
f 189/2/6 186/2/6 190/2/6
f 188/2/6 185/2/6 191/2/6
f 184/2/6 189/2/6 192/2/6
f 192/2/6 189/2/6 193/2/6
f 193/2/6 189/2/6 194/2/6
f 184/2/6 192/2/6 195/2/6
f 184/2/6 195/2/6 196/2/6
f 196/2/6 195/2/6 197/2/6
f 191/2/6 185/2/6 199/2/6
f 198/2/6 199/2/6 203/2/6
f 200/2/6 201/2/6 204/2/6
f 202/2/6 203/2/6 206/2/6
f 204/2/6 205/2/6 207/2/6
f 205/2/6 206/2/6 207/2/6
f 200/2/6 204/2/6 207/2/6
f 206/2/6 203/2/6 208/2/6
f 207/2/6 206/2/6 208/2/6
f 199/2/6 185/2/6 208/2/6
f 203/2/6 199/2/6 208/2/6
f 209/4/6 210/4/6 213/4/6
f 213/4/6 210/4/6 214/4/6
f 210/3/6 211/3/6 215/3/6
f 214/4/6 210/4/6 215/4/6
f 215/3/6 211/3/6 216/3/6
f 212/3/6 213/3/6 219/3/6
f 219/3/6 213/3/6 220/3/6
f 215/4/6 216/4/6 221/4/6
f 221/4/6 216/4/6 222/4/6
f 217/3/6 218/3/6 223/3/6
f 219/4/6 220/4/6 224/4/6
f 223/3/6 218/3/6 224/3/6
f 218/4/6 219/4/6 224/4/6
f 224/4/6 220/4/6 225/4/6
f 225/4/6 220/4/6 226/4/6
f 226/4/6 220/4/6 227/4/6
f 225/3/6 226/3/6 232/3/6
f 232/3/6 226/3/6 233/3/6
f 228/4/6 229/4/6 236/4/6
f 236/4/6 229/4/6 237/4/6
f 230/4/6 231/4/6 238/4/6
f 238/4/6 231/4/6 239/4/6
f 234/4/6 235/4/6 242/4/6
f 235/4/6 236/4/6 242/4/6
f 242/4/6 236/4/6 243/4/6
f 239/4/6 240/4/6 244/4/6
f 240/3/6 241/3/6 245/3/6
f 244/4/6 240/4/6 245/4/6
f 245/3/6 241/3/6 246/3/6
f 247/4/6 248/4/6 250/4/6
f 248/3/6 249/3/6 251/3/6
f 250/4/6 248/4/6 251/4/6
f 251/3/6 249/3/6 252/3/6
f 251/4/6 252/4/6 259/4/6
f 252/3/6 253/3/6 260/3/6
f 259/4/6 252/4/6 260/4/6
f 260/3/6 253/3/6 261/3/6
f 254/3/6 255/3/6 262/3/6
f 255/4/6 256/4/6 263/4/6
f 262/3/6 255/3/6 263/3/6
f 263/4/6 256/4/6 264/4/6
f 257/3/6 258/3/6 265/3/6
f 265/3/6 258/3/6 266/3/6
f 259/3/6 260/3/6 267/3/6
f 267/3/6 260/3/6 268/3/6
f 263/4/6 264/4/6 269/4/6
f 265/4/6 266/4/6 269/4/6
f 262/4/6 263/4/6 269/4/6
f 264/4/6 265/4/6 269/4/6
f 269/4/6 266/4/6 270/4/6
f 271/4/6 272/4/6 273/4/6
f 273/4/6 272/4/6 274/4/6
