# MagicaVoxel @ Ephtracy

# group
o 

# material
mtllib haute herbes 1-1.mtl
usemtl palette

# normals
vn -1 0 0
vn 1 0 0
vn 0 0 1
vn 0 0 -1
vn 0 -1 0
vn 0 1 0

# texcoords
vt 0.537109 0.5
vt 0.654297 0.5
vt 0.677734 0.5
vt 0.904297 0.5
vt 0.908203 0.5
vt 0.912109 0.5

# verts
v 0 2 -0.5
v 0 2 -2.9
v 0 6.2 -0.5
v 0 6.2 -2.9
v 0 6.4 -0.5
v 0 6.4 -2.9
v 0.2 6.4 -0.9
v 0.2 6.4 -1
v 0.2 6.6 -0.9
v 0.2 6.6 -1
v 0.3 6.4 -0.6
v 0.3 6.4 -0.7
v 0.3 6.4 -2.4
v 0.3 6.4 -2.5
v 0.3 6.5 -0.6
v 0.3 6.5 -0.7
v 0.3 6.6 -2.4
v 0.3 6.6 -2.5
v 0.4 6.4 -0.8
v 0.4 6.4 -0.9
v 0.4 6.6 -0.8
v 0.4 6.6 -0.9
v 0.5 6.4 -2.8
v 0.5 6.4 -2.9
v 0.5 6.6 -2.8
v 0.5 6.6 -2.9
v 0.6 6.4 -2.6
v 0.6 6.4 -2.7
v 0.6 6.5 -2.6
v 0.6 6.5 -2.7
v 0.7 6.4 -1
v 0.7 6.4 -1.1
v 0.7 6.4 -2.3
v 0.7 6.4 -2.4
v 0.7 6.5 -1
v 0.7 6.5 -1.1
v 0.7 6.6 -2.3
v 0.7 6.6 -2.4
v 1.5 6.4 -2.7
v 1.5 6.4 -2.8
v 1.5 6.6 -2.7
v 1.5 6.6 -2.8
v 1.9 6.4 -2
v 1.9 6.4 -2.1
v 1.9 6.6 -2
v 1.9 6.6 -2.1
v 2 6.4 -1.7
v 2 6.4 -1.8
v 2 6.4 -2.4
v 2 6.4 -2.5
v 2 6.5 -1.7
v 2 6.5 -1.8
v 2 6.6 -2.4
v 2 6.6 -2.5
v 2.1 6.4 -1.1
v 2.1 6.4 -1.2
v 2.1 6.6 -1.1
v 2.1 6.6 -1.2
v 2.2 6.4 -1
v 2.2 6.4 -1.1
v 2.2 6.6 -1
v 2.2 6.6 -1.1
v 0.3 6.4 -0.9
v 0.3 6.4 -1
v 0.3 6.6 -0.9
v 0.3 6.6 -1
v 0.4 6.4 -0.6
v 0.4 6.4 -0.7
v 0.4 6.4 -2.4
v 0.4 6.4 -2.5
v 0.4 6.5 -0.6
v 0.4 6.5 -0.7
v 0.4 6.6 -2.4
v 0.4 6.6 -2.5
v 0.5 6.4 -0.8
v 0.5 6.4 -0.9
v 0.5 6.6 -0.8
v 0.5 6.6 -0.9
v 0.6 6.5 -2.8
v 0.6 6.5 -2.9
v 0.6 6.6 -2.8
v 0.6 6.6 -2.9
v 0.7 6.4 -2.6
v 0.7 6.4 -2.7
v 0.7 6.4 -2.8
v 0.7 6.4 -2.9
v 0.7 6.5 -2.6
v 0.7 6.5 -2.7
v 0.7 6.5 -2.8
v 0.7 6.5 -2.9
v 0.8 6.4 -1
v 0.8 6.4 -1.1
v 0.8 6.4 -2.3
v 0.8 6.4 -2.4
v 0.8 6.5 -1
v 0.8 6.5 -1.1
v 0.8 6.6 -2.3
v 0.8 6.6 -2.4
v 1.6 6.4 -2.7
v 1.6 6.4 -2.8
v 1.6 6.6 -2.7
v 1.6 6.6 -2.8
v 2 6.4 -2
v 2 6.4 -2.1
v 2 6.6 -2
v 2 6.6 -2.1
v 2.1 6.4 -1.7
v 2.1 6.4 -1.8
v 2.1 6.4 -2.4
v 2.1 6.4 -2.5
v 2.1 6.5 -1.7
v 2.1 6.5 -1.8
v 2.1 6.6 -2.4
v 2.1 6.6 -2.5
v 2.2 6.4 -1.1
v 2.2 6.4 -1.2
v 2.2 6.6 -1.1
v 2.2 6.6 -1.2
v 2.3 6.4 -1
v 2.3 6.4 -1.1
v 2.3 6.6 -1
v 2.3 6.6 -1.1
v 2.4 2 -0.5
v 2.4 2 -2.9
v 2.4 6.2 -0.5
v 2.4 6.2 -2.9
v 2.4 6.4 -0.5
v 2.4 6.4 -2.9
v 0 2 -0.5
v 0 6.2 -0.5
v 0 6.4 -0.5
v 2.4 2 -0.5
v 2.4 6.2 -0.5
v 2.4 6.4 -0.5
v 0.3 6.4 -0.6
v 0.3 6.5 -0.6
v 0.4 6.4 -0.6
v 0.4 6.5 -0.6
v 0.4 6.4 -0.8
v 0.4 6.6 -0.8
v 0.5 6.4 -0.8
v 0.5 6.6 -0.8
v 0.2 6.4 -0.9
v 0.2 6.6 -0.9
v 0.3 6.4 -0.9
v 0.3 6.6 -0.9
v 0.7 6.4 -1
v 0.7 6.5 -1
v 0.8 6.4 -1
v 0.8 6.5 -1
v 2.2 6.4 -1
v 2.2 6.6 -1
v 2.3 6.4 -1
v 2.3 6.6 -1
v 2.1 6.4 -1.1
v 2.1 6.6 -1.1
v 2.2 6.4 -1.1
v 2.2 6.6 -1.1
v 2 6.4 -1.7
v 2 6.5 -1.7
v 2.1 6.4 -1.7
v 2.1 6.5 -1.7
v 1.9 6.4 -2
v 1.9 6.6 -2
v 2 6.4 -2
v 2 6.6 -2
v 0.7 6.4 -2.3
v 0.7 6.6 -2.3
v 0.8 6.4 -2.3
v 0.8 6.6 -2.3
v 0.3 6.4 -2.4
v 0.3 6.6 -2.4
v 0.4 6.4 -2.4
v 0.4 6.6 -2.4
v 2 6.4 -2.4
v 2 6.6 -2.4
v 2.1 6.4 -2.4
v 2.1 6.6 -2.4
v 0.6 6.4 -2.6
v 0.6 6.5 -2.6
v 0.7 6.4 -2.6
v 0.7 6.5 -2.6
v 1.5 6.4 -2.7
v 1.5 6.6 -2.7
v 1.6 6.4 -2.7
v 1.6 6.6 -2.7
v 0.5 6.4 -2.8
v 0.5 6.6 -2.8
v 0.6 6.4 -2.8
v 0.6 6.5 -2.8
v 0.6 6.6 -2.8
v 0.7 6.4 -2.8
v 0.7 6.5 -2.8
v 0.3 6.4 -0.7
v 0.3 6.5 -0.7
v 0.4 6.4 -0.7
v 0.4 6.5 -0.7
v 0.4 6.4 -0.9
v 0.4 6.6 -0.9
v 0.5 6.4 -0.9
v 0.5 6.6 -0.9
v 0.2 6.4 -1
v 0.2 6.6 -1
v 0.3 6.4 -1
v 0.3 6.6 -1
v 0.7 6.4 -1.1
v 0.7 6.5 -1.1
v 0.8 6.4 -1.1
v 0.8 6.5 -1.1
v 2.2 6.4 -1.1
v 2.2 6.6 -1.1
v 2.3 6.4 -1.1
v 2.3 6.6 -1.1
v 2.1 6.4 -1.2
v 2.1 6.6 -1.2
v 2.2 6.4 -1.2
v 2.2 6.6 -1.2
v 2 6.4 -1.8
v 2 6.5 -1.8
v 2.1 6.4 -1.8
v 2.1 6.5 -1.8
v 1.9 6.4 -2.1
v 1.9 6.6 -2.1
v 2 6.4 -2.1
v 2 6.6 -2.1
v 0.7 6.4 -2.4
v 0.7 6.6 -2.4
v 0.8 6.4 -2.4
v 0.8 6.6 -2.4
v 0.3 6.4 -2.5
v 0.3 6.6 -2.5
v 0.4 6.4 -2.5
v 0.4 6.6 -2.5
v 2 6.4 -2.5
v 2 6.6 -2.5
v 2.1 6.4 -2.5
v 2.1 6.6 -2.5
v 0.6 6.4 -2.7
v 0.6 6.5 -2.7
v 0.7 6.4 -2.7
v 0.7 6.5 -2.7
v 1.5 6.4 -2.8
v 1.5 6.6 -2.8
v 1.6 6.4 -2.8
v 1.6 6.6 -2.8
v 0 2 -2.9
v 0 6.2 -2.9
v 0 6.4 -2.9
v 0.5 6.4 -2.9
v 0.5 6.6 -2.9
v 0.6 6.4 -2.9
v 0.6 6.5 -2.9
v 0.6 6.6 -2.9
v 0.7 6.4 -2.9
v 0.7 6.5 -2.9
v 2.4 2 -2.9
v 2.4 6.2 -2.9
v 2.4 6.4 -2.9
v 0 2 -0.5
v 2.4 2 -0.5
v 0 2 -2.9
v 2.4 2 -2.9
v 0 6.4 -0.5
v 2.4 6.4 -0.5
v 0.3 6.4 -0.6
v 0.4 6.4 -0.6
v 0.3 6.4 -0.7
v 0.4 6.4 -0.7
v 0.4 6.4 -0.8
v 0.5 6.4 -0.8
v 0.2 6.4 -0.9
v 0.3 6.4 -0.9
v 0.4 6.4 -0.9
v 0.5 6.4 -0.9
v 0.7 6.4 -0.9
v 0.8 6.4 -0.9
v 0.2 6.4 -1
v 0.3 6.4 -1
v 0.7 6.4 -1
v 0.8 6.4 -1
v 2.2 6.4 -1
v 2.3 6.4 -1
v 0.6 6.4 -1.1
v 0.7 6.4 -1.1
v 0.8 6.4 -1.1
v 2.1 6.4 -1.1
v 2.2 6.4 -1.1
v 2.3 6.4 -1.1
v 0.6 6.4 -1.2
v 0.7 6.4 -1.2
v 2.1 6.4 -1.2
v 2.2 6.4 -1.2
v 2 6.4 -1.7
v 2.1 6.4 -1.7
v 2 6.4 -1.8
v 2.1 6.4 -1.8
v 1.9 6.4 -2
v 2 6.4 -2
v 1.9 6.4 -2.1
v 2 6.4 -2.1
v 0.7 6.4 -2.3
v 0.8 6.4 -2.3
v 0.3 6.4 -2.4
v 0.4 6.4 -2.4
v 0.7 6.4 -2.4
v 0.8 6.4 -2.4
v 2 6.4 -2.4
v 2.1 6.4 -2.4
v 0.3 6.4 -2.5
v 0.4 6.4 -2.5
v 2 6.4 -2.5
v 2.1 6.4 -2.5
v 0.6 6.4 -2.6
v 0.7 6.4 -2.6
v 0.6 6.4 -2.7
v 0.7 6.4 -2.7
v 1.5 6.4 -2.7
v 1.6 6.4 -2.7
v 0.5 6.4 -2.8
v 0.6 6.4 -2.8
v 0.7 6.4 -2.8
v 1.5 6.4 -2.8
v 1.6 6.4 -2.8
v 0 6.4 -2.9
v 0.5 6.4 -2.9
v 0.7 6.4 -2.9
v 2.4 6.4 -2.9
v 0.3 6.5 -0.6
v 0.4 6.5 -0.6
v 0.3 6.5 -0.7
v 0.4 6.5 -0.7
v 0.7 6.5 -1
v 0.8 6.5 -1
v 0.7 6.5 -1.1
v 0.8 6.5 -1.1
v 2 6.5 -1.7
v 2.1 6.5 -1.7
v 2 6.5 -1.8
v 2.1 6.5 -1.8
v 0.6 6.5 -2.6
v 0.7 6.5 -2.6
v 0.6 6.5 -2.7
v 0.7 6.5 -2.7
v 0.6 6.5 -2.8
v 0.7 6.5 -2.8
v 0.6 6.5 -2.9
v 0.7 6.5 -2.9
v 0.4 6.6 -0.8
v 0.5 6.6 -0.8
v 0.2 6.6 -0.9
v 0.3 6.6 -0.9
v 0.4 6.6 -0.9
v 0.5 6.6 -0.9
v 0.2 6.6 -1
v 0.3 6.6 -1
v 2.2 6.6 -1
v 2.3 6.6 -1
v 2.1 6.6 -1.1
v 2.2 6.6 -1.1
v 2.3 6.6 -1.1
v 2.1 6.6 -1.2
v 2.2 6.6 -1.2
v 1.9 6.6 -2
v 2 6.6 -2
v 1.9 6.6 -2.1
v 2 6.6 -2.1
v 0.7 6.6 -2.3
v 0.8 6.6 -2.3
v 0.3 6.6 -2.4
v 0.4 6.6 -2.4
v 0.7 6.6 -2.4
v 0.8 6.6 -2.4
v 2 6.6 -2.4
v 2.1 6.6 -2.4
v 0.3 6.6 -2.5
v 0.4 6.6 -2.5
v 2 6.6 -2.5
v 2.1 6.6 -2.5
v 1.5 6.6 -2.7
v 1.6 6.6 -2.7
v 0.5 6.6 -2.8
v 0.6 6.6 -2.8
v 1.5 6.6 -2.8
v 1.6 6.6 -2.8
v 0.5 6.6 -2.9
v 0.6 6.6 -2.9

# faces
f 3/1/1 2/1/1 1/1/1
f 4/1/1 2/1/1 3/1/1
f 5/3/1 4/3/1 3/3/1
f 6/3/1 4/3/1 5/3/1
f 9/6/1 8/6/1 7/6/1
f 10/6/1 8/6/1 9/6/1
f 15/6/1 12/6/1 11/6/1
f 16/6/1 12/6/1 15/6/1
f 17/5/1 14/5/1 13/5/1
f 18/5/1 14/5/1 17/5/1
f 21/6/1 20/6/1 19/6/1
f 22/6/1 20/6/1 21/6/1
f 25/4/1 24/4/1 23/4/1
f 26/4/1 24/4/1 25/4/1
f 29/6/1 28/6/1 27/6/1
f 30/6/1 28/6/1 29/6/1
f 35/5/1 32/5/1 31/5/1
f 36/5/1 32/5/1 35/5/1
f 37/4/1 34/4/1 33/4/1
f 38/4/1 34/4/1 37/4/1
f 41/5/1 40/5/1 39/5/1
f 42/5/1 40/5/1 41/5/1
f 45/5/1 44/5/1 43/5/1
f 46/5/1 44/5/1 45/5/1
f 51/6/1 48/6/1 47/6/1
f 52/6/1 48/6/1 51/6/1
f 53/6/1 50/6/1 49/6/1
f 54/6/1 50/6/1 53/6/1
f 57/5/1 56/5/1 55/5/1
f 58/5/1 56/5/1 57/5/1
f 61/2/1 60/2/1 59/2/1
f 62/2/1 60/2/1 61/2/1
f 63/6/2 64/6/2 65/6/2
f 65/6/2 64/6/2 66/6/2
f 67/6/2 68/6/2 71/6/2
f 71/6/2 68/6/2 72/6/2
f 69/5/2 70/5/2 73/5/2
f 73/5/2 70/5/2 74/5/2
f 75/6/2 76/6/2 77/6/2
f 77/6/2 76/6/2 78/6/2
f 79/4/2 80/4/2 81/4/2
f 81/4/2 80/4/2 82/4/2
f 83/6/2 84/6/2 87/6/2
f 87/6/2 84/6/2 88/6/2
f 85/6/2 86/6/2 89/6/2
f 89/6/2 86/6/2 90/6/2
f 91/5/2 92/5/2 95/5/2
f 95/5/2 92/5/2 96/5/2
f 93/4/2 94/4/2 97/4/2
f 97/4/2 94/4/2 98/4/2
f 99/5/2 100/5/2 101/5/2
f 101/5/2 100/5/2 102/5/2
f 103/5/2 104/5/2 105/5/2
f 105/5/2 104/5/2 106/5/2
f 107/6/2 108/6/2 111/6/2
f 111/6/2 108/6/2 112/6/2
f 109/6/2 110/6/2 113/6/2
f 113/6/2 110/6/2 114/6/2
f 115/5/2 116/5/2 117/5/2
f 117/5/2 116/5/2 118/5/2
f 119/2/2 120/2/2 121/2/2
f 121/2/2 120/2/2 122/2/2
f 123/1/2 124/1/2 125/1/2
f 125/1/2 124/1/2 126/1/2
f 125/3/2 126/3/2 127/3/2
f 127/3/2 126/3/2 128/3/2
f 132/1/3 130/1/3 129/1/3
f 133/3/3 131/3/3 130/3/3
f 133/1/3 130/1/3 132/1/3
f 134/3/3 131/3/3 133/3/3
f 137/6/3 136/6/3 135/6/3
f 138/6/3 136/6/3 137/6/3
f 141/6/3 140/6/3 139/6/3
f 142/6/3 140/6/3 141/6/3
f 145/6/3 144/6/3 143/6/3
f 146/6/3 144/6/3 145/6/3
f 149/5/3 148/5/3 147/5/3
f 150/5/3 148/5/3 149/5/3
f 153/2/3 152/2/3 151/2/3
f 154/2/3 152/2/3 153/2/3
f 157/5/3 156/5/3 155/5/3
f 158/5/3 156/5/3 157/5/3
f 161/6/3 160/6/3 159/6/3
f 162/6/3 160/6/3 161/6/3
f 165/5/3 164/5/3 163/5/3
f 166/5/3 164/5/3 165/5/3
f 169/4/3 168/4/3 167/4/3
f 170/4/3 168/4/3 169/4/3
f 173/5/3 172/5/3 171/5/3
f 174/5/3 172/5/3 173/5/3
f 177/6/3 176/6/3 175/6/3
f 178/6/3 176/6/3 177/6/3
f 181/6/3 180/6/3 179/6/3
f 182/6/3 180/6/3 181/6/3
f 185/5/3 184/5/3 183/5/3
f 186/5/3 184/5/3 185/5/3
f 189/4/3 188/4/3 187/4/3
f 190/4/3 188/4/3 189/4/3
f 191/4/3 188/4/3 190/4/3
f 192/6/3 190/6/3 189/6/3
f 193/6/3 190/6/3 192/6/3
f 194/6/4 195/6/4 196/6/4
f 196/6/4 195/6/4 197/6/4
f 198/6/4 199/6/4 200/6/4
f 200/6/4 199/6/4 201/6/4
f 202/6/4 203/6/4 204/6/4
f 204/6/4 203/6/4 205/6/4
f 206/5/4 207/5/4 208/5/4
f 208/5/4 207/5/4 209/5/4
f 210/2/4 211/2/4 212/2/4
f 212/2/4 211/2/4 213/2/4
f 214/5/4 215/5/4 216/5/4
f 216/5/4 215/5/4 217/5/4
f 218/6/4 219/6/4 220/6/4
f 220/6/4 219/6/4 221/6/4
f 222/5/4 223/5/4 224/5/4
f 224/5/4 223/5/4 225/5/4
f 226/4/4 227/4/4 228/4/4
f 228/4/4 227/4/4 229/4/4
f 230/5/4 231/5/4 232/5/4
f 232/5/4 231/5/4 233/5/4
f 234/6/4 235/6/4 236/6/4
f 236/6/4 235/6/4 237/6/4
f 238/6/4 239/6/4 240/6/4
f 240/6/4 239/6/4 241/6/4
f 242/5/4 243/5/4 244/5/4
f 244/5/4 243/5/4 245/5/4
f 247/3/4 248/3/4 249/3/4
f 247/3/4 249/3/4 251/3/4
f 249/4/4 250/4/4 251/4/4
f 251/4/4 250/4/4 252/4/4
f 252/4/4 250/4/4 253/4/4
f 247/3/4 251/3/4 254/3/4
f 251/6/4 252/6/4 254/6/4
f 254/6/4 252/6/4 255/6/4
f 246/1/4 247/1/4 256/1/4
f 247/3/4 254/3/4 257/3/4
f 256/1/4 247/1/4 257/1/4
f 257/3/4 254/3/4 258/3/4
f 261/1/5 260/1/5 259/1/5
f 262/1/5 260/1/5 261/1/5
f 263/3/6 264/3/6 265/3/6
f 265/3/6 264/3/6 266/3/6
f 263/3/6 265/3/6 267/3/6
f 266/3/6 264/3/6 268/3/6
f 268/3/6 264/3/6 269/3/6
f 267/3/6 268/3/6 269/3/6
f 269/3/6 264/3/6 270/3/6
f 263/3/6 267/3/6 271/3/6
f 267/3/6 269/3/6 271/3/6
f 271/3/6 269/3/6 272/3/6
f 272/3/6 269/3/6 273/3/6
f 270/3/6 264/3/6 274/3/6
f 274/3/6 264/3/6 275/3/6
f 275/3/6 264/3/6 276/3/6
f 263/3/6 271/3/6 277/3/6
f 272/3/6 273/3/6 278/3/6
f 273/3/6 274/3/6 278/3/6
f 274/3/6 275/3/6 278/3/6
f 275/4/6 276/4/6 279/4/6
f 278/3/6 275/3/6 279/3/6
f 276/3/6 264/3/6 280/3/6
f 279/4/6 276/4/6 280/4/6
f 280/3/6 264/3/6 281/3/6
f 281/3/6 264/3/6 282/3/6
f 278/3/6 279/3/6 283/3/6
f 277/3/6 278/3/6 283/3/6
f 283/3/6 279/3/6 284/3/6
f 280/3/6 281/3/6 285/3/6
f 285/3/6 281/3/6 286/3/6
f 286/3/6 281/3/6 287/3/6
f 282/3/6 264/3/6 288/3/6
f 283/4/6 284/4/6 289/4/6
f 277/3/6 283/3/6 289/3/6
f 284/3/6 285/3/6 290/3/6
f 289/4/6 284/4/6 290/4/6
f 285/3/6 286/3/6 290/3/6
f 290/3/6 286/3/6 291/3/6
f 287/3/6 288/3/6 292/3/6
f 290/3/6 291/3/6 293/3/6
f 291/3/6 292/3/6 293/3/6
f 289/3/6 290/3/6 293/3/6
f 293/3/6 292/3/6 294/3/6
f 289/3/6 293/3/6 295/3/6
f 294/3/6 292/3/6 296/3/6
f 289/3/6 295/3/6 297/3/6
f 295/3/6 296/3/6 297/3/6
f 297/3/6 296/3/6 298/3/6
f 289/3/6 297/3/6 299/3/6
f 298/3/6 296/3/6 300/3/6
f 289/3/6 299/3/6 301/3/6
f 299/3/6 300/3/6 301/3/6
f 301/3/6 300/3/6 302/3/6
f 277/3/6 289/3/6 303/3/6
f 289/3/6 301/3/6 303/3/6
f 303/3/6 301/3/6 304/3/6
f 304/3/6 301/3/6 305/3/6
f 302/3/6 300/3/6 306/3/6
f 300/3/6 296/3/6 307/3/6
f 306/3/6 300/3/6 307/3/6
f 296/3/6 292/3/6 308/3/6
f 307/3/6 296/3/6 308/3/6
f 277/3/6 303/3/6 309/3/6
f 304/3/6 305/3/6 310/3/6
f 306/3/6 307/3/6 310/3/6
f 305/3/6 306/3/6 310/3/6
f 310/3/6 307/3/6 311/3/6
f 308/3/6 292/3/6 312/3/6
f 310/3/6 311/3/6 313/3/6
f 311/3/6 312/3/6 313/3/6
f 309/3/6 310/3/6 313/3/6
f 313/3/6 312/3/6 314/3/6
f 309/3/6 313/3/6 315/3/6
f 314/3/6 312/3/6 316/3/6
f 316/3/6 312/3/6 317/3/6
f 317/3/6 312/3/6 318/3/6
f 309/3/6 315/3/6 319/3/6
f 315/3/6 316/3/6 319/3/6
f 316/3/6 317/3/6 319/3/6
f 319/3/6 317/3/6 320/3/6
f 320/3/6 317/3/6 321/3/6
f 321/3/6 317/3/6 322/3/6
f 318/3/6 312/3/6 323/3/6
f 263/3/6 277/3/6 324/3/6
f 277/3/6 309/3/6 324/3/6
f 309/3/6 319/3/6 324/3/6
f 324/3/6 319/3/6 325/3/6
f 322/3/6 323/3/6 326/3/6
f 321/3/6 322/3/6 326/3/6
f 292/3/6 288/3/6 327/3/6
f 326/3/6 323/3/6 327/3/6
f 288/3/6 264/3/6 327/3/6
f 323/3/6 312/3/6 327/3/6
f 312/3/6 292/3/6 327/3/6
f 328/6/6 329/6/6 330/6/6
f 330/6/6 329/6/6 331/6/6
f 332/5/6 333/5/6 334/5/6
f 334/5/6 333/5/6 335/5/6
f 336/6/6 337/6/6 338/6/6
f 338/6/6 337/6/6 339/6/6
f 340/6/6 341/6/6 342/6/6
f 342/6/6 341/6/6 343/6/6
f 344/6/6 345/6/6 346/6/6
f 346/6/6 345/6/6 347/6/6
f 348/6/6 349/6/6 352/6/6
f 352/6/6 349/6/6 353/6/6
f 350/6/6 351/6/6 354/6/6
f 354/6/6 351/6/6 355/6/6
f 356/2/6 357/2/6 359/2/6
f 359/2/6 357/2/6 360/2/6
f 358/5/6 359/5/6 361/5/6
f 361/5/6 359/5/6 362/5/6
f 363/5/6 364/5/6 365/5/6
f 365/5/6 364/5/6 366/5/6
f 367/4/6 368/4/6 371/4/6
f 371/4/6 368/4/6 372/4/6
f 369/5/6 370/5/6 375/5/6
f 375/5/6 370/5/6 376/5/6
f 373/6/6 374/6/6 377/6/6
f 377/6/6 374/6/6 378/6/6
f 379/5/6 380/5/6 383/5/6
f 383/5/6 380/5/6 384/5/6
f 381/4/6 382/4/6 385/4/6
f 385/4/6 382/4/6 386/4/6
