# MagicaVoxel @ Ephtracy

# group
o 

# material
mtllib haute herbes 1-5.mtl
usemtl palette

# normals
vn -1 0 0
vn 1 0 0
vn 0 0 1
vn 0 0 -1
vn 0 -1 0
vn 0 1 0

# texcoords
vt 0.537109 0.5
vt 0.654297 0.5
vt 0.677734 0.5
vt 0.904297 0.5
vt 0.908203 0.5
vt 0.912109 0.5

# verts
v 0 2 -0.5
v 0 2 -2.9
v 0 6.2 -0.5
v 0 6.2 -2.9
v 0 6.4 -0.5
v 0 6.4 -2.2
v 0 6.4 -2.3
v 0 6.4 -2.4
v 0 6.4 -2.9
v 0 6.5 -2.2
v 0 6.5 -2.3
v 0 6.6 -2.3
v 0 6.6 -2.4
v 0.1 6.4 -1.3
v 0.1 6.4 -1.4
v 0.1 6.6 -1.3
v 0.1 6.6 -1.4
v 0.2 6.4 -2.2
v 0.2 6.4 -2.3
v 0.2 6.5 -2.2
v 0.2 6.5 -2.3
v 0.4 6.4 -0.8
v 0.4 6.4 -0.9
v 0.4 6.4 -2.5
v 0.4 6.4 -2.6
v 0.4 6.6 -0.8
v 0.4 6.6 -0.9
v 0.4 6.6 -2.5
v 0.4 6.6 -2.6
v 0.5 6.4 -2.1
v 0.5 6.4 -2.2
v 0.5 6.6 -2.1
v 0.5 6.6 -2.2
v 0.8 6.4 -0.9
v 0.8 6.4 -1
v 0.8 6.6 -0.9
v 0.8 6.6 -1
v 1.1 6.4 -0.8
v 1.1 6.4 -0.9
v 1.1 6.5 -0.8
v 1.1 6.5 -0.9
v 1.7 6.4 -0.7
v 1.7 6.4 -0.8
v 1.7 6.6 -0.7
v 1.7 6.6 -0.8
v 1.8 6.4 -0.6
v 1.8 6.4 -0.7
v 1.8 6.4 -2.1
v 1.8 6.4 -2.2
v 1.8 6.5 -2.1
v 1.8 6.5 -2.2
v 1.8 6.6 -0.6
v 1.8 6.6 -0.7
v 1.9 6.4 -2.6
v 1.9 6.4 -2.7
v 1.9 6.6 -2.6
v 1.9 6.6 -2.7
v 2 6.4 -2.4
v 2 6.4 -2.5
v 2 6.6 -2.4
v 2 6.6 -2.5
v 2.2 6.4 -2.5
v 2.2 6.4 -2.6
v 2.2 6.5 -2.5
v 2.2 6.5 -2.6
v 0.1 6.4 -2.2
v 0.1 6.4 -2.3
v 0.1 6.4 -2.4
v 0.1 6.5 -2.2
v 0.1 6.5 -2.3
v 0.1 6.6 -2.3
v 0.1 6.6 -2.4
v 0.2 6.4 -1.3
v 0.2 6.4 -1.4
v 0.2 6.6 -1.3
v 0.2 6.6 -1.4
v 0.3 6.4 -2.2
v 0.3 6.4 -2.3
v 0.3 6.5 -2.2
v 0.3 6.5 -2.3
v 0.5 6.4 -0.8
v 0.5 6.4 -0.9
v 0.5 6.4 -2.5
v 0.5 6.4 -2.6
v 0.5 6.6 -0.8
v 0.5 6.6 -0.9
v 0.5 6.6 -2.5
v 0.5 6.6 -2.6
v 0.6 6.4 -2.1
v 0.6 6.4 -2.2
v 0.6 6.6 -2.1
v 0.6 6.6 -2.2
v 0.9 6.4 -0.9
v 0.9 6.4 -1
v 0.9 6.6 -0.9
v 0.9 6.6 -1
v 1.2 6.4 -0.8
v 1.2 6.4 -0.9
v 1.2 6.5 -0.8
v 1.2 6.5 -0.9
v 1.8 6.4 -0.7
v 1.8 6.4 -0.8
v 1.8 6.6 -0.7
v 1.8 6.6 -0.8
v 1.9 6.4 -0.6
v 1.9 6.4 -0.7
v 1.9 6.4 -2.1
v 1.9 6.4 -2.2
v 1.9 6.5 -2.1
v 1.9 6.5 -2.2
v 1.9 6.6 -0.6
v 1.9 6.6 -0.7
v 2 6.4 -2.6
v 2 6.4 -2.7
v 2 6.6 -2.6
v 2 6.6 -2.7
v 2.1 6.4 -2.4
v 2.1 6.4 -2.5
v 2.1 6.6 -2.4
v 2.1 6.6 -2.5
v 2.3 6.4 -2.5
v 2.3 6.4 -2.6
v 2.3 6.5 -2.5
v 2.3 6.5 -2.6
v 2.4 2 -0.5
v 2.4 2 -2.9
v 2.4 6.2 -0.5
v 2.4 6.2 -2.9
v 2.4 6.4 -0.5
v 2.4 6.4 -2.9
v 0 2 -0.5
v 0 6.2 -0.5
v 0 6.4 -0.5
v 2.4 2 -0.5
v 2.4 6.2 -0.5
v 2.4 6.4 -0.5
v 1.8 6.4 -0.6
v 1.8 6.6 -0.6
v 1.9 6.4 -0.6
v 1.9 6.6 -0.6
v 1.7 6.4 -0.7
v 1.7 6.6 -0.7
v 1.8 6.4 -0.7
v 1.8 6.6 -0.7
v 0.4 6.4 -0.8
v 0.4 6.6 -0.8
v 0.5 6.4 -0.8
v 0.5 6.6 -0.8
v 1.1 6.4 -0.8
v 1.1 6.5 -0.8
v 1.2 6.4 -0.8
v 1.2 6.5 -0.8
v 0.8 6.4 -0.9
v 0.8 6.6 -0.9
v 0.9 6.4 -0.9
v 0.9 6.6 -0.9
v 0.1 6.4 -1.3
v 0.1 6.6 -1.3
v 0.2 6.4 -1.3
v 0.2 6.6 -1.3
v 0.5 6.4 -2.1
v 0.5 6.6 -2.1
v 0.6 6.4 -2.1
v 0.6 6.6 -2.1
v 1.8 6.4 -2.1
v 1.8 6.5 -2.1
v 1.9 6.4 -2.1
v 1.9 6.5 -2.1
v 0 6.4 -2.2
v 0 6.5 -2.2
v 0.1 6.4 -2.2
v 0.1 6.5 -2.2
v 0.2 6.4 -2.2
v 0.2 6.5 -2.2
v 0.3 6.4 -2.2
v 0.3 6.5 -2.2
v 0 6.5 -2.3
v 0 6.6 -2.3
v 0.1 6.5 -2.3
v 0.1 6.6 -2.3
v 2 6.4 -2.4
v 2 6.6 -2.4
v 2.1 6.4 -2.4
v 2.1 6.6 -2.4
v 0.4 6.4 -2.5
v 0.4 6.6 -2.5
v 0.5 6.4 -2.5
v 0.5 6.6 -2.5
v 2.2 6.4 -2.5
v 2.2 6.5 -2.5
v 2.3 6.4 -2.5
v 2.3 6.5 -2.5
v 1.9 6.4 -2.6
v 1.9 6.6 -2.6
v 2 6.4 -2.6
v 2 6.6 -2.6
v 1.8 6.4 -0.7
v 1.8 6.6 -0.7
v 1.9 6.4 -0.7
v 1.9 6.6 -0.7
v 1.7 6.4 -0.8
v 1.7 6.6 -0.8
v 1.8 6.4 -0.8
v 1.8 6.6 -0.8
v 0.4 6.4 -0.9
v 0.4 6.6 -0.9
v 0.5 6.4 -0.9
v 0.5 6.6 -0.9
v 1.1 6.4 -0.9
v 1.1 6.5 -0.9
v 1.2 6.4 -0.9
v 1.2 6.5 -0.9
v 0.8 6.4 -1
v 0.8 6.6 -1
v 0.9 6.4 -1
v 0.9 6.6 -1
v 0.1 6.4 -1.4
v 0.1 6.6 -1.4
v 0.2 6.4 -1.4
v 0.2 6.6 -1.4
v 0.5 6.4 -2.2
v 0.5 6.6 -2.2
v 0.6 6.4 -2.2
v 0.6 6.6 -2.2
v 1.8 6.4 -2.2
v 1.8 6.5 -2.2
v 1.9 6.4 -2.2
v 1.9 6.5 -2.2
v 0.2 6.4 -2.3
v 0.2 6.5 -2.3
v 0.3 6.4 -2.3
v 0.3 6.5 -2.3
v 0 6.4 -2.4
v 0 6.6 -2.4
v 0.1 6.4 -2.4
v 0.1 6.6 -2.4
v 2 6.4 -2.5
v 2 6.6 -2.5
v 2.1 6.4 -2.5
v 2.1 6.6 -2.5
v 0.4 6.4 -2.6
v 0.4 6.6 -2.6
v 0.5 6.4 -2.6
v 0.5 6.6 -2.6
v 2.2 6.4 -2.6
v 2.2 6.5 -2.6
v 2.3 6.4 -2.6
v 2.3 6.5 -2.6
v 1.9 6.4 -2.7
v 1.9 6.6 -2.7
v 2 6.4 -2.7
v 2 6.6 -2.7
v 0 2 -2.9
v 0 6.2 -2.9
v 0 6.4 -2.9
v 2.4 2 -2.9
v 2.4 6.2 -2.9
v 2.4 6.4 -2.9
v 0 2 -0.5
v 2.4 2 -0.5
v 0 2 -2.9
v 2.4 2 -2.9
v 0 6.4 -0.5
v 2.4 6.4 -0.5
v 1.8 6.4 -0.6
v 1.9 6.4 -0.6
v 1.7 6.4 -0.7
v 1.8 6.4 -0.7
v 1.9 6.4 -0.7
v 0.4 6.4 -0.8
v 0.5 6.4 -0.8
v 1.1 6.4 -0.8
v 1.2 6.4 -0.8
v 1.7 6.4 -0.8
v 1.8 6.4 -0.8
v 0.4 6.4 -0.9
v 0.5 6.4 -0.9
v 0.8 6.4 -0.9
v 0.9 6.4 -0.9
v 1.1 6.4 -0.9
v 1.2 6.4 -0.9
v 0.8 6.4 -1
v 0.9 6.4 -1
v 0.1 6.4 -1.3
v 0.2 6.4 -1.3
v 0.1 6.4 -1.4
v 0.2 6.4 -1.4
v 0.5 6.4 -2.1
v 0.6 6.4 -2.1
v 1.8 6.4 -2.1
v 1.9 6.4 -2.1
v 2 6.4 -2.1
v 0 6.4 -2.2
v 0.1 6.4 -2.2
v 0.2 6.4 -2.2
v 0.3 6.4 -2.2
v 0.5 6.4 -2.2
v 0.6 6.4 -2.2
v 1.7 6.4 -2.2
v 1.8 6.4 -2.2
v 1.9 6.4 -2.2
v 2 6.4 -2.2
v 0.1 6.4 -2.3
v 0.2 6.4 -2.3
v 0.3 6.4 -2.3
v 1.7 6.4 -2.3
v 1.8 6.4 -2.3
v 0 6.4 -2.4
v 0.1 6.4 -2.4
v 2 6.4 -2.4
v 2.1 6.4 -2.4
v 0.4 6.4 -2.5
v 0.5 6.4 -2.5
v 2 6.4 -2.5
v 2.1 6.4 -2.5
v 2.2 6.4 -2.5
v 2.3 6.4 -2.5
v 0.4 6.4 -2.6
v 0.5 6.4 -2.6
v 1.9 6.4 -2.6
v 2 6.4 -2.6
v 2.2 6.4 -2.6
v 2.3 6.4 -2.6
v 1.9 6.4 -2.7
v 2 6.4 -2.7
v 0 6.4 -2.9
v 2.4 6.4 -2.9
v 1.1 6.5 -0.8
v 1.2 6.5 -0.8
v 1.1 6.5 -0.9
v 1.2 6.5 -0.9
v 1.8 6.5 -2.1
v 1.9 6.5 -2.1
v 0 6.5 -2.2
v 0.1 6.5 -2.2
v 0.2 6.5 -2.2
v 0.3 6.5 -2.2
v 1.8 6.5 -2.2
v 1.9 6.5 -2.2
v 0 6.5 -2.3
v 0.1 6.5 -2.3
v 0.2 6.5 -2.3
v 0.3 6.5 -2.3
v 2.2 6.5 -2.5
v 2.3 6.5 -2.5
v 2.2 6.5 -2.6
v 2.3 6.5 -2.6
v 1.8 6.6 -0.6
v 1.9 6.6 -0.6
v 1.7 6.6 -0.7
v 1.8 6.6 -0.7
v 1.9 6.6 -0.7
v 0.4 6.6 -0.8
v 0.5 6.6 -0.8
v 1.7 6.6 -0.8
v 1.8 6.6 -0.8
v 0.4 6.6 -0.9
v 0.5 6.6 -0.9
v 0.8 6.6 -0.9
v 0.9 6.6 -0.9
v 0.8 6.6 -1
v 0.9 6.6 -1
v 0.1 6.6 -1.3
v 0.2 6.6 -1.3
v 0.1 6.6 -1.4
v 0.2 6.6 -1.4
v 0.5 6.6 -2.1
v 0.6 6.6 -2.1
v 0.5 6.6 -2.2
v 0.6 6.6 -2.2
v 0 6.6 -2.3
v 0.1 6.6 -2.3
v 0 6.6 -2.4
v 0.1 6.6 -2.4
v 2 6.6 -2.4
v 2.1 6.6 -2.4
v 0.4 6.6 -2.5
v 0.5 6.6 -2.5
v 2 6.6 -2.5
v 2.1 6.6 -2.5
v 0.4 6.6 -2.6
v 0.5 6.6 -2.6
v 1.9 6.6 -2.6
v 2 6.6 -2.6
v 1.9 6.6 -2.7
v 2 6.6 -2.7

# faces
f 3/1/1 2/1/1 1/1/1
f 4/1/1 2/1/1 3/1/1
f 5/3/1 4/3/1 3/3/1
f 6/3/1 4/3/1 5/3/1
f 7/3/1 4/3/1 6/3/1
f 8/3/1 4/3/1 7/3/1
f 9/3/1 4/3/1 8/3/1
f 10/6/1 7/6/1 6/6/1
f 11/4/1 8/4/1 7/4/1
f 11/6/1 7/6/1 10/6/1
f 12/4/1 8/4/1 11/4/1
f 13/4/1 8/4/1 12/4/1
f 16/5/1 15/5/1 14/5/1
f 17/5/1 15/5/1 16/5/1
f 20/6/1 19/6/1 18/6/1
f 21/6/1 19/6/1 20/6/1
f 26/6/1 23/6/1 22/6/1
f 27/6/1 23/6/1 26/6/1
f 28/5/1 25/5/1 24/5/1
f 29/5/1 25/5/1 28/5/1
f 32/4/1 31/4/1 30/4/1
f 33/4/1 31/4/1 32/4/1
f 36/5/1 35/5/1 34/5/1
f 37/5/1 35/5/1 36/5/1
f 40/6/1 39/6/1 38/6/1
f 41/6/1 39/6/1 40/6/1
f 44/5/1 43/5/1 42/5/1
f 45/5/1 43/5/1 44/5/1
f 50/5/1 49/5/1 48/5/1
f 51/5/1 49/5/1 50/5/1
f 52/2/1 47/2/1 46/2/1
f 53/2/1 47/2/1 52/2/1
f 56/6/1 55/6/1 54/6/1
f 57/6/1 55/6/1 56/6/1
f 60/6/1 59/6/1 58/6/1
f 61/6/1 59/6/1 60/6/1
f 64/6/1 63/6/1 62/6/1
f 65/6/1 63/6/1 64/6/1
f 66/6/2 67/6/2 69/6/2
f 67/4/2 68/4/2 70/4/2
f 69/6/2 67/6/2 70/6/2
f 70/4/2 68/4/2 71/4/2
f 71/4/2 68/4/2 72/4/2
f 73/5/2 74/5/2 75/5/2
f 75/5/2 74/5/2 76/5/2
f 77/6/2 78/6/2 79/6/2
f 79/6/2 78/6/2 80/6/2
f 81/6/2 82/6/2 85/6/2
f 85/6/2 82/6/2 86/6/2
f 83/5/2 84/5/2 87/5/2
f 87/5/2 84/5/2 88/5/2
f 89/4/2 90/4/2 91/4/2
f 91/4/2 90/4/2 92/4/2
f 93/5/2 94/5/2 95/5/2
f 95/5/2 94/5/2 96/5/2
f 97/6/2 98/6/2 99/6/2
f 99/6/2 98/6/2 100/6/2
f 101/5/2 102/5/2 103/5/2
f 103/5/2 102/5/2 104/5/2
f 107/5/2 108/5/2 109/5/2
f 109/5/2 108/5/2 110/5/2
f 105/2/2 106/2/2 111/2/2
f 111/2/2 106/2/2 112/2/2
f 113/6/2 114/6/2 115/6/2
f 115/6/2 114/6/2 116/6/2
f 117/6/2 118/6/2 119/6/2
f 119/6/2 118/6/2 120/6/2
f 121/6/2 122/6/2 123/6/2
f 123/6/2 122/6/2 124/6/2
f 125/1/2 126/1/2 127/1/2
f 127/1/2 126/1/2 128/1/2
f 127/3/2 128/3/2 129/3/2
f 129/3/2 128/3/2 130/3/2
f 134/1/3 132/1/3 131/1/3
f 135/3/3 133/3/3 132/3/3
f 135/1/3 132/1/3 134/1/3
f 136/3/3 133/3/3 135/3/3
f 139/2/3 138/2/3 137/2/3
f 140/2/3 138/2/3 139/2/3
f 143/5/3 142/5/3 141/5/3
f 144/5/3 142/5/3 143/5/3
f 147/6/3 146/6/3 145/6/3
f 148/6/3 146/6/3 147/6/3
f 151/6/3 150/6/3 149/6/3
f 152/6/3 150/6/3 151/6/3
f 155/5/3 154/5/3 153/5/3
f 156/5/3 154/5/3 155/5/3
f 159/5/3 158/5/3 157/5/3
f 160/5/3 158/5/3 159/5/3
f 163/4/3 162/4/3 161/4/3
f 164/4/3 162/4/3 163/4/3
f 167/5/3 166/5/3 165/5/3
f 168/5/3 166/5/3 167/5/3
f 171/6/3 170/6/3 169/6/3
f 172/6/3 170/6/3 171/6/3
f 175/6/3 174/6/3 173/6/3
f 176/6/3 174/6/3 175/6/3
f 179/4/3 178/4/3 177/4/3
f 180/4/3 178/4/3 179/4/3
f 183/6/3 182/6/3 181/6/3
f 184/6/3 182/6/3 183/6/3
f 187/5/3 186/5/3 185/5/3
f 188/5/3 186/5/3 187/5/3
f 191/6/3 190/6/3 189/6/3
f 192/6/3 190/6/3 191/6/3
f 195/6/3 194/6/3 193/6/3
f 196/6/3 194/6/3 195/6/3
f 197/2/4 198/2/4 199/2/4
f 199/2/4 198/2/4 200/2/4
f 201/5/4 202/5/4 203/5/4
f 203/5/4 202/5/4 204/5/4
f 205/6/4 206/6/4 207/6/4
f 207/6/4 206/6/4 208/6/4
f 209/6/4 210/6/4 211/6/4
f 211/6/4 210/6/4 212/6/4
f 213/5/4 214/5/4 215/5/4
f 215/5/4 214/5/4 216/5/4
f 217/5/4 218/5/4 219/5/4
f 219/5/4 218/5/4 220/5/4
f 221/4/4 222/4/4 223/4/4
f 223/4/4 222/4/4 224/4/4
f 225/5/4 226/5/4 227/5/4
f 227/5/4 226/5/4 228/5/4
f 229/6/4 230/6/4 231/6/4
f 231/6/4 230/6/4 232/6/4
f 233/4/4 234/4/4 235/4/4
f 235/4/4 234/4/4 236/4/4
f 237/6/4 238/6/4 239/6/4
f 239/6/4 238/6/4 240/6/4
f 241/5/4 242/5/4 243/5/4
f 243/5/4 242/5/4 244/5/4
f 245/6/4 246/6/4 247/6/4
f 247/6/4 246/6/4 248/6/4
f 249/6/4 250/6/4 251/6/4
f 251/6/4 250/6/4 252/6/4
f 253/1/4 254/1/4 256/1/4
f 254/3/4 255/3/4 257/3/4
f 256/1/4 254/1/4 257/1/4
f 257/3/4 255/3/4 258/3/4
f 261/1/5 260/1/5 259/1/5
f 262/1/5 260/1/5 261/1/5
f 263/3/6 264/3/6 265/3/6
f 265/3/6 264/3/6 266/3/6
f 263/3/6 265/3/6 267/3/6
f 267/3/6 265/3/6 268/3/6
f 266/3/6 264/3/6 269/3/6
f 263/3/6 267/3/6 270/3/6
f 270/3/6 267/3/6 271/3/6
f 271/3/6 267/3/6 272/3/6
f 272/3/6 267/3/6 273/3/6
f 273/3/6 267/3/6 274/3/6
f 268/3/6 269/3/6 275/3/6
f 263/3/6 270/3/6 276/3/6
f 271/3/6 272/3/6 277/3/6
f 277/3/6 272/3/6 278/3/6
f 278/3/6 272/3/6 279/3/6
f 279/3/6 272/3/6 280/3/6
f 273/3/6 274/3/6 281/3/6
f 274/3/6 275/3/6 281/3/6
f 276/3/6 277/3/6 282/3/6
f 277/3/6 278/3/6 282/3/6
f 279/3/6 280/3/6 283/3/6
f 280/3/6 281/3/6 283/3/6
f 276/3/6 282/3/6 284/3/6
f 282/3/6 283/3/6 284/3/6
f 263/3/6 276/3/6 284/3/6
f 284/3/6 283/3/6 285/3/6
f 263/3/6 284/3/6 286/3/6
f 285/3/6 283/3/6 287/3/6
f 287/3/6 283/3/6 288/3/6
f 286/3/6 287/3/6 288/3/6
f 288/3/6 283/3/6 289/3/6
f 283/3/6 281/3/6 290/3/6
f 289/3/6 283/3/6 290/3/6
f 275/3/6 269/3/6 290/3/6
f 281/3/6 275/3/6 290/3/6
f 269/3/6 264/3/6 291/3/6
f 290/3/6 269/3/6 291/3/6
f 291/3/6 264/3/6 292/3/6
f 286/3/6 288/3/6 293/3/6
f 263/3/6 286/3/6 293/3/6
f 293/3/6 288/3/6 294/3/6
f 294/3/6 288/3/6 295/3/6
f 295/3/6 288/3/6 296/3/6
f 296/3/6 288/3/6 297/3/6
f 289/3/6 290/3/6 298/3/6
f 298/3/6 290/3/6 299/3/6
f 299/3/6 290/3/6 300/3/6
f 291/4/6 292/4/6 301/4/6
f 292/3/6 264/3/6 302/3/6
f 301/4/6 292/4/6 302/4/6
f 294/3/6 295/3/6 303/3/6
f 303/3/6 295/3/6 304/3/6
f 296/3/6 297/3/6 305/3/6
f 297/3/6 298/3/6 305/3/6
f 298/3/6 299/3/6 305/3/6
f 299/4/6 300/4/6 306/4/6
f 305/3/6 299/3/6 306/3/6
f 300/3/6 301/3/6 307/3/6
f 306/4/6 300/4/6 307/4/6
f 301/3/6 302/3/6 307/3/6
f 305/3/6 306/3/6 309/3/6
f 303/3/6 304/3/6 309/3/6
f 306/3/6 307/3/6 309/3/6
f 304/3/6 305/3/6 309/3/6
f 307/3/6 302/3/6 310/3/6
f 302/3/6 264/3/6 310/3/6
f 309/3/6 307/3/6 310/3/6
f 310/3/6 264/3/6 311/3/6
f 308/3/6 309/3/6 312/3/6
f 309/3/6 310/3/6 312/3/6
f 312/3/6 310/3/6 313/3/6
f 313/3/6 310/3/6 314/3/6
f 311/3/6 264/3/6 315/3/6
f 315/3/6 264/3/6 316/3/6
f 316/3/6 264/3/6 317/3/6
f 308/3/6 312/3/6 318/3/6
f 313/3/6 314/3/6 319/3/6
f 315/3/6 316/3/6 319/3/6
f 314/3/6 315/3/6 319/3/6
f 319/3/6 316/3/6 320/3/6
f 320/3/6 316/3/6 321/3/6
f 321/3/6 316/3/6 322/3/6
f 317/3/6 264/3/6 323/3/6
f 318/3/6 319/3/6 324/3/6
f 319/3/6 320/3/6 324/3/6
f 321/3/6 322/3/6 325/3/6
f 322/3/6 323/3/6 325/3/6
f 308/3/6 318/3/6 326/3/6
f 324/3/6 325/3/6 326/3/6
f 318/3/6 324/3/6 326/3/6
f 325/3/6 323/3/6 327/3/6
f 326/3/6 325/3/6 327/3/6
f 323/3/6 264/3/6 327/3/6
f 328/6/6 329/6/6 330/6/6
f 330/6/6 329/6/6 331/6/6
f 332/5/6 333/5/6 338/5/6
f 338/5/6 333/5/6 339/5/6
f 334/6/6 335/6/6 340/6/6
f 340/6/6 335/6/6 341/6/6
f 336/6/6 337/6/6 342/6/6
f 342/6/6 337/6/6 343/6/6
f 344/6/6 345/6/6 346/6/6
f 346/6/6 345/6/6 347/6/6
f 348/2/6 349/2/6 351/2/6
f 351/2/6 349/2/6 352/2/6
f 350/5/6 351/5/6 355/5/6
f 355/5/6 351/5/6 356/5/6
f 353/6/6 354/6/6 357/6/6
f 357/6/6 354/6/6 358/6/6
f 359/5/6 360/5/6 361/5/6
f 361/5/6 360/5/6 362/5/6
f 363/5/6 364/5/6 365/5/6
f 365/5/6 364/5/6 366/5/6
f 367/4/6 368/4/6 369/4/6
f 369/4/6 368/4/6 370/4/6
f 371/4/6 372/4/6 373/4/6
f 373/4/6 372/4/6 374/4/6
f 375/6/6 376/6/6 379/6/6
f 379/6/6 376/6/6 380/6/6
f 377/5/6 378/5/6 381/5/6
f 381/5/6 378/5/6 382/5/6
f 383/6/6 384/6/6 385/6/6
f 385/6/6 384/6/6 386/6/6
