# MagicaVoxel @ Ephtracy

# group
o 

# material
mtllib haute herbes 1-7.mtl
usemtl palette

# normals
vn -1 0 0
vn 1 0 0
vn 0 0 1
vn 0 0 -1
vn 0 -1 0
vn 0 1 0

# texcoords
vt 0.537109 0.5
vt 0.654297 0.5
vt 0.677734 0.5
vt 0.904297 0.5
vt 0.908203 0.5
vt 0.912109 0.5

# verts
v 0 2 -0.5
v 0 2 -2.9
v 0 6.2 -0.5
v 0 6.2 -2.9
v 0 6.4 -0.5
v 0 6.4 -2.9
v 0.1 6.4 -0.8
v 0.1 6.4 -0.9
v 0.1 6.5 -0.8
v 0.1 6.5 -0.9
v 0.3 6.4 -0.9
v 0.3 6.4 -1
v 0.3 6.6 -0.9
v 0.3 6.6 -1
v 0.4 6.4 -0.7
v 0.4 6.4 -0.8
v 0.4 6.6 -0.7
v 0.4 6.6 -0.8
v 0.5 6.4 -1.2
v 0.5 6.4 -1.3
v 0.5 6.4 -2.7
v 0.5 6.4 -2.8
v 0.5 6.5 -1.2
v 0.5 6.5 -1.3
v 0.5 6.6 -2.7
v 0.5 6.6 -2.8
v 0.6 6.4 -2.6
v 0.6 6.4 -2.7
v 0.6 6.6 -2.6
v 0.6 6.6 -2.7
v 1.2 6.4 -2.5
v 1.2 6.4 -2.6
v 1.2 6.5 -2.5
v 1.2 6.5 -2.6
v 1.5 6.4 -2.4
v 1.5 6.4 -2.5
v 1.5 6.6 -2.4
v 1.5 6.6 -2.5
v 1.8 6.4 -1.2
v 1.8 6.4 -1.3
v 1.8 6.6 -1.2
v 1.8 6.6 -1.3
v 1.9 6.4 -0.8
v 1.9 6.4 -0.9
v 1.9 6.4 -2.5
v 1.9 6.4 -2.6
v 1.9 6.6 -0.8
v 1.9 6.6 -0.9
v 1.9 6.6 -2.5
v 1.9 6.6 -2.6
v 2.1 6.4 -1.1
v 2.1 6.4 -1.2
v 2.1 6.5 -1.1
v 2.1 6.5 -1.2
v 2.2 6.4 -2
v 2.2 6.4 -2.1
v 2.2 6.6 -2
v 2.2 6.6 -2.1
v 2.3 6.4 -1
v 2.3 6.4 -1.1
v 2.3 6.4 -1.2
v 2.3 6.5 -1.1
v 2.3 6.5 -1.2
v 2.3 6.6 -1
v 2.3 6.6 -1.1
v 0.2 6.4 -0.8
v 0.2 6.4 -0.9
v 0.2 6.5 -0.8
v 0.2 6.5 -0.9
v 0.4 6.4 -0.9
v 0.4 6.4 -1
v 0.4 6.6 -0.9
v 0.4 6.6 -1
v 0.5 6.4 -0.7
v 0.5 6.4 -0.8
v 0.5 6.6 -0.7
v 0.5 6.6 -0.8
v 0.6 6.4 -1.2
v 0.6 6.4 -1.3
v 0.6 6.4 -2.7
v 0.6 6.4 -2.8
v 0.6 6.5 -1.2
v 0.6 6.5 -1.3
v 0.6 6.6 -2.7
v 0.6 6.6 -2.8
v 0.7 6.4 -2.6
v 0.7 6.4 -2.7
v 0.7 6.6 -2.6
v 0.7 6.6 -2.7
v 1.3 6.4 -2.5
v 1.3 6.4 -2.6
v 1.3 6.5 -2.5
v 1.3 6.5 -2.6
v 1.6 6.4 -2.4
v 1.6 6.4 -2.5
v 1.6 6.6 -2.4
v 1.6 6.6 -2.5
v 1.9 6.4 -1.2
v 1.9 6.4 -1.3
v 1.9 6.6 -1.2
v 1.9 6.6 -1.3
v 2 6.4 -0.8
v 2 6.4 -0.9
v 2 6.4 -2.5
v 2 6.4 -2.6
v 2 6.6 -0.8
v 2 6.6 -0.9
v 2 6.6 -2.5
v 2 6.6 -2.6
v 2.2 6.4 -1.1
v 2.2 6.4 -1.2
v 2.2 6.5 -1.1
v 2.2 6.5 -1.2
v 2.3 6.4 -2
v 2.3 6.4 -2.1
v 2.3 6.6 -2
v 2.3 6.6 -2.1
v 2.4 2 -0.5
v 2.4 2 -2.9
v 2.4 6.2 -0.5
v 2.4 6.2 -2.9
v 2.4 6.4 -0.5
v 2.4 6.4 -1
v 2.4 6.4 -1.1
v 2.4 6.4 -1.2
v 2.4 6.4 -2.9
v 2.4 6.5 -1.1
v 2.4 6.5 -1.2
v 2.4 6.6 -1
v 2.4 6.6 -1.1
v 0 2 -0.5
v 0 6.2 -0.5
v 0 6.4 -0.5
v 2.4 2 -0.5
v 2.4 6.2 -0.5
v 2.4 6.4 -0.5
v 0.4 6.4 -0.7
v 0.4 6.6 -0.7
v 0.5 6.4 -0.7
v 0.5 6.6 -0.7
v 0.1 6.4 -0.8
v 0.1 6.5 -0.8
v 0.2 6.4 -0.8
v 0.2 6.5 -0.8
v 1.9 6.4 -0.8
v 1.9 6.6 -0.8
v 2 6.4 -0.8
v 2 6.6 -0.8
v 0.3 6.4 -0.9
v 0.3 6.6 -0.9
v 0.4 6.4 -0.9
v 0.4 6.6 -0.9
v 2.3 6.4 -1
v 2.3 6.6 -1
v 2.4 6.4 -1
v 2.4 6.6 -1
v 2.1 6.4 -1.1
v 2.1 6.5 -1.1
v 2.2 6.4 -1.1
v 2.2 6.5 -1.1
v 0.5 6.4 -1.2
v 0.5 6.5 -1.2
v 0.6 6.4 -1.2
v 0.6 6.5 -1.2
v 1.8 6.4 -1.2
v 1.8 6.6 -1.2
v 1.9 6.4 -1.2
v 1.9 6.6 -1.2
v 2.2 6.4 -2
v 2.2 6.6 -2
v 2.3 6.4 -2
v 2.3 6.6 -2
v 1.5 6.4 -2.4
v 1.5 6.6 -2.4
v 1.6 6.4 -2.4
v 1.6 6.6 -2.4
v 1.2 6.4 -2.5
v 1.2 6.5 -2.5
v 1.3 6.4 -2.5
v 1.3 6.5 -2.5
v 1.9 6.4 -2.5
v 1.9 6.6 -2.5
v 2 6.4 -2.5
v 2 6.6 -2.5
v 0.6 6.4 -2.6
v 0.6 6.6 -2.6
v 0.7 6.4 -2.6
v 0.7 6.6 -2.6
v 0.5 6.4 -2.7
v 0.5 6.6 -2.7
v 0.6 6.4 -2.7
v 0.6 6.6 -2.7
v 0.4 6.4 -0.8
v 0.4 6.6 -0.8
v 0.5 6.4 -0.8
v 0.5 6.6 -0.8
v 0.1 6.4 -0.9
v 0.1 6.5 -0.9
v 0.2 6.4 -0.9
v 0.2 6.5 -0.9
v 1.9 6.4 -0.9
v 1.9 6.6 -0.9
v 2 6.4 -0.9
v 2 6.6 -0.9
v 0.3 6.4 -1
v 0.3 6.6 -1
v 0.4 6.4 -1
v 0.4 6.6 -1
v 2.3 6.5 -1.1
v 2.3 6.6 -1.1
v 2.4 6.5 -1.1
v 2.4 6.6 -1.1
v 2.1 6.4 -1.2
v 2.1 6.5 -1.2
v 2.2 6.4 -1.2
v 2.2 6.5 -1.2
v 2.3 6.4 -1.2
v 2.3 6.5 -1.2
v 2.4 6.4 -1.2
v 2.4 6.5 -1.2
v 0.5 6.4 -1.3
v 0.5 6.5 -1.3
v 0.6 6.4 -1.3
v 0.6 6.5 -1.3
v 1.8 6.4 -1.3
v 1.8 6.6 -1.3
v 1.9 6.4 -1.3
v 1.9 6.6 -1.3
v 2.2 6.4 -2.1
v 2.2 6.6 -2.1
v 2.3 6.4 -2.1
v 2.3 6.6 -2.1
v 1.5 6.4 -2.5
v 1.5 6.6 -2.5
v 1.6 6.4 -2.5
v 1.6 6.6 -2.5
v 1.2 6.4 -2.6
v 1.2 6.5 -2.6
v 1.3 6.4 -2.6
v 1.3 6.5 -2.6
v 1.9 6.4 -2.6
v 1.9 6.6 -2.6
v 2 6.4 -2.6
v 2 6.6 -2.6
v 0.6 6.4 -2.7
v 0.6 6.6 -2.7
v 0.7 6.4 -2.7
v 0.7 6.6 -2.7
v 0.5 6.4 -2.8
v 0.5 6.6 -2.8
v 0.6 6.4 -2.8
v 0.6 6.6 -2.8
v 0 2 -2.9
v 0 6.2 -2.9
v 0 6.4 -2.9
v 2.4 2 -2.9
v 2.4 6.2 -2.9
v 2.4 6.4 -2.9
v 0 2 -0.5
v 2.4 2 -0.5
v 0 2 -2.9
v 2.4 2 -2.9
v 0 6.4 -0.5
v 2.4 6.4 -0.5
v 0.4 6.4 -0.7
v 0.5 6.4 -0.7
v 0.1 6.4 -0.8
v 0.2 6.4 -0.8
v 0.4 6.4 -0.8
v 0.5 6.4 -0.8
v 1.9 6.4 -0.8
v 2 6.4 -0.8
v 0.1 6.4 -0.9
v 0.2 6.4 -0.9
v 0.3 6.4 -0.9
v 0.4 6.4 -0.9
v 1.9 6.4 -0.9
v 2 6.4 -0.9
v 0.3 6.4 -1
v 0.4 6.4 -1
v 2.3 6.4 -1
v 2.4 6.4 -1
v 0.6 6.4 -1.1
v 0.7 6.4 -1.1
v 2.1 6.4 -1.1
v 2.2 6.4 -1.1
v 2.3 6.4 -1.1
v 0.4 6.4 -1.2
v 0.5 6.4 -1.2
v 0.6 6.4 -1.2
v 0.7 6.4 -1.2
v 1.8 6.4 -1.2
v 1.9 6.4 -1.2
v 2.1 6.4 -1.2
v 2.2 6.4 -1.2
v 2.3 6.4 -1.2
v 2.4 6.4 -1.2
v 0.4 6.4 -1.3
v 0.5 6.4 -1.3
v 0.6 6.4 -1.3
v 1.8 6.4 -1.3
v 1.9 6.4 -1.3
v 2.2 6.4 -2
v 2.3 6.4 -2
v 2.2 6.4 -2.1
v 2.3 6.4 -2.1
v 1.5 6.4 -2.4
v 1.6 6.4 -2.4
v 1.2 6.4 -2.5
v 1.3 6.4 -2.5
v 1.5 6.4 -2.5
v 1.6 6.4 -2.5
v 1.9 6.4 -2.5
v 2 6.4 -2.5
v 0.6 6.4 -2.6
v 0.7 6.4 -2.6
v 1.2 6.4 -2.6
v 1.3 6.4 -2.6
v 1.9 6.4 -2.6
v 2 6.4 -2.6
v 0.5 6.4 -2.7
v 0.6 6.4 -2.7
v 0.7 6.4 -2.7
v 0.5 6.4 -2.8
v 0.6 6.4 -2.8
v 0 6.4 -2.9
v 2.4 6.4 -2.9
v 0.1 6.5 -0.8
v 0.2 6.5 -0.8
v 0.1 6.5 -0.9
v 0.2 6.5 -0.9
v 2.1 6.5 -1.1
v 2.2 6.5 -1.1
v 2.3 6.5 -1.1
v 2.4 6.5 -1.1
v 0.5 6.5 -1.2
v 0.6 6.5 -1.2
v 2.1 6.5 -1.2
v 2.2 6.5 -1.2
v 2.3 6.5 -1.2
v 2.4 6.5 -1.2
v 0.5 6.5 -1.3
v 0.6 6.5 -1.3
v 1.2 6.5 -2.5
v 1.3 6.5 -2.5
v 1.2 6.5 -2.6
v 1.3 6.5 -2.6
v 0.4 6.6 -0.7
v 0.5 6.6 -0.7
v 0.4 6.6 -0.8
v 0.5 6.6 -0.8
v 1.9 6.6 -0.8
v 2 6.6 -0.8
v 0.3 6.6 -0.9
v 0.4 6.6 -0.9
v 1.9 6.6 -0.9
v 2 6.6 -0.9
v 0.3 6.6 -1
v 0.4 6.6 -1
v 2.3 6.6 -1
v 2.4 6.6 -1
v 2.3 6.6 -1.1
v 2.4 6.6 -1.1
v 1.8 6.6 -1.2
v 1.9 6.6 -1.2
v 1.8 6.6 -1.3
v 1.9 6.6 -1.3
v 2.2 6.6 -2
v 2.3 6.6 -2
v 2.2 6.6 -2.1
v 2.3 6.6 -2.1
v 1.5 6.6 -2.4
v 1.6 6.6 -2.4
v 1.5 6.6 -2.5
v 1.6 6.6 -2.5
v 1.9 6.6 -2.5
v 2 6.6 -2.5
v 0.6 6.6 -2.6
v 0.7 6.6 -2.6
v 1.9 6.6 -2.6
v 2 6.6 -2.6
v 0.5 6.6 -2.7
v 0.6 6.6 -2.7
v 0.7 6.6 -2.7
v 0.5 6.6 -2.8
v 0.6 6.6 -2.8

# faces
f 3/1/1 2/1/1 1/1/1
f 4/1/1 2/1/1 3/1/1
f 5/3/1 4/3/1 3/3/1
f 6/3/1 4/3/1 5/3/1
f 9/6/1 8/6/1 7/6/1
f 10/6/1 8/6/1 9/6/1
f 13/6/1 12/6/1 11/6/1
f 14/6/1 12/6/1 13/6/1
f 17/6/1 16/6/1 15/6/1
f 18/6/1 16/6/1 17/6/1
f 23/5/1 20/5/1 19/5/1
f 24/5/1 20/5/1 23/5/1
f 25/2/1 22/2/1 21/2/1
f 26/2/1 22/2/1 25/2/1
f 29/5/1 28/5/1 27/5/1
f 30/5/1 28/5/1 29/5/1
f 33/6/1 32/6/1 31/6/1
f 34/6/1 32/6/1 33/6/1
f 37/5/1 36/5/1 35/5/1
f 38/5/1 36/5/1 37/5/1
f 41/4/1 40/4/1 39/4/1
f 42/4/1 40/4/1 41/4/1
f 47/5/1 44/5/1 43/5/1
f 48/5/1 44/5/1 47/5/1
f 49/6/1 46/6/1 45/6/1
f 50/6/1 46/6/1 49/6/1
f 53/6/1 52/6/1 51/6/1
f 54/6/1 52/6/1 53/6/1
f 57/5/1 56/5/1 55/5/1
f 58/5/1 56/5/1 57/5/1
f 62/4/1 60/4/1 59/4/1
f 62/6/1 61/6/1 60/6/1
f 63/6/1 61/6/1 62/6/1
f 64/4/1 62/4/1 59/4/1
f 65/4/1 62/4/1 64/4/1
f 66/6/2 67/6/2 68/6/2
f 68/6/2 67/6/2 69/6/2
f 70/6/2 71/6/2 72/6/2
f 72/6/2 71/6/2 73/6/2
f 74/6/2 75/6/2 76/6/2
f 76/6/2 75/6/2 77/6/2
f 78/5/2 79/5/2 82/5/2
f 82/5/2 79/5/2 83/5/2
f 80/2/2 81/2/2 84/2/2
f 84/2/2 81/2/2 85/2/2
f 86/5/2 87/5/2 88/5/2
f 88/5/2 87/5/2 89/5/2
f 90/6/2 91/6/2 92/6/2
f 92/6/2 91/6/2 93/6/2
f 94/5/2 95/5/2 96/5/2
f 96/5/2 95/5/2 97/5/2
f 98/4/2 99/4/2 100/4/2
f 100/4/2 99/4/2 101/4/2
f 102/5/2 103/5/2 106/5/2
f 106/5/2 103/5/2 107/5/2
f 104/6/2 105/6/2 108/6/2
f 108/6/2 105/6/2 109/6/2
f 110/6/2 111/6/2 112/6/2
f 112/6/2 111/6/2 113/6/2
f 114/5/2 115/5/2 116/5/2
f 116/5/2 115/5/2 117/5/2
f 118/1/2 119/1/2 120/1/2
f 120/1/2 119/1/2 121/1/2
f 120/3/2 121/3/2 122/3/2
f 122/3/2 121/3/2 123/3/2
f 123/3/2 121/3/2 124/3/2
f 124/3/2 121/3/2 125/3/2
f 125/3/2 121/3/2 126/3/2
f 123/4/2 124/4/2 127/4/2
f 124/6/2 125/6/2 127/6/2
f 127/6/2 125/6/2 128/6/2
f 123/4/2 127/4/2 129/4/2
f 129/4/2 127/4/2 130/4/2
f 134/1/3 132/1/3 131/1/3
f 135/3/3 133/3/3 132/3/3
f 135/1/3 132/1/3 134/1/3
f 136/3/3 133/3/3 135/3/3
f 139/6/3 138/6/3 137/6/3
f 140/6/3 138/6/3 139/6/3
f 143/6/3 142/6/3 141/6/3
f 144/6/3 142/6/3 143/6/3
f 147/5/3 146/5/3 145/5/3
f 148/5/3 146/5/3 147/5/3
f 151/6/3 150/6/3 149/6/3
f 152/6/3 150/6/3 151/6/3
f 155/4/3 154/4/3 153/4/3
f 156/4/3 154/4/3 155/4/3
f 159/6/3 158/6/3 157/6/3
f 160/6/3 158/6/3 159/6/3
f 163/5/3 162/5/3 161/5/3
f 164/5/3 162/5/3 163/5/3
f 167/4/3 166/4/3 165/4/3
f 168/4/3 166/4/3 167/4/3
f 171/5/3 170/5/3 169/5/3
f 172/5/3 170/5/3 171/5/3
f 175/5/3 174/5/3 173/5/3
f 176/5/3 174/5/3 175/5/3
f 179/6/3 178/6/3 177/6/3
f 180/6/3 178/6/3 179/6/3
f 183/6/3 182/6/3 181/6/3
f 184/6/3 182/6/3 183/6/3
f 187/5/3 186/5/3 185/5/3
f 188/5/3 186/5/3 187/5/3
f 191/2/3 190/2/3 189/2/3
f 192/2/3 190/2/3 191/2/3
f 193/6/4 194/6/4 195/6/4
f 195/6/4 194/6/4 196/6/4
f 197/6/4 198/6/4 199/6/4
f 199/6/4 198/6/4 200/6/4
f 201/5/4 202/5/4 203/5/4
f 203/5/4 202/5/4 204/5/4
f 205/6/4 206/6/4 207/6/4
f 207/6/4 206/6/4 208/6/4
f 209/4/4 210/4/4 211/4/4
f 211/4/4 210/4/4 212/4/4
f 213/6/4 214/6/4 215/6/4
f 215/6/4 214/6/4 216/6/4
f 217/6/4 218/6/4 219/6/4
f 219/6/4 218/6/4 220/6/4
f 221/5/4 222/5/4 223/5/4
f 223/5/4 222/5/4 224/5/4
f 225/4/4 226/4/4 227/4/4
f 227/4/4 226/4/4 228/4/4
f 229/5/4 230/5/4 231/5/4
f 231/5/4 230/5/4 232/5/4
f 233/5/4 234/5/4 235/5/4
f 235/5/4 234/5/4 236/5/4
f 237/6/4 238/6/4 239/6/4
f 239/6/4 238/6/4 240/6/4
f 241/6/4 242/6/4 243/6/4
f 243/6/4 242/6/4 244/6/4
f 245/5/4 246/5/4 247/5/4
f 247/5/4 246/5/4 248/5/4
f 249/2/4 250/2/4 251/2/4
f 251/2/4 250/2/4 252/2/4
f 253/1/4 254/1/4 256/1/4
f 254/3/4 255/3/4 257/3/4
f 256/1/4 254/1/4 257/1/4
f 257/3/4 255/3/4 258/3/4
f 261/1/5 260/1/5 259/1/5
f 262/1/5 260/1/5 261/1/5
f 263/3/6 264/3/6 265/3/6
f 265/3/6 264/3/6 266/3/6
f 263/3/6 265/3/6 267/3/6
f 267/3/6 265/3/6 268/3/6
f 268/3/6 265/3/6 269/3/6
f 266/3/6 264/3/6 270/3/6
f 270/3/6 264/3/6 271/3/6
f 271/3/6 264/3/6 272/3/6
f 263/3/6 267/3/6 273/3/6
f 268/3/6 269/3/6 274/3/6
f 270/3/6 271/3/6 274/3/6
f 269/3/6 270/3/6 274/3/6
f 274/3/6 271/3/6 275/3/6
f 275/3/6 271/3/6 276/3/6
f 276/3/6 271/3/6 277/3/6
f 272/3/6 264/3/6 278/3/6
f 273/3/6 274/3/6 279/3/6
f 274/3/6 275/3/6 279/3/6
f 276/3/6 277/3/6 280/3/6
f 277/3/6 278/3/6 280/3/6
f 278/3/6 264/3/6 281/3/6
f 280/3/6 278/3/6 281/3/6
f 281/3/6 264/3/6 282/3/6
f 279/3/6 280/3/6 283/3/6
f 280/3/6 281/3/6 283/3/6
f 283/3/6 281/3/6 284/3/6
f 284/3/6 281/3/6 285/3/6
f 285/3/6 281/3/6 286/3/6
f 286/3/6 281/3/6 287/3/6
f 279/3/6 283/3/6 288/3/6
f 288/3/6 283/3/6 289/3/6
f 283/4/6 284/4/6 290/4/6
f 289/3/6 283/3/6 290/3/6
f 284/3/6 285/3/6 291/3/6
f 290/4/6 284/4/6 291/4/6
f 291/3/6 285/3/6 292/3/6
f 292/3/6 285/3/6 293/3/6
f 293/3/6 285/3/6 294/3/6
f 286/3/6 287/3/6 295/3/6
f 295/3/6 287/3/6 296/3/6
f 288/4/6 289/4/6 298/4/6
f 279/3/6 288/3/6 298/3/6
f 298/4/6 289/4/6 299/4/6
f 290/3/6 291/3/6 300/3/6
f 291/3/6 292/3/6 300/3/6
f 300/3/6 292/3/6 301/3/6
f 295/3/6 296/3/6 302/3/6
f 296/3/6 297/3/6 302/3/6
f 294/3/6 295/3/6 302/3/6
f 293/3/6 294/3/6 302/3/6
f 300/3/6 301/3/6 303/3/6
f 301/3/6 302/3/6 303/3/6
f 302/3/6 297/3/6 303/3/6
f 299/3/6 300/3/6 303/3/6
f 298/3/6 299/3/6 303/3/6
f 303/3/6 297/3/6 304/3/6
f 298/3/6 303/3/6 305/3/6
f 304/3/6 297/3/6 306/3/6
f 298/3/6 305/3/6 307/3/6
f 305/3/6 306/3/6 307/3/6
f 307/3/6 306/3/6 308/3/6
f 298/3/6 307/3/6 309/3/6
f 309/3/6 307/3/6 310/3/6
f 310/3/6 307/3/6 311/3/6
f 308/3/6 306/3/6 312/3/6
f 312/3/6 306/3/6 313/3/6
f 313/3/6 306/3/6 314/3/6
f 298/3/6 309/3/6 315/3/6
f 315/3/6 309/3/6 316/3/6
f 316/3/6 309/3/6 317/3/6
f 310/3/6 311/3/6 318/3/6
f 312/3/6 313/3/6 318/3/6
f 311/3/6 312/3/6 318/3/6
f 318/3/6 313/3/6 319/3/6
f 314/3/6 306/3/6 320/3/6
f 298/3/6 315/3/6 321/3/6
f 321/3/6 315/3/6 322/3/6
f 316/3/6 317/3/6 323/3/6
f 318/3/6 319/3/6 323/3/6
f 319/3/6 320/3/6 323/3/6
f 317/3/6 318/3/6 323/3/6
f 298/3/6 321/3/6 324/3/6
f 322/3/6 323/3/6 325/3/6
f 263/3/6 273/3/6 326/3/6
f 324/3/6 325/3/6 326/3/6
f 273/3/6 279/3/6 326/3/6
f 279/3/6 298/3/6 326/3/6
f 298/3/6 324/3/6 326/3/6
f 325/3/6 323/3/6 327/3/6
f 326/3/6 325/3/6 327/3/6
f 306/3/6 297/3/6 327/3/6
f 320/3/6 306/3/6 327/3/6
f 323/3/6 320/3/6 327/3/6
f 328/6/6 329/6/6 330/6/6
f 330/6/6 329/6/6 331/6/6
f 332/6/6 333/6/6 338/6/6
f 338/6/6 333/6/6 339/6/6
f 334/6/6 335/6/6 340/6/6
f 340/6/6 335/6/6 341/6/6
f 336/5/6 337/5/6 342/5/6
f 342/5/6 337/5/6 343/5/6
f 344/6/6 345/6/6 346/6/6
f 346/6/6 345/6/6 347/6/6
f 348/6/6 349/6/6 350/6/6
f 350/6/6 349/6/6 351/6/6
f 352/5/6 353/5/6 356/5/6
f 356/5/6 353/5/6 357/5/6
f 354/6/6 355/6/6 358/6/6
f 358/6/6 355/6/6 359/6/6
f 360/4/6 361/4/6 362/4/6
f 362/4/6 361/4/6 363/4/6
f 364/4/6 365/4/6 366/4/6
f 366/4/6 365/4/6 367/4/6
f 368/5/6 369/5/6 370/5/6
f 370/5/6 369/5/6 371/5/6
f 372/5/6 373/5/6 374/5/6
f 374/5/6 373/5/6 375/5/6
f 376/6/6 377/6/6 380/6/6
f 380/6/6 377/6/6 381/6/6
f 378/5/6 379/5/6 383/5/6
f 383/5/6 379/5/6 384/5/6
f 382/2/6 383/2/6 385/2/6
f 385/2/6 383/2/6 386/2/6
