# MagicaVoxel @ Ephtracy

# group
o 

# material
mtllib haute herbes 2-2.mtl
usemtl palette

# normals
vn -1 0 0
vn 1 0 0
vn 0 0 1
vn 0 0 -1
vn 0 -1 0
vn 0 1 0

# texcoords
vt 0.537109 0.5
vt 0.677734 0.5
vt 0.892578 0.5
vt 0.900391 0.5
vt 0.904297 0.5
vt 0.912109 0.5

# verts
v 0 2 -0.5
v 0 2 -2.9
v 0 6.2 -0.5
v 0 6.2 -2.9
v 0 6.4 -0.5
v 0 6.4 -0.8
v 0 6.4 -0.9
v 0 6.4 -1.5
v 0 6.4 -1.6
v 0 6.4 -2.6
v 0 6.4 -2.7
v 0 6.4 -2.9
v 0 6.5 -0.8
v 0 6.5 -0.9
v 0 6.5 -1.5
v 0 6.5 -1.6
v 0 6.6 -2.6
v 0 6.6 -2.7
v 0.1 6.4 -1.9
v 0.1 6.4 -2
v 0.1 6.4 -2.2
v 0.1 6.4 -2.3
v 0.1 6.5 -1.9
v 0.1 6.5 -2
v 0.1 6.5 -2.2
v 0.1 6.5 -2.3
v 0.2 6.4 -1.3
v 0.2 6.4 -1.4
v 0.2 6.4 -1.8
v 0.2 6.4 -1.9
v 0.2 6.5 -1.3
v 0.2 6.5 -1.4
v 0.2 6.5 -1.8
v 0.2 6.5 -1.9
v 0.3 6.4 -2.4
v 0.3 6.4 -2.5
v 0.3 6.4 -2.6
v 0.3 6.4 -2.7
v 0.3 6.6 -2.4
v 0.3 6.6 -2.5
v 0.3 6.6 -2.6
v 0.3 6.6 -2.7
v 0.4 6.4 -1.4
v 0.4 6.4 -1.5
v 0.4 6.6 -1.4
v 0.4 6.6 -1.5
v 0.5 6.4 -2.1
v 0.5 6.4 -2.2
v 0.5 6.4 -2.6
v 0.5 6.4 -2.7
v 0.5 6.5 -2.1
v 0.5 6.5 -2.2
v 0.5 6.5 -2.6
v 0.5 6.5 -2.7
v 0.6 6.4 -0.7
v 0.6 6.4 -0.8
v 0.6 6.6 -0.7
v 0.6 6.6 -0.8
v 1.5 6.4 -2.5
v 1.5 6.4 -2.6
v 1.5 6.4 -2.7
v 1.5 6.4 -2.8
v 1.5 6.5 -2.7
v 1.5 6.5 -2.8
v 1.5 6.6 -2.5
v 1.5 6.6 -2.6
v 1.8 6.4 -2.6
v 1.8 6.4 -2.7
v 1.8 6.6 -2.6
v 1.8 6.6 -2.7
v 1.9 6.4 -0.8
v 1.9 6.4 -0.9
v 1.9 6.5 -0.8
v 1.9 6.5 -0.9
v 2 6.4 -2.2
v 2 6.4 -2.3
v 2 6.6 -2.2
v 2 6.6 -2.3
v 2.1 6.4 -2.7
v 2.1 6.4 -2.8
v 2.1 6.7 -2.7
v 2.1 6.7 -2.8
v 0.1 6.4 -0.8
v 0.1 6.4 -0.9
v 0.1 6.4 -1.5
v 0.1 6.4 -1.6
v 0.1 6.4 -2.6
v 0.1 6.4 -2.7
v 0.1 6.5 -0.8
v 0.1 6.5 -0.9
v 0.1 6.5 -1.5
v 0.1 6.5 -1.6
v 0.1 6.6 -2.6
v 0.1 6.6 -2.7
v 0.2 6.4 -1.9
v 0.2 6.4 -2
v 0.2 6.4 -2.2
v 0.2 6.4 -2.3
v 0.2 6.5 -1.9
v 0.2 6.5 -2
v 0.2 6.5 -2.2
v 0.2 6.5 -2.3
v 0.3 6.4 -1.3
v 0.3 6.4 -1.4
v 0.3 6.4 -1.8
v 0.3 6.4 -1.9
v 0.3 6.5 -1.3
v 0.3 6.5 -1.4
v 0.3 6.5 -1.8
v 0.3 6.5 -1.9
v 0.4 6.4 -2.4
v 0.4 6.4 -2.5
v 0.4 6.4 -2.6
v 0.4 6.4 -2.7
v 0.4 6.6 -2.4
v 0.4 6.6 -2.5
v 0.4 6.6 -2.6
v 0.4 6.6 -2.7
v 0.5 6.4 -1.4
v 0.5 6.4 -1.5
v 0.5 6.6 -1.4
v 0.5 6.6 -1.5
v 0.6 6.4 -2.1
v 0.6 6.4 -2.2
v 0.6 6.4 -2.6
v 0.6 6.4 -2.7
v 0.6 6.5 -2.1
v 0.6 6.5 -2.2
v 0.6 6.5 -2.6
v 0.6 6.5 -2.7
v 0.7 6.4 -0.7
v 0.7 6.4 -0.8
v 0.7 6.6 -0.7
v 0.7 6.6 -0.8
v 1.6 6.4 -2.5
v 1.6 6.4 -2.6
v 1.6 6.4 -2.7
v 1.6 6.4 -2.8
v 1.6 6.5 -2.7
v 1.6 6.5 -2.8
v 1.6 6.6 -2.5
v 1.6 6.6 -2.6
v 1.9 6.5 -2.6
v 1.9 6.5 -2.7
v 1.9 6.6 -2.6
v 1.9 6.6 -2.7
v 2 6.4 -0.8
v 2 6.4 -0.9
v 2 6.4 -2.6
v 2 6.4 -2.7
v 2 6.5 -0.8
v 2 6.5 -0.9
v 2 6.5 -2.6
v 2 6.5 -2.7
v 2.1 6.4 -2.2
v 2.1 6.4 -2.3
v 2.1 6.6 -2.2
v 2.1 6.6 -2.3
v 2.2 6.4 -2.7
v 2.2 6.4 -2.8
v 2.2 6.7 -2.7
v 2.2 6.7 -2.8
v 2.4 2 -0.5
v 2.4 2 -2.9
v 2.4 6.2 -0.5
v 2.4 6.2 -2.9
v 2.4 6.4 -0.5
v 2.4 6.4 -2.9
v 0 2 -0.5
v 0 6.2 -0.5
v 0 6.4 -0.5
v 2.4 2 -0.5
v 2.4 6.2 -0.5
v 2.4 6.4 -0.5
v 0.6 6.4 -0.7
v 0.6 6.6 -0.7
v 0.7 6.4 -0.7
v 0.7 6.6 -0.7
v 0 6.4 -0.8
v 0 6.5 -0.8
v 0.1 6.4 -0.8
v 0.1 6.5 -0.8
v 1.9 6.4 -0.8
v 1.9 6.5 -0.8
v 2 6.4 -0.8
v 2 6.5 -0.8
v 0.2 6.4 -1.3
v 0.2 6.5 -1.3
v 0.3 6.4 -1.3
v 0.3 6.5 -1.3
v 0.4 6.4 -1.4
v 0.4 6.6 -1.4
v 0.5 6.4 -1.4
v 0.5 6.6 -1.4
v 0 6.4 -1.5
v 0 6.5 -1.5
v 0.1 6.4 -1.5
v 0.1 6.5 -1.5
v 0.2 6.4 -1.8
v 0.2 6.5 -1.8
v 0.3 6.4 -1.8
v 0.3 6.5 -1.8
v 0.1 6.4 -1.9
v 0.1 6.5 -1.9
v 0.2 6.4 -1.9
v 0.2 6.5 -1.9
v 0.5 6.4 -2.1
v 0.5 6.5 -2.1
v 0.6 6.4 -2.1
v 0.6 6.5 -2.1
v 0.1 6.4 -2.2
v 0.1 6.5 -2.2
v 0.2 6.4 -2.2
v 0.2 6.5 -2.2
v 2 6.4 -2.2
v 2 6.6 -2.2
v 2.1 6.4 -2.2
v 2.1 6.6 -2.2
v 0.3 6.4 -2.4
v 0.3 6.6 -2.4
v 0.4 6.4 -2.4
v 0.4 6.6 -2.4
v 1.5 6.4 -2.5
v 1.5 6.6 -2.5
v 1.6 6.4 -2.5
v 1.6 6.6 -2.5
v 0 6.4 -2.6
v 0 6.6 -2.6
v 0.1 6.4 -2.6
v 0.1 6.6 -2.6
v 0.3 6.4 -2.6
v 0.3 6.6 -2.6
v 0.4 6.4 -2.6
v 0.4 6.6 -2.6
v 0.5 6.4 -2.6
v 0.5 6.5 -2.6
v 0.6 6.4 -2.6
v 0.6 6.5 -2.6
v 1.8 6.4 -2.6
v 1.8 6.6 -2.6
v 1.9 6.5 -2.6
v 1.9 6.6 -2.6
v 2 6.4 -2.6
v 2 6.5 -2.6
v 1.5 6.4 -2.7
v 1.5 6.5 -2.7
v 1.6 6.4 -2.7
v 1.6 6.5 -2.7
v 2.1 6.4 -2.7
v 2.1 6.7 -2.7
v 2.2 6.4 -2.7
v 2.2 6.7 -2.7
v 0.6 6.4 -0.8
v 0.6 6.6 -0.8
v 0.7 6.4 -0.8
v 0.7 6.6 -0.8
v 0 6.4 -0.9
v 0 6.5 -0.9
v 0.1 6.4 -0.9
v 0.1 6.5 -0.9
v 1.9 6.4 -0.9
v 1.9 6.5 -0.9
v 2 6.4 -0.9
v 2 6.5 -0.9
v 0.2 6.4 -1.4
v 0.2 6.5 -1.4
v 0.3 6.4 -1.4
v 0.3 6.5 -1.4
v 0.4 6.4 -1.5
v 0.4 6.6 -1.5
v 0.5 6.4 -1.5
v 0.5 6.6 -1.5
v 0 6.4 -1.6
v 0 6.5 -1.6
v 0.1 6.4 -1.6
v 0.1 6.5 -1.6
v 0.2 6.4 -1.9
v 0.2 6.5 -1.9
v 0.3 6.4 -1.9
v 0.3 6.5 -1.9
v 0.1 6.4 -2
v 0.1 6.5 -2
v 0.2 6.4 -2
v 0.2 6.5 -2
v 0.5 6.4 -2.2
v 0.5 6.5 -2.2
v 0.6 6.4 -2.2
v 0.6 6.5 -2.2
v 0.1 6.4 -2.3
v 0.1 6.5 -2.3
v 0.2 6.4 -2.3
v 0.2 6.5 -2.3
v 2 6.4 -2.3
v 2 6.6 -2.3
v 2.1 6.4 -2.3
v 2.1 6.6 -2.3
v 0.3 6.4 -2.5
v 0.3 6.6 -2.5
v 0.4 6.4 -2.5
v 0.4 6.6 -2.5
v 1.5 6.4 -2.6
v 1.5 6.6 -2.6
v 1.6 6.4 -2.6
v 1.6 6.6 -2.6
v 0 6.4 -2.7
v 0 6.6 -2.7
v 0.1 6.4 -2.7
v 0.1 6.6 -2.7
v 0.3 6.4 -2.7
v 0.3 6.6 -2.7
v 0.4 6.4 -2.7
v 0.4 6.6 -2.7
v 0.5 6.4 -2.7
v 0.5 6.5 -2.7
v 0.6 6.4 -2.7
v 0.6 6.5 -2.7
v 1.8 6.4 -2.7
v 1.8 6.6 -2.7
v 1.9 6.5 -2.7
v 1.9 6.6 -2.7
v 2 6.4 -2.7
v 2 6.5 -2.7
v 1.5 6.4 -2.8
v 1.5 6.5 -2.8
v 1.6 6.4 -2.8
v 1.6 6.5 -2.8
v 2.1 6.4 -2.8
v 2.1 6.7 -2.8
v 2.2 6.4 -2.8
v 2.2 6.7 -2.8
v 0 2 -2.9
v 0 6.2 -2.9
v 0 6.4 -2.9
v 2.4 2 -2.9
v 2.4 6.2 -2.9
v 2.4 6.4 -2.9
v 0 2 -0.5
v 2.4 2 -0.5
v 0 2 -2.9
v 2.4 2 -2.9
v 0 6.4 -0.5
v 2.4 6.4 -0.5
v 0.6 6.4 -0.7
v 0.7 6.4 -0.7
v 0 6.4 -0.8
v 0.1 6.4 -0.8
v 0.6 6.4 -0.8
v 0.7 6.4 -0.8
v 1.9 6.4 -0.8
v 2 6.4 -0.8
v 0 6.4 -0.9
v 0.1 6.4 -0.9
v 1.9 6.4 -0.9
v 2 6.4 -0.9
v 0.2 6.4 -1.3
v 0.3 6.4 -1.3
v 0.2 6.4 -1.4
v 0.3 6.4 -1.4
v 0.4 6.4 -1.4
v 0.5 6.4 -1.4
v 0 6.4 -1.5
v 0.1 6.4 -1.5
v 0.4 6.4 -1.5
v 0.5 6.4 -1.5
v 0 6.4 -1.6
v 0.1 6.4 -1.6
v 0.2 6.4 -1.8
v 0.3 6.4 -1.8
v 0.1 6.4 -1.9
v 0.2 6.4 -1.9
v 0.3 6.4 -1.9
v 0.1 6.4 -2
v 0.2 6.4 -2
v 0.5 6.4 -2.1
v 0.6 6.4 -2.1
v 0.1 6.4 -2.2
v 0.2 6.4 -2.2
v 0.5 6.4 -2.2
v 0.6 6.4 -2.2
v 2 6.4 -2.2
v 2.1 6.4 -2.2
v 0.1 6.4 -2.3
v 0.2 6.4 -2.3
v 2 6.4 -2.3
v 2.1 6.4 -2.3
v 0.3 6.4 -2.4
v 0.4 6.4 -2.4
v 0.3 6.4 -2.5
v 0.4 6.4 -2.5
v 1.5 6.4 -2.5
v 1.6 6.4 -2.5
v 0 6.4 -2.6
v 0.1 6.4 -2.6
v 0.3 6.4 -2.6
v 0.4 6.4 -2.6
v 0.5 6.4 -2.6
v 0.6 6.4 -2.6
v 1.5 6.4 -2.6
v 1.6 6.4 -2.6
v 1.8 6.4 -2.6
v 2 6.4 -2.6
v 0 6.4 -2.7
v 0.1 6.4 -2.7
v 0.3 6.4 -2.7
v 0.4 6.4 -2.7
v 0.5 6.4 -2.7
v 0.6 6.4 -2.7
v 1.5 6.4 -2.7
v 1.6 6.4 -2.7
v 1.8 6.4 -2.7
v 2 6.4 -2.7
v 2.1 6.4 -2.7
v 2.2 6.4 -2.7
v 1.5 6.4 -2.8
v 1.6 6.4 -2.8
v 2.1 6.4 -2.8
v 2.2 6.4 -2.8
v 0 6.4 -2.9
v 2.4 6.4 -2.9
v 0 6.5 -0.8
v 0.1 6.5 -0.8
v 1.9 6.5 -0.8
v 2 6.5 -0.8
v 0 6.5 -0.9
v 0.1 6.5 -0.9
v 1.9 6.5 -0.9
v 2 6.5 -0.9
v 0.2 6.5 -1.3
v 0.3 6.5 -1.3
v 0.2 6.5 -1.4
v 0.3 6.5 -1.4
v 0 6.5 -1.5
v 0.1 6.5 -1.5
v 0 6.5 -1.6
v 0.1 6.5 -1.6
v 0.2 6.5 -1.8
v 0.3 6.5 -1.8
v 0.1 6.5 -1.9
v 0.2 6.5 -1.9
v 0.3 6.5 -1.9
v 0.1 6.5 -2
v 0.2 6.5 -2
v 0.5 6.5 -2.1
v 0.6 6.5 -2.1
v 0.1 6.5 -2.2
v 0.2 6.5 -2.2
v 0.5 6.5 -2.2
v 0.6 6.5 -2.2
v 0.1 6.5 -2.3
v 0.2 6.5 -2.3
v 0.5 6.5 -2.6
v 0.6 6.5 -2.6
v 1.9 6.5 -2.6
v 2 6.5 -2.6
v 0.5 6.5 -2.7
v 0.6 6.5 -2.7
v 1.5 6.5 -2.7
v 1.6 6.5 -2.7
v 1.9 6.5 -2.7
v 2 6.5 -2.7
v 1.5 6.5 -2.8
v 1.6 6.5 -2.8
v 0.6 6.6 -0.7
v 0.7 6.6 -0.7
v 0.6 6.6 -0.8
v 0.7 6.6 -0.8
v 0.4 6.6 -1.4
v 0.5 6.6 -1.4
v 0.4 6.6 -1.5
v 0.5 6.6 -1.5
v 2 6.6 -2.2
v 2.1 6.6 -2.2
v 2 6.6 -2.3
v 2.1 6.6 -2.3
v 0.3 6.6 -2.4
v 0.4 6.6 -2.4
v 0.3 6.6 -2.5
v 0.4 6.6 -2.5
v 1.5 6.6 -2.5
v 1.6 6.6 -2.5
v 0 6.6 -2.6
v 0.1 6.6 -2.6
v 0.3 6.6 -2.6
v 0.4 6.6 -2.6
v 1.5 6.6 -2.6
v 1.6 6.6 -2.6
v 1.8 6.6 -2.6
v 1.9 6.6 -2.6
v 0 6.6 -2.7
v 0.1 6.6 -2.7
v 0.3 6.6 -2.7
v 0.4 6.6 -2.7
v 1.8 6.6 -2.7
v 1.9 6.6 -2.7
v 2.1 6.7 -2.7
v 2.2 6.7 -2.7
v 2.1 6.7 -2.8
v 2.2 6.7 -2.8

# faces
f 3/1/1 2/1/1 1/1/1
f 4/1/1 2/1/1 3/1/1
f 5/2/1 4/2/1 3/2/1
f 6/2/1 4/2/1 5/2/1
f 7/2/1 4/2/1 6/2/1
f 8/2/1 4/2/1 7/2/1
f 9/2/1 4/2/1 8/2/1
f 10/2/1 4/2/1 9/2/1
f 11/2/1 4/2/1 10/2/1
f 12/2/1 4/2/1 11/2/1
f 13/5/1 7/5/1 6/5/1
f 14/5/1 7/5/1 13/5/1
f 15/3/1 9/3/1 8/3/1
f 16/3/1 9/3/1 15/3/1
f 17/4/1 11/4/1 10/4/1
f 18/4/1 11/4/1 17/4/1
f 23/3/1 20/3/1 19/3/1
f 24/3/1 20/3/1 23/3/1
f 25/4/1 22/4/1 21/4/1
f 26/4/1 22/4/1 25/4/1
f 31/6/1 28/6/1 27/6/1
f 32/6/1 28/6/1 31/6/1
f 33/3/1 30/3/1 29/3/1
f 34/3/1 30/3/1 33/3/1
f 39/3/1 36/3/1 35/3/1
f 40/3/1 36/3/1 39/3/1
f 41/5/1 38/5/1 37/5/1
f 42/5/1 38/5/1 41/5/1
f 45/5/1 44/5/1 43/5/1
f 46/5/1 44/5/1 45/5/1
f 51/5/1 48/5/1 47/5/1
f 52/5/1 48/5/1 51/5/1
f 53/3/1 50/3/1 49/3/1
f 54/3/1 50/3/1 53/3/1
f 57/3/1 56/3/1 55/3/1
f 58/3/1 56/3/1 57/3/1
f 63/5/1 62/5/1 61/5/1
f 64/5/1 62/5/1 63/5/1
f 65/5/1 60/5/1 59/5/1
f 66/5/1 60/5/1 65/5/1
f 69/4/1 68/4/1 67/4/1
f 70/4/1 68/4/1 69/4/1
f 73/5/1 72/5/1 71/5/1
f 74/5/1 72/5/1 73/5/1
f 77/6/1 76/6/1 75/6/1
f 78/6/1 76/6/1 77/6/1
f 81/5/1 80/5/1 79/5/1
f 82/5/1 80/5/1 81/5/1
f 83/5/2 84/5/2 89/5/2
f 89/5/2 84/5/2 90/5/2
f 85/3/2 86/3/2 91/3/2
f 91/3/2 86/3/2 92/3/2
f 87/4/2 88/4/2 93/4/2
f 93/4/2 88/4/2 94/4/2
f 95/3/2 96/3/2 99/3/2
f 99/3/2 96/3/2 100/3/2
f 97/4/2 98/4/2 101/4/2
f 101/4/2 98/4/2 102/4/2
f 103/6/2 104/6/2 107/6/2
f 107/6/2 104/6/2 108/6/2
f 105/3/2 106/3/2 109/3/2
f 109/3/2 106/3/2 110/3/2
f 111/3/2 112/3/2 115/3/2
f 115/3/2 112/3/2 116/3/2
f 113/5/2 114/5/2 117/5/2
f 117/5/2 114/5/2 118/5/2
f 119/5/2 120/5/2 121/5/2
f 121/5/2 120/5/2 122/5/2
f 123/5/2 124/5/2 127/5/2
f 127/5/2 124/5/2 128/5/2
f 125/3/2 126/3/2 129/3/2
f 129/3/2 126/3/2 130/3/2
f 131/3/2 132/3/2 133/3/2
f 133/3/2 132/3/2 134/3/2
f 137/5/2 138/5/2 139/5/2
f 139/5/2 138/5/2 140/5/2
f 135/5/2 136/5/2 141/5/2
f 141/5/2 136/5/2 142/5/2
f 143/4/2 144/4/2 145/4/2
f 145/4/2 144/4/2 146/4/2
f 147/5/2 148/5/2 151/5/2
f 151/5/2 148/5/2 152/5/2
f 149/4/2 150/4/2 153/4/2
f 153/4/2 150/4/2 154/4/2
f 155/6/2 156/6/2 157/6/2
f 157/6/2 156/6/2 158/6/2
f 159/5/2 160/5/2 161/5/2
f 161/5/2 160/5/2 162/5/2
f 163/1/2 164/1/2 165/1/2
f 165/1/2 164/1/2 166/1/2
f 165/2/2 166/2/2 167/2/2
f 167/2/2 166/2/2 168/2/2
f 172/1/3 170/1/3 169/1/3
f 173/2/3 171/2/3 170/2/3
f 173/1/3 170/1/3 172/1/3
f 174/2/3 171/2/3 173/2/3
f 177/3/3 176/3/3 175/3/3
f 178/3/3 176/3/3 177/3/3
f 181/5/3 180/5/3 179/5/3
f 182/5/3 180/5/3 181/5/3
f 185/5/3 184/5/3 183/5/3
f 186/5/3 184/5/3 185/5/3
f 189/6/3 188/6/3 187/6/3
f 190/6/3 188/6/3 189/6/3
f 193/5/3 192/5/3 191/5/3
f 194/5/3 192/5/3 193/5/3
f 197/3/3 196/3/3 195/3/3
f 198/3/3 196/3/3 197/3/3
f 201/3/3 200/3/3 199/3/3
f 202/3/3 200/3/3 201/3/3
f 205/3/3 204/3/3 203/3/3
f 206/3/3 204/3/3 205/3/3
f 209/5/3 208/5/3 207/5/3
f 210/5/3 208/5/3 209/5/3
f 213/4/3 212/4/3 211/4/3
f 214/4/3 212/4/3 213/4/3
f 217/6/3 216/6/3 215/6/3
f 218/6/3 216/6/3 217/6/3
f 221/3/3 220/3/3 219/3/3
f 222/3/3 220/3/3 221/3/3
f 225/5/3 224/5/3 223/5/3
f 226/5/3 224/5/3 225/5/3
f 229/4/3 228/4/3 227/4/3
f 230/4/3 228/4/3 229/4/3
f 233/5/3 232/5/3 231/5/3
f 234/5/3 232/5/3 233/5/3
f 237/3/3 236/3/3 235/3/3
f 238/3/3 236/3/3 237/3/3
f 241/4/3 240/4/3 239/4/3
f 242/4/3 240/4/3 241/4/3
f 243/4/3 241/4/3 239/4/3
f 244/4/3 241/4/3 243/4/3
f 247/5/3 246/5/3 245/5/3
f 248/5/3 246/5/3 247/5/3
f 251/5/3 250/5/3 249/5/3
f 252/5/3 250/5/3 251/5/3
f 253/3/4 254/3/4 255/3/4
f 255/3/4 254/3/4 256/3/4
f 257/5/4 258/5/4 259/5/4
f 259/5/4 258/5/4 260/5/4
f 261/5/4 262/5/4 263/5/4
f 263/5/4 262/5/4 264/5/4
f 265/6/4 266/6/4 267/6/4
f 267/6/4 266/6/4 268/6/4
f 269/5/4 270/5/4 271/5/4
f 271/5/4 270/5/4 272/5/4
f 273/3/4 274/3/4 275/3/4
f 275/3/4 274/3/4 276/3/4
f 277/3/4 278/3/4 279/3/4
f 279/3/4 278/3/4 280/3/4
f 281/3/4 282/3/4 283/3/4
f 283/3/4 282/3/4 284/3/4
f 285/5/4 286/5/4 287/5/4
f 287/5/4 286/5/4 288/5/4
f 289/4/4 290/4/4 291/4/4
f 291/4/4 290/4/4 292/4/4
f 293/6/4 294/6/4 295/6/4
f 295/6/4 294/6/4 296/6/4
f 297/3/4 298/3/4 299/3/4
f 299/3/4 298/3/4 300/3/4
f 301/5/4 302/5/4 303/5/4
f 303/5/4 302/5/4 304/5/4
f 305/4/4 306/4/4 307/4/4
f 307/4/4 306/4/4 308/4/4
f 309/5/4 310/5/4 311/5/4
f 311/5/4 310/5/4 312/5/4
f 313/3/4 314/3/4 315/3/4
f 315/3/4 314/3/4 316/3/4
f 317/4/4 318/4/4 319/4/4
f 319/4/4 318/4/4 320/4/4
f 317/4/4 319/4/4 321/4/4
f 321/4/4 319/4/4 322/4/4
f 323/5/4 324/5/4 325/5/4
f 325/5/4 324/5/4 326/5/4
f 327/5/4 328/5/4 329/5/4
f 329/5/4 328/5/4 330/5/4
f 331/1/4 332/1/4 334/1/4
f 332/2/4 333/2/4 335/2/4
f 334/1/4 332/1/4 335/1/4
f 335/2/4 333/2/4 336/2/4
f 339/1/5 338/1/5 337/1/5
f 340/1/5 338/1/5 339/1/5
f 341/2/6 342/2/6 343/2/6
f 343/2/6 342/2/6 344/2/6
f 341/2/6 343/2/6 345/2/6
f 345/2/6 343/2/6 346/2/6
f 346/2/6 343/2/6 347/2/6
f 344/2/6 342/2/6 348/2/6
f 348/2/6 342/2/6 349/2/6
f 349/2/6 342/2/6 350/2/6
f 346/2/6 347/2/6 352/2/6
f 348/2/6 349/2/6 352/2/6
f 347/2/6 348/2/6 352/2/6
f 352/2/6 349/2/6 353/2/6
f 350/2/6 342/2/6 354/2/6
f 352/2/6 353/2/6 355/2/6
f 353/2/6 354/2/6 355/2/6
f 351/2/6 352/2/6 355/2/6
f 355/2/6 354/2/6 356/2/6
f 351/2/6 355/2/6 357/2/6
f 356/2/6 354/2/6 358/2/6
f 358/2/6 354/2/6 359/2/6
f 359/2/6 354/2/6 360/2/6
f 351/2/6 357/2/6 361/2/6
f 357/2/6 358/2/6 361/2/6
f 358/2/6 359/2/6 361/2/6
f 361/2/6 359/2/6 362/2/6
f 362/2/6 359/2/6 363/2/6
f 360/2/6 354/2/6 364/2/6
f 362/2/6 363/2/6 366/2/6
f 363/2/6 364/2/6 366/2/6
f 366/2/6 364/2/6 367/2/6
f 365/2/6 366/2/6 367/2/6
f 367/2/6 364/2/6 368/2/6
f 365/2/6 367/2/6 369/2/6
f 369/2/6 367/2/6 370/2/6
f 368/2/6 364/2/6 371/2/6
f 365/2/6 369/2/6 372/2/6
f 370/2/6 371/2/6 373/2/6
f 364/2/6 354/2/6 374/2/6
f 372/2/6 373/2/6 374/2/6
f 373/2/6 371/2/6 374/2/6
f 371/2/6 364/2/6 374/2/6
f 374/2/6 354/2/6 375/2/6
f 365/2/6 372/2/6 376/2/6
f 372/2/6 374/2/6 376/2/6
f 376/2/6 374/2/6 377/2/6
f 377/2/6 374/2/6 378/2/6
f 375/2/6 354/2/6 379/2/6
f 354/2/6 342/2/6 380/2/6
f 379/2/6 354/2/6 380/2/6
f 380/2/6 342/2/6 381/2/6
f 365/2/6 376/2/6 382/2/6
f 378/2/6 379/2/6 383/2/6
f 377/2/6 378/2/6 383/2/6
f 379/2/6 380/2/6 383/2/6
f 383/2/6 380/2/6 384/2/6
f 381/2/6 342/2/6 385/2/6
f 383/2/6 384/2/6 386/2/6
f 384/2/6 385/2/6 386/2/6
f 382/2/6 383/2/6 386/2/6
f 386/2/6 385/2/6 387/2/6
f 382/2/6 386/2/6 388/2/6
f 387/2/6 385/2/6 389/2/6
f 389/2/6 385/2/6 390/2/6
f 390/2/6 385/2/6 391/2/6
f 365/2/6 382/2/6 392/2/6
f 382/2/6 388/2/6 392/2/6
f 389/2/6 390/2/6 392/2/6
f 388/2/6 389/2/6 392/2/6
f 392/2/6 390/2/6 393/2/6
f 393/2/6 390/2/6 394/2/6
f 394/2/6 390/2/6 395/2/6
f 395/2/6 390/2/6 396/2/6
f 396/2/6 390/2/6 397/2/6
f 397/2/6 390/2/6 398/2/6
f 391/2/6 385/2/6 399/2/6
f 399/2/6 385/2/6 400/2/6
f 400/2/6 385/2/6 401/2/6
f 393/2/6 394/2/6 403/2/6
f 403/2/6 394/2/6 404/2/6
f 395/2/6 396/2/6 405/2/6
f 405/2/6 396/2/6 406/2/6
f 397/2/6 398/2/6 407/2/6
f 399/2/6 400/2/6 407/2/6
f 398/2/6 399/2/6 407/2/6
f 407/2/6 400/2/6 408/2/6
f 408/2/6 400/2/6 409/2/6
f 409/2/6 400/2/6 410/2/6
f 401/2/6 385/2/6 411/2/6
f 385/2/6 342/2/6 412/2/6
f 411/2/6 385/2/6 412/2/6
f 412/2/6 342/2/6 413/2/6
f 405/2/6 406/2/6 414/2/6
f 404/2/6 405/2/6 414/2/6
f 403/2/6 404/2/6 414/2/6
f 402/2/6 403/2/6 414/2/6
f 407/2/6 408/2/6 414/2/6
f 406/2/6 407/2/6 414/2/6
f 410/2/6 411/2/6 415/2/6
f 409/2/6 410/2/6 415/2/6
f 411/2/6 412/2/6 415/2/6
f 415/2/6 412/2/6 416/2/6
f 413/2/6 342/2/6 417/2/6
f 415/2/6 416/2/6 418/2/6
f 416/2/6 417/2/6 418/2/6
f 402/2/6 414/2/6 418/2/6
f 414/2/6 415/2/6 418/2/6
f 417/2/6 342/2/6 419/2/6
f 418/2/6 417/2/6 419/2/6
f 420/5/6 421/5/6 424/5/6
f 424/5/6 421/5/6 425/5/6
f 422/5/6 423/5/6 426/5/6
f 426/5/6 423/5/6 427/5/6
f 428/6/6 429/6/6 430/6/6
f 430/6/6 429/6/6 431/6/6
f 432/3/6 433/3/6 434/3/6
f 434/3/6 433/3/6 435/3/6
f 436/3/6 437/3/6 439/3/6
f 439/3/6 437/3/6 440/3/6
f 438/3/6 439/3/6 441/3/6
f 441/3/6 439/3/6 442/3/6
f 443/5/6 444/5/6 447/5/6
f 447/5/6 444/5/6 448/5/6
f 445/4/6 446/4/6 449/4/6
f 449/4/6 446/4/6 450/4/6
f 451/3/6 452/3/6 455/3/6
f 455/3/6 452/3/6 456/3/6
f 453/4/6 454/4/6 459/4/6
f 459/4/6 454/4/6 460/4/6
f 457/5/6 458/5/6 461/5/6
f 461/5/6 458/5/6 462/5/6
f 463/3/6 464/3/6 465/3/6
f 465/3/6 464/3/6 466/3/6
f 467/5/6 468/5/6 469/5/6
f 469/5/6 468/5/6 470/5/6
f 471/6/6 472/6/6 473/6/6
f 473/6/6 472/6/6 474/6/6
f 475/3/6 476/3/6 477/3/6
f 477/3/6 476/3/6 478/3/6
f 479/5/6 480/5/6 485/5/6
f 485/5/6 480/5/6 486/5/6
f 481/4/6 482/4/6 489/4/6
f 489/4/6 482/4/6 490/4/6
f 483/5/6 484/5/6 491/5/6
f 491/5/6 484/5/6 492/5/6
f 487/4/6 488/4/6 493/4/6
f 493/4/6 488/4/6 494/4/6
f 495/5/6 496/5/6 497/5/6
f 497/5/6 496/5/6 498/5/6
