# MagicaVoxel @ Ephtracy

# group
o 

# material
mtllib haute herbes 2-8.mtl
usemtl palette

# normals
vn -1 0 0
vn 1 0 0
vn 0 0 1
vn 0 0 -1
vn 0 -1 0
vn 0 1 0

# texcoords
vt 0.537109 0.5
vt 0.677734 0.5
vt 0.892578 0.5
vt 0.900391 0.5
vt 0.904297 0.5
vt 0.912109 0.5

# verts
v 0 2 -0.5
v 0 2 -2.9
v 0 6.2 -0.5
v 0 6.2 -2.9
v 0 6.4 -0.5
v 0 6.4 -2.9
v 0.1 6.4 -0.7
v 0.1 6.4 -0.8
v 0.1 6.4 -1.3
v 0.1 6.4 -1.4
v 0.1 6.5 -1.3
v 0.1 6.5 -1.4
v 0.1 6.7 -0.7
v 0.1 6.7 -0.8
v 0.2 6.4 -0.9
v 0.2 6.4 -1.1
v 0.2 6.4 -2.3
v 0.2 6.4 -2.4
v 0.2 6.4 -2.5
v 0.2 6.4 -2.6
v 0.2 6.4 -2.8
v 0.2 6.4 -2.9
v 0.2 6.5 -0.9
v 0.2 6.5 -1
v 0.2 6.5 -2.3
v 0.2 6.5 -2.4
v 0.2 6.6 -1
v 0.2 6.6 -1.1
v 0.2 6.6 -2.5
v 0.2 6.6 -2.6
v 0.2 6.6 -2.8
v 0.2 6.6 -2.9
v 0.3 6.4 -1.3
v 0.3 6.4 -1.4
v 0.3 6.6 -1.3
v 0.3 6.6 -1.4
v 0.4 6.4 -2.5
v 0.4 6.4 -2.6
v 0.4 6.6 -2.5
v 0.4 6.6 -2.6
v 0.6 6.4 -0.8
v 0.6 6.4 -0.9
v 0.6 6.4 -2.7
v 0.6 6.4 -2.8
v 0.6 6.5 -2.7
v 0.6 6.5 -2.8
v 0.6 6.6 -0.8
v 0.6 6.6 -0.9
v 0.7 6.4 -2.3
v 0.7 6.4 -2.4
v 0.7 6.5 -2.3
v 0.7 6.5 -2.4
v 0.9 6.4 -2.7
v 0.9 6.4 -2.8
v 0.9 6.5 -2.7
v 0.9 6.5 -2.8
v 1 6.4 -2.6
v 1 6.4 -2.7
v 1 6.5 -2.6
v 1 6.5 -2.7
v 1.3 6.4 -2.8
v 1.3 6.4 -2.9
v 1.3 6.5 -2.8
v 1.3 6.5 -2.9
v 1.4 6.4 -2.4
v 1.4 6.4 -2.5
v 1.4 6.6 -2.4
v 1.4 6.6 -2.5
v 1.5 6.4 -2.6
v 1.5 6.4 -2.7
v 1.5 6.5 -2.6
v 1.5 6.5 -2.7
v 2 6.4 -0.9
v 2 6.4 -1
v 2 6.4 -2.8
v 2 6.4 -2.9
v 2 6.5 -0.9
v 2 6.5 -1
v 2 6.5 -2.8
v 2 6.5 -2.9
v 2.1 6.4 -2.2
v 2.1 6.4 -2.3
v 2.1 6.6 -2.2
v 2.1 6.6 -2.3
v 0.2 6.4 -0.7
v 0.2 6.4 -0.8
v 0.2 6.4 -1.3
v 0.2 6.4 -1.4
v 0.2 6.5 -1.3
v 0.2 6.5 -1.4
v 0.2 6.7 -0.7
v 0.2 6.7 -0.8
v 0.3 6.4 -0.9
v 0.3 6.4 -1.1
v 0.3 6.4 -2.3
v 0.3 6.4 -2.4
v 0.3 6.4 -2.5
v 0.3 6.4 -2.6
v 0.3 6.4 -2.8
v 0.3 6.4 -2.9
v 0.3 6.5 -0.9
v 0.3 6.5 -1
v 0.3 6.5 -2.3
v 0.3 6.5 -2.4
v 0.3 6.6 -1
v 0.3 6.6 -1.1
v 0.3 6.6 -2.5
v 0.3 6.6 -2.6
v 0.3 6.6 -2.8
v 0.3 6.6 -2.9
v 0.4 6.4 -1.3
v 0.4 6.4 -1.4
v 0.4 6.6 -1.3
v 0.4 6.6 -1.4
v 0.5 6.4 -2.5
v 0.5 6.4 -2.6
v 0.5 6.6 -2.5
v 0.5 6.6 -2.6
v 0.7 6.4 -0.8
v 0.7 6.4 -0.9
v 0.7 6.4 -2.7
v 0.7 6.4 -2.8
v 0.7 6.5 -2.7
v 0.7 6.5 -2.8
v 0.7 6.6 -0.8
v 0.7 6.6 -0.9
v 0.8 6.4 -2.3
v 0.8 6.4 -2.4
v 0.8 6.5 -2.3
v 0.8 6.5 -2.4
v 1 6.4 -2.7
v 1 6.4 -2.8
v 1 6.5 -2.7
v 1 6.5 -2.8
v 1.1 6.4 -2.6
v 1.1 6.4 -2.7
v 1.1 6.5 -2.6
v 1.1 6.5 -2.7
v 1.4 6.4 -2.8
v 1.4 6.4 -2.9
v 1.4 6.5 -2.8
v 1.4 6.5 -2.9
v 1.5 6.4 -2.4
v 1.5 6.4 -2.5
v 1.5 6.6 -2.4
v 1.5 6.6 -2.5
v 1.6 6.4 -2.6
v 1.6 6.4 -2.7
v 1.6 6.5 -2.6
v 1.6 6.5 -2.7
v 2.1 6.4 -0.9
v 2.1 6.4 -1
v 2.1 6.4 -2.8
v 2.1 6.4 -2.9
v 2.1 6.5 -0.9
v 2.1 6.5 -1
v 2.1 6.5 -2.8
v 2.1 6.5 -2.9
v 2.2 6.4 -2.2
v 2.2 6.4 -2.3
v 2.2 6.6 -2.2
v 2.2 6.6 -2.3
v 2.4 2 -0.5
v 2.4 2 -2.9
v 2.4 6.2 -0.5
v 2.4 6.2 -2.9
v 2.4 6.4 -0.5
v 2.4 6.4 -2.9
v 0 2 -0.5
v 0 6.2 -0.5
v 0 6.4 -0.5
v 2.4 2 -0.5
v 2.4 6.2 -0.5
v 2.4 6.4 -0.5
v 0.1 6.4 -0.7
v 0.1 6.7 -0.7
v 0.2 6.4 -0.7
v 0.2 6.7 -0.7
v 0.6 6.4 -0.8
v 0.6 6.6 -0.8
v 0.7 6.4 -0.8
v 0.7 6.6 -0.8
v 0.2 6.4 -0.9
v 0.2 6.5 -0.9
v 0.3 6.4 -0.9
v 0.3 6.5 -0.9
v 2 6.4 -0.9
v 2 6.5 -0.9
v 2.1 6.4 -0.9
v 2.1 6.5 -0.9
v 0.2 6.5 -1
v 0.2 6.6 -1
v 0.3 6.5 -1
v 0.3 6.6 -1
v 0.1 6.4 -1.3
v 0.1 6.5 -1.3
v 0.2 6.4 -1.3
v 0.2 6.5 -1.3
v 0.3 6.4 -1.3
v 0.3 6.6 -1.3
v 0.4 6.4 -1.3
v 0.4 6.6 -1.3
v 2.1 6.4 -2.2
v 2.1 6.6 -2.2
v 2.2 6.4 -2.2
v 2.2 6.6 -2.2
v 0.2 6.4 -2.3
v 0.2 6.5 -2.3
v 0.3 6.4 -2.3
v 0.3 6.5 -2.3
v 0.7 6.4 -2.3
v 0.7 6.5 -2.3
v 0.8 6.4 -2.3
v 0.8 6.5 -2.3
v 1.4 6.4 -2.4
v 1.4 6.6 -2.4
v 1.5 6.4 -2.4
v 1.5 6.6 -2.4
v 0.2 6.4 -2.5
v 0.2 6.6 -2.5
v 0.3 6.4 -2.5
v 0.3 6.6 -2.5
v 0.4 6.4 -2.5
v 0.4 6.6 -2.5
v 0.5 6.4 -2.5
v 0.5 6.6 -2.5
v 1 6.4 -2.6
v 1 6.5 -2.6
v 1.1 6.4 -2.6
v 1.1 6.5 -2.6
v 1.5 6.4 -2.6
v 1.5 6.5 -2.6
v 1.6 6.4 -2.6
v 1.6 6.5 -2.6
v 0.6 6.4 -2.7
v 0.6 6.5 -2.7
v 0.7 6.4 -2.7
v 0.7 6.5 -2.7
v 0.9 6.4 -2.7
v 0.9 6.5 -2.7
v 1 6.4 -2.7
v 1 6.5 -2.7
v 0.2 6.4 -2.8
v 0.2 6.6 -2.8
v 0.3 6.4 -2.8
v 0.3 6.6 -2.8
v 1.3 6.4 -2.8
v 1.3 6.5 -2.8
v 1.4 6.4 -2.8
v 1.4 6.5 -2.8
v 2 6.4 -2.8
v 2 6.5 -2.8
v 2.1 6.4 -2.8
v 2.1 6.5 -2.8
v 0.1 6.4 -0.8
v 0.1 6.7 -0.8
v 0.2 6.4 -0.8
v 0.2 6.7 -0.8
v 0.6 6.4 -0.9
v 0.6 6.6 -0.9
v 0.7 6.4 -0.9
v 0.7 6.6 -0.9
v 2 6.4 -1
v 2 6.5 -1
v 2.1 6.4 -1
v 2.1 6.5 -1
v 0.2 6.4 -1.1
v 0.2 6.6 -1.1
v 0.3 6.4 -1.1
v 0.3 6.6 -1.1
v 0.1 6.4 -1.4
v 0.1 6.5 -1.4
v 0.2 6.4 -1.4
v 0.2 6.5 -1.4
v 0.3 6.4 -1.4
v 0.3 6.6 -1.4
v 0.4 6.4 -1.4
v 0.4 6.6 -1.4
v 2.1 6.4 -2.3
v 2.1 6.6 -2.3
v 2.2 6.4 -2.3
v 2.2 6.6 -2.3
v 0.2 6.4 -2.4
v 0.2 6.5 -2.4
v 0.3 6.4 -2.4
v 0.3 6.5 -2.4
v 0.7 6.4 -2.4
v 0.7 6.5 -2.4
v 0.8 6.4 -2.4
v 0.8 6.5 -2.4
v 1.4 6.4 -2.5
v 1.4 6.6 -2.5
v 1.5 6.4 -2.5
v 1.5 6.6 -2.5
v 0.2 6.4 -2.6
v 0.2 6.6 -2.6
v 0.3 6.4 -2.6
v 0.3 6.6 -2.6
v 0.4 6.4 -2.6
v 0.4 6.6 -2.6
v 0.5 6.4 -2.6
v 0.5 6.6 -2.6
v 1 6.4 -2.7
v 1 6.5 -2.7
v 1.1 6.4 -2.7
v 1.1 6.5 -2.7
v 1.5 6.4 -2.7
v 1.5 6.5 -2.7
v 1.6 6.4 -2.7
v 1.6 6.5 -2.7
v 0.6 6.4 -2.8
v 0.6 6.5 -2.8
v 0.7 6.4 -2.8
v 0.7 6.5 -2.8
v 0.9 6.4 -2.8
v 0.9 6.5 -2.8
v 1 6.4 -2.8
v 1 6.5 -2.8
v 0 2 -2.9
v 0 6.2 -2.9
v 0 6.4 -2.9
v 0.2 6.4 -2.9
v 0.2 6.6 -2.9
v 0.3 6.4 -2.9
v 0.3 6.6 -2.9
v 1.3 6.4 -2.9
v 1.3 6.5 -2.9
v 1.4 6.4 -2.9
v 1.4 6.5 -2.9
v 2 6.4 -2.9
v 2 6.5 -2.9
v 2.1 6.4 -2.9
v 2.1 6.5 -2.9
v 2.4 2 -2.9
v 2.4 6.2 -2.9
v 2.4 6.4 -2.9
v 0 2 -0.5
v 2.4 2 -0.5
v 0 2 -2.9
v 2.4 2 -2.9
v 0 6.4 -0.5
v 2.4 6.4 -0.5
v 0.1 6.4 -0.7
v 0.2 6.4 -0.7
v 0.1 6.4 -0.8
v 0.2 6.4 -0.8
v 0.6 6.4 -0.8
v 0.7 6.4 -0.8
v 0.2 6.4 -0.9
v 0.3 6.4 -0.9
v 0.6 6.4 -0.9
v 0.7 6.4 -0.9
v 2 6.4 -0.9
v 2.1 6.4 -0.9
v 2 6.4 -1
v 2.1 6.4 -1
v 0.2 6.4 -1.1
v 0.3 6.4 -1.1
v 0.1 6.4 -1.3
v 0.2 6.4 -1.3
v 0.3 6.4 -1.3
v 0.4 6.4 -1.3
v 0.1 6.4 -1.4
v 0.2 6.4 -1.4
v 0.3 6.4 -1.4
v 0.4 6.4 -1.4
v 2.1 6.4 -2.2
v 2.2 6.4 -2.2
v 0.2 6.4 -2.3
v 0.3 6.4 -2.3
v 0.7 6.4 -2.3
v 0.8 6.4 -2.3
v 2.1 6.4 -2.3
v 2.2 6.4 -2.3
v 0.2 6.4 -2.4
v 0.3 6.4 -2.4
v 0.7 6.4 -2.4
v 0.8 6.4 -2.4
v 1.4 6.4 -2.4
v 1.5 6.4 -2.4
v 0.2 6.4 -2.5
v 0.3 6.4 -2.5
v 0.4 6.4 -2.5
v 0.5 6.4 -2.5
v 1.4 6.4 -2.5
v 1.5 6.4 -2.5
v 0.2 6.4 -2.6
v 0.3 6.4 -2.6
v 0.4 6.4 -2.6
v 0.5 6.4 -2.6
v 1 6.4 -2.6
v 1.1 6.4 -2.6
v 1.5 6.4 -2.6
v 1.6 6.4 -2.6
v 0.6 6.4 -2.7
v 0.7 6.4 -2.7
v 0.9 6.4 -2.7
v 1 6.4 -2.7
v 1.1 6.4 -2.7
v 1.5 6.4 -2.7
v 1.6 6.4 -2.7
v 0.2 6.4 -2.8
v 0.3 6.4 -2.8
v 0.6 6.4 -2.8
v 0.7 6.4 -2.8
v 0.9 6.4 -2.8
v 1 6.4 -2.8
v 1.3 6.4 -2.8
v 1.4 6.4 -2.8
v 2 6.4 -2.8
v 2.1 6.4 -2.8
v 0 6.4 -2.9
v 0.2 6.4 -2.9
v 0.3 6.4 -2.9
v 1.3 6.4 -2.9
v 1.4 6.4 -2.9
v 2 6.4 -2.9
v 2.1 6.4 -2.9
v 2.4 6.4 -2.9
v 0.2 6.5 -0.9
v 0.3 6.5 -0.9
v 2 6.5 -0.9
v 2.1 6.5 -0.9
v 0.2 6.5 -1
v 0.3 6.5 -1
v 2 6.5 -1
v 2.1 6.5 -1
v 0.1 6.5 -1.3
v 0.2 6.5 -1.3
v 0.1 6.5 -1.4
v 0.2 6.5 -1.4
v 0.2 6.5 -2.3
v 0.3 6.5 -2.3
v 0.7 6.5 -2.3
v 0.8 6.5 -2.3
v 0.2 6.5 -2.4
v 0.3 6.5 -2.4
v 0.7 6.5 -2.4
v 0.8 6.5 -2.4
v 1 6.5 -2.6
v 1.1 6.5 -2.6
v 1.5 6.5 -2.6
v 1.6 6.5 -2.6
v 0.6 6.5 -2.7
v 0.7 6.5 -2.7
v 0.9 6.5 -2.7
v 1 6.5 -2.7
v 1.1 6.5 -2.7
v 1.5 6.5 -2.7
v 1.6 6.5 -2.7
v 0.6 6.5 -2.8
v 0.7 6.5 -2.8
v 0.9 6.5 -2.8
v 1 6.5 -2.8
v 1.3 6.5 -2.8
v 1.4 6.5 -2.8
v 2 6.5 -2.8
v 2.1 6.5 -2.8
v 1.3 6.5 -2.9
v 1.4 6.5 -2.9
v 2 6.5 -2.9
v 2.1 6.5 -2.9
v 0.6 6.6 -0.8
v 0.7 6.6 -0.8
v 0.6 6.6 -0.9
v 0.7 6.6 -0.9
v 0.2 6.6 -1
v 0.3 6.6 -1
v 0.2 6.6 -1.1
v 0.3 6.6 -1.1
v 0.3 6.6 -1.3
v 0.4 6.6 -1.3
v 0.3 6.6 -1.4
v 0.4 6.6 -1.4
v 2.1 6.6 -2.2
v 2.2 6.6 -2.2
v 2.1 6.6 -2.3
v 2.2 6.6 -2.3
v 1.4 6.6 -2.4
v 1.5 6.6 -2.4
v 0.2 6.6 -2.5
v 0.3 6.6 -2.5
v 0.4 6.6 -2.5
v 0.5 6.6 -2.5
v 1.4 6.6 -2.5
v 1.5 6.6 -2.5
v 0.2 6.6 -2.6
v 0.3 6.6 -2.6
v 0.4 6.6 -2.6
v 0.5 6.6 -2.6
v 0.2 6.6 -2.8
v 0.3 6.6 -2.8
v 0.2 6.6 -2.9
v 0.3 6.6 -2.9
v 0.1 6.7 -0.7
v 0.2 6.7 -0.7
v 0.1 6.7 -0.8
v 0.2 6.7 -0.8

# faces
f 3/1/1 2/1/1 1/1/1
f 4/1/1 2/1/1 3/1/1
f 5/2/1 4/2/1 3/2/1
f 6/2/1 4/2/1 5/2/1
f 11/5/1 10/5/1 9/5/1
f 12/5/1 10/5/1 11/5/1
f 13/5/1 8/5/1 7/5/1
f 14/5/1 8/5/1 13/5/1
f 23/4/1 16/4/1 15/4/1
f 24/4/1 16/4/1 23/4/1
f 25/3/1 18/3/1 17/3/1
f 26/3/1 18/3/1 25/3/1
f 27/4/1 16/4/1 24/4/1
f 28/4/1 16/4/1 27/4/1
f 29/5/1 20/5/1 19/5/1
f 30/5/1 20/5/1 29/5/1
f 31/4/1 22/4/1 21/4/1
f 32/4/1 22/4/1 31/4/1
f 35/5/1 34/5/1 33/5/1
f 36/5/1 34/5/1 35/5/1
f 39/3/1 38/3/1 37/3/1
f 40/3/1 38/3/1 39/3/1
f 45/4/1 44/4/1 43/4/1
f 46/4/1 44/4/1 45/4/1
f 47/6/1 42/6/1 41/6/1
f 48/6/1 42/6/1 47/6/1
f 51/5/1 50/5/1 49/5/1
f 52/5/1 50/5/1 51/5/1
f 55/3/1 54/3/1 53/3/1
f 56/3/1 54/3/1 55/3/1
f 59/3/1 58/3/1 57/3/1
f 60/3/1 58/3/1 59/3/1
f 63/3/1 62/3/1 61/3/1
f 64/3/1 62/3/1 63/3/1
f 67/5/1 66/5/1 65/5/1
f 68/5/1 66/5/1 67/5/1
f 71/6/1 70/6/1 69/6/1
f 72/6/1 70/6/1 71/6/1
f 77/5/1 74/5/1 73/5/1
f 78/5/1 74/5/1 77/5/1
f 79/5/1 76/5/1 75/5/1
f 80/5/1 76/5/1 79/5/1
f 83/3/1 82/3/1 81/3/1
f 84/3/1 82/3/1 83/3/1
f 87/5/2 88/5/2 89/5/2
f 89/5/2 88/5/2 90/5/2
f 85/5/2 86/5/2 91/5/2
f 91/5/2 86/5/2 92/5/2
f 93/4/2 94/4/2 101/4/2
f 101/4/2 94/4/2 102/4/2
f 95/3/2 96/3/2 103/3/2
f 103/3/2 96/3/2 104/3/2
f 102/4/2 94/4/2 105/4/2
f 105/4/2 94/4/2 106/4/2
f 97/5/2 98/5/2 107/5/2
f 107/5/2 98/5/2 108/5/2
f 99/4/2 100/4/2 109/4/2
f 109/4/2 100/4/2 110/4/2
f 111/5/2 112/5/2 113/5/2
f 113/5/2 112/5/2 114/5/2
f 115/3/2 116/3/2 117/3/2
f 117/3/2 116/3/2 118/3/2
f 121/4/2 122/4/2 123/4/2
f 123/4/2 122/4/2 124/4/2
f 119/6/2 120/6/2 125/6/2
f 125/6/2 120/6/2 126/6/2
f 127/5/2 128/5/2 129/5/2
f 129/5/2 128/5/2 130/5/2
f 131/3/2 132/3/2 133/3/2
f 133/3/2 132/3/2 134/3/2
f 135/3/2 136/3/2 137/3/2
f 137/3/2 136/3/2 138/3/2
f 139/3/2 140/3/2 141/3/2
f 141/3/2 140/3/2 142/3/2
f 143/5/2 144/5/2 145/5/2
f 145/5/2 144/5/2 146/5/2
f 147/6/2 148/6/2 149/6/2
f 149/6/2 148/6/2 150/6/2
f 151/5/2 152/5/2 155/5/2
f 155/5/2 152/5/2 156/5/2
f 153/5/2 154/5/2 157/5/2
f 157/5/2 154/5/2 158/5/2
f 159/3/2 160/3/2 161/3/2
f 161/3/2 160/3/2 162/3/2
f 163/1/2 164/1/2 165/1/2
f 165/1/2 164/1/2 166/1/2
f 165/2/2 166/2/2 167/2/2
f 167/2/2 166/2/2 168/2/2
f 172/1/3 170/1/3 169/1/3
f 173/2/3 171/2/3 170/2/3
f 173/1/3 170/1/3 172/1/3
f 174/2/3 171/2/3 173/2/3
f 177/5/3 176/5/3 175/5/3
f 178/5/3 176/5/3 177/5/3
f 181/6/3 180/6/3 179/6/3
f 182/6/3 180/6/3 181/6/3
f 185/4/3 184/4/3 183/4/3
f 186/4/3 184/4/3 185/4/3
f 189/5/3 188/5/3 187/5/3
f 190/5/3 188/5/3 189/5/3
f 193/4/3 192/4/3 191/4/3
f 194/4/3 192/4/3 193/4/3
f 197/5/3 196/5/3 195/5/3
f 198/5/3 196/5/3 197/5/3
f 201/5/3 200/5/3 199/5/3
f 202/5/3 200/5/3 201/5/3
f 205/3/3 204/3/3 203/3/3
f 206/3/3 204/3/3 205/3/3
f 209/3/3 208/3/3 207/3/3
f 210/3/3 208/3/3 209/3/3
f 213/5/3 212/5/3 211/5/3
f 214/5/3 212/5/3 213/5/3
f 217/5/3 216/5/3 215/5/3
f 218/5/3 216/5/3 217/5/3
f 221/5/3 220/5/3 219/5/3
f 222/5/3 220/5/3 221/5/3
f 225/3/3 224/3/3 223/3/3
f 226/3/3 224/3/3 225/3/3
f 229/3/3 228/3/3 227/3/3
f 230/3/3 228/3/3 229/3/3
f 233/6/3 232/6/3 231/6/3
f 234/6/3 232/6/3 233/6/3
f 237/4/3 236/4/3 235/4/3
f 238/4/3 236/4/3 237/4/3
f 241/3/3 240/3/3 239/3/3
f 242/3/3 240/3/3 241/3/3
f 245/4/3 244/4/3 243/4/3
f 246/4/3 244/4/3 245/4/3
f 249/3/3 248/3/3 247/3/3
f 250/3/3 248/3/3 249/3/3
f 253/5/3 252/5/3 251/5/3
f 254/5/3 252/5/3 253/5/3
f 255/5/4 256/5/4 257/5/4
f 257/5/4 256/5/4 258/5/4
f 259/6/4 260/6/4 261/6/4
f 261/6/4 260/6/4 262/6/4
f 263/5/4 264/5/4 265/5/4
f 265/5/4 264/5/4 266/5/4
f 267/4/4 268/4/4 269/4/4
f 269/4/4 268/4/4 270/4/4
f 271/5/4 272/5/4 273/5/4
f 273/5/4 272/5/4 274/5/4
f 275/5/4 276/5/4 277/5/4
f 277/5/4 276/5/4 278/5/4
f 279/3/4 280/3/4 281/3/4
f 281/3/4 280/3/4 282/3/4
f 283/3/4 284/3/4 285/3/4
f 285/3/4 284/3/4 286/3/4
f 287/5/4 288/5/4 289/5/4
f 289/5/4 288/5/4 290/5/4
f 291/5/4 292/5/4 293/5/4
f 293/5/4 292/5/4 294/5/4
f 295/5/4 296/5/4 297/5/4
f 297/5/4 296/5/4 298/5/4
f 299/3/4 300/3/4 301/3/4
f 301/3/4 300/3/4 302/3/4
f 303/3/4 304/3/4 305/3/4
f 305/3/4 304/3/4 306/3/4
f 307/6/4 308/6/4 309/6/4
f 309/6/4 308/6/4 310/6/4
f 311/4/4 312/4/4 313/4/4
f 313/4/4 312/4/4 314/4/4
f 315/3/4 316/3/4 317/3/4
f 317/3/4 316/3/4 318/3/4
f 320/2/4 321/2/4 322/2/4
f 320/2/4 322/2/4 324/2/4
f 322/4/4 323/4/4 324/4/4
f 324/4/4 323/4/4 325/4/4
f 320/2/4 324/2/4 326/2/4
f 320/2/4 326/2/4 328/2/4
f 326/3/4 327/3/4 328/3/4
f 328/3/4 327/3/4 329/3/4
f 320/2/4 328/2/4 330/2/4
f 320/2/4 330/2/4 332/2/4
f 330/5/4 331/5/4 332/5/4
f 332/5/4 331/5/4 333/5/4
f 319/1/4 320/1/4 334/1/4
f 320/2/4 332/2/4 335/2/4
f 334/1/4 320/1/4 335/1/4
f 335/2/4 332/2/4 336/2/4
f 339/1/5 338/1/5 337/1/5
f 340/1/5 338/1/5 339/1/5
f 341/2/6 342/2/6 343/2/6
f 343/2/6 342/2/6 344/2/6
f 341/2/6 343/2/6 345/2/6
f 344/2/6 342/2/6 346/2/6
f 346/2/6 342/2/6 347/2/6
f 347/2/6 342/2/6 348/2/6
f 345/2/6 346/2/6 349/2/6
f 346/2/6 347/2/6 349/2/6
f 349/2/6 347/2/6 350/2/6
f 350/2/6 347/2/6 351/2/6
f 348/2/6 342/2/6 352/2/6
f 352/2/6 342/2/6 353/2/6
f 353/2/6 342/2/6 354/2/6
f 350/2/6 351/2/6 355/2/6
f 352/2/6 353/2/6 355/2/6
f 351/2/6 352/2/6 355/2/6
f 354/2/6 342/2/6 356/2/6
f 345/2/6 349/2/6 357/2/6
f 350/2/6 355/2/6 358/2/6
f 355/2/6 356/2/6 358/2/6
f 341/2/6 345/2/6 359/2/6
f 357/2/6 358/2/6 359/2/6
f 345/2/6 357/2/6 359/2/6
f 359/2/6 358/2/6 360/2/6
f 358/2/6 356/2/6 361/2/6
f 360/2/6 358/2/6 361/2/6
f 361/2/6 356/2/6 362/2/6
f 341/2/6 359/2/6 363/2/6
f 360/2/6 361/2/6 364/2/6
f 364/2/6 361/2/6 365/2/6
f 362/2/6 356/2/6 366/2/6
f 364/2/6 365/2/6 367/2/6
f 365/2/6 366/2/6 367/2/6
f 366/2/6 356/2/6 367/2/6
f 356/2/6 342/2/6 367/2/6
f 363/2/6 364/2/6 367/2/6
f 367/2/6 342/2/6 368/2/6
f 363/2/6 367/2/6 369/2/6
f 369/2/6 367/2/6 370/2/6
f 370/2/6 367/2/6 371/2/6
f 371/2/6 367/2/6 372/2/6
f 372/2/6 367/2/6 373/2/6
f 368/2/6 342/2/6 374/2/6
f 363/2/6 369/2/6 375/2/6
f 370/2/6 371/2/6 376/2/6
f 376/2/6 371/2/6 377/2/6
f 372/2/6 373/2/6 378/2/6
f 373/2/6 374/2/6 378/2/6
f 378/2/6 374/2/6 379/2/6
f 379/2/6 374/2/6 380/2/6
f 376/2/6 377/2/6 381/2/6
f 375/2/6 376/2/6 381/2/6
f 378/2/6 379/2/6 381/2/6
f 377/2/6 378/2/6 381/2/6
f 363/2/6 375/2/6 381/2/6
f 381/2/6 379/2/6 382/2/6
f 382/2/6 379/2/6 383/2/6
f 383/2/6 379/2/6 384/2/6
f 384/2/6 379/2/6 385/2/6
f 380/2/6 374/2/6 386/2/6
f 363/2/6 381/2/6 387/2/6
f 382/2/6 383/2/6 388/2/6
f 388/2/6 383/2/6 389/2/6
f 384/2/6 385/2/6 390/2/6
f 385/2/6 386/2/6 390/2/6
f 390/2/6 386/2/6 391/2/6
f 391/2/6 386/2/6 392/2/6
f 386/2/6 374/2/6 393/2/6
f 392/2/6 386/2/6 393/2/6
f 393/2/6 374/2/6 394/2/6
f 388/2/6 389/2/6 395/2/6
f 387/2/6 388/2/6 395/2/6
f 390/2/6 391/2/6 395/2/6
f 389/2/6 390/2/6 395/2/6
f 395/2/6 391/2/6 396/2/6
f 396/2/6 391/2/6 397/2/6
f 397/2/6 391/2/6 398/2/6
f 392/2/6 393/2/6 399/2/6
f 399/2/6 393/2/6 400/2/6
f 394/2/6 374/2/6 401/2/6
f 363/2/6 387/2/6 402/2/6
f 387/2/6 395/2/6 402/2/6
f 402/2/6 395/2/6 403/2/6
f 403/2/6 395/2/6 404/2/6
f 396/2/6 397/2/6 405/2/6
f 405/2/6 397/2/6 406/2/6
f 399/2/6 400/2/6 407/2/6
f 400/2/6 401/2/6 407/2/6
f 398/2/6 399/2/6 407/2/6
f 407/2/6 401/2/6 408/2/6
f 408/2/6 401/2/6 409/2/6
f 401/2/6 374/2/6 410/2/6
f 409/2/6 401/2/6 410/2/6
f 410/2/6 374/2/6 411/2/6
f 341/2/6 363/2/6 412/2/6
f 363/2/6 402/2/6 412/2/6
f 412/2/6 402/2/6 413/2/6
f 405/2/6 406/2/6 414/2/6
f 404/2/6 405/2/6 414/2/6
f 403/2/6 404/2/6 414/2/6
f 407/2/6 408/2/6 414/2/6
f 406/2/6 407/2/6 414/2/6
f 414/2/6 408/2/6 415/2/6
f 409/2/6 410/2/6 416/2/6
f 416/2/6 410/2/6 417/2/6
f 411/2/6 374/2/6 418/2/6
f 374/2/6 342/2/6 419/2/6
f 418/2/6 374/2/6 419/2/6
f 420/4/6 421/4/6 424/4/6
f 424/4/6 421/4/6 425/4/6
f 422/5/6 423/5/6 426/5/6
f 426/5/6 423/5/6 427/5/6
f 428/5/6 429/5/6 430/5/6
f 430/5/6 429/5/6 431/5/6
f 432/3/6 433/3/6 436/3/6
f 436/3/6 433/3/6 437/3/6
f 434/5/6 435/5/6 438/5/6
f 438/5/6 435/5/6 439/5/6
f 440/3/6 441/3/6 447/3/6
f 447/3/6 441/3/6 448/3/6
f 442/6/6 443/6/6 449/6/6
f 449/6/6 443/6/6 450/6/6
f 444/4/6 445/4/6 451/4/6
f 451/4/6 445/4/6 452/4/6
f 446/3/6 447/3/6 453/3/6
f 453/3/6 447/3/6 454/3/6
f 455/3/6 456/3/6 459/3/6
f 459/3/6 456/3/6 460/3/6
f 457/5/6 458/5/6 461/5/6
f 461/5/6 458/5/6 462/5/6
f 463/6/6 464/6/6 465/6/6
f 465/6/6 464/6/6 466/6/6
f 467/4/6 468/4/6 469/4/6
f 469/4/6 468/4/6 470/4/6
f 471/5/6 472/5/6 473/5/6
f 473/5/6 472/5/6 474/5/6
f 475/3/6 476/3/6 477/3/6
f 477/3/6 476/3/6 478/3/6
f 479/5/6 480/5/6 485/5/6
f 485/5/6 480/5/6 486/5/6
f 481/5/6 482/5/6 487/5/6
f 487/5/6 482/5/6 488/5/6
f 483/3/6 484/3/6 489/3/6
f 489/3/6 484/3/6 490/3/6
f 491/4/6 492/4/6 493/4/6
f 493/4/6 492/4/6 494/4/6
f 495/5/6 496/5/6 497/5/6
f 497/5/6 496/5/6 498/5/6
