# MagicaVoxel @ Ephtracy

# group
o 

# material
mtllib Chemin12.mtl
usemtl palette

# normals
vn -1 0 0
vn 1 0 0
vn 0 0 1
vn 0 0 -1
vn 0 -1 0
vn 0 1 0

# texcoords
vt 0.537109 0.5
vt 0.677734 0.5

# verts
v 0.2 4.8 -20
v 0.2 4.8 -22.4
v 0.2 8.9 -20.1
v 0.2 8.9 -22.4
v 0.2 9 -20
v 0.2 9 -20.1
v 0.2 9.2 -20
v 0.2 9.2 -20.1
v 0.3 8.9 -20.1
v 0.3 8.9 -20.2
v 0.3 9 -20.1
v 0.3 9 -20.2
v 0.3 9.2 -20.1
v 0.3 9.2 -20.2
v 0.4 8.9 -20.2
v 0.4 8.9 -20.3
v 0.4 9 -20.2
v 0.4 9 -20.3
v 0.4 9.2 -20.2
v 0.4 9.2 -20.3
v 0.5 8.9 -20.3
v 0.5 8.9 -20.4
v 0.5 9 -20.3
v 0.5 9 -20.4
v 0.5 9.2 -20.3
v 0.5 9.2 -20.4
v 0.6 8.9 -20.4
v 0.6 8.9 -20.5
v 0.6 9 -20.4
v 0.6 9 -20.5
v 0.6 9.2 -20.4
v 0.6 9.2 -20.5
v 0.7 8.9 -20.5
v 0.7 8.9 -20.6
v 0.7 9 -20.5
v 0.7 9 -20.6
v 0.7 9.2 -20.5
v 0.7 9.2 -20.6
v 0.8 8.9 -20.6
v 0.8 8.9 -20.7
v 0.8 9 -20.6
v 0.8 9 -20.7
v 0.8 9.2 -20.6
v 0.8 9.2 -20.7
v 0.9 8.9 -20.7
v 0.9 8.9 -20.8
v 0.9 9 -20.7
v 0.9 9 -20.8
v 0.9 9.2 -20.7
v 0.9 9.2 -20.8
v 1 8.9 -20.8
v 1 8.9 -20.9
v 1 9 -20.8
v 1 9 -20.9
v 1 9.2 -20.8
v 1 9.2 -20.9
v 1.1 8.9 -20.9
v 1.1 8.9 -21
v 1.1 9 -20.9
v 1.1 9 -21
v 1.1 9.2 -20.9
v 1.1 9.2 -21
v 1.2 8.9 -21
v 1.2 8.9 -21.1
v 1.2 9 -21
v 1.2 9 -21.1
v 1.2 9.2 -21
v 1.2 9.2 -21.1
v 1.3 8.9 -21.1
v 1.3 8.9 -21.2
v 1.3 9 -21.1
v 1.3 9 -21.2
v 1.3 9.2 -21.1
v 1.3 9.2 -21.2
v 1.4 8.9 -21.2
v 1.4 8.9 -21.3
v 1.4 9 -21.2
v 1.4 9 -21.3
v 1.4 9.2 -21.2
v 1.4 9.2 -21.3
v 1.5 8.9 -21.3
v 1.5 8.9 -21.4
v 1.5 9 -21.3
v 1.5 9 -21.4
v 1.5 9.2 -21.3
v 1.5 9.2 -21.4
v 1.6 8.9 -21.4
v 1.6 8.9 -21.5
v 1.6 9 -21.4
v 1.6 9 -21.5
v 1.6 9.2 -21.4
v 1.6 9.2 -21.5
v 1.7 8.9 -21.5
v 1.7 8.9 -21.6
v 1.7 9 -21.5
v 1.7 9 -21.6
v 1.7 9.2 -21.5
v 1.7 9.2 -21.6
v 1.8 8.9 -21.6
v 1.8 8.9 -21.7
v 1.8 9 -21.6
v 1.8 9 -21.7
v 1.8 9.2 -21.6
v 1.8 9.2 -21.7
v 1.9 8.9 -21.7
v 1.9 8.9 -21.8
v 1.9 9 -21.7
v 1.9 9 -21.8
v 1.9 9.2 -21.7
v 1.9 9.2 -21.8
v 2 8.9 -21.8
v 2 8.9 -21.9
v 2 9 -21.8
v 2 9 -21.9
v 2 9.2 -21.8
v 2 9.2 -21.9
v 2.1 8.9 -21.9
v 2.1 8.9 -22
v 2.1 9 -21.9
v 2.1 9 -22
v 2.1 9.2 -21.9
v 2.1 9.2 -22
v 2.2 8.9 -22
v 2.2 8.9 -22.1
v 2.2 9 -22
v 2.2 9 -22.1
v 2.2 9.2 -22
v 2.2 9.2 -22.1
v 2.3 8.9 -22.1
v 2.3 8.9 -22.2
v 2.3 9 -22.1
v 2.3 9 -22.2
v 2.3 9.2 -22.1
v 2.3 9.2 -22.2
v 2.4 8.9 -22.2
v 2.4 8.9 -22.3
v 2.4 9 -22.2
v 2.4 9 -22.3
v 2.4 9.2 -22.2
v 2.4 9.2 -22.3
v 2.5 8.9 -22.3
v 2.5 8.9 -22.4
v 2.5 9 -22.3
v 2.5 9 -22.4
v 2.5 9.2 -22.3
v 2.5 9.2 -22.4
v 2.6 4.8 -20
v 2.6 4.8 -22.4
v 2.6 9 -20
v 2.6 9 -22.4
v 2.6 9.2 -20
v 2.6 9.2 -22.4
v 0.2 4.8 -20
v 0.2 9 -20
v 0.2 9.2 -20
v 2.6 4.8 -20
v 2.6 9 -20
v 2.6 9.2 -20
v 0.2 8.9 -20.1
v 0.2 9 -20.1
v 0.2 9.2 -20.1
v 0.3 8.9 -20.1
v 0.3 9 -20.1
v 0.3 9.2 -20.1
v 0.3 8.9 -20.2
v 0.3 9 -20.2
v 0.3 9.2 -20.2
v 0.4 8.9 -20.2
v 0.4 9 -20.2
v 0.4 9.2 -20.2
v 0.4 8.9 -20.3
v 0.4 9 -20.3
v 0.4 9.2 -20.3
v 0.5 8.9 -20.3
v 0.5 9 -20.3
v 0.5 9.2 -20.3
v 0.5 8.9 -20.4
v 0.5 9 -20.4
v 0.5 9.2 -20.4
v 0.6 8.9 -20.4
v 0.6 9 -20.4
v 0.6 9.2 -20.4
v 0.6 8.9 -20.5
v 0.6 9 -20.5
v 0.6 9.2 -20.5
v 0.7 8.9 -20.5
v 0.7 9 -20.5
v 0.7 9.2 -20.5
v 0.7 8.9 -20.6
v 0.7 9 -20.6
v 0.7 9.2 -20.6
v 0.8 8.9 -20.6
v 0.8 9 -20.6
v 0.8 9.2 -20.6
v 0.8 8.9 -20.7
v 0.8 9 -20.7
v 0.8 9.2 -20.7
v 0.9 8.9 -20.7
v 0.9 9 -20.7
v 0.9 9.2 -20.7
v 0.9 8.9 -20.8
v 0.9 9 -20.8
v 0.9 9.2 -20.8
v 1 8.9 -20.8
v 1 9 -20.8
v 1 9.2 -20.8
v 1 8.9 -20.9
v 1 9 -20.9
v 1 9.2 -20.9
v 1.1 8.9 -20.9
v 1.1 9 -20.9
v 1.1 9.2 -20.9
v 1.1 8.9 -21
v 1.1 9 -21
v 1.1 9.2 -21
v 1.2 8.9 -21
v 1.2 9 -21
v 1.2 9.2 -21
v 1.2 8.9 -21.1
v 1.2 9 -21.1
v 1.2 9.2 -21.1
v 1.3 8.9 -21.1
v 1.3 9 -21.1
v 1.3 9.2 -21.1
v 1.3 8.9 -21.2
v 1.3 9 -21.2
v 1.3 9.2 -21.2
v 1.4 8.9 -21.2
v 1.4 9 -21.2
v 1.4 9.2 -21.2
v 1.4 8.9 -21.3
v 1.4 9 -21.3
v 1.4 9.2 -21.3
v 1.5 8.9 -21.3
v 1.5 9 -21.3
v 1.5 9.2 -21.3
v 1.5 8.9 -21.4
v 1.5 9 -21.4
v 1.5 9.2 -21.4
v 1.6 8.9 -21.4
v 1.6 9 -21.4
v 1.6 9.2 -21.4
v 1.6 8.9 -21.5
v 1.6 9 -21.5
v 1.6 9.2 -21.5
v 1.7 8.9 -21.5
v 1.7 9 -21.5
v 1.7 9.2 -21.5
v 1.7 8.9 -21.6
v 1.7 9 -21.6
v 1.7 9.2 -21.6
v 1.8 8.9 -21.6
v 1.8 9 -21.6
v 1.8 9.2 -21.6
v 1.8 8.9 -21.7
v 1.8 9 -21.7
v 1.8 9.2 -21.7
v 1.9 8.9 -21.7
v 1.9 9 -21.7
v 1.9 9.2 -21.7
v 1.9 8.9 -21.8
v 1.9 9 -21.8
v 1.9 9.2 -21.8
v 2 8.9 -21.8
v 2 9 -21.8
v 2 9.2 -21.8
v 2 8.9 -21.9
v 2 9 -21.9
v 2 9.2 -21.9
v 2.1 8.9 -21.9
v 2.1 9 -21.9
v 2.1 9.2 -21.9
v 2.1 8.9 -22
v 2.1 9 -22
v 2.1 9.2 -22
v 2.2 8.9 -22
v 2.2 9 -22
v 2.2 9.2 -22
v 2.2 8.9 -22.1
v 2.2 9 -22.1
v 2.2 9.2 -22.1
v 2.3 8.9 -22.1
v 2.3 9 -22.1
v 2.3 9.2 -22.1
v 2.3 8.9 -22.2
v 2.3 9 -22.2
v 2.3 9.2 -22.2
v 2.4 8.9 -22.2
v 2.4 9 -22.2
v 2.4 9.2 -22.2
v 2.4 8.9 -22.3
v 2.4 9 -22.3
v 2.4 9.2 -22.3
v 2.5 8.9 -22.3
v 2.5 9 -22.3
v 2.5 9.2 -22.3
v 0.2 4.8 -22.4
v 0.2 8.9 -22.4
v 2.5 8.9 -22.4
v 2.5 9 -22.4
v 2.5 9.2 -22.4
v 2.6 4.8 -22.4
v 2.6 9 -22.4
v 2.6 9.2 -22.4
v 0.2 4.8 -20
v 2.6 4.8 -20
v 0.2 4.8 -22.4
v 2.6 4.8 -22.4
v 0.2 8.9 -20.1
v 0.3 8.9 -20.1
v 0.3 8.9 -20.2
v 0.4 8.9 -20.2
v 0.4 8.9 -20.3
v 0.5 8.9 -20.3
v 0.5 8.9 -20.4
v 0.6 8.9 -20.4
v 0.6 8.9 -20.5
v 0.7 8.9 -20.5
v 0.7 8.9 -20.6
v 0.8 8.9 -20.6
v 0.8 8.9 -20.7
v 0.9 8.9 -20.7
v 0.9 8.9 -20.8
v 1 8.9 -20.8
v 1 8.9 -20.9
v 1.1 8.9 -20.9
v 1.1 8.9 -21
v 1.2 8.9 -21
v 1.2 8.9 -21.1
v 1.3 8.9 -21.1
v 1.3 8.9 -21.2
v 1.4 8.9 -21.2
v 1.4 8.9 -21.3
v 1.5 8.9 -21.3
v 1.5 8.9 -21.4
v 1.6 8.9 -21.4
v 1.6 8.9 -21.5
v 1.7 8.9 -21.5
v 1.7 8.9 -21.6
v 1.8 8.9 -21.6
v 1.8 8.9 -21.7
v 1.9 8.9 -21.7
v 1.9 8.9 -21.8
v 2 8.9 -21.8
v 2 8.9 -21.9
v 2.1 8.9 -21.9
v 2.1 8.9 -22
v 2.2 8.9 -22
v 2.2 8.9 -22.1
v 2.3 8.9 -22.1
v 2.3 8.9 -22.2
v 2.4 8.9 -22.2
v 2.4 8.9 -22.3
v 2.5 8.9 -22.3
v 0.2 8.9 -22.4
v 2.5 8.9 -22.4
v 0.2 9.2 -20
v 2.6 9.2 -20
v 0.2 9.2 -20.1
v 0.3 9.2 -20.1
v 0.3 9.2 -20.2
v 0.4 9.2 -20.2
v 0.4 9.2 -20.3
v 0.5 9.2 -20.3
v 0.5 9.2 -20.4
v 0.6 9.2 -20.4
v 0.6 9.2 -20.5
v 0.7 9.2 -20.5
v 0.7 9.2 -20.6
v 0.8 9.2 -20.6
v 0.8 9.2 -20.7
v 0.9 9.2 -20.7
v 0.9 9.2 -20.8
v 1 9.2 -20.8
v 1 9.2 -20.9
v 1.1 9.2 -20.9
v 1.1 9.2 -21
v 1.2 9.2 -21
v 1.2 9.2 -21.1
v 1.3 9.2 -21.1
v 1.3 9.2 -21.2
v 1.4 9.2 -21.2
v 1.4 9.2 -21.3
v 1.5 9.2 -21.3
v 1.5 9.2 -21.4
v 1.6 9.2 -21.4
v 1.6 9.2 -21.5
v 1.7 9.2 -21.5
v 1.7 9.2 -21.6
v 1.8 9.2 -21.6
v 1.8 9.2 -21.7
v 1.9 9.2 -21.7
v 1.9 9.2 -21.8
v 2 9.2 -21.8
v 2 9.2 -21.9
v 2.1 9.2 -21.9
v 2.1 9.2 -22
v 2.2 9.2 -22
v 2.2 9.2 -22.1
v 2.3 9.2 -22.1
v 2.3 9.2 -22.2
v 2.4 9.2 -22.2
v 2.4 9.2 -22.3
v 2.5 9.2 -22.3
v 2.5 9.2 -22.4
v 2.6 9.2 -22.4

# faces
f 3/1/1 2/1/1 1/1/1
f 4/1/1 2/1/1 3/1/1
f 5/1/1 3/1/1 1/1/1
f 6/1/1 3/1/1 5/1/1
f 7/2/1 6/2/1 5/2/1
f 8/2/1 6/2/1 7/2/1
f 11/1/1 10/1/1 9/1/1
f 12/1/1 10/1/1 11/1/1
f 13/2/1 12/2/1 11/2/1
f 14/2/1 12/2/1 13/2/1
f 17/1/1 16/1/1 15/1/1
f 18/1/1 16/1/1 17/1/1
f 19/2/1 18/2/1 17/2/1
f 20/2/1 18/2/1 19/2/1
f 23/1/1 22/1/1 21/1/1
f 24/1/1 22/1/1 23/1/1
f 25/2/1 24/2/1 23/2/1
f 26/2/1 24/2/1 25/2/1
f 29/1/1 28/1/1 27/1/1
f 30/1/1 28/1/1 29/1/1
f 31/2/1 30/2/1 29/2/1
f 32/2/1 30/2/1 31/2/1
f 35/1/1 34/1/1 33/1/1
f 36/1/1 34/1/1 35/1/1
f 37/2/1 36/2/1 35/2/1
f 38/2/1 36/2/1 37/2/1
f 41/1/1 40/1/1 39/1/1
f 42/1/1 40/1/1 41/1/1
f 43/2/1 42/2/1 41/2/1
f 44/2/1 42/2/1 43/2/1
f 47/1/1 46/1/1 45/1/1
f 48/1/1 46/1/1 47/1/1
f 49/2/1 48/2/1 47/2/1
f 50/2/1 48/2/1 49/2/1
f 53/1/1 52/1/1 51/1/1
f 54/1/1 52/1/1 53/1/1
f 55/2/1 54/2/1 53/2/1
f 56/2/1 54/2/1 55/2/1
f 59/1/1 58/1/1 57/1/1
f 60/1/1 58/1/1 59/1/1
f 61/2/1 60/2/1 59/2/1
f 62/2/1 60/2/1 61/2/1
f 65/1/1 64/1/1 63/1/1
f 66/1/1 64/1/1 65/1/1
f 67/2/1 66/2/1 65/2/1
f 68/2/1 66/2/1 67/2/1
f 71/1/1 70/1/1 69/1/1
f 72/1/1 70/1/1 71/1/1
f 73/2/1 72/2/1 71/2/1
f 74/2/1 72/2/1 73/2/1
f 77/1/1 76/1/1 75/1/1
f 78/1/1 76/1/1 77/1/1
f 79/2/1 78/2/1 77/2/1
f 80/2/1 78/2/1 79/2/1
f 83/1/1 82/1/1 81/1/1
f 84/1/1 82/1/1 83/1/1
f 85/2/1 84/2/1 83/2/1
f 86/2/1 84/2/1 85/2/1
f 89/1/1 88/1/1 87/1/1
f 90/1/1 88/1/1 89/1/1
f 91/2/1 90/2/1 89/2/1
f 92/2/1 90/2/1 91/2/1
f 95/1/1 94/1/1 93/1/1
f 96/1/1 94/1/1 95/1/1
f 97/2/1 96/2/1 95/2/1
f 98/2/1 96/2/1 97/2/1
f 101/1/1 100/1/1 99/1/1
f 102/1/1 100/1/1 101/1/1
f 103/2/1 102/2/1 101/2/1
f 104/2/1 102/2/1 103/2/1
f 107/1/1 106/1/1 105/1/1
f 108/1/1 106/1/1 107/1/1
f 109/2/1 108/2/1 107/2/1
f 110/2/1 108/2/1 109/2/1
f 113/1/1 112/1/1 111/1/1
f 114/1/1 112/1/1 113/1/1
f 115/2/1 114/2/1 113/2/1
f 116/2/1 114/2/1 115/2/1
f 119/1/1 118/1/1 117/1/1
f 120/1/1 118/1/1 119/1/1
f 121/2/1 120/2/1 119/2/1
f 122/2/1 120/2/1 121/2/1
f 125/1/1 124/1/1 123/1/1
f 126/1/1 124/1/1 125/1/1
f 127/2/1 126/2/1 125/2/1
f 128/2/1 126/2/1 127/2/1
f 131/1/1 130/1/1 129/1/1
f 132/1/1 130/1/1 131/1/1
f 133/2/1 132/2/1 131/2/1
f 134/2/1 132/2/1 133/2/1
f 137/1/1 136/1/1 135/1/1
f 138/1/1 136/1/1 137/1/1
f 139/2/1 138/2/1 137/2/1
f 140/2/1 138/2/1 139/2/1
f 143/1/1 142/1/1 141/1/1
f 144/1/1 142/1/1 143/1/1
f 145/2/1 144/2/1 143/2/1
f 146/2/1 144/2/1 145/2/1
f 147/1/2 148/1/2 149/1/2
f 149/1/2 148/1/2 150/1/2
f 149/2/2 150/2/2 151/2/2
f 151/2/2 150/2/2 152/2/2
f 156/1/3 154/1/3 153/1/3
f 157/2/3 155/2/3 154/2/3
f 157/1/3 154/1/3 156/1/3
f 158/2/3 155/2/3 157/2/3
f 159/1/4 160/1/4 162/1/4
f 160/2/4 161/2/4 163/2/4
f 162/1/4 160/1/4 163/1/4
f 163/2/4 161/2/4 164/2/4
f 165/1/4 166/1/4 168/1/4
f 166/2/4 167/2/4 169/2/4
f 168/1/4 166/1/4 169/1/4
f 169/2/4 167/2/4 170/2/4
f 171/1/4 172/1/4 174/1/4
f 172/2/4 173/2/4 175/2/4
f 174/1/4 172/1/4 175/1/4
f 175/2/4 173/2/4 176/2/4
f 177/1/4 178/1/4 180/1/4
f 178/2/4 179/2/4 181/2/4
f 180/1/4 178/1/4 181/1/4
f 181/2/4 179/2/4 182/2/4
f 183/1/4 184/1/4 186/1/4
f 184/2/4 185/2/4 187/2/4
f 186/1/4 184/1/4 187/1/4
f 187/2/4 185/2/4 188/2/4
f 189/1/4 190/1/4 192/1/4
f 190/2/4 191/2/4 193/2/4
f 192/1/4 190/1/4 193/1/4
f 193/2/4 191/2/4 194/2/4
f 195/1/4 196/1/4 198/1/4
f 196/2/4 197/2/4 199/2/4
f 198/1/4 196/1/4 199/1/4
f 199/2/4 197/2/4 200/2/4
f 201/1/4 202/1/4 204/1/4
f 202/2/4 203/2/4 205/2/4
f 204/1/4 202/1/4 205/1/4
f 205/2/4 203/2/4 206/2/4
f 207/1/4 208/1/4 210/1/4
f 208/2/4 209/2/4 211/2/4
f 210/1/4 208/1/4 211/1/4
f 211/2/4 209/2/4 212/2/4
f 213/1/4 214/1/4 216/1/4
f 214/2/4 215/2/4 217/2/4
f 216/1/4 214/1/4 217/1/4
f 217/2/4 215/2/4 218/2/4
f 219/1/4 220/1/4 222/1/4
f 220/2/4 221/2/4 223/2/4
f 222/1/4 220/1/4 223/1/4
f 223/2/4 221/2/4 224/2/4
f 225/1/4 226/1/4 228/1/4
f 226/2/4 227/2/4 229/2/4
f 228/1/4 226/1/4 229/1/4
f 229/2/4 227/2/4 230/2/4
f 231/1/4 232/1/4 234/1/4
f 232/2/4 233/2/4 235/2/4
f 234/1/4 232/1/4 235/1/4
f 235/2/4 233/2/4 236/2/4
f 237/1/4 238/1/4 240/1/4
f 238/2/4 239/2/4 241/2/4
f 240/1/4 238/1/4 241/1/4
f 241/2/4 239/2/4 242/2/4
f 243/1/4 244/1/4 246/1/4
f 244/2/4 245/2/4 247/2/4
f 246/1/4 244/1/4 247/1/4
f 247/2/4 245/2/4 248/2/4
f 249/1/4 250/1/4 252/1/4
f 250/2/4 251/2/4 253/2/4
f 252/1/4 250/1/4 253/1/4
f 253/2/4 251/2/4 254/2/4
f 255/1/4 256/1/4 258/1/4
f 256/2/4 257/2/4 259/2/4
f 258/1/4 256/1/4 259/1/4
f 259/2/4 257/2/4 260/2/4
f 261/1/4 262/1/4 264/1/4
f 262/2/4 263/2/4 265/2/4
f 264/1/4 262/1/4 265/1/4
f 265/2/4 263/2/4 266/2/4
f 267/1/4 268/1/4 270/1/4
f 268/2/4 269/2/4 271/2/4
f 270/1/4 268/1/4 271/1/4
f 271/2/4 269/2/4 272/2/4
f 273/1/4 274/1/4 276/1/4
f 274/2/4 275/2/4 277/2/4
f 276/1/4 274/1/4 277/1/4
f 277/2/4 275/2/4 278/2/4
f 279/1/4 280/1/4 282/1/4
f 280/2/4 281/2/4 283/2/4
f 282/1/4 280/1/4 283/1/4
f 283/2/4 281/2/4 284/2/4
f 285/1/4 286/1/4 288/1/4
f 286/2/4 287/2/4 289/2/4
f 288/1/4 286/1/4 289/1/4
f 289/2/4 287/2/4 290/2/4
f 291/1/4 292/1/4 294/1/4
f 292/2/4 293/2/4 295/2/4
f 294/1/4 292/1/4 295/1/4
f 295/2/4 293/2/4 296/2/4
f 297/1/4 298/1/4 299/1/4
f 297/1/4 299/1/4 302/1/4
f 299/1/4 300/1/4 302/1/4
f 300/2/4 301/2/4 303/2/4
f 302/1/4 300/1/4 303/1/4
f 303/2/4 301/2/4 304/2/4
f 307/1/5 306/1/5 305/1/5
f 308/1/5 306/1/5 307/1/5
f 309/1/6 310/1/6 311/1/6
f 311/1/6 312/1/6 313/1/6
f 313/1/6 314/1/6 315/1/6
f 315/1/6 316/1/6 317/1/6
f 317/1/6 318/1/6 319/1/6
f 319/1/6 320/1/6 321/1/6
f 321/1/6 322/1/6 323/1/6
f 323/1/6 324/1/6 325/1/6
f 325/1/6 326/1/6 327/1/6
f 327/1/6 328/1/6 329/1/6
f 329/1/6 330/1/6 331/1/6
f 331/1/6 332/1/6 333/1/6
f 333/1/6 334/1/6 335/1/6
f 335/1/6 336/1/6 337/1/6
f 337/1/6 338/1/6 339/1/6
f 339/1/6 340/1/6 341/1/6
f 341/1/6 342/1/6 343/1/6
f 343/1/6 344/1/6 345/1/6
f 345/1/6 346/1/6 347/1/6
f 347/1/6 348/1/6 349/1/6
f 349/1/6 350/1/6 351/1/6
f 351/1/6 352/1/6 353/1/6
f 309/1/6 311/1/6 355/1/6
f 353/1/6 354/1/6 355/1/6
f 351/1/6 353/1/6 355/1/6
f 349/1/6 351/1/6 355/1/6
f 347/1/6 349/1/6 355/1/6
f 345/1/6 347/1/6 355/1/6
f 343/1/6 345/1/6 355/1/6
f 341/1/6 343/1/6 355/1/6
f 339/1/6 341/1/6 355/1/6
f 337/1/6 339/1/6 355/1/6
f 335/1/6 337/1/6 355/1/6
f 333/1/6 335/1/6 355/1/6
f 331/1/6 333/1/6 355/1/6
f 329/1/6 331/1/6 355/1/6
f 327/1/6 329/1/6 355/1/6
f 325/1/6 327/1/6 355/1/6
f 323/1/6 325/1/6 355/1/6
f 321/1/6 323/1/6 355/1/6
f 319/1/6 321/1/6 355/1/6
f 317/1/6 319/1/6 355/1/6
f 315/1/6 317/1/6 355/1/6
f 313/1/6 315/1/6 355/1/6
f 311/1/6 313/1/6 355/1/6
f 355/1/6 354/1/6 356/1/6
f 357/2/6 358/2/6 359/2/6
f 359/2/6 358/2/6 360/2/6
f 360/2/6 358/2/6 361/2/6
f 361/2/6 358/2/6 362/2/6
f 362/2/6 358/2/6 363/2/6
f 363/2/6 358/2/6 364/2/6
f 364/2/6 358/2/6 365/2/6
f 365/2/6 358/2/6 366/2/6
f 366/2/6 358/2/6 367/2/6
f 367/2/6 358/2/6 368/2/6
f 368/2/6 358/2/6 369/2/6
f 369/2/6 358/2/6 370/2/6
f 370/2/6 358/2/6 371/2/6
f 371/2/6 358/2/6 372/2/6
f 372/2/6 358/2/6 373/2/6
f 373/2/6 358/2/6 374/2/6
f 374/2/6 358/2/6 375/2/6
f 375/2/6 358/2/6 376/2/6
f 376/2/6 358/2/6 377/2/6
f 377/2/6 358/2/6 378/2/6
f 378/2/6 358/2/6 379/2/6
f 379/2/6 358/2/6 380/2/6
f 380/2/6 358/2/6 381/2/6
f 381/2/6 358/2/6 382/2/6
f 382/2/6 358/2/6 383/2/6
f 383/2/6 358/2/6 384/2/6
f 384/2/6 358/2/6 385/2/6
f 385/2/6 358/2/6 386/2/6
f 386/2/6 358/2/6 387/2/6
f 387/2/6 358/2/6 388/2/6
f 388/2/6 358/2/6 389/2/6
f 389/2/6 358/2/6 390/2/6
f 390/2/6 358/2/6 391/2/6
f 391/2/6 358/2/6 392/2/6
f 392/2/6 358/2/6 393/2/6
f 393/2/6 358/2/6 394/2/6
f 394/2/6 358/2/6 395/2/6
f 395/2/6 358/2/6 396/2/6
f 396/2/6 358/2/6 397/2/6
f 397/2/6 358/2/6 398/2/6
f 398/2/6 358/2/6 399/2/6
f 399/2/6 358/2/6 400/2/6
f 400/2/6 358/2/6 401/2/6
f 401/2/6 358/2/6 402/2/6
f 402/2/6 358/2/6 403/2/6
f 403/2/6 358/2/6 404/2/6
f 404/2/6 358/2/6 405/2/6
f 405/2/6 358/2/6 406/2/6
