# MagicaVoxel @ Ephtracy

# group
o 

# material
mtllib petit roche 1-1.mtl
usemtl palette

# normals
vn -1 0 0
vn 1 0 0
vn 0 0 1
vn 0 0 -1
vn 0 -1 0
vn 0 1 0

# texcoords
vt 0.537109 0.5
vt 0.677734 0.5
vt 0.982422 0.5
vt 0.986328 0.5
vt 0.990234 0.5

# verts
v 0 2 -0.5
v 0 2 -2.9
v 0 6.2 -0.5
v 0 6.2 -2.9
v 0 6.4 -0.5
v 0 6.4 -2.9
v 0.3 6.4 -0.9
v 0.3 6.4 -1
v 0.3 6.4 -1.2
v 0.3 6.5 -0.9
v 0.3 6.5 -1
v 0.3 6.5 -1.2
v 0.4 6.4 -1.2
v 0.4 6.4 -1.3
v 0.4 6.5 -1
v 0.4 6.5 -1.1
v 0.4 6.5 -1.2
v 0.4 6.5 -1.3
v 0.4 6.6 -1
v 0.4 6.6 -1.1
v 0.5 6.5 -1.1
v 0.5 6.5 -1.2
v 0.5 6.6 -1.1
v 0.5 6.6 -1.2
v 1.5 6.4 -1.1
v 1.5 6.4 -1.2
v 1.5 6.5 -1.1
v 1.5 6.5 -1.2
v 1.6 6.3 -1.1
v 1.6 6.3 -1.2
v 1.6 6.4 -0.9
v 1.6 6.4 -1.1
v 1.6 6.4 -1.2
v 1.6 6.4 -1.3
v 1.6 6.5 -0.9
v 1.6 6.5 -1
v 1.6 6.5 -1.1
v 1.6 6.5 -1.2
v 1.6 6.5 -1.3
v 1.6 6.6 -0.9
v 1.6 6.6 -1
v 1.8 6.3 -1.1
v 1.8 6.3 -1.2
v 1.8 6.4 -0.8
v 1.8 6.4 -0.9
v 1.8 6.4 -1.1
v 1.8 6.4 -1.2
v 1.8 6.4 -2.5
v 1.8 6.4 -2.6
v 1.8 6.5 -0.8
v 1.8 6.5 -0.9
v 1.8 6.5 -1.2
v 1.8 6.5 -1.3
v 1.8 6.5 -2.5
v 1.8 6.5 -2.6
v 1.8 6.6 -1.2
v 1.8 6.6 -1.3
v 1.9 6.4 -1
v 1.9 6.4 -1.1
v 1.9 6.4 -2.2
v 1.9 6.4 -2.3
v 1.9 6.4 -2.4
v 1.9 6.4 -2.5
v 1.9 6.5 -1
v 1.9 6.5 -1.1
v 1.9 6.5 -2.2
v 1.9 6.5 -2.3
v 1.9 6.5 -2.4
v 1.9 6.5 -2.5
v 2 6.4 -2.3
v 2 6.4 -2.4
v 2 6.5 -2.3
v 2 6.5 -2.4
v 2.1 6.4 -2.5
v 2.1 6.4 -2.6
v 2.1 6.5 -2.5
v 2.1 6.5 -2.6
v 2.2 6.4 -2.3
v 2.2 6.4 -2.4
v 2.2 6.4 -2.6
v 2.2 6.4 -2.7
v 2.2 6.5 -2.3
v 2.2 6.5 -2.4
v 2.2 6.5 -2.6
v 2.2 6.5 -2.7
v 0.6 6.4 -0.9
v 0.6 6.4 -1
v 0.6 6.4 -1.1
v 0.6 6.4 -1.2
v 0.6 6.4 -1.3
v 0.6 6.5 -0.9
v 0.6 6.5 -1
v 0.6 6.5 -1.1
v 0.6 6.5 -1.2
v 0.6 6.5 -1.3
v 0.6 6.6 -1
v 0.6 6.6 -1.1
v 0.6 6.6 -1.2
v 0.7 6.4 -1.1
v 0.7 6.4 -1.2
v 0.7 6.5 -1.1
v 0.7 6.5 -1.2
v 1.5 6.3 -1.1
v 1.5 6.3 -1.2
v 1.5 6.4 -1.1
v 1.5 6.4 -1.2
v 1.7 6.3 -1.1
v 1.7 6.3 -1.2
v 1.7 6.4 -1.1
v 1.7 6.4 -1.2
v 1.8 6.4 -1
v 1.8 6.4 -1.1
v 1.8 6.5 -0.9
v 1.8 6.5 -1
v 1.8 6.5 -1.1
v 1.8 6.6 -0.9
v 1.8 6.6 -1
v 1.9 6.4 -0.8
v 1.9 6.4 -0.9
v 1.9 6.4 -1
v 1.9 6.4 -1.1
v 1.9 6.4 -1.2
v 1.9 6.4 -2.5
v 1.9 6.4 -2.6
v 1.9 6.5 -0.8
v 1.9 6.5 -0.9
v 1.9 6.5 -1
v 1.9 6.5 -1.1
v 1.9 6.5 -1.2
v 1.9 6.5 -1.3
v 1.9 6.5 -2.5
v 1.9 6.5 -2.6
v 1.9 6.6 -1.2
v 1.9 6.6 -1.3
v 2 6.4 -1
v 2 6.4 -1.1
v 2 6.4 -1.2
v 2 6.4 -1.3
v 2 6.4 -2.2
v 2 6.4 -2.3
v 2 6.5 -1
v 2 6.5 -1.1
v 2 6.5 -1.2
v 2 6.5 -1.3
v 2 6.5 -2.2
v 2 6.5 -2.3
v 2.1 6.4 -2.3
v 2.1 6.4 -2.4
v 2.1 6.5 -2.3
v 2.1 6.5 -2.4
v 2.2 6.4 -2.4
v 2.2 6.4 -2.6
v 2.2 6.5 -2.4
v 2.2 6.5 -2.6
v 2.3 6.4 -2.3
v 2.3 6.4 -2.4
v 2.3 6.4 -2.6
v 2.3 6.4 -2.7
v 2.3 6.5 -2.3
v 2.3 6.5 -2.4
v 2.3 6.5 -2.6
v 2.3 6.5 -2.7
v 2.4 2 -0.5
v 2.4 2 -2.9
v 2.4 6.2 -0.5
v 2.4 6.2 -2.9
v 2.4 6.4 -0.5
v 2.4 6.4 -2.9
v 0 2 -0.5
v 0 6.2 -0.5
v 0 6.4 -0.5
v 2.4 2 -0.5
v 2.4 6.2 -0.5
v 2.4 6.4 -0.5
v 1.8 6.4 -0.8
v 1.8 6.5 -0.8
v 1.9 6.4 -0.8
v 1.9 6.5 -0.8
v 0.3 6.4 -0.9
v 0.3 6.5 -0.9
v 0.5 6.4 -0.9
v 0.5 6.5 -0.9
v 0.6 6.4 -0.9
v 0.6 6.5 -0.9
v 1.6 6.4 -0.9
v 1.6 6.5 -0.9
v 1.6 6.6 -0.9
v 1.7 6.4 -0.9
v 1.7 6.5 -0.9
v 1.8 6.4 -0.9
v 1.8 6.5 -0.9
v 1.8 6.6 -0.9
v 0.4 6.5 -1
v 0.4 6.6 -1
v 0.5 6.5 -1
v 0.5 6.6 -1
v 0.6 6.5 -1
v 0.6 6.6 -1
v 1.9 6.4 -1
v 1.9 6.5 -1
v 2 6.4 -1
v 2 6.5 -1
v 0.6 6.4 -1.1
v 0.6 6.5 -1.1
v 0.7 6.4 -1.1
v 0.7 6.5 -1.1
v 1.5 6.4 -1.1
v 1.5 6.5 -1.1
v 1.6 6.4 -1.1
v 1.6 6.5 -1.1
v 1.8 6.4 -1.1
v 1.8 6.5 -1.1
v 1.9 6.4 -1.1
v 1.9 6.5 -1.1
v 1.5 6.3 -1.2
v 1.5 6.4 -1.2
v 1.6 6.3 -1.2
v 1.6 6.4 -1.2
v 1.7 6.3 -1.2
v 1.7 6.4 -1.2
v 1.8 6.3 -1.2
v 1.8 6.4 -1.2
v 1.8 6.5 -1.2
v 1.8 6.6 -1.2
v 1.9 6.4 -1.2
v 1.9 6.5 -1.2
v 1.9 6.6 -1.2
v 2 6.4 -1.2
v 2 6.5 -1.2
v 1.9 6.4 -2.2
v 1.9 6.5 -2.2
v 2 6.4 -2.2
v 2 6.5 -2.2
v 2 6.4 -2.3
v 2 6.5 -2.3
v 2.1 6.4 -2.3
v 2.1 6.5 -2.3
v 2.2 6.4 -2.3
v 2.2 6.5 -2.3
v 2.3 6.4 -2.3
v 2.3 6.5 -2.3
v 1.9 6.4 -2.4
v 1.9 6.5 -2.4
v 2 6.4 -2.4
v 2 6.5 -2.4
v 2.1 6.4 -2.4
v 2.1 6.5 -2.4
v 2.2 6.4 -2.4
v 2.2 6.5 -2.4
v 1.8 6.4 -2.5
v 1.8 6.5 -2.5
v 1.9 6.4 -2.5
v 1.9 6.5 -2.5
v 2.2 6.4 -2.6
v 2.2 6.5 -2.6
v 2.3 6.4 -2.6
v 2.3 6.5 -2.6
v 1.6 6.5 -1
v 1.6 6.6 -1
v 1.8 6.4 -1
v 1.8 6.5 -1
v 1.8 6.6 -1
v 1.9 6.4 -1
v 1.9 6.5 -1
v 0.4 6.5 -1.1
v 0.4 6.6 -1.1
v 0.5 6.5 -1.1
v 0.5 6.6 -1.1
v 1.5 6.3 -1.1
v 1.5 6.4 -1.1
v 1.6 6.3 -1.1
v 1.6 6.4 -1.1
v 1.7 6.3 -1.1
v 1.7 6.4 -1.1
v 1.8 6.3 -1.1
v 1.8 6.4 -1.1
v 1.9 6.4 -1.1
v 1.9 6.5 -1.1
v 2 6.4 -1.1
v 2 6.5 -1.1
v 0.3 6.4 -1.2
v 0.3 6.5 -1.2
v 0.4 6.4 -1.2
v 0.4 6.5 -1.2
v 0.5 6.5 -1.2
v 0.5 6.6 -1.2
v 0.6 6.4 -1.2
v 0.6 6.5 -1.2
v 0.6 6.6 -1.2
v 0.7 6.4 -1.2
v 0.7 6.5 -1.2
v 1.5 6.4 -1.2
v 1.5 6.5 -1.2
v 1.6 6.4 -1.2
v 1.6 6.5 -1.2
v 0.4 6.4 -1.3
v 0.4 6.5 -1.3
v 0.5 6.4 -1.3
v 0.5 6.5 -1.3
v 0.6 6.4 -1.3
v 0.6 6.5 -1.3
v 1.6 6.4 -1.3
v 1.6 6.5 -1.3
v 1.7 6.4 -1.3
v 1.7 6.5 -1.3
v 1.8 6.4 -1.3
v 1.8 6.5 -1.3
v 1.8 6.6 -1.3
v 1.9 6.5 -1.3
v 1.9 6.6 -1.3
v 2 6.4 -1.3
v 2 6.5 -1.3
v 1.9 6.4 -2.3
v 1.9 6.5 -2.3
v 2 6.4 -2.3
v 2 6.5 -2.3
v 2.2 6.4 -2.4
v 2.2 6.5 -2.4
v 2.3 6.4 -2.4
v 2.3 6.5 -2.4
v 1.9 6.4 -2.5
v 1.9 6.5 -2.5
v 2 6.4 -2.5
v 2 6.5 -2.5
v 2.1 6.4 -2.5
v 2.1 6.5 -2.5
v 1.8 6.4 -2.6
v 1.8 6.5 -2.6
v 1.9 6.4 -2.6
v 1.9 6.5 -2.6
v 2.1 6.4 -2.6
v 2.1 6.5 -2.6
v 2.2 6.4 -2.6
v 2.2 6.5 -2.6
v 2.2 6.4 -2.7
v 2.2 6.5 -2.7
v 2.3 6.4 -2.7
v 2.3 6.5 -2.7
v 0 2 -2.9
v 0 6.2 -2.9
v 0 6.4 -2.9
v 2.4 2 -2.9
v 2.4 6.2 -2.9
v 2.4 6.4 -2.9
v 0 2 -0.5
v 2.4 2 -0.5
v 0 2 -2.9
v 2.4 2 -2.9
v 1.5 6.4 -1.1
v 1.6 6.4 -1.1
v 1.7 6.4 -1.1
v 1.8 6.4 -1.1
v 1.5 6.4 -1.2
v 1.6 6.4 -1.2
v 1.7 6.4 -1.2
v 1.8 6.4 -1.2
v 1.5 6.3 -1.1
v 1.6 6.3 -1.1
v 1.7 6.3 -1.1
v 1.8 6.3 -1.1
v 1.5 6.3 -1.2
v 1.6 6.3 -1.2
v 1.7 6.3 -1.2
v 1.8 6.3 -1.2
v 0 6.4 -0.5
v 2.4 6.4 -0.5
v 1.6 6.4 -0.8
v 1.8 6.4 -0.8
v 1.9 6.4 -0.8
v 0.3 6.4 -0.9
v 0.5 6.4 -0.9
v 0.6 6.4 -0.9
v 1.5 6.4 -0.9
v 1.6 6.4 -0.9
v 1.7 6.4 -0.9
v 1.8 6.4 -0.9
v 1.9 6.4 -0.9
v 2.1 6.4 -0.9
v 0.2 6.4 -1
v 0.3 6.4 -1
v 0.6 6.4 -1
v 1.8 6.4 -1
v 1.9 6.4 -1
v 2 6.4 -1
v 2.1 6.4 -1
v 0.6 6.4 -1.1
v 0.7 6.4 -1.1
v 1.5 6.4 -1.1
v 1.6 6.4 -1.1
v 1.8 6.4 -1.1
v 1.9 6.4 -1.1
v 2 6.4 -1.1
v 0.2 6.4 -1.2
v 0.3 6.4 -1.2
v 0.4 6.4 -1.2
v 0.6 6.4 -1.2
v 0.7 6.4 -1.2
v 1.5 6.4 -1.2
v 1.6 6.4 -1.2
v 1.9 6.4 -1.2
v 2 6.4 -1.2
v 2.1 6.4 -1.2
v 2.2 6.4 -1.2
v 0.3 6.4 -1.3
v 0.4 6.4 -1.3
v 0.5 6.4 -1.3
v 0.6 6.4 -1.3
v 1.6 6.4 -1.3
v 1.7 6.4 -1.3
v 1.8 6.4 -1.3
v 2 6.4 -1.3
v 1.1 6.4 -1.4
v 1.2 6.4 -1.4
v 1.5 6.4 -1.4
v 1.6 6.4 -1.4
v 2.1 6.4 -1.4
v 2.2 6.4 -1.4
v 1.1 6.4 -1.5
v 1.2 6.4 -1.5
v 1.7 6.4 -1.5
v 1.8 6.4 -1.5
v 2.1 6.4 -1.5
v 2.2 6.4 -1.5
v 2.3 6.4 -1.5
v 1.4 6.4 -1.6
v 1.5 6.4 -1.6
v 1.1 6.4 -1.7
v 1.2 6.4 -1.7
v 1.4 6.4 -1.7
v 1.5 6.4 -1.7
v 2 6.4 -1.7
v 2.1 6.4 -1.7
v 2.2 6.4 -1.7
v 2.3 6.4 -1.7
v 1 6.4 -1.8
v 1.1 6.4 -1.8
v 1.2 6.4 -1.8
v 1.6 6.4 -1.8
v 1.7 6.4 -1.8
v 2 6.4 -1.8
v 2.1 6.4 -1.8
v 2.2 6.4 -1.8
v 2.3 6.4 -1.8
v 0.9 6.4 -1.9
v 1 6.4 -1.9
v 1.1 6.4 -1.9
v 1.6 6.4 -1.9
v 1.7 6.4 -1.9
v 2.1 6.4 -1.9
v 2.2 6.4 -1.9
v 0.9 6.4 -2
v 1 6.4 -2
v 1.6 6.4 -2
v 1.7 6.4 -2
v 1.8 6.4 -2
v 1.9 6.4 -2
v 2.1 6.4 -2
v 2.2 6.4 -2
v 2.3 6.4 -2
v 1.6 6.4 -2.1
v 1.7 6.4 -2.1
v 1.8 6.4 -2.1
v 1.9 6.4 -2.1
v 2.1 6.4 -2.1
v 1.1 6.4 -2.2
v 1.2 6.4 -2.2
v 1.4 6.4 -2.2
v 1.5 6.4 -2.2
v 1.6 6.4 -2.2
v 1.8 6.4 -2.2
v 1.9 6.4 -2.2
v 2 6.4 -2.2
v 2.1 6.4 -2.2
v 2.2 6.4 -2.2
v 2.3 6.4 -2.2
v 1.1 6.4 -2.3
v 1.2 6.4 -2.3
v 1.3 6.4 -2.3
v 1.4 6.4 -2.3
v 1.5 6.4 -2.3
v 1.6 6.4 -2.3
v 1.7 6.4 -2.3
v 1.8 6.4 -2.3
v 1.9 6.4 -2.3
v 2 6.4 -2.3
v 2.1 6.4 -2.3
v 2.2 6.4 -2.3
v 2.3 6.4 -2.3
v 1.2 6.4 -2.4
v 1.3 6.4 -2.4
v 1.4 6.4 -2.4
v 1.5 6.4 -2.4
v 1.6 6.4 -2.4
v 1.7 6.4 -2.4
v 1.8 6.4 -2.4
v 1.9 6.4 -2.4
v 2 6.4 -2.4
v 2.1 6.4 -2.4
v 2.2 6.4 -2.4
v 2.3 6.4 -2.4
v 1.3 6.4 -2.5
v 1.4 6.4 -2.5
v 1.5 6.4 -2.5
v 1.7 6.4 -2.5
v 1.8 6.4 -2.5
v 1.9 6.4 -2.5
v 2 6.4 -2.5
v 2.1 6.4 -2.5
v 1.4 6.4 -2.6
v 1.5 6.4 -2.6
v 1.7 6.4 -2.6
v 1.8 6.4 -2.6
v 1.9 6.4 -2.6
v 2.1 6.4 -2.6
v 2.2 6.4 -2.6
v 2.3 6.4 -2.6
v 1.7 6.4 -2.7
v 1.9 6.4 -2.7
v 2.2 6.4 -2.7
v 2.3 6.4 -2.7
v 0 6.4 -2.9
v 2.4 6.4 -2.9
v 1.8 6.5 -0.8
v 1.9 6.5 -0.8
v 0.3 6.5 -0.9
v 0.5 6.5 -0.9
v 0.6 6.5 -0.9
v 1.8 6.5 -0.9
v 1.9 6.5 -0.9
v 0.3 6.5 -1
v 0.4 6.5 -1
v 0.5 6.5 -1
v 0.6 6.5 -1
v 1.6 6.5 -1
v 1.8 6.5 -1
v 1.9 6.5 -1
v 2 6.5 -1
v 0.4 6.5 -1.1
v 0.5 6.5 -1.1
v 0.6 6.5 -1.1
v 0.7 6.5 -1.1
v 1.5 6.5 -1.1
v 1.6 6.5 -1.1
v 1.7 6.5 -1.1
v 1.8 6.5 -1.1
v 1.9 6.5 -1.1
v 2 6.5 -1.1
v 0.3 6.5 -1.2
v 0.4 6.5 -1.2
v 0.5 6.5 -1.2
v 0.6 6.5 -1.2
v 0.7 6.5 -1.2
v 1.5 6.5 -1.2
v 1.6 6.5 -1.2
v 1.7 6.5 -1.2
v 1.8 6.5 -1.2
v 1.9 6.5 -1.2
v 2 6.5 -1.2
v 0.4 6.5 -1.3
v 0.5 6.5 -1.3
v 0.6 6.5 -1.3
v 1.6 6.5 -1.3
v 1.7 6.5 -1.3
v 1.8 6.5 -1.3
v 1.9 6.5 -1.3
v 2 6.5 -1.3
v 1.9 6.5 -2.2
v 2 6.5 -2.2
v 1.9 6.5 -2.3
v 2 6.5 -2.3
v 2.1 6.5 -2.3
v 2.2 6.5 -2.3
v 2.3 6.5 -2.3
v 1.9 6.5 -2.4
v 2 6.5 -2.4
v 2.1 6.5 -2.4
v 2.2 6.5 -2.4
v 2.3 6.5 -2.4
v 1.8 6.5 -2.5
v 1.9 6.5 -2.5
v 2 6.5 -2.5
v 2.1 6.5 -2.5
v 1.8 6.5 -2.6
v 1.9 6.5 -2.6
v 2.1 6.5 -2.6
v 2.2 6.5 -2.6
v 2.3 6.5 -2.6
v 2.2 6.5 -2.7
v 2.3 6.5 -2.7
v 1.6 6.6 -0.9
v 1.8 6.6 -0.9
v 0.4 6.6 -1
v 0.5 6.6 -1
v 0.6 6.6 -1
v 1.6 6.6 -1
v 1.8 6.6 -1
v 0.4 6.6 -1.1
v 0.5 6.6 -1.1
v 0.6 6.6 -1.1
v 0.5 6.6 -1.2
v 0.6 6.6 -1.2
v 1.8 6.6 -1.2
v 1.9 6.6 -1.2
v 1.8 6.6 -1.3
v 1.9 6.6 -1.3

# faces
f 3/1/1 2/1/1 1/1/1
f 4/1/1 2/1/1 3/1/1
f 5/2/1 4/2/1 3/2/1
f 6/2/1 4/2/1 5/2/1
f 10/4/1 8/4/1 7/4/1
f 11/3/1 9/3/1 8/3/1
f 11/4/1 8/4/1 10/4/1
f 12/3/1 9/3/1 11/3/1
f 17/3/1 14/3/1 13/3/1
f 18/3/1 14/3/1 17/3/1
f 19/4/1 16/4/1 15/4/1
f 20/4/1 16/4/1 19/4/1
f 23/4/1 22/4/1 21/4/1
f 24/4/1 22/4/1 23/4/1
f 27/4/1 26/4/1 25/4/1
f 28/4/1 26/4/1 27/4/1
f 32/2/1 30/2/1 29/2/1
f 33/2/1 30/2/1 32/2/1
f 35/4/1 32/4/1 31/4/1
f 36/4/1 32/4/1 35/4/1
f 37/4/1 32/4/1 36/4/1
f 38/4/1 34/4/1 33/4/1
f 39/4/1 34/4/1 38/4/1
f 40/3/1 36/3/1 35/3/1
f 41/3/1 36/3/1 40/3/1
f 46/2/1 43/2/1 42/2/1
f 47/2/1 43/2/1 46/2/1
f 50/4/1 45/4/1 44/4/1
f 51/4/1 45/4/1 50/4/1
f 54/4/1 49/4/1 48/4/1
f 55/4/1 49/4/1 54/4/1
f 56/3/1 53/3/1 52/3/1
f 57/3/1 53/3/1 56/3/1
f 64/3/1 59/3/1 58/3/1
f 65/3/1 59/3/1 64/3/1
f 66/4/1 61/4/1 60/4/1
f 67/4/1 61/4/1 66/4/1
f 68/3/1 63/3/1 62/3/1
f 69/3/1 63/3/1 68/3/1
f 72/3/1 71/3/1 70/3/1
f 73/3/1 71/3/1 72/3/1
f 76/4/1 75/4/1 74/4/1
f 77/4/1 75/4/1 76/4/1
f 82/3/1 79/3/1 78/3/1
f 83/3/1 79/3/1 82/3/1
f 84/4/1 81/4/1 80/4/1
f 85/4/1 81/4/1 84/4/1
f 86/3/2 87/3/2 91/3/2
f 87/4/2 88/4/2 92/4/2
f 91/3/2 87/3/2 92/3/2
f 92/4/2 88/4/2 93/4/2
f 89/4/2 90/4/2 94/4/2
f 94/4/2 90/4/2 95/4/2
f 92/3/2 93/3/2 96/3/2
f 93/4/2 94/4/2 97/4/2
f 96/3/2 93/3/2 97/3/2
f 97/4/2 94/4/2 98/4/2
f 99/4/2 100/4/2 101/4/2
f 101/4/2 100/4/2 102/4/2
f 103/2/2 104/2/2 105/2/2
f 105/2/2 104/2/2 106/2/2
f 107/2/2 108/2/2 109/2/2
f 109/2/2 108/2/2 110/2/2
f 111/4/2 112/4/2 114/4/2
f 114/4/2 112/4/2 115/4/2
f 113/3/2 114/3/2 116/3/2
f 116/3/2 114/3/2 117/3/2
f 118/4/2 119/4/2 125/4/2
f 119/3/2 120/3/2 126/3/2
f 125/4/2 119/4/2 126/4/2
f 126/3/2 120/3/2 127/3/2
f 121/4/2 122/4/2 128/4/2
f 128/4/2 122/4/2 129/4/2
f 123/4/2 124/4/2 131/4/2
f 131/4/2 124/4/2 132/4/2
f 129/3/2 130/3/2 133/3/2
f 133/3/2 130/3/2 134/3/2
f 135/3/2 136/3/2 141/3/2
f 141/3/2 136/3/2 142/3/2
f 137/4/2 138/4/2 143/4/2
f 143/4/2 138/4/2 144/4/2
f 139/4/2 140/4/2 145/4/2
f 145/4/2 140/4/2 146/4/2
f 147/3/2 148/3/2 149/3/2
f 149/3/2 148/3/2 150/3/2
f 151/4/2 152/4/2 153/4/2
f 153/4/2 152/4/2 154/4/2
f 155/3/2 156/3/2 159/3/2
f 159/3/2 156/3/2 160/3/2
f 157/4/2 158/4/2 161/4/2
f 161/4/2 158/4/2 162/4/2
f 163/1/2 164/1/2 165/1/2
f 165/1/2 164/1/2 166/1/2
f 165/2/2 166/2/2 167/2/2
f 167/2/2 166/2/2 168/2/2
f 172/1/3 170/1/3 169/1/3
f 173/2/3 171/2/3 170/2/3
f 173/1/3 170/1/3 172/1/3
f 174/2/3 171/2/3 173/2/3
f 177/4/3 176/4/3 175/4/3
f 178/4/3 176/4/3 177/4/3
f 181/4/3 180/4/3 179/4/3
f 182/4/3 180/4/3 181/4/3
f 183/3/3 182/3/3 181/3/3
f 184/3/3 182/3/3 183/3/3
f 188/4/3 186/4/3 185/4/3
f 189/3/3 187/3/3 186/3/3
f 189/4/3 186/4/3 188/4/3
f 190/3/3 189/3/3 188/3/3
f 191/3/3 187/3/3 189/3/3
f 191/3/3 189/3/3 190/3/3
f 192/3/3 187/3/3 191/3/3
f 195/4/3 194/4/3 193/4/3
f 196/4/3 194/4/3 195/4/3
f 197/3/3 196/3/3 195/3/3
f 198/3/3 196/3/3 197/3/3
f 201/3/3 200/3/3 199/3/3
f 202/3/3 200/3/3 201/3/3
f 205/4/3 204/4/3 203/4/3
f 206/4/3 204/4/3 205/4/3
f 209/4/3 208/4/3 207/4/3
f 210/4/3 208/4/3 209/4/3
f 213/4/3 212/4/3 211/4/3
f 214/4/3 212/4/3 213/4/3
f 217/3/3 216/3/3 215/3/3
f 218/3/3 216/3/3 217/3/3
f 221/4/3 220/4/3 219/4/3
f 222/4/3 220/4/3 221/4/3
f 226/3/3 224/3/3 223/3/3
f 227/3/3 224/3/3 226/3/3
f 228/4/3 226/4/3 225/4/3
f 229/4/3 226/4/3 228/4/3
f 232/4/3 231/4/3 230/4/3
f 233/4/3 231/4/3 232/4/3
f 236/3/3 235/3/3 234/3/3
f 237/3/3 235/3/3 236/3/3
f 240/3/3 239/3/3 238/3/3
f 241/3/3 239/3/3 240/3/3
f 244/3/3 243/3/3 242/3/3
f 245/3/3 243/3/3 244/3/3
f 248/4/3 247/4/3 246/4/3
f 249/4/3 247/4/3 248/4/3
f 252/4/3 251/4/3 250/4/3
f 253/4/3 251/4/3 252/4/3
f 256/4/3 255/4/3 254/4/3
f 257/4/3 255/4/3 256/4/3
f 258/3/4 259/3/4 261/3/4
f 261/3/4 259/3/4 262/3/4
f 260/3/4 261/3/4 263/3/4
f 263/3/4 261/3/4 264/3/4
f 265/4/4 266/4/4 267/4/4
f 267/4/4 266/4/4 268/4/4
f 269/4/4 270/4/4 271/4/4
f 271/4/4 270/4/4 272/4/4
f 273/2/4 274/2/4 275/2/4
f 275/2/4 274/2/4 276/2/4
f 277/3/4 278/3/4 279/3/4
f 279/3/4 278/3/4 280/3/4
f 281/3/4 282/3/4 283/3/4
f 283/3/4 282/3/4 284/3/4
f 285/4/4 286/4/4 288/4/4
f 288/4/4 286/4/4 289/4/4
f 287/4/4 288/4/4 290/4/4
f 290/4/4 288/4/4 291/4/4
f 292/4/4 293/4/4 294/4/4
f 294/4/4 293/4/4 295/4/4
f 296/3/4 297/3/4 298/3/4
f 298/3/4 297/3/4 299/3/4
f 298/4/4 299/4/4 300/4/4
f 300/4/4 299/4/4 301/4/4
f 302/4/4 303/4/4 304/4/4
f 304/4/4 303/4/4 305/4/4
f 304/3/4 305/3/4 306/3/4
f 306/3/4 305/3/4 307/3/4
f 306/4/4 307/4/4 309/4/4
f 307/3/4 308/3/4 309/3/4
f 309/3/4 308/3/4 310/3/4
f 306/4/4 309/4/4 311/4/4
f 311/4/4 309/4/4 312/4/4
f 313/4/4 314/4/4 315/4/4
f 315/4/4 314/4/4 316/4/4
f 317/3/4 318/3/4 319/3/4
f 319/3/4 318/3/4 320/3/4
f 321/3/4 322/3/4 323/3/4
f 323/3/4 322/3/4 324/3/4
f 323/5/4 324/5/4 325/5/4
f 325/5/4 324/5/4 326/5/4
f 327/4/4 328/4/4 329/4/4
f 329/4/4 328/4/4 330/4/4
f 331/4/4 332/4/4 333/4/4
f 333/4/4 332/4/4 334/4/4
f 335/4/4 336/4/4 337/4/4
f 337/4/4 336/4/4 338/4/4
f 339/1/4 340/1/4 342/1/4
f 340/2/4 341/2/4 343/2/4
f 342/1/4 340/1/4 343/1/4
f 343/2/4 341/2/4 344/2/4
f 347/1/5 346/1/5 345/1/5
f 348/1/5 346/1/5 347/1/5
f 353/4/5 350/4/5 349/4/5
f 354/4/5 350/4/5 353/4/5
f 355/4/5 352/4/5 351/4/5
f 356/4/5 352/4/5 355/4/5
f 357/2/6 358/2/6 361/2/6
f 361/2/6 358/2/6 362/2/6
f 359/2/6 360/2/6 363/2/6
f 363/2/6 360/2/6 364/2/6
f 365/2/6 366/2/6 367/2/6
f 367/2/6 366/2/6 368/2/6
f 368/2/6 366/2/6 369/2/6
f 365/2/6 367/2/6 370/2/6
f 370/2/6 367/2/6 371/2/6
f 371/2/6 367/2/6 372/2/6
f 372/2/6 367/2/6 373/2/6
f 367/3/6 368/3/6 374/3/6
f 373/2/6 367/2/6 374/2/6
f 374/3/6 368/3/6 375/3/6
f 375/3/6 368/3/6 376/3/6
f 369/2/6 366/2/6 377/2/6
f 377/2/6 366/2/6 378/2/6
f 365/2/6 370/2/6 379/2/6
f 379/2/6 370/2/6 380/2/6
f 372/2/6 373/2/6 381/2/6
f 377/3/6 378/3/6 383/3/6
f 383/3/6 378/3/6 384/3/6
f 378/2/6 366/2/6 385/2/6
f 384/3/6 378/3/6 385/3/6
f 381/2/6 373/2/6 386/2/6
f 386/2/6 373/2/6 387/2/6
f 373/4/6 374/4/6 388/4/6
f 387/2/6 373/2/6 388/2/6
f 388/4/6 374/4/6 389/4/6
f 382/2/6 383/2/6 390/2/6
f 390/2/6 383/2/6 391/2/6
f 384/2/6 385/2/6 392/2/6
f 379/4/6 380/4/6 393/4/6
f 365/2/6 379/2/6 393/2/6
f 393/4/6 380/4/6 394/4/6
f 387/2/6 388/2/6 397/2/6
f 397/2/6 388/2/6 398/2/6
f 391/2/6 392/2/6 400/2/6
f 392/2/6 385/2/6 401/2/6
f 400/2/6 392/2/6 401/2/6
f 385/2/6 366/2/6 402/2/6
f 401/2/6 385/2/6 402/2/6
f 402/2/6 366/2/6 403/2/6
f 394/4/6 395/4/6 404/4/6
f 393/2/6 394/2/6 404/2/6
f 404/4/6 395/4/6 405/4/6
f 396/2/6 397/2/6 407/2/6
f 397/2/6 398/2/6 407/2/6
f 398/3/6 399/3/6 408/3/6
f 401/2/6 402/2/6 411/2/6
f 406/2/6 407/2/6 412/2/6
f 405/2/6 406/2/6 412/2/6
f 404/2/6 405/2/6 412/2/6
f 407/2/6 398/2/6 412/2/6
f 412/2/6 398/2/6 413/2/6
f 398/3/6 408/3/6 414/3/6
f 413/2/6 398/2/6 414/2/6
f 408/2/6 409/2/6 415/2/6
f 414/3/6 408/3/6 415/3/6
f 410/2/6 411/2/6 416/2/6
f 402/3/6 403/3/6 416/3/6
f 411/2/6 402/2/6 416/2/6
f 403/2/6 366/2/6 417/2/6
f 416/3/6 403/3/6 417/3/6
f 404/2/6 412/2/6 418/2/6
f 412/4/6 413/4/6 418/4/6
f 414/2/6 415/2/6 419/2/6
f 418/4/6 413/4/6 419/4/6
f 413/2/6 414/2/6 419/2/6
f 415/2/6 409/2/6 420/2/6
f 419/2/6 415/2/6 420/2/6
f 409/4/6 410/4/6 420/4/6
f 410/2/6 416/2/6 421/2/6
f 420/4/6 410/4/6 421/4/6
f 416/4/6 417/4/6 422/4/6
f 421/2/6 416/2/6 422/2/6
f 417/2/6 366/2/6 423/2/6
f 422/4/6 417/4/6 423/4/6
f 423/2/6 366/2/6 424/2/6
f 419/2/6 420/2/6 425/2/6
f 418/2/6 419/2/6 425/2/6
f 420/2/6 421/2/6 425/2/6
f 422/2/6 423/2/6 425/2/6
f 421/2/6 422/2/6 425/2/6
f 425/2/6 423/2/6 426/2/6
f 404/2/6 418/2/6 427/2/6
f 418/2/6 425/2/6 427/2/6
f 427/2/6 425/2/6 428/2/6
f 425/4/6 426/4/6 429/4/6
f 428/2/6 425/2/6 429/2/6
f 426/2/6 423/2/6 430/2/6
f 429/4/6 426/4/6 430/4/6
f 430/2/6 423/2/6 431/2/6
f 431/2/6 423/2/6 432/2/6
f 423/5/6 424/5/6 433/5/6
f 432/2/6 423/2/6 433/2/6
f 424/2/6 366/2/6 434/2/6
f 433/5/6 424/5/6 434/5/6
f 404/2/6 427/2/6 435/2/6
f 427/5/6 428/5/6 436/5/6
f 435/2/6 427/2/6 436/2/6
f 428/2/6 429/2/6 437/2/6
f 436/5/6 428/5/6 437/5/6
f 429/2/6 430/2/6 437/2/6
f 430/2/6 431/2/6 437/2/6
f 437/2/6 431/2/6 438/2/6
f 438/2/6 431/2/6 439/2/6
f 431/4/6 432/4/6 440/4/6
f 439/2/6 431/2/6 440/2/6
f 432/2/6 433/2/6 441/2/6
f 440/4/6 432/4/6 441/4/6
f 433/3/6 434/3/6 442/3/6
f 441/2/6 433/2/6 442/2/6
f 434/2/6 366/2/6 443/2/6
f 442/3/6 434/3/6 443/3/6
f 404/2/6 435/2/6 444/2/6
f 435/5/6 436/5/6 445/5/6
f 444/2/6 435/2/6 445/2/6
f 436/2/6 437/2/6 446/2/6
f 445/5/6 436/5/6 446/5/6
f 437/2/6 438/2/6 446/2/6
f 438/3/6 439/3/6 447/3/6
f 446/2/6 438/2/6 447/2/6
f 439/2/6 440/2/6 448/2/6
f 447/3/6 439/3/6 448/3/6
f 441/2/6 442/2/6 448/2/6
f 442/2/6 443/2/6 448/2/6
f 440/2/6 441/2/6 448/2/6
f 448/2/6 443/2/6 449/2/6
f 449/2/6 443/2/6 450/2/6
f 404/2/6 444/2/6 451/2/6
f 444/3/6 445/3/6 451/3/6
f 446/2/6 447/2/6 452/2/6
f 451/3/6 445/3/6 452/3/6
f 445/2/6 446/2/6 452/2/6
f 448/2/6 449/2/6 452/2/6
f 447/2/6 448/2/6 452/2/6
f 452/2/6 449/2/6 453/2/6
f 453/2/6 449/2/6 454/2/6
f 454/2/6 449/2/6 455/2/6
f 455/2/6 449/2/6 456/2/6
f 449/3/6 450/3/6 457/3/6
f 456/2/6 449/2/6 457/2/6
f 450/2/6 443/2/6 458/2/6
f 457/3/6 450/3/6 458/3/6
f 443/2/6 366/2/6 459/2/6
f 458/2/6 443/2/6 459/2/6
f 451/2/6 452/2/6 460/2/6
f 452/2/6 453/2/6 460/2/6
f 453/4/6 454/4/6 460/4/6
f 454/2/6 455/2/6 461/2/6
f 460/4/6 454/4/6 461/4/6
f 455/3/6 456/3/6 462/3/6
f 461/2/6 455/2/6 462/2/6
f 456/2/6 457/2/6 463/2/6
f 462/3/6 456/3/6 463/3/6
f 457/2/6 458/2/6 463/2/6
f 463/2/6 458/2/6 464/2/6
f 460/2/6 461/2/6 465/2/6
f 461/2/6 462/2/6 465/2/6
f 451/2/6 460/2/6 465/2/6
f 462/2/6 463/2/6 465/2/6
f 465/2/6 463/2/6 466/2/6
f 466/2/6 463/2/6 467/2/6
f 467/2/6 463/2/6 468/2/6
f 468/2/6 463/2/6 469/2/6
f 469/2/6 463/2/6 470/2/6
f 463/3/6 464/3/6 471/3/6
f 470/2/6 463/2/6 471/2/6
f 471/3/6 464/3/6 472/3/6
f 464/2/6 458/2/6 473/2/6
f 472/3/6 464/3/6 473/3/6
f 458/3/6 459/3/6 474/3/6
f 473/2/6 458/2/6 474/2/6
f 459/2/6 366/2/6 475/2/6
f 474/3/6 459/3/6 475/3/6
f 451/2/6 465/2/6 476/2/6
f 465/5/6 466/5/6 476/5/6
f 466/2/6 467/2/6 477/2/6
f 476/5/6 466/5/6 477/5/6
f 477/2/6 467/2/6 478/2/6
f 467/5/6 468/5/6 479/5/6
f 478/2/6 467/2/6 479/2/6
f 468/2/6 469/2/6 480/2/6
f 479/5/6 468/5/6 480/5/6
f 469/4/6 470/4/6 481/4/6
f 480/2/6 469/2/6 481/2/6
f 481/4/6 470/4/6 482/4/6
f 470/3/6 471/3/6 483/3/6
f 482/4/6 470/4/6 483/4/6
f 483/3/6 471/3/6 484/3/6
f 472/2/6 473/2/6 485/2/6
f 473/2/6 474/2/6 485/2/6
f 474/2/6 475/2/6 485/2/6
f 485/2/6 475/2/6 486/2/6
f 486/2/6 475/2/6 487/2/6
f 475/2/6 366/2/6 488/2/6
f 487/2/6 475/2/6 488/2/6
f 477/4/6 478/4/6 489/4/6
f 476/2/6 477/2/6 489/2/6
f 478/2/6 479/2/6 490/2/6
f 489/4/6 478/4/6 490/4/6
f 479/4/6 480/4/6 491/4/6
f 490/2/6 479/2/6 491/2/6
f 480/5/6 481/5/6 492/5/6
f 491/4/6 480/4/6 492/4/6
f 481/2/6 482/2/6 493/2/6
f 492/5/6 481/5/6 493/5/6
f 482/5/6 483/5/6 494/5/6
f 493/2/6 482/2/6 494/2/6
f 483/2/6 484/2/6 495/2/6
f 494/5/6 483/5/6 495/5/6
f 484/2/6 485/2/6 495/2/6
f 495/2/6 485/2/6 496/2/6
f 496/2/6 485/2/6 497/2/6
f 486/2/6 487/2/6 498/2/6
f 498/2/6 487/2/6 499/2/6
f 488/2/6 366/2/6 500/2/6
f 489/2/6 490/2/6 501/2/6
f 490/4/6 491/4/6 501/4/6
f 493/2/6 494/2/6 502/2/6
f 501/4/6 491/4/6 502/4/6
f 492/2/6 493/2/6 502/2/6
f 495/2/6 496/2/6 502/2/6
f 494/2/6 495/2/6 502/2/6
f 491/2/6 492/2/6 502/2/6
f 502/2/6 496/2/6 503/2/6
f 503/2/6 496/2/6 504/2/6
f 504/2/6 496/2/6 505/2/6
f 505/2/6 496/2/6 506/2/6
f 501/2/6 502/2/6 509/2/6
f 502/4/6 503/4/6 509/4/6
f 503/3/6 504/3/6 510/3/6
f 509/4/6 503/4/6 510/4/6
f 504/2/6 505/2/6 511/2/6
f 510/3/6 504/3/6 511/3/6
f 511/2/6 505/2/6 512/2/6
f 507/2/6 508/2/6 513/2/6
f 506/2/6 507/2/6 513/2/6
f 513/2/6 508/2/6 514/2/6
f 499/2/6 500/2/6 515/2/6
f 500/2/6 366/2/6 516/2/6
f 515/2/6 500/2/6 516/2/6
f 511/3/6 512/3/6 517/3/6
f 510/2/6 511/2/6 517/2/6
f 509/2/6 510/2/6 517/2/6
f 512/3/6 513/3/6 517/3/6
f 513/2/6 514/2/6 518/2/6
f 517/3/6 513/3/6 518/3/6
f 514/2/6 515/2/6 518/2/6
f 518/2/6 515/2/6 519/2/6
f 516/2/6 366/2/6 520/2/6
f 404/2/6 451/2/6 521/2/6
f 519/2/6 520/2/6 521/2/6
f 509/2/6 517/2/6 521/2/6
f 365/2/6 393/2/6 521/2/6
f 517/2/6 518/2/6 521/2/6
f 501/2/6 509/2/6 521/2/6
f 393/2/6 404/2/6 521/2/6
f 518/2/6 519/2/6 521/2/6
f 489/2/6 501/2/6 521/2/6
f 451/2/6 476/2/6 521/2/6
f 476/2/6 489/2/6 521/2/6
f 520/2/6 366/2/6 522/2/6
f 521/2/6 520/2/6 522/2/6
f 523/4/6 524/4/6 528/4/6
f 528/4/6 524/4/6 529/4/6
f 525/4/6 526/4/6 530/4/6
f 530/4/6 526/4/6 531/4/6
f 526/3/6 527/3/6 532/3/6
f 531/4/6 526/4/6 532/4/6
f 532/3/6 527/3/6 533/3/6
f 528/3/6 529/3/6 535/3/6
f 535/3/6 529/3/6 536/3/6
f 530/3/6 531/3/6 538/3/6
f 534/4/6 535/4/6 543/4/6
f 543/4/6 535/4/6 544/4/6
f 544/4/6 535/4/6 545/4/6
f 536/3/6 537/3/6 546/3/6
f 546/3/6 537/3/6 547/3/6
f 530/3/6 538/3/6 548/3/6
f 538/4/6 539/4/6 549/4/6
f 548/3/6 538/3/6 549/3/6
f 549/4/6 539/4/6 550/4/6
f 540/4/6 541/4/6 551/4/6
f 551/4/6 541/4/6 552/4/6
f 542/4/6 543/4/6 553/4/6
f 543/3/6 544/3/6 554/3/6
f 553/4/6 543/4/6 554/4/6
f 544/4/6 545/4/6 555/4/6
f 554/3/6 544/3/6 555/3/6
f 545/4/6 546/4/6 555/4/6
f 555/4/6 546/4/6 556/4/6
f 556/4/6 546/4/6 557/4/6
f 549/3/6 550/3/6 559/3/6
f 550/4/6 551/4/6 560/4/6
f 559/3/6 550/3/6 560/3/6
f 560/4/6 551/4/6 561/4/6
f 554/4/6 555/4/6 562/4/6
f 555/3/6 556/3/6 563/3/6
f 562/4/6 555/4/6 563/4/6
f 563/3/6 556/3/6 564/3/6
f 557/4/6 558/4/6 565/4/6
f 565/4/6 558/4/6 566/4/6
f 567/4/6 568/4/6 569/4/6
f 569/4/6 568/4/6 570/4/6
f 570/3/6 571/3/6 575/3/6
f 575/3/6 571/3/6 576/3/6
f 572/3/6 573/3/6 577/3/6
f 577/3/6 573/3/6 578/3/6
f 574/3/6 575/3/6 580/3/6
f 575/5/6 576/5/6 581/5/6
f 580/3/6 575/3/6 581/3/6
f 576/4/6 577/4/6 582/4/6
f 581/5/6 576/5/6 582/5/6
f 579/4/6 580/4/6 583/4/6
f 583/4/6 580/4/6 584/4/6
f 582/4/6 577/4/6 585/4/6
f 585/4/6 577/4/6 586/4/6
f 586/4/6 587/4/6 588/4/6
f 588/4/6 587/4/6 589/4/6
f 590/3/6 591/3/6 595/3/6
f 595/3/6 591/3/6 596/3/6
f 592/4/6 593/4/6 597/4/6
f 593/3/6 594/3/6 598/3/6
f 597/4/6 593/4/6 598/4/6
f 598/3/6 594/3/6 599/3/6
f 598/4/6 599/4/6 600/4/6
f 600/4/6 599/4/6 601/4/6
f 602/3/6 603/3/6 604/3/6
f 604/3/6 603/3/6 605/3/6
