# MagicaVoxel @ Ephtracy

# group
o 

# material
mtllib petit roche 2-7.mtl
usemtl palette

# normals
vn -1 0 0
vn 1 0 0
vn 0 0 1
vn 0 0 -1
vn 0 -1 0
vn 0 1 0

# texcoords
vt 0.537109 0.5
vt 0.677734 0.5
vt 0.982422 0.5
vt 0.986328 0.5

# verts
v 0 2 -0.5
v 0 2 -2.9
v 0 6.2 -0.5
v 0 6.2 -2.9
v 0 6.4 -0.5
v 0 6.4 -2.9
v 0.1 6.4 -0.6
v 0.1 6.4 -0.7
v 0.1 6.4 -0.9
v 0.1 6.5 -0.6
v 0.1 6.5 -0.7
v 0.1 6.5 -0.9
v 0.2 6.4 -0.5
v 0.2 6.4 -0.6
v 0.2 6.4 -0.9
v 0.2 6.4 -1.2
v 0.2 6.5 -0.5
v 0.2 6.5 -0.6
v 0.2 6.5 -0.7
v 0.2 6.5 -0.9
v 0.2 6.5 -1
v 0.2 6.5 -1.2
v 0.2 6.6 -0.6
v 0.2 6.6 -1
v 0.3 6.4 -1.2
v 0.3 6.4 -1.3
v 0.3 6.5 -1
v 0.3 6.5 -1.1
v 0.3 6.5 -1.2
v 0.3 6.5 -1.3
v 0.3 6.6 -1
v 0.3 6.6 -1.1
v 0.3 6.6 -1.2
v 0.3 6.7 -1
v 0.3 6.7 -1.1
v 0.4 6.5 -1.2
v 0.4 6.5 -1.3
v 0.4 6.6 -1.2
v 0.4 6.6 -1.3
v 0.3 6.4 -0.5
v 0.3 6.4 -0.6
v 0.3 6.5 -0.5
v 0.3 6.5 -0.6
v 0.3 6.5 -0.8
v 0.3 6.5 -0.9
v 0.3 6.6 -0.8
v 0.3 6.6 -0.9
v 0.4 6.5 -0.6
v 0.4 6.5 -0.7
v 0.4 6.5 -0.8
v 0.4 6.5 -0.9
v 0.4 6.5 -1
v 0.4 6.6 -0.6
v 0.4 6.6 -0.7
v 0.4 6.6 -0.8
v 0.4 6.6 -0.9
v 0.4 6.6 -1
v 0.5 6.4 -0.6
v 0.5 6.4 -0.7
v 0.5 6.4 -0.8
v 0.5 6.5 -0.6
v 0.5 6.5 -0.7
v 0.5 6.5 -0.8
v 0.5 6.5 -1.2
v 0.5 6.5 -1.3
v 0.5 6.6 -1
v 0.5 6.6 -1.1
v 0.5 6.6 -1.2
v 0.5 6.6 -1.3
v 0.5 6.7 -1
v 0.5 6.7 -1.1
v 0.6 6.4 -0.8
v 0.6 6.4 -1
v 0.6 6.5 -0.8
v 0.6 6.5 -1
v 0.6 6.5 -1.1
v 0.6 6.5 -1.2
v 0.6 6.6 -1
v 0.6 6.6 -1.1
v 0.6 6.6 -1.2
v 0.7 6.4 -1
v 0.7 6.4 -1.2
v 0.7 6.4 -1.3
v 0.7 6.5 -1
v 0.7 6.5 -1.2
v 0.7 6.5 -1.3
v 2.4 2 -0.5
v 2.4 2 -2.9
v 2.4 6.2 -0.5
v 2.4 6.2 -2.9
v 2.4 6.4 -0.5
v 2.4 6.4 -2.9
v 0 2 -0.5
v 0 6.2 -0.5
v 0 6.4 -0.5
v 0.2 6.4 -0.5
v 0.2 6.5 -0.5
v 0.3 6.4 -0.5
v 0.3 6.5 -0.5
v 2.4 2 -0.5
v 2.4 6.2 -0.5
v 2.4 6.4 -0.5
v 0.1 6.4 -0.6
v 0.1 6.5 -0.6
v 0.2 6.4 -0.6
v 0.2 6.5 -0.6
v 0.2 6.6 -0.6
v 0.3 6.4 -0.6
v 0.3 6.5 -0.6
v 0.3 6.6 -0.6
v 0.4 6.4 -0.6
v 0.4 6.5 -0.6
v 0.4 6.6 -0.6
v 0.5 6.4 -0.6
v 0.5 6.5 -0.6
v 0.5 6.4 -0.8
v 0.5 6.5 -0.8
v 0.6 6.4 -0.8
v 0.6 6.5 -0.8
v 0.3 6.5 -0.9
v 0.3 6.6 -0.9
v 0.4 6.5 -0.9
v 0.4 6.6 -0.9
v 0.3 6.6 -1
v 0.3 6.7 -1
v 0.4 6.5 -1
v 0.4 6.6 -1
v 0.5 6.5 -1
v 0.5 6.6 -1
v 0.5 6.7 -1
v 0.6 6.4 -1
v 0.6 6.5 -1
v 0.6 6.6 -1
v 0.7 6.4 -1
v 0.7 6.5 -1
v 0.3 6.5 -0.8
v 0.3 6.6 -0.8
v 0.4 6.5 -0.8
v 0.4 6.6 -0.8
v 0.1 6.4 -0.9
v 0.1 6.5 -0.9
v 0.2 6.4 -0.9
v 0.2 6.5 -0.9
v 0.2 6.5 -1
v 0.2 6.6 -1
v 0.3 6.5 -1
v 0.3 6.6 -1
v 0.3 6.6 -1.1
v 0.3 6.7 -1.1
v 0.4 6.6 -1.1
v 0.5 6.6 -1.1
v 0.5 6.7 -1.1
v 0.2 6.4 -1.2
v 0.2 6.5 -1.2
v 0.3 6.4 -1.2
v 0.3 6.5 -1.2
v 0.3 6.6 -1.2
v 0.4 6.5 -1.2
v 0.4 6.6 -1.2
v 0.5 6.5 -1.2
v 0.5 6.6 -1.2
v 0.6 6.5 -1.2
v 0.6 6.6 -1.2
v 0.3 6.4 -1.3
v 0.3 6.5 -1.3
v 0.4 6.5 -1.3
v 0.4 6.6 -1.3
v 0.5 6.5 -1.3
v 0.5 6.6 -1.3
v 0.6 6.4 -1.3
v 0.6 6.5 -1.3
v 0.7 6.4 -1.3
v 0.7 6.5 -1.3
v 0 2 -2.9
v 0 6.2 -2.9
v 0 6.4 -2.9
v 2.4 2 -2.9
v 2.4 6.2 -2.9
v 2.4 6.4 -2.9
v 0 2 -0.5
v 2.4 2 -0.5
v 0 2 -2.9
v 2.4 2 -2.9
v 0 6.4 -0.5
v 0.2 6.4 -0.5
v 0.3 6.4 -0.5
v 2.4 6.4 -0.5
v 0.1 6.4 -0.6
v 0.2 6.4 -0.6
v 0.3 6.4 -0.6
v 0.4 6.4 -0.6
v 0.5 6.4 -0.6
v 0.1 6.4 -0.7
v 0.5 6.4 -0.7
v 0.5 6.4 -0.8
v 0.6 6.4 -0.8
v 0.1 6.4 -0.9
v 0.2 6.4 -0.9
v 0.6 6.4 -1
v 0.7 6.4 -1
v 0.2 6.4 -1.2
v 0.3 6.4 -1.2
v 0.7 6.4 -1.2
v 0.3 6.4 -1.3
v 0.6 6.4 -1.3
v 0.7 6.4 -1.3
v 0 6.4 -2.9
v 2.4 6.4 -2.9
v 0.2 6.5 -0.5
v 0.3 6.5 -0.5
v 0.1 6.5 -0.6
v 0.2 6.5 -0.6
v 0.3 6.5 -0.6
v 0.4 6.5 -0.6
v 0.5 6.5 -0.6
v 0.1 6.5 -0.7
v 0.2 6.5 -0.7
v 0.4 6.5 -0.7
v 0.5 6.5 -0.7
v 0.3 6.5 -0.8
v 0.4 6.5 -0.8
v 0.5 6.5 -0.8
v 0.6 6.5 -0.8
v 0.1 6.5 -0.9
v 0.2 6.5 -0.9
v 0.3 6.5 -0.9
v 0.4 6.5 -0.9
v 0.2 6.5 -1
v 0.3 6.5 -1
v 0.4 6.5 -1
v 0.5 6.5 -1
v 0.6 6.5 -1
v 0.7 6.5 -1
v 0.3 6.5 -1.1
v 0.6 6.5 -1.1
v 0.2 6.5 -1.2
v 0.3 6.5 -1.2
v 0.4 6.5 -1.2
v 0.5 6.5 -1.2
v 0.6 6.5 -1.2
v 0.7 6.5 -1.2
v 0.3 6.5 -1.3
v 0.4 6.5 -1.3
v 0.5 6.5 -1.3
v 0.6 6.5 -1.3
v 0.7 6.5 -1.3
v 0.2 6.6 -0.6
v 0.3 6.6 -0.6
v 0.4 6.6 -0.6
v 0.3 6.6 -0.7
v 0.4 6.6 -0.7
v 0.3 6.6 -0.8
v 0.4 6.6 -0.8
v 0.3 6.6 -0.9
v 0.4 6.6 -0.9
v 0.2 6.6 -1
v 0.3 6.6 -1
v 0.4 6.6 -1
v 0.5 6.6 -1
v 0.6 6.6 -1
v 0.3 6.6 -1.1
v 0.4 6.6 -1.1
v 0.5 6.6 -1.1
v 0.6 6.6 -1.1
v 0.3 6.6 -1.2
v 0.4 6.6 -1.2
v 0.5 6.6 -1.2
v 0.6 6.6 -1.2
v 0.4 6.6 -1.3
v 0.5 6.6 -1.3
v 0.3 6.7 -1
v 0.5 6.7 -1
v 0.3 6.7 -1.1
v 0.5 6.7 -1.1

# faces
f 3/1/1 2/1/1 1/1/1
f 4/1/1 2/1/1 3/1/1
f 5/2/1 4/2/1 3/2/1
f 6/2/1 4/2/1 5/2/1
f 10/4/1 8/4/1 7/4/1
f 11/3/1 9/3/1 8/3/1
f 11/4/1 8/4/1 10/4/1
f 12/3/1 9/3/1 11/3/1
f 17/4/1 14/4/1 13/4/1
f 18/4/1 14/4/1 17/4/1
f 20/4/1 16/4/1 15/4/1
f 21/4/1 16/4/1 20/4/1
f 22/4/1 16/4/1 21/4/1
f 23/4/1 19/4/1 18/4/1
f 23/4/1 21/4/1 20/4/1
f 23/4/1 20/4/1 19/4/1
f 24/4/1 21/4/1 23/4/1
f 29/4/1 26/4/1 25/4/1
f 30/4/1 26/4/1 29/4/1
f 31/4/1 28/4/1 27/4/1
f 32/3/1 29/3/1 28/3/1
f 32/4/1 28/4/1 31/4/1
f 33/3/1 29/3/1 32/3/1
f 34/4/1 32/4/1 31/4/1
f 35/4/1 32/4/1 34/4/1
f 38/3/1 37/3/1 36/3/1
f 39/3/1 37/3/1 38/3/1
f 40/4/2 41/4/2 42/4/2
f 42/4/2 41/4/2 43/4/2
f 44/4/2 45/4/2 46/4/2
f 46/4/2 45/4/2 47/4/2
f 48/3/2 49/3/2 53/3/2
f 49/4/2 50/4/2 54/4/2
f 53/3/2 49/3/2 54/3/2
f 54/4/2 50/4/2 55/4/2
f 51/3/2 52/3/2 56/3/2
f 56/3/2 52/3/2 57/3/2
f 58/3/2 59/3/2 61/3/2
f 59/4/2 60/4/2 62/4/2
f 61/3/2 59/3/2 62/3/2
f 62/4/2 60/4/2 63/4/2
f 64/3/2 65/3/2 68/3/2
f 68/3/2 65/3/2 69/3/2
f 66/4/2 67/4/2 70/4/2
f 70/4/2 67/4/2 71/4/2
f 72/3/2 73/3/2 74/3/2
f 74/3/2 73/3/2 75/3/2
f 75/4/2 76/4/2 78/4/2
f 76/3/2 77/3/2 79/3/2
f 78/4/2 76/4/2 79/4/2
f 79/3/2 77/3/2 80/3/2
f 81/4/2 82/4/2 84/4/2
f 82/3/2 83/3/2 85/3/2
f 84/4/2 82/4/2 85/4/2
f 85/3/2 83/3/2 86/3/2
f 87/1/2 88/1/2 89/1/2
f 89/1/2 88/1/2 90/1/2
f 89/2/2 90/2/2 91/2/2
f 91/2/2 90/2/2 92/2/2
f 96/2/3 95/2/3 94/2/3
f 98/2/3 96/2/3 94/2/3
f 98/4/3 97/4/3 96/4/3
f 99/4/3 97/4/3 98/4/3
f 100/1/3 94/1/3 93/1/3
f 101/2/3 98/2/3 94/2/3
f 101/1/3 94/1/3 100/1/3
f 102/2/3 98/2/3 101/2/3
f 105/4/3 104/4/3 103/4/3
f 106/4/3 104/4/3 105/4/3
f 109/4/3 107/4/3 106/4/3
f 110/4/3 107/4/3 109/4/3
f 111/4/3 109/4/3 108/4/3
f 112/3/3 110/3/3 109/3/3
f 112/4/3 109/4/3 111/4/3
f 113/3/3 110/3/3 112/3/3
f 114/3/3 112/3/3 111/3/3
f 115/3/3 112/3/3 114/3/3
f 118/3/3 117/3/3 116/3/3
f 119/3/3 117/3/3 118/3/3
f 122/3/3 121/3/3 120/3/3
f 123/3/3 121/3/3 122/3/3
f 127/4/3 125/4/3 124/4/3
f 128/4/3 127/4/3 126/4/3
f 129/4/3 125/4/3 127/4/3
f 129/4/3 127/4/3 128/4/3
f 130/4/3 125/4/3 129/4/3
f 132/4/3 129/4/3 128/4/3
f 133/4/3 129/4/3 132/4/3
f 134/4/3 132/4/3 131/4/3
f 135/4/3 132/4/3 134/4/3
f 136/4/4 137/4/4 138/4/4
f 138/4/4 137/4/4 139/4/4
f 140/3/4 141/3/4 142/3/4
f 142/3/4 141/3/4 143/3/4
f 144/4/4 145/4/4 146/4/4
f 146/4/4 145/4/4 147/4/4
f 148/4/4 149/4/4 150/4/4
f 150/4/4 149/4/4 151/4/4
f 151/4/4 149/4/4 152/4/4
f 153/4/4 154/4/4 155/4/4
f 155/4/4 154/4/4 156/4/4
f 156/3/4 157/3/4 158/3/4
f 158/3/4 157/3/4 159/3/4
f 160/3/4 161/3/4 162/3/4
f 162/3/4 161/3/4 163/3/4
f 164/4/4 165/4/4 166/4/4
f 164/4/4 166/4/4 168/4/4
f 166/3/4 167/3/4 168/3/4
f 168/3/4 167/3/4 169/3/4
f 164/4/4 168/4/4 170/4/4
f 170/4/4 168/4/4 171/4/4
f 170/3/4 171/3/4 172/3/4
f 172/3/4 171/3/4 173/3/4
f 174/1/4 175/1/4 177/1/4
f 175/2/4 176/2/4 178/2/4
f 177/1/4 175/1/4 178/1/4
f 178/2/4 176/2/4 179/2/4
f 182/1/5 181/1/5 180/1/5
f 183/1/5 181/1/5 182/1/5
f 184/2/6 185/2/6 188/2/6
f 188/2/6 185/2/6 189/2/6
f 186/2/6 187/2/6 190/2/6
f 190/2/6 187/2/6 191/2/6
f 191/2/6 187/2/6 192/2/6
f 184/2/6 188/2/6 193/2/6
f 192/2/6 187/2/6 194/2/6
f 194/2/6 187/2/6 195/2/6
f 195/2/6 187/2/6 196/2/6
f 184/2/6 193/2/6 197/2/6
f 196/2/6 187/2/6 199/2/6
f 199/2/6 187/2/6 200/2/6
f 197/2/6 198/2/6 201/2/6
f 200/2/6 187/2/6 203/2/6
f 201/2/6 202/2/6 204/2/6
f 203/2/6 187/2/6 206/2/6
f 204/2/6 205/2/6 207/2/6
f 205/2/6 206/2/6 207/2/6
f 184/2/6 197/2/6 207/2/6
f 197/2/6 201/2/6 207/2/6
f 201/2/6 204/2/6 207/2/6
f 206/2/6 187/2/6 208/2/6
f 207/2/6 206/2/6 208/2/6
f 209/4/6 210/4/6 212/4/6
f 212/4/6 210/4/6 213/4/6
f 211/4/6 212/4/6 216/4/6
f 216/4/6 212/4/6 217/4/6
f 214/3/6 215/3/6 218/3/6
f 218/3/6 215/3/6 219/3/6
f 218/4/6 219/4/6 221/4/6
f 221/4/6 219/4/6 222/4/6
f 216/3/6 217/3/6 224/3/6
f 224/3/6 217/3/6 225/3/6
f 220/3/6 221/3/6 226/3/6
f 221/4/6 222/4/6 227/4/6
f 226/3/6 221/3/6 227/3/6
f 227/4/6 222/4/6 230/4/6
f 222/3/6 223/3/6 231/3/6
f 230/4/6 222/4/6 231/4/6
f 231/3/6 223/3/6 232/3/6
f 228/4/6 229/4/6 234/4/6
f 232/4/6 233/4/6 235/4/6
f 228/4/6 234/4/6 236/4/6
f 236/4/6 234/4/6 237/4/6
f 235/4/6 233/4/6 240/4/6
f 240/4/6 233/4/6 241/4/6
f 237/4/6 238/4/6 242/4/6
f 242/4/6 238/4/6 243/4/6
f 239/4/6 240/4/6 244/4/6
f 240/3/6 241/3/6 245/3/6
f 244/4/6 240/4/6 245/4/6
f 245/3/6 241/3/6 246/3/6
f 247/4/6 248/4/6 250/4/6
f 248/3/6 249/3/6 250/3/6
f 250/3/6 249/3/6 251/3/6
f 247/4/6 250/4/6 252/4/6
f 250/4/6 251/4/6 252/4/6
f 252/4/6 251/4/6 253/4/6
f 247/4/6 252/4/6 254/4/6
f 247/4/6 254/4/6 256/4/6
f 254/3/6 255/3/6 257/3/6
f 256/4/6 254/4/6 257/4/6
f 257/3/6 255/3/6 258/3/6
f 259/4/6 260/4/6 263/4/6
f 263/4/6 260/4/6 264/4/6
f 261/3/6 262/3/6 265/3/6
f 262/4/6 263/4/6 266/4/6
f 265/3/6 262/3/6 266/3/6
f 263/3/6 264/3/6 267/3/6
f 266/4/6 263/4/6 267/4/6
f 267/3/6 264/3/6 268/3/6
f 266/3/6 267/3/6 269/3/6
f 269/3/6 267/3/6 270/3/6
f 271/4/6 272/4/6 273/4/6
f 273/4/6 272/4/6 274/4/6
