# MagicaVoxel @ Ephtracy

# group
o 

# material
mtllib petit roche 2-8.mtl
usemtl palette

# normals
vn -1 0 0
vn 1 0 0
vn 0 0 1
vn 0 0 -1
vn 0 -1 0
vn 0 1 0

# texcoords
vt 0.537109 0.5
vt 0.677734 0.5
vt 0.982422 0.5
vt 0.986328 0.5

# verts
v 0 2 -0.5
v 0 2 -2.9
v 0 6.2 -0.5
v 0 6.2 -2.9
v 0 6.4 -0.5
v 0 6.4 -2.9
v 1.6 6.4 -0.8
v 1.6 6.4 -1.1
v 1.6 6.4 -1.2
v 1.6 6.5 -0.8
v 1.6 6.5 -0.9
v 1.6 6.5 -1
v 1.6 6.5 -1.1
v 1.6 6.5 -1.2
v 1.6 6.6 -0.9
v 1.6 6.6 -1
v 1.7 6.4 -0.7
v 1.7 6.4 -0.8
v 1.7 6.5 -0.7
v 1.7 6.5 -0.8
v 1.7 6.5 -0.9
v 1.7 6.5 -1
v 1.7 6.5 -1.1
v 1.7 6.6 -0.8
v 1.7 6.6 -0.9
v 1.7 6.6 -1
v 1.7 6.6 -1.1
v 1.8 6.6 -0.8
v 1.8 6.6 -0.9
v 1.8 6.6 -1
v 1.8 6.7 -0.8
v 1.8 6.7 -1
v 1.9 6.5 -0.7
v 1.9 6.5 -0.8
v 1.9 6.6 -0.7
v 1.9 6.6 -0.8
v 2 6.4 -0.6
v 2 6.4 -0.7
v 2 6.5 -0.6
v 2 6.5 -0.7
v 2.1 6.5 -0.8
v 2.1 6.5 -0.9
v 2.1 6.6 -0.8
v 2.1 6.6 -0.9
v 1.9 6.4 -1.1
v 1.9 6.4 -1.2
v 1.9 6.5 -0.9
v 1.9 6.5 -1
v 1.9 6.5 -1.1
v 1.9 6.5 -1.2
v 1.9 6.6 -0.8
v 1.9 6.6 -0.9
v 1.9 6.6 -1
v 1.9 6.6 -1.1
v 1.9 6.7 -0.8
v 1.9 6.7 -1
v 2 6.5 -0.8
v 2 6.5 -0.9
v 2 6.6 -0.8
v 2 6.6 -0.9
v 2.1 6.4 -1
v 2.1 6.4 -1.1
v 2.1 6.5 -1
v 2.1 6.5 -1.1
v 2.3 6.4 -0.6
v 2.3 6.4 -0.7
v 2.3 6.4 -0.8
v 2.3 6.4 -0.9
v 2.3 6.4 -1
v 2.3 6.5 -0.6
v 2.3 6.5 -0.7
v 2.3 6.5 -0.8
v 2.3 6.5 -0.9
v 2.3 6.5 -1
v 2.3 6.6 -0.7
v 2.3 6.6 -0.8
v 2.3 6.6 -0.9
v 2.4 2 -0.5
v 2.4 2 -2.9
v 2.4 6.2 -0.5
v 2.4 6.2 -2.9
v 2.4 6.4 -0.5
v 2.4 6.4 -0.7
v 2.4 6.4 -0.8
v 2.4 6.4 -2.9
v 2.4 6.5 -0.7
v 2.4 6.5 -0.8
v 0 2 -0.5
v 0 6.2 -0.5
v 0 6.4 -0.5
v 2.4 2 -0.5
v 2.4 6.2 -0.5
v 2.4 6.4 -0.5
v 2 6.4 -0.6
v 2 6.5 -0.6
v 2.2 6.4 -0.6
v 2.2 6.5 -0.6
v 2.3 6.4 -0.6
v 2.3 6.5 -0.6
v 1.7 6.4 -0.7
v 1.7 6.5 -0.7
v 1.9 6.5 -0.7
v 1.9 6.6 -0.7
v 2 6.4 -0.7
v 2 6.5 -0.7
v 2.2 6.5 -0.7
v 2.3 6.4 -0.7
v 2.3 6.5 -0.7
v 2.3 6.6 -0.7
v 2.4 6.4 -0.7
v 2.4 6.5 -0.7
v 1.6 6.4 -0.8
v 1.6 6.5 -0.8
v 1.7 6.4 -0.8
v 1.7 6.5 -0.8
v 1.7 6.6 -0.8
v 1.8 6.5 -0.8
v 1.8 6.6 -0.8
v 1.8 6.7 -0.8
v 1.9 6.5 -0.8
v 1.9 6.6 -0.8
v 1.9 6.7 -0.8
v 1.6 6.5 -0.9
v 1.6 6.6 -0.9
v 1.7 6.5 -0.9
v 1.7 6.6 -0.9
v 2 6.5 -0.8
v 2 6.6 -0.8
v 2.1 6.5 -0.8
v 2.1 6.6 -0.8
v 2.3 6.4 -0.8
v 2.3 6.5 -0.8
v 2.4 6.4 -0.8
v 2.4 6.5 -0.8
v 1.9 6.5 -0.9
v 1.9 6.6 -0.9
v 2 6.5 -0.9
v 2 6.6 -0.9
v 2.1 6.5 -0.9
v 2.1 6.6 -0.9
v 2.2 6.5 -0.9
v 2.2 6.6 -0.9
v 2.3 6.5 -0.9
v 2.3 6.6 -0.9
v 1.6 6.5 -1
v 1.6 6.6 -1
v 1.7 6.5 -1
v 1.7 6.6 -1
v 1.8 6.6 -1
v 1.8 6.7 -1
v 1.9 6.6 -1
v 1.9 6.7 -1
v 2.1 6.4 -1
v 2.1 6.5 -1
v 2.2 6.4 -1
v 2.2 6.5 -1
v 2.3 6.4 -1
v 2.3 6.5 -1
v 1.7 6.5 -1.1
v 1.7 6.6 -1.1
v 1.8 6.5 -1.1
v 1.8 6.6 -1.1
v 1.9 6.4 -1.1
v 1.9 6.5 -1.1
v 1.9 6.6 -1.1
v 2.1 6.4 -1.1
v 2.1 6.5 -1.1
v 1.6 6.4 -1.2
v 1.6 6.5 -1.2
v 1.7 6.4 -1.2
v 1.7 6.5 -1.2
v 1.9 6.4 -1.2
v 1.9 6.5 -1.2
v 0 2 -2.9
v 0 6.2 -2.9
v 0 6.4 -2.9
v 2.4 2 -2.9
v 2.4 6.2 -2.9
v 2.4 6.4 -2.9
v 0 2 -0.5
v 2.4 2 -0.5
v 0 2 -2.9
v 2.4 2 -2.9
v 0 6.4 -0.5
v 2.4 6.4 -0.5
v 2 6.4 -0.6
v 2.2 6.4 -0.6
v 2.3 6.4 -0.6
v 1.7 6.4 -0.7
v 2 6.4 -0.7
v 2.3 6.4 -0.7
v 2.4 6.4 -0.7
v 1.6 6.4 -0.8
v 1.7 6.4 -0.8
v 2.3 6.4 -0.8
v 2.4 6.4 -0.8
v 2.3 6.4 -0.9
v 2.1 6.4 -1
v 2.2 6.4 -1
v 2.3 6.4 -1
v 1.6 6.4 -1.1
v 1.9 6.4 -1.1
v 2.1 6.4 -1.1
v 1.6 6.4 -1.2
v 1.7 6.4 -1.2
v 1.9 6.4 -1.2
v 0 6.4 -2.9
v 2.4 6.4 -2.9
v 2 6.5 -0.6
v 2.2 6.5 -0.6
v 2.3 6.5 -0.6
v 1.7 6.5 -0.7
v 1.9 6.5 -0.7
v 2 6.5 -0.7
v 2.2 6.5 -0.7
v 2.3 6.5 -0.7
v 2.4 6.5 -0.7
v 1.6 6.5 -0.8
v 1.7 6.5 -0.8
v 1.8 6.5 -0.8
v 1.9 6.5 -0.8
v 2 6.5 -0.8
v 2.1 6.5 -0.8
v 2.3 6.5 -0.8
v 2.4 6.5 -0.8
v 1.6 6.5 -0.9
v 1.7 6.5 -0.9
v 1.9 6.5 -0.9
v 2 6.5 -0.9
v 2.1 6.5 -0.9
v 2.2 6.5 -0.9
v 2.3 6.5 -0.9
v 1.6 6.5 -1
v 1.7 6.5 -1
v 1.9 6.5 -1
v 2.1 6.5 -1
v 2.2 6.5 -1
v 2.3 6.5 -1
v 1.6 6.5 -1.1
v 1.7 6.5 -1.1
v 1.8 6.5 -1.1
v 1.9 6.5 -1.1
v 2.1 6.5 -1.1
v 1.6 6.5 -1.2
v 1.7 6.5 -1.2
v 1.9 6.5 -1.2
v 1.9 6.6 -0.7
v 2.3 6.6 -0.7
v 1.7 6.6 -0.8
v 1.8 6.6 -0.8
v 1.9 6.6 -0.8
v 2 6.6 -0.8
v 2.1 6.6 -0.8
v 2.2 6.6 -0.8
v 2.3 6.6 -0.8
v 1.6 6.6 -0.9
v 1.7 6.6 -0.9
v 1.8 6.6 -0.9
v 1.9 6.6 -0.9
v 2 6.6 -0.9
v 2.1 6.6 -0.9
v 2.2 6.6 -0.9
v 2.3 6.6 -0.9
v 1.6 6.6 -1
v 1.7 6.6 -1
v 1.8 6.6 -1
v 1.9 6.6 -1
v 1.7 6.6 -1.1
v 1.8 6.6 -1.1
v 1.9 6.6 -1.1
v 1.8 6.7 -0.8
v 1.9 6.7 -0.8
v 1.8 6.7 -1
v 1.9 6.7 -1

# faces
f 3/1/1 2/1/1 1/1/1
f 4/1/1 2/1/1 3/1/1
f 5/2/1 4/2/1 3/2/1
f 6/2/1 4/2/1 5/2/1
f 10/4/1 8/4/1 7/4/1
f 11/4/1 8/4/1 10/4/1
f 12/4/1 8/4/1 11/4/1
f 13/3/1 9/3/1 8/3/1
f 13/4/1 8/4/1 12/4/1
f 14/3/1 9/3/1 13/3/1
f 15/3/1 12/3/1 11/3/1
f 16/3/1 12/3/1 15/3/1
f 19/4/1 18/4/1 17/4/1
f 20/4/1 18/4/1 19/4/1
f 24/3/1 21/3/1 20/3/1
f 25/3/1 21/3/1 24/3/1
f 26/3/1 23/3/1 22/3/1
f 27/3/1 23/3/1 26/3/1
f 31/4/1 29/4/1 28/4/1
f 31/4/1 30/4/1 29/4/1
f 32/4/1 30/4/1 31/4/1
f 35/4/1 34/4/1 33/4/1
f 36/4/1 34/4/1 35/4/1
f 39/3/1 38/3/1 37/3/1
f 40/3/1 38/3/1 39/3/1
f 43/4/1 42/4/1 41/4/1
f 44/4/1 42/4/1 43/4/1
f 45/4/2 46/4/2 49/4/2
f 49/4/2 46/4/2 50/4/2
f 47/4/2 48/4/2 52/4/2
f 48/4/2 49/4/2 52/4/2
f 52/4/2 49/4/2 53/4/2
f 53/4/2 49/4/2 54/4/2
f 51/4/2 52/4/2 55/4/2
f 52/4/2 53/4/2 55/4/2
f 55/4/2 53/4/2 56/4/2
f 57/3/2 58/3/2 59/3/2
f 59/3/2 58/3/2 60/3/2
f 61/3/2 62/3/2 63/3/2
f 63/3/2 62/3/2 64/3/2
f 65/4/2 66/4/2 70/4/2
f 70/4/2 66/4/2 71/4/2
f 67/4/2 68/4/2 72/4/2
f 68/3/2 69/3/2 73/3/2
f 72/4/2 68/4/2 73/4/2
f 73/3/2 69/3/2 74/3/2
f 71/4/2 72/4/2 75/4/2
f 72/3/2 73/3/2 76/3/2
f 75/4/2 72/4/2 76/4/2
f 76/3/2 73/3/2 77/3/2
f 78/1/2 79/1/2 80/1/2
f 80/1/2 79/1/2 81/1/2
f 80/2/2 81/2/2 82/2/2
f 82/2/2 81/2/2 83/2/2
f 83/2/2 81/2/2 84/2/2
f 84/2/2 81/2/2 85/2/2
f 83/4/2 84/4/2 86/4/2
f 86/4/2 84/4/2 87/4/2
f 91/1/3 89/1/3 88/1/3
f 92/2/3 90/2/3 89/2/3
f 92/1/3 89/1/3 91/1/3
f 93/2/3 90/2/3 92/2/3
f 96/3/3 95/3/3 94/3/3
f 97/3/3 95/3/3 96/3/3
f 98/4/3 97/4/3 96/4/3
f 99/4/3 97/4/3 98/4/3
f 102/4/3 101/4/3 100/4/3
f 104/4/3 102/4/3 100/4/3
f 104/4/3 103/4/3 102/4/3
f 105/4/3 103/4/3 104/4/3
f 106/4/3 103/4/3 105/4/3
f 108/4/3 103/4/3 106/4/3
f 109/4/3 103/4/3 108/4/3
f 110/4/3 108/4/3 107/4/3
f 111/4/3 108/4/3 110/4/3
f 114/4/3 113/4/3 112/4/3
f 115/4/3 113/4/3 114/4/3
f 117/3/3 116/3/3 115/3/3
f 118/3/3 116/3/3 117/3/3
f 120/4/3 118/4/3 117/4/3
f 120/4/3 119/4/3 118/4/3
f 121/4/3 119/4/3 120/4/3
f 122/4/3 119/4/3 121/4/3
f 125/3/3 124/3/3 123/3/3
f 126/3/3 124/3/3 125/3/3
f 127/4/4 128/4/4 129/4/4
f 129/4/4 128/4/4 130/4/4
f 131/4/4 132/4/4 133/4/4
f 133/4/4 132/4/4 134/4/4
f 135/3/4 136/3/4 137/3/4
f 137/3/4 136/3/4 138/3/4
f 139/4/4 140/4/4 141/4/4
f 141/4/4 140/4/4 142/4/4
f 141/3/4 142/3/4 143/3/4
f 143/3/4 142/3/4 144/3/4
f 145/3/4 146/3/4 147/3/4
f 147/3/4 146/3/4 148/3/4
f 149/4/4 150/4/4 151/4/4
f 151/4/4 150/4/4 152/4/4
f 153/4/4 154/4/4 155/4/4
f 155/4/4 154/4/4 156/4/4
f 155/3/4 156/3/4 157/3/4
f 157/3/4 156/3/4 158/3/4
f 159/3/4 160/3/4 161/3/4
f 161/3/4 160/3/4 162/3/4
f 161/4/4 162/4/4 164/4/4
f 164/4/4 162/4/4 165/4/4
f 163/3/4 164/3/4 166/3/4
f 166/3/4 164/3/4 167/3/4
f 168/3/4 169/3/4 170/3/4
f 170/3/4 169/3/4 171/3/4
f 170/4/4 171/4/4 172/4/4
f 172/4/4 171/4/4 173/4/4
f 174/1/4 175/1/4 177/1/4
f 175/2/4 176/2/4 178/2/4
f 177/1/4 175/1/4 178/1/4
f 178/2/4 176/2/4 179/2/4
f 182/1/5 181/1/5 180/1/5
f 183/1/5 181/1/5 182/1/5
f 184/2/6 185/2/6 186/2/6
f 186/2/6 185/2/6 187/2/6
f 187/2/6 185/2/6 188/2/6
f 184/2/6 186/2/6 189/2/6
f 189/2/6 186/2/6 190/2/6
f 188/2/6 185/2/6 191/2/6
f 191/2/6 185/2/6 192/2/6
f 184/2/6 189/2/6 193/2/6
f 193/2/6 189/2/6 194/2/6
f 195/2/6 196/2/6 197/2/6
f 197/2/6 196/2/6 200/2/6
f 184/2/6 193/2/6 201/2/6
f 199/2/6 200/2/6 203/2/6
f 198/2/6 199/2/6 203/2/6
f 184/2/6 201/2/6 204/2/6
f 202/2/6 203/2/6 206/2/6
f 204/2/6 205/2/6 207/2/6
f 205/2/6 206/2/6 207/2/6
f 184/2/6 204/2/6 207/2/6
f 206/2/6 203/2/6 208/2/6
f 207/2/6 206/2/6 208/2/6
f 200/2/6 196/2/6 208/2/6
f 203/2/6 200/2/6 208/2/6
f 209/3/6 210/3/6 214/3/6
f 210/4/6 211/4/6 215/4/6
f 214/3/6 210/3/6 215/3/6
f 215/4/6 211/4/6 216/4/6
f 212/4/6 213/4/6 219/4/6
f 219/4/6 213/4/6 220/4/6
f 220/4/6 213/4/6 221/4/6
f 216/4/6 217/4/6 224/4/6
f 224/4/6 217/4/6 225/4/6
f 218/4/6 219/4/6 226/4/6
f 226/4/6 219/4/6 227/4/6
f 222/3/6 223/3/6 229/3/6
f 229/3/6 223/3/6 230/3/6
f 228/4/6 229/4/6 235/4/6
f 229/4/6 230/4/6 235/4/6
f 230/4/6 231/4/6 235/4/6
f 235/4/6 231/4/6 236/4/6
f 231/3/6 232/3/6 237/3/6
f 236/4/6 231/4/6 237/4/6
f 237/3/6 232/3/6 238/3/6
f 233/4/6 234/4/6 239/4/6
f 239/4/6 234/4/6 240/4/6
f 235/3/6 236/3/6 242/3/6
f 242/3/6 236/3/6 243/3/6
f 239/3/6 240/3/6 244/3/6
f 240/4/6 241/4/6 245/4/6
f 244/3/6 240/3/6 245/3/6
f 241/4/6 242/4/6 245/4/6
f 245/4/6 242/4/6 246/4/6
f 247/4/6 248/4/6 251/4/6
f 251/4/6 248/4/6 252/4/6
f 252/4/6 248/4/6 253/4/6
f 253/4/6 248/4/6 254/4/6
f 254/4/6 248/4/6 255/4/6
f 249/3/6 250/3/6 257/3/6
f 257/3/6 250/3/6 258/3/6
f 251/3/6 252/3/6 259/3/6
f 259/3/6 252/3/6 260/3/6
f 253/4/6 254/4/6 261/4/6
f 254/3/6 255/3/6 262/3/6
f 261/4/6 254/4/6 262/4/6
f 262/3/6 255/3/6 263/3/6
f 256/3/6 257/3/6 264/3/6
f 257/4/6 258/4/6 265/4/6
f 264/3/6 257/3/6 265/3/6
f 265/4/6 258/4/6 266/4/6
f 265/3/6 266/3/6 268/3/6
f 266/4/6 267/4/6 269/4/6
f 268/3/6 266/3/6 269/3/6
f 269/4/6 267/4/6 270/4/6
f 271/4/6 272/4/6 273/4/6
f 273/4/6 272/4/6 274/4/6
