# MagicaVoxel @ Ephtracy

# group
o 

# material
mtllib haute herbes 1-6.mtl
usemtl palette

# normals
vn -1 0 0
vn 1 0 0
vn 0 0 1
vn 0 0 -1
vn 0 -1 0
vn 0 1 0

# texcoords
vt 0.537109 0.5
vt 0.654297 0.5
vt 0.677734 0.5
vt 0.904297 0.5
vt 0.908203 0.5
vt 0.912109 0.5

# verts
v 0 2 -0.5
v 0 2 -2.9
v 0 6.2 -0.5
v 0 6.2 -2.9
v 0 6.4 -0.5
v 0 6.4 -2.9
v 0.2 6.4 -2.4
v 0.2 6.4 -2.5
v 0.2 6.6 -2.4
v 0.2 6.6 -2.5
v 0.3 6.4 -0.9
v 0.3 6.4 -1
v 0.3 6.4 -2.7
v 0.3 6.4 -2.8
v 0.3 6.5 -2.7
v 0.3 6.5 -2.8
v 0.3 6.6 -0.9
v 0.3 6.6 -1
v 0.4 6.4 -2.5
v 0.4 6.4 -2.6
v 0.4 6.6 -2.5
v 0.4 6.6 -2.6
v 0.5 6.4 -0.5
v 0.5 6.4 -0.6
v 0.5 6.6 -0.5
v 0.5 6.6 -0.6
v 0.6 6.4 -0.7
v 0.6 6.4 -0.8
v 0.6 6.5 -0.7
v 0.6 6.5 -0.8
v 0.7 6.4 -1
v 0.7 6.4 -1.1
v 0.7 6.4 -2.3
v 0.7 6.4 -2.4
v 0.7 6.5 -2.3
v 0.7 6.5 -2.4
v 0.7 6.6 -1
v 0.7 6.6 -1.1
v 1.5 6.4 -0.6
v 1.5 6.4 -0.7
v 1.5 6.6 -0.6
v 1.5 6.6 -0.7
v 1.9 6.4 -1.3
v 1.9 6.4 -1.4
v 1.9 6.6 -1.3
v 1.9 6.6 -1.4
v 2 6.4 -0.9
v 2 6.4 -1
v 2 6.4 -1.6
v 2 6.4 -1.7
v 2 6.5 -1.6
v 2 6.5 -1.7
v 2 6.6 -0.9
v 2 6.6 -1
v 2.1 6.4 -2.2
v 2.1 6.4 -2.3
v 2.1 6.6 -2.2
v 2.1 6.6 -2.3
v 2.2 6.4 -2.3
v 2.2 6.4 -2.4
v 2.2 6.6 -2.3
v 2.2 6.6 -2.4
v 0.3 6.4 -2.4
v 0.3 6.4 -2.5
v 0.3 6.6 -2.4
v 0.3 6.6 -2.5
v 0.4 6.4 -0.9
v 0.4 6.4 -1
v 0.4 6.4 -2.7
v 0.4 6.4 -2.8
v 0.4 6.5 -2.7
v 0.4 6.5 -2.8
v 0.4 6.6 -0.9
v 0.4 6.6 -1
v 0.5 6.4 -2.5
v 0.5 6.4 -2.6
v 0.5 6.6 -2.5
v 0.5 6.6 -2.6
v 0.6 6.5 -0.5
v 0.6 6.5 -0.6
v 0.6 6.6 -0.5
v 0.6 6.6 -0.6
v 0.7 6.4 -0.5
v 0.7 6.4 -0.6
v 0.7 6.4 -0.7
v 0.7 6.4 -0.8
v 0.7 6.5 -0.5
v 0.7 6.5 -0.6
v 0.7 6.5 -0.7
v 0.7 6.5 -0.8
v 0.8 6.4 -1
v 0.8 6.4 -1.1
v 0.8 6.4 -2.3
v 0.8 6.4 -2.4
v 0.8 6.5 -2.3
v 0.8 6.5 -2.4
v 0.8 6.6 -1
v 0.8 6.6 -1.1
v 1.6 6.4 -0.6
v 1.6 6.4 -0.7
v 1.6 6.6 -0.6
v 1.6 6.6 -0.7
v 2 6.4 -1.3
v 2 6.4 -1.4
v 2 6.6 -1.3
v 2 6.6 -1.4
v 2.1 6.4 -0.9
v 2.1 6.4 -1
v 2.1 6.4 -1.6
v 2.1 6.4 -1.7
v 2.1 6.5 -1.6
v 2.1 6.5 -1.7
v 2.1 6.6 -0.9
v 2.1 6.6 -1
v 2.2 6.4 -2.2
v 2.2 6.4 -2.3
v 2.2 6.6 -2.2
v 2.2 6.6 -2.3
v 2.3 6.4 -2.3
v 2.3 6.4 -2.4
v 2.3 6.6 -2.3
v 2.3 6.6 -2.4
v 2.4 2 -0.5
v 2.4 2 -2.9
v 2.4 6.2 -0.5
v 2.4 6.2 -2.9
v 2.4 6.4 -0.5
v 2.4 6.4 -2.9
v 0 2 -0.5
v 0 6.2 -0.5
v 0 6.4 -0.5
v 0.5 6.4 -0.5
v 0.5 6.6 -0.5
v 0.6 6.4 -0.5
v 0.6 6.5 -0.5
v 0.6 6.6 -0.5
v 0.7 6.4 -0.5
v 0.7 6.5 -0.5
v 2.4 2 -0.5
v 2.4 6.2 -0.5
v 2.4 6.4 -0.5
v 1.5 6.4 -0.6
v 1.5 6.6 -0.6
v 1.6 6.4 -0.6
v 1.6 6.6 -0.6
v 0.6 6.4 -0.7
v 0.6 6.5 -0.7
v 0.7 6.4 -0.7
v 0.7 6.5 -0.7
v 0.3 6.4 -0.9
v 0.3 6.6 -0.9
v 0.4 6.4 -0.9
v 0.4 6.6 -0.9
v 2 6.4 -0.9
v 2 6.6 -0.9
v 2.1 6.4 -0.9
v 2.1 6.6 -0.9
v 0.7 6.4 -1
v 0.7 6.6 -1
v 0.8 6.4 -1
v 0.8 6.6 -1
v 1.9 6.4 -1.3
v 1.9 6.6 -1.3
v 2 6.4 -1.3
v 2 6.6 -1.3
v 2 6.4 -1.6
v 2 6.5 -1.6
v 2.1 6.4 -1.6
v 2.1 6.5 -1.6
v 2.1 6.4 -2.2
v 2.1 6.6 -2.2
v 2.2 6.4 -2.2
v 2.2 6.6 -2.2
v 0.7 6.4 -2.3
v 0.7 6.5 -2.3
v 0.8 6.4 -2.3
v 0.8 6.5 -2.3
v 2.2 6.4 -2.3
v 2.2 6.6 -2.3
v 2.3 6.4 -2.3
v 2.3 6.6 -2.3
v 0.2 6.4 -2.4
v 0.2 6.6 -2.4
v 0.3 6.4 -2.4
v 0.3 6.6 -2.4
v 0.4 6.4 -2.5
v 0.4 6.6 -2.5
v 0.5 6.4 -2.5
v 0.5 6.6 -2.5
v 0.3 6.4 -2.7
v 0.3 6.5 -2.7
v 0.4 6.4 -2.7
v 0.4 6.5 -2.7
v 0.5 6.4 -0.6
v 0.5 6.6 -0.6
v 0.6 6.4 -0.6
v 0.6 6.5 -0.6
v 0.6 6.6 -0.6
v 0.7 6.4 -0.6
v 0.7 6.5 -0.6
v 1.5 6.4 -0.7
v 1.5 6.6 -0.7
v 1.6 6.4 -0.7
v 1.6 6.6 -0.7
v 0.6 6.4 -0.8
v 0.6 6.5 -0.8
v 0.7 6.4 -0.8
v 0.7 6.5 -0.8
v 0.3 6.4 -1
v 0.3 6.6 -1
v 0.4 6.4 -1
v 0.4 6.6 -1
v 2 6.4 -1
v 2 6.6 -1
v 2.1 6.4 -1
v 2.1 6.6 -1
v 0.7 6.4 -1.1
v 0.7 6.6 -1.1
v 0.8 6.4 -1.1
v 0.8 6.6 -1.1
v 1.9 6.4 -1.4
v 1.9 6.6 -1.4
v 2 6.4 -1.4
v 2 6.6 -1.4
v 2 6.4 -1.7
v 2 6.5 -1.7
v 2.1 6.4 -1.7
v 2.1 6.5 -1.7
v 2.1 6.4 -2.3
v 2.1 6.6 -2.3
v 2.2 6.4 -2.3
v 2.2 6.6 -2.3
v 0.7 6.4 -2.4
v 0.7 6.5 -2.4
v 0.8 6.4 -2.4
v 0.8 6.5 -2.4
v 2.2 6.4 -2.4
v 2.2 6.6 -2.4
v 2.3 6.4 -2.4
v 2.3 6.6 -2.4
v 0.2 6.4 -2.5
v 0.2 6.6 -2.5
v 0.3 6.4 -2.5
v 0.3 6.6 -2.5
v 0.4 6.4 -2.6
v 0.4 6.6 -2.6
v 0.5 6.4 -2.6
v 0.5 6.6 -2.6
v 0.3 6.4 -2.8
v 0.3 6.5 -2.8
v 0.4 6.4 -2.8
v 0.4 6.5 -2.8
v 0 2 -2.9
v 0 6.2 -2.9
v 0 6.4 -2.9
v 2.4 2 -2.9
v 2.4 6.2 -2.9
v 2.4 6.4 -2.9
v 0 2 -0.5
v 2.4 2 -0.5
v 0 2 -2.9
v 2.4 2 -2.9
v 0 6.4 -0.5
v 0.5 6.4 -0.5
v 0.7 6.4 -0.5
v 2.4 6.4 -0.5
v 0.5 6.4 -0.6
v 0.6 6.4 -0.6
v 0.7 6.4 -0.6
v 1.5 6.4 -0.6
v 1.6 6.4 -0.6
v 0.6 6.4 -0.7
v 0.7 6.4 -0.7
v 1.5 6.4 -0.7
v 1.6 6.4 -0.7
v 0.6 6.4 -0.8
v 0.7 6.4 -0.8
v 0.3 6.4 -0.9
v 0.4 6.4 -0.9
v 2 6.4 -0.9
v 2.1 6.4 -0.9
v 0.3 6.4 -1
v 0.4 6.4 -1
v 0.7 6.4 -1
v 0.8 6.4 -1
v 2 6.4 -1
v 2.1 6.4 -1
v 0.7 6.4 -1.1
v 0.8 6.4 -1.1
v 1.9 6.4 -1.3
v 2 6.4 -1.3
v 1.9 6.4 -1.4
v 2 6.4 -1.4
v 2 6.4 -1.6
v 2.1 6.4 -1.6
v 2 6.4 -1.7
v 2.1 6.4 -1.7
v 0.6 6.4 -2.2
v 0.7 6.4 -2.2
v 2.1 6.4 -2.2
v 2.2 6.4 -2.2
v 0.6 6.4 -2.3
v 0.7 6.4 -2.3
v 0.8 6.4 -2.3
v 2.1 6.4 -2.3
v 2.2 6.4 -2.3
v 2.3 6.4 -2.3
v 0.2 6.4 -2.4
v 0.3 6.4 -2.4
v 0.7 6.4 -2.4
v 0.8 6.4 -2.4
v 2.2 6.4 -2.4
v 2.3 6.4 -2.4
v 0.2 6.4 -2.5
v 0.3 6.4 -2.5
v 0.4 6.4 -2.5
v 0.5 6.4 -2.5
v 0.7 6.4 -2.5
v 0.8 6.4 -2.5
v 0.4 6.4 -2.6
v 0.5 6.4 -2.6
v 0.3 6.4 -2.7
v 0.4 6.4 -2.7
v 0.3 6.4 -2.8
v 0.4 6.4 -2.8
v 0 6.4 -2.9
v 2.4 6.4 -2.9
v 0.6 6.5 -0.5
v 0.7 6.5 -0.5
v 0.6 6.5 -0.6
v 0.7 6.5 -0.6
v 0.6 6.5 -0.7
v 0.7 6.5 -0.7
v 0.6 6.5 -0.8
v 0.7 6.5 -0.8
v 2 6.5 -1.6
v 2.1 6.5 -1.6
v 2 6.5 -1.7
v 2.1 6.5 -1.7
v 0.7 6.5 -2.3
v 0.8 6.5 -2.3
v 0.7 6.5 -2.4
v 0.8 6.5 -2.4
v 0.3 6.5 -2.7
v 0.4 6.5 -2.7
v 0.3 6.5 -2.8
v 0.4 6.5 -2.8
v 0.5 6.6 -0.5
v 0.6 6.6 -0.5
v 0.5 6.6 -0.6
v 0.6 6.6 -0.6
v 1.5 6.6 -0.6
v 1.6 6.6 -0.6
v 1.5 6.6 -0.7
v 1.6 6.6 -0.7
v 0.3 6.6 -0.9
v 0.4 6.6 -0.9
v 2 6.6 -0.9
v 2.1 6.6 -0.9
v 0.3 6.6 -1
v 0.4 6.6 -1
v 0.7 6.6 -1
v 0.8 6.6 -1
v 2 6.6 -1
v 2.1 6.6 -1
v 0.7 6.6 -1.1
v 0.8 6.6 -1.1
v 1.9 6.6 -1.3
v 2 6.6 -1.3
v 1.9 6.6 -1.4
v 2 6.6 -1.4
v 2.1 6.6 -2.2
v 2.2 6.6 -2.2
v 2.1 6.6 -2.3
v 2.2 6.6 -2.3
v 2.3 6.6 -2.3
v 0.2 6.6 -2.4
v 0.3 6.6 -2.4
v 2.2 6.6 -2.4
v 2.3 6.6 -2.4
v 0.2 6.6 -2.5
v 0.3 6.6 -2.5
v 0.4 6.6 -2.5
v 0.5 6.6 -2.5
v 0.4 6.6 -2.6
v 0.5 6.6 -2.6

# faces
f 3/1/1 2/1/1 1/1/1
f 4/1/1 2/1/1 3/1/1
f 5/3/1 4/3/1 3/3/1
f 6/3/1 4/3/1 5/3/1
f 9/6/1 8/6/1 7/6/1
f 10/6/1 8/6/1 9/6/1
f 15/6/1 14/6/1 13/6/1
f 16/6/1 14/6/1 15/6/1
f 17/5/1 12/5/1 11/5/1
f 18/5/1 12/5/1 17/5/1
f 21/6/1 20/6/1 19/6/1
f 22/6/1 20/6/1 21/6/1
f 25/4/1 24/4/1 23/4/1
f 26/4/1 24/4/1 25/4/1
f 29/6/1 28/6/1 27/6/1
f 30/6/1 28/6/1 29/6/1
f 35/5/1 34/5/1 33/5/1
f 36/5/1 34/5/1 35/5/1
f 37/4/1 32/4/1 31/4/1
f 38/4/1 32/4/1 37/4/1
f 41/5/1 40/5/1 39/5/1
f 42/5/1 40/5/1 41/5/1
f 45/5/1 44/5/1 43/5/1
f 46/5/1 44/5/1 45/5/1
f 51/6/1 50/6/1 49/6/1
f 52/6/1 50/6/1 51/6/1
f 53/6/1 48/6/1 47/6/1
f 54/6/1 48/6/1 53/6/1
f 57/5/1 56/5/1 55/5/1
f 58/5/1 56/5/1 57/5/1
f 61/2/1 60/2/1 59/2/1
f 62/2/1 60/2/1 61/2/1
f 63/6/2 64/6/2 65/6/2
f 65/6/2 64/6/2 66/6/2
f 69/6/2 70/6/2 71/6/2
f 71/6/2 70/6/2 72/6/2
f 67/5/2 68/5/2 73/5/2
f 73/5/2 68/5/2 74/5/2
f 75/6/2 76/6/2 77/6/2
f 77/6/2 76/6/2 78/6/2
f 79/4/2 80/4/2 81/4/2
f 81/4/2 80/4/2 82/4/2
f 83/6/2 84/6/2 87/6/2
f 87/6/2 84/6/2 88/6/2
f 85/6/2 86/6/2 89/6/2
f 89/6/2 86/6/2 90/6/2
f 93/5/2 94/5/2 95/5/2
f 95/5/2 94/5/2 96/5/2
f 91/4/2 92/4/2 97/4/2
f 97/4/2 92/4/2 98/4/2
f 99/5/2 100/5/2 101/5/2
f 101/5/2 100/5/2 102/5/2
f 103/5/2 104/5/2 105/5/2
f 105/5/2 104/5/2 106/5/2
f 109/6/2 110/6/2 111/6/2
f 111/6/2 110/6/2 112/6/2
f 107/6/2 108/6/2 113/6/2
f 113/6/2 108/6/2 114/6/2
f 115/5/2 116/5/2 117/5/2
f 117/5/2 116/5/2 118/5/2
f 119/2/2 120/2/2 121/2/2
f 121/2/2 120/2/2 122/2/2
f 123/1/2 124/1/2 125/1/2
f 125/1/2 124/1/2 126/1/2
f 125/3/2 126/3/2 127/3/2
f 127/3/2 126/3/2 128/3/2
f 132/3/3 131/3/3 130/3/3
f 134/3/3 132/3/3 130/3/3
f 134/4/3 133/4/3 132/4/3
f 135/4/3 133/4/3 134/4/3
f 136/4/3 133/4/3 135/4/3
f 137/3/3 134/3/3 130/3/3
f 137/6/3 135/6/3 134/6/3
f 138/6/3 135/6/3 137/6/3
f 139/1/3 130/1/3 129/1/3
f 140/3/3 137/3/3 130/3/3
f 140/1/3 130/1/3 139/1/3
f 141/3/3 137/3/3 140/3/3
f 144/5/3 143/5/3 142/5/3
f 145/5/3 143/5/3 144/5/3
f 148/6/3 147/6/3 146/6/3
f 149/6/3 147/6/3 148/6/3
f 152/5/3 151/5/3 150/5/3
f 153/5/3 151/5/3 152/5/3
f 156/6/3 155/6/3 154/6/3
f 157/6/3 155/6/3 156/6/3
f 160/4/3 159/4/3 158/4/3
f 161/4/3 159/4/3 160/4/3
f 164/5/3 163/5/3 162/5/3
f 165/5/3 163/5/3 164/5/3
f 168/6/3 167/6/3 166/6/3
f 169/6/3 167/6/3 168/6/3
f 172/5/3 171/5/3 170/5/3
f 173/5/3 171/5/3 172/5/3
f 176/5/3 175/5/3 174/5/3
f 177/5/3 175/5/3 176/5/3
f 180/2/3 179/2/3 178/2/3
f 181/2/3 179/2/3 180/2/3
f 184/6/3 183/6/3 182/6/3
f 185/6/3 183/6/3 184/6/3
f 188/6/3 187/6/3 186/6/3
f 189/6/3 187/6/3 188/6/3
f 192/6/3 191/6/3 190/6/3
f 193/6/3 191/6/3 192/6/3
f 194/4/4 195/4/4 196/4/4
f 196/4/4 195/4/4 197/4/4
f 197/4/4 195/4/4 198/4/4
f 196/6/4 197/6/4 199/6/4
f 199/6/4 197/6/4 200/6/4
f 201/5/4 202/5/4 203/5/4
f 203/5/4 202/5/4 204/5/4
f 205/6/4 206/6/4 207/6/4
f 207/6/4 206/6/4 208/6/4
f 209/5/4 210/5/4 211/5/4
f 211/5/4 210/5/4 212/5/4
f 213/6/4 214/6/4 215/6/4
f 215/6/4 214/6/4 216/6/4
f 217/4/4 218/4/4 219/4/4
f 219/4/4 218/4/4 220/4/4
f 221/5/4 222/5/4 223/5/4
f 223/5/4 222/5/4 224/5/4
f 225/6/4 226/6/4 227/6/4
f 227/6/4 226/6/4 228/6/4
f 229/5/4 230/5/4 231/5/4
f 231/5/4 230/5/4 232/5/4
f 233/5/4 234/5/4 235/5/4
f 235/5/4 234/5/4 236/5/4
f 237/2/4 238/2/4 239/2/4
f 239/2/4 238/2/4 240/2/4
f 241/6/4 242/6/4 243/6/4
f 243/6/4 242/6/4 244/6/4
f 245/6/4 246/6/4 247/6/4
f 247/6/4 246/6/4 248/6/4
f 249/6/4 250/6/4 251/6/4
f 251/6/4 250/6/4 252/6/4
f 253/1/4 254/1/4 256/1/4
f 254/3/4 255/3/4 257/3/4
f 256/1/4 254/1/4 257/1/4
f 257/3/4 255/3/4 258/3/4
f 261/1/5 260/1/5 259/1/5
f 262/1/5 260/1/5 261/1/5
f 263/3/6 264/3/6 267/3/6
f 265/3/6 266/3/6 269/3/6
f 269/3/6 266/3/6 270/3/6
f 270/3/6 266/3/6 271/3/6
f 267/3/6 268/3/6 272/3/6
f 268/3/6 269/3/6 272/3/6
f 269/3/6 270/3/6 272/3/6
f 272/3/6 270/3/6 273/3/6
f 273/3/6 270/3/6 274/3/6
f 271/3/6 266/3/6 275/3/6
f 267/3/6 272/3/6 276/3/6
f 273/3/6 274/3/6 277/3/6
f 274/3/6 275/3/6 277/3/6
f 267/3/6 276/3/6 278/3/6
f 276/3/6 277/3/6 278/3/6
f 263/3/6 267/3/6 278/3/6
f 278/3/6 277/3/6 279/3/6
f 277/3/6 275/3/6 280/3/6
f 279/3/6 277/3/6 280/3/6
f 275/3/6 266/3/6 280/3/6
f 280/3/6 266/3/6 281/3/6
f 263/3/6 278/3/6 282/3/6
f 279/3/6 280/3/6 283/3/6
f 283/3/6 280/3/6 284/3/6
f 284/3/6 280/3/6 285/3/6
f 285/3/6 280/3/6 286/3/6
f 281/3/6 266/3/6 287/3/6
f 282/3/6 283/3/6 288/3/6
f 283/3/6 284/3/6 288/3/6
f 285/3/6 286/3/6 289/3/6
f 286/3/6 287/3/6 289/3/6
f 289/3/6 287/3/6 290/3/6
f 288/3/6 289/3/6 290/3/6
f 290/3/6 287/3/6 291/3/6
f 288/3/6 290/3/6 292/3/6
f 291/3/6 287/3/6 293/3/6
f 293/3/6 287/3/6 294/3/6
f 292/3/6 293/3/6 294/3/6
f 287/3/6 266/3/6 295/3/6
f 294/3/6 287/3/6 295/3/6
f 292/3/6 294/3/6 296/3/6
f 295/3/6 266/3/6 297/3/6
f 282/3/6 288/3/6 298/3/6
f 296/3/6 297/3/6 298/3/6
f 292/3/6 296/3/6 298/3/6
f 288/3/6 292/3/6 298/3/6
f 298/3/6 297/3/6 299/3/6
f 297/3/6 266/3/6 300/3/6
f 299/3/6 297/3/6 300/3/6
f 300/3/6 266/3/6 301/3/6
f 298/4/6 299/4/6 302/4/6
f 282/3/6 298/3/6 302/3/6
f 299/3/6 300/3/6 303/3/6
f 302/4/6 299/4/6 303/4/6
f 303/3/6 300/3/6 304/3/6
f 304/3/6 300/3/6 305/3/6
f 301/3/6 266/3/6 306/3/6
f 306/3/6 266/3/6 307/3/6
f 263/3/6 282/3/6 308/3/6
f 282/3/6 302/3/6 308/3/6
f 302/3/6 303/3/6 308/3/6
f 308/3/6 303/3/6 309/3/6
f 309/3/6 303/3/6 310/3/6
f 304/3/6 305/3/6 311/3/6
f 305/3/6 306/3/6 311/3/6
f 311/3/6 306/3/6 312/3/6
f 307/3/6 266/3/6 313/3/6
f 263/3/6 308/3/6 314/3/6
f 309/3/6 310/3/6 315/3/6
f 315/3/6 310/3/6 316/3/6
f 316/3/6 310/3/6 317/3/6
f 310/4/6 311/4/6 318/4/6
f 317/3/6 310/3/6 318/3/6
f 311/3/6 312/3/6 319/3/6
f 318/4/6 311/4/6 319/4/6
f 312/3/6 313/3/6 319/3/6
f 315/3/6 316/3/6 320/3/6
f 314/3/6 315/3/6 320/3/6
f 317/3/6 318/3/6 321/3/6
f 318/3/6 319/3/6 321/3/6
f 314/3/6 320/3/6 322/3/6
f 320/3/6 321/3/6 322/3/6
f 322/3/6 321/3/6 323/3/6
f 314/3/6 322/3/6 324/3/6
f 323/3/6 321/3/6 325/3/6
f 263/3/6 314/3/6 326/3/6
f 324/3/6 325/3/6 326/3/6
f 314/3/6 324/3/6 326/3/6
f 325/3/6 321/3/6 327/3/6
f 326/3/6 325/3/6 327/3/6
f 321/3/6 319/3/6 327/3/6
f 319/3/6 313/3/6 327/3/6
f 313/3/6 266/3/6 327/3/6
f 328/6/6 329/6/6 330/6/6
f 330/6/6 329/6/6 331/6/6
f 332/6/6 333/6/6 334/6/6
f 334/6/6 333/6/6 335/6/6
f 336/6/6 337/6/6 338/6/6
f 338/6/6 337/6/6 339/6/6
f 340/5/6 341/5/6 342/5/6
f 342/5/6 341/5/6 343/5/6
f 344/6/6 345/6/6 346/6/6
f 346/6/6 345/6/6 347/6/6
f 348/4/6 349/4/6 350/4/6
f 350/4/6 349/4/6 351/4/6
f 352/5/6 353/5/6 354/5/6
f 354/5/6 353/5/6 355/5/6
f 356/5/6 357/5/6 360/5/6
f 360/5/6 357/5/6 361/5/6
f 358/6/6 359/6/6 364/6/6
f 364/6/6 359/6/6 365/6/6
f 362/4/6 363/4/6 366/4/6
f 366/4/6 363/4/6 367/4/6
f 368/5/6 369/5/6 370/5/6
f 370/5/6 369/5/6 371/5/6
f 372/5/6 373/5/6 374/5/6
f 374/5/6 373/5/6 375/5/6
f 375/2/6 376/2/6 379/2/6
f 379/2/6 376/2/6 380/2/6
f 377/6/6 378/6/6 381/6/6
f 381/6/6 378/6/6 382/6/6
f 383/6/6 384/6/6 385/6/6
f 385/6/6 384/6/6 386/6/6
