# MagicaVoxel @ Ephtracy

# group
o 

# material
mtllib haute herbes 2-3.mtl
usemtl palette

# normals
vn -1 0 0
vn 1 0 0
vn 0 0 1
vn 0 0 -1
vn 0 -1 0
vn 0 1 0

# texcoords
vt 0.537109 0.5
vt 0.677734 0.5
vt 0.892578 0.5
vt 0.900391 0.5
vt 0.904297 0.5
vt 0.912109 0.5

# verts
v 0 2 -0.5
v 0 2 -2.9
v 0 6.2 -0.5
v 0 6.2 -2.9
v 0 6.4 -0.5
v 0 6.4 -2.9
v 0.1 6.4 -2
v 0.1 6.4 -2.1
v 0.1 6.4 -2.6
v 0.1 6.4 -2.7
v 0.1 6.5 -2
v 0.1 6.5 -2.1
v 0.1 6.7 -2.6
v 0.1 6.7 -2.7
v 0.2 6.4 -0.5
v 0.2 6.4 -0.6
v 0.2 6.4 -0.8
v 0.2 6.4 -0.9
v 0.2 6.4 -1
v 0.2 6.4 -1.1
v 0.2 6.4 -2.3
v 0.2 6.4 -2.5
v 0.2 6.5 -1
v 0.2 6.5 -1.1
v 0.2 6.5 -2.4
v 0.2 6.5 -2.5
v 0.2 6.6 -0.5
v 0.2 6.6 -0.6
v 0.2 6.6 -0.8
v 0.2 6.6 -0.9
v 0.2 6.6 -2.3
v 0.2 6.6 -2.4
v 0.3 6.4 -2
v 0.3 6.4 -2.1
v 0.3 6.6 -2
v 0.3 6.6 -2.1
v 0.4 6.4 -0.8
v 0.4 6.4 -0.9
v 0.4 6.6 -0.8
v 0.4 6.6 -0.9
v 0.6 6.4 -0.6
v 0.6 6.4 -0.7
v 0.6 6.4 -2.5
v 0.6 6.4 -2.6
v 0.6 6.5 -0.6
v 0.6 6.5 -0.7
v 0.6 6.6 -2.5
v 0.6 6.6 -2.6
v 0.7 6.4 -1
v 0.7 6.4 -1.1
v 0.7 6.5 -1
v 0.7 6.5 -1.1
v 0.9 6.4 -0.6
v 0.9 6.4 -0.7
v 0.9 6.5 -0.6
v 0.9 6.5 -0.7
v 1 6.4 -0.7
v 1 6.4 -0.8
v 1 6.5 -0.7
v 1 6.5 -0.8
v 1.3 6.4 -0.5
v 1.3 6.4 -0.6
v 1.3 6.5 -0.5
v 1.3 6.5 -0.6
v 1.4 6.4 -0.9
v 1.4 6.4 -1
v 1.4 6.6 -0.9
v 1.4 6.6 -1
v 1.5 6.4 -0.7
v 1.5 6.4 -0.8
v 1.5 6.5 -0.7
v 1.5 6.5 -0.8
v 2 6.4 -0.5
v 2 6.4 -0.6
v 2 6.4 -2.4
v 2 6.4 -2.5
v 2 6.5 -0.5
v 2 6.5 -0.6
v 2 6.5 -2.4
v 2 6.5 -2.5
v 2.1 6.4 -1.1
v 2.1 6.4 -1.2
v 2.1 6.6 -1.1
v 2.1 6.6 -1.2
v 0.2 6.4 -2
v 0.2 6.4 -2.1
v 0.2 6.4 -2.6
v 0.2 6.4 -2.7
v 0.2 6.5 -2
v 0.2 6.5 -2.1
v 0.2 6.7 -2.6
v 0.2 6.7 -2.7
v 0.3 6.4 -0.5
v 0.3 6.4 -0.6
v 0.3 6.4 -0.8
v 0.3 6.4 -0.9
v 0.3 6.4 -1
v 0.3 6.4 -1.1
v 0.3 6.4 -2.3
v 0.3 6.4 -2.5
v 0.3 6.5 -1
v 0.3 6.5 -1.1
v 0.3 6.5 -2.4
v 0.3 6.5 -2.5
v 0.3 6.6 -0.5
v 0.3 6.6 -0.6
v 0.3 6.6 -0.8
v 0.3 6.6 -0.9
v 0.3 6.6 -2.3
v 0.3 6.6 -2.4
v 0.4 6.4 -2
v 0.4 6.4 -2.1
v 0.4 6.6 -2
v 0.4 6.6 -2.1
v 0.5 6.4 -0.8
v 0.5 6.4 -0.9
v 0.5 6.6 -0.8
v 0.5 6.6 -0.9
v 0.7 6.4 -0.6
v 0.7 6.4 -0.7
v 0.7 6.4 -2.5
v 0.7 6.4 -2.6
v 0.7 6.5 -0.6
v 0.7 6.5 -0.7
v 0.7 6.6 -2.5
v 0.7 6.6 -2.6
v 0.8 6.4 -1
v 0.8 6.4 -1.1
v 0.8 6.5 -1
v 0.8 6.5 -1.1
v 1 6.4 -0.6
v 1 6.4 -0.7
v 1 6.5 -0.6
v 1 6.5 -0.7
v 1.1 6.4 -0.7
v 1.1 6.4 -0.8
v 1.1 6.5 -0.7
v 1.1 6.5 -0.8
v 1.4 6.4 -0.5
v 1.4 6.4 -0.6
v 1.4 6.5 -0.5
v 1.4 6.5 -0.6
v 1.5 6.4 -0.9
v 1.5 6.4 -1
v 1.5 6.6 -0.9
v 1.5 6.6 -1
v 1.6 6.4 -0.7
v 1.6 6.4 -0.8
v 1.6 6.5 -0.7
v 1.6 6.5 -0.8
v 2.1 6.4 -0.5
v 2.1 6.4 -0.6
v 2.1 6.4 -2.4
v 2.1 6.4 -2.5
v 2.1 6.5 -0.5
v 2.1 6.5 -0.6
v 2.1 6.5 -2.4
v 2.1 6.5 -2.5
v 2.2 6.4 -1.1
v 2.2 6.4 -1.2
v 2.2 6.6 -1.1
v 2.2 6.6 -1.2
v 2.4 2 -0.5
v 2.4 2 -2.9
v 2.4 6.2 -0.5
v 2.4 6.2 -2.9
v 2.4 6.4 -0.5
v 2.4 6.4 -2.9
v 0 2 -0.5
v 0 6.2 -0.5
v 0 6.4 -0.5
v 0.2 6.4 -0.5
v 0.2 6.6 -0.5
v 0.3 6.4 -0.5
v 0.3 6.6 -0.5
v 1.3 6.4 -0.5
v 1.3 6.5 -0.5
v 1.4 6.4 -0.5
v 1.4 6.5 -0.5
v 2 6.4 -0.5
v 2 6.5 -0.5
v 2.1 6.4 -0.5
v 2.1 6.5 -0.5
v 2.4 2 -0.5
v 2.4 6.2 -0.5
v 2.4 6.4 -0.5
v 0.6 6.4 -0.6
v 0.6 6.5 -0.6
v 0.7 6.4 -0.6
v 0.7 6.5 -0.6
v 0.9 6.4 -0.6
v 0.9 6.5 -0.6
v 1 6.4 -0.6
v 1 6.5 -0.6
v 1 6.4 -0.7
v 1 6.5 -0.7
v 1.1 6.4 -0.7
v 1.1 6.5 -0.7
v 1.5 6.4 -0.7
v 1.5 6.5 -0.7
v 1.6 6.4 -0.7
v 1.6 6.5 -0.7
v 0.2 6.4 -0.8
v 0.2 6.6 -0.8
v 0.3 6.4 -0.8
v 0.3 6.6 -0.8
v 0.4 6.4 -0.8
v 0.4 6.6 -0.8
v 0.5 6.4 -0.8
v 0.5 6.6 -0.8
v 1.4 6.4 -0.9
v 1.4 6.6 -0.9
v 1.5 6.4 -0.9
v 1.5 6.6 -0.9
v 0.2 6.4 -1
v 0.2 6.5 -1
v 0.3 6.4 -1
v 0.3 6.5 -1
v 0.7 6.4 -1
v 0.7 6.5 -1
v 0.8 6.4 -1
v 0.8 6.5 -1
v 2.1 6.4 -1.1
v 2.1 6.6 -1.1
v 2.2 6.4 -1.1
v 2.2 6.6 -1.1
v 0.1 6.4 -2
v 0.1 6.5 -2
v 0.2 6.4 -2
v 0.2 6.5 -2
v 0.3 6.4 -2
v 0.3 6.6 -2
v 0.4 6.4 -2
v 0.4 6.6 -2
v 0.2 6.4 -2.3
v 0.2 6.6 -2.3
v 0.3 6.4 -2.3
v 0.3 6.6 -2.3
v 2 6.4 -2.4
v 2 6.5 -2.4
v 2.1 6.4 -2.4
v 2.1 6.5 -2.4
v 0.6 6.4 -2.5
v 0.6 6.6 -2.5
v 0.7 6.4 -2.5
v 0.7 6.6 -2.5
v 0.1 6.4 -2.6
v 0.1 6.7 -2.6
v 0.2 6.4 -2.6
v 0.2 6.7 -2.6
v 0.2 6.4 -0.6
v 0.2 6.6 -0.6
v 0.3 6.4 -0.6
v 0.3 6.6 -0.6
v 1.3 6.4 -0.6
v 1.3 6.5 -0.6
v 1.4 6.4 -0.6
v 1.4 6.5 -0.6
v 2 6.4 -0.6
v 2 6.5 -0.6
v 2.1 6.4 -0.6
v 2.1 6.5 -0.6
v 0.6 6.4 -0.7
v 0.6 6.5 -0.7
v 0.7 6.4 -0.7
v 0.7 6.5 -0.7
v 0.9 6.4 -0.7
v 0.9 6.5 -0.7
v 1 6.4 -0.7
v 1 6.5 -0.7
v 1 6.4 -0.8
v 1 6.5 -0.8
v 1.1 6.4 -0.8
v 1.1 6.5 -0.8
v 1.5 6.4 -0.8
v 1.5 6.5 -0.8
v 1.6 6.4 -0.8
v 1.6 6.5 -0.8
v 0.2 6.4 -0.9
v 0.2 6.6 -0.9
v 0.3 6.4 -0.9
v 0.3 6.6 -0.9
v 0.4 6.4 -0.9
v 0.4 6.6 -0.9
v 0.5 6.4 -0.9
v 0.5 6.6 -0.9
v 1.4 6.4 -1
v 1.4 6.6 -1
v 1.5 6.4 -1
v 1.5 6.6 -1
v 0.2 6.4 -1.1
v 0.2 6.5 -1.1
v 0.3 6.4 -1.1
v 0.3 6.5 -1.1
v 0.7 6.4 -1.1
v 0.7 6.5 -1.1
v 0.8 6.4 -1.1
v 0.8 6.5 -1.1
v 2.1 6.4 -1.2
v 2.1 6.6 -1.2
v 2.2 6.4 -1.2
v 2.2 6.6 -1.2
v 0.1 6.4 -2.1
v 0.1 6.5 -2.1
v 0.2 6.4 -2.1
v 0.2 6.5 -2.1
v 0.3 6.4 -2.1
v 0.3 6.6 -2.1
v 0.4 6.4 -2.1
v 0.4 6.6 -2.1
v 0.2 6.5 -2.4
v 0.2 6.6 -2.4
v 0.3 6.5 -2.4
v 0.3 6.6 -2.4
v 0.2 6.4 -2.5
v 0.2 6.5 -2.5
v 0.3 6.4 -2.5
v 0.3 6.5 -2.5
v 2 6.4 -2.5
v 2 6.5 -2.5
v 2.1 6.4 -2.5
v 2.1 6.5 -2.5
v 0.6 6.4 -2.6
v 0.6 6.6 -2.6
v 0.7 6.4 -2.6
v 0.7 6.6 -2.6
v 0.1 6.4 -2.7
v 0.1 6.7 -2.7
v 0.2 6.4 -2.7
v 0.2 6.7 -2.7
v 0 2 -2.9
v 0 6.2 -2.9
v 0 6.4 -2.9
v 2.4 2 -2.9
v 2.4 6.2 -2.9
v 2.4 6.4 -2.9
v 0 2 -0.5
v 2.4 2 -0.5
v 0 2 -2.9
v 2.4 2 -2.9
v 0 6.4 -0.5
v 0.2 6.4 -0.5
v 0.3 6.4 -0.5
v 1.3 6.4 -0.5
v 1.4 6.4 -0.5
v 2 6.4 -0.5
v 2.1 6.4 -0.5
v 2.4 6.4 -0.5
v 0.2 6.4 -0.6
v 0.3 6.4 -0.6
v 0.6 6.4 -0.6
v 0.7 6.4 -0.6
v 0.9 6.4 -0.6
v 1 6.4 -0.6
v 1.3 6.4 -0.6
v 1.4 6.4 -0.6
v 2 6.4 -0.6
v 2.1 6.4 -0.6
v 0.6 6.4 -0.7
v 0.7 6.4 -0.7
v 0.9 6.4 -0.7
v 1 6.4 -0.7
v 1.1 6.4 -0.7
v 1.5 6.4 -0.7
v 1.6 6.4 -0.7
v 0.2 6.4 -0.8
v 0.3 6.4 -0.8
v 0.4 6.4 -0.8
v 0.5 6.4 -0.8
v 1 6.4 -0.8
v 1.1 6.4 -0.8
v 1.5 6.4 -0.8
v 1.6 6.4 -0.8
v 0.2 6.4 -0.9
v 0.3 6.4 -0.9
v 0.4 6.4 -0.9
v 0.5 6.4 -0.9
v 1.4 6.4 -0.9
v 1.5 6.4 -0.9
v 0.2 6.4 -1
v 0.3 6.4 -1
v 0.7 6.4 -1
v 0.8 6.4 -1
v 1.4 6.4 -1
v 1.5 6.4 -1
v 0.2 6.4 -1.1
v 0.3 6.4 -1.1
v 0.7 6.4 -1.1
v 0.8 6.4 -1.1
v 2.1 6.4 -1.1
v 2.2 6.4 -1.1
v 2.1 6.4 -1.2
v 2.2 6.4 -1.2
v 0.1 6.4 -2
v 0.2 6.4 -2
v 0.3 6.4 -2
v 0.4 6.4 -2
v 0.1 6.4 -2.1
v 0.2 6.4 -2.1
v 0.3 6.4 -2.1
v 0.4 6.4 -2.1
v 0.2 6.4 -2.3
v 0.3 6.4 -2.3
v 2 6.4 -2.4
v 2.1 6.4 -2.4
v 0.2 6.4 -2.5
v 0.3 6.4 -2.5
v 0.6 6.4 -2.5
v 0.7 6.4 -2.5
v 2 6.4 -2.5
v 2.1 6.4 -2.5
v 0.1 6.4 -2.6
v 0.2 6.4 -2.6
v 0.6 6.4 -2.6
v 0.7 6.4 -2.6
v 0.1 6.4 -2.7
v 0.2 6.4 -2.7
v 0 6.4 -2.9
v 2.4 6.4 -2.9
v 1.3 6.5 -0.5
v 1.4 6.5 -0.5
v 2 6.5 -0.5
v 2.1 6.5 -0.5
v 0.6 6.5 -0.6
v 0.7 6.5 -0.6
v 0.9 6.5 -0.6
v 1 6.5 -0.6
v 1.3 6.5 -0.6
v 1.4 6.5 -0.6
v 2 6.5 -0.6
v 2.1 6.5 -0.6
v 0.6 6.5 -0.7
v 0.7 6.5 -0.7
v 0.9 6.5 -0.7
v 1 6.5 -0.7
v 1.1 6.5 -0.7
v 1.5 6.5 -0.7
v 1.6 6.5 -0.7
v 1 6.5 -0.8
v 1.1 6.5 -0.8
v 1.5 6.5 -0.8
v 1.6 6.5 -0.8
v 0.2 6.5 -1
v 0.3 6.5 -1
v 0.7 6.5 -1
v 0.8 6.5 -1
v 0.2 6.5 -1.1
v 0.3 6.5 -1.1
v 0.7 6.5 -1.1
v 0.8 6.5 -1.1
v 0.1 6.5 -2
v 0.2 6.5 -2
v 0.1 6.5 -2.1
v 0.2 6.5 -2.1
v 0.2 6.5 -2.4
v 0.3 6.5 -2.4
v 2 6.5 -2.4
v 2.1 6.5 -2.4
v 0.2 6.5 -2.5
v 0.3 6.5 -2.5
v 2 6.5 -2.5
v 2.1 6.5 -2.5
v 0.2 6.6 -0.5
v 0.3 6.6 -0.5
v 0.2 6.6 -0.6
v 0.3 6.6 -0.6
v 0.2 6.6 -0.8
v 0.3 6.6 -0.8
v 0.4 6.6 -0.8
v 0.5 6.6 -0.8
v 0.2 6.6 -0.9
v 0.3 6.6 -0.9
v 0.4 6.6 -0.9
v 0.5 6.6 -0.9
v 1.4 6.6 -0.9
v 1.5 6.6 -0.9
v 1.4 6.6 -1
v 1.5 6.6 -1
v 2.1 6.6 -1.1
v 2.2 6.6 -1.1
v 2.1 6.6 -1.2
v 2.2 6.6 -1.2
v 0.3 6.6 -2
v 0.4 6.6 -2
v 0.3 6.6 -2.1
v 0.4 6.6 -2.1
v 0.2 6.6 -2.3
v 0.3 6.6 -2.3
v 0.2 6.6 -2.4
v 0.3 6.6 -2.4
v 0.6 6.6 -2.5
v 0.7 6.6 -2.5
v 0.6 6.6 -2.6
v 0.7 6.6 -2.6
v 0.1 6.7 -2.6
v 0.2 6.7 -2.6
v 0.1 6.7 -2.7
v 0.2 6.7 -2.7

# faces
f 3/1/1 2/1/1 1/1/1
f 4/1/1 2/1/1 3/1/1
f 5/2/1 4/2/1 3/2/1
f 6/2/1 4/2/1 5/2/1
f 11/5/1 8/5/1 7/5/1
f 12/5/1 8/5/1 11/5/1
f 13/5/1 10/5/1 9/5/1
f 14/5/1 10/5/1 13/5/1
f 23/3/1 20/3/1 19/3/1
f 24/3/1 20/3/1 23/3/1
f 25/4/1 22/4/1 21/4/1
f 26/4/1 22/4/1 25/4/1
f 27/4/1 16/4/1 15/4/1
f 28/4/1 16/4/1 27/4/1
f 29/5/1 18/5/1 17/5/1
f 30/5/1 18/5/1 29/5/1
f 31/4/1 25/4/1 21/4/1
f 32/4/1 25/4/1 31/4/1
f 35/5/1 34/5/1 33/5/1
f 36/5/1 34/5/1 35/5/1
f 39/3/1 38/3/1 37/3/1
f 40/3/1 38/3/1 39/3/1
f 45/4/1 42/4/1 41/4/1
f 46/4/1 42/4/1 45/4/1
f 47/6/1 44/6/1 43/6/1
f 48/6/1 44/6/1 47/6/1
f 51/5/1 50/5/1 49/5/1
f 52/5/1 50/5/1 51/5/1
f 55/3/1 54/3/1 53/3/1
f 56/3/1 54/3/1 55/3/1
f 59/3/1 58/3/1 57/3/1
f 60/3/1 58/3/1 59/3/1
f 63/3/1 62/3/1 61/3/1
f 64/3/1 62/3/1 63/3/1
f 67/5/1 66/5/1 65/5/1
f 68/5/1 66/5/1 67/5/1
f 71/6/1 70/6/1 69/6/1
f 72/6/1 70/6/1 71/6/1
f 77/5/1 74/5/1 73/5/1
f 78/5/1 74/5/1 77/5/1
f 79/5/1 76/5/1 75/5/1
f 80/5/1 76/5/1 79/5/1
f 83/3/1 82/3/1 81/3/1
f 84/3/1 82/3/1 83/3/1
f 85/5/2 86/5/2 89/5/2
f 89/5/2 86/5/2 90/5/2
f 87/5/2 88/5/2 91/5/2
f 91/5/2 88/5/2 92/5/2
f 97/3/2 98/3/2 101/3/2
f 101/3/2 98/3/2 102/3/2
f 99/4/2 100/4/2 103/4/2
f 103/4/2 100/4/2 104/4/2
f 93/4/2 94/4/2 105/4/2
f 105/4/2 94/4/2 106/4/2
f 95/5/2 96/5/2 107/5/2
f 107/5/2 96/5/2 108/5/2
f 99/4/2 103/4/2 109/4/2
f 109/4/2 103/4/2 110/4/2
f 111/5/2 112/5/2 113/5/2
f 113/5/2 112/5/2 114/5/2
f 115/3/2 116/3/2 117/3/2
f 117/3/2 116/3/2 118/3/2
f 119/4/2 120/4/2 123/4/2
f 123/4/2 120/4/2 124/4/2
f 121/6/2 122/6/2 125/6/2
f 125/6/2 122/6/2 126/6/2
f 127/5/2 128/5/2 129/5/2
f 129/5/2 128/5/2 130/5/2
f 131/3/2 132/3/2 133/3/2
f 133/3/2 132/3/2 134/3/2
f 135/3/2 136/3/2 137/3/2
f 137/3/2 136/3/2 138/3/2
f 139/3/2 140/3/2 141/3/2
f 141/3/2 140/3/2 142/3/2
f 143/5/2 144/5/2 145/5/2
f 145/5/2 144/5/2 146/5/2
f 147/6/2 148/6/2 149/6/2
f 149/6/2 148/6/2 150/6/2
f 151/5/2 152/5/2 155/5/2
f 155/5/2 152/5/2 156/5/2
f 153/5/2 154/5/2 157/5/2
f 157/5/2 154/5/2 158/5/2
f 159/3/2 160/3/2 161/3/2
f 161/3/2 160/3/2 162/3/2
f 163/1/2 164/1/2 165/1/2
f 165/1/2 164/1/2 166/1/2
f 165/2/2 166/2/2 167/2/2
f 167/2/2 166/2/2 168/2/2
f 172/2/3 171/2/3 170/2/3
f 174/2/3 172/2/3 170/2/3
f 174/4/3 173/4/3 172/4/3
f 175/4/3 173/4/3 174/4/3
f 176/2/3 174/2/3 170/2/3
f 178/2/3 176/2/3 170/2/3
f 178/3/3 177/3/3 176/3/3
f 179/3/3 177/3/3 178/3/3
f 180/2/3 178/2/3 170/2/3
f 182/2/3 180/2/3 170/2/3
f 182/5/3 181/5/3 180/5/3
f 183/5/3 181/5/3 182/5/3
f 184/1/3 170/1/3 169/1/3
f 185/2/3 182/2/3 170/2/3
f 185/1/3 170/1/3 184/1/3
f 186/2/3 182/2/3 185/2/3
f 189/4/3 188/4/3 187/4/3
f 190/4/3 188/4/3 189/4/3
f 193/3/3 192/3/3 191/3/3
f 194/3/3 192/3/3 193/3/3
f 197/3/3 196/3/3 195/3/3
f 198/3/3 196/3/3 197/3/3
f 201/6/3 200/6/3 199/6/3
f 202/6/3 200/6/3 201/6/3
f 205/5/3 204/5/3 203/5/3
f 206/5/3 204/5/3 205/5/3
f 209/3/3 208/3/3 207/3/3
f 210/3/3 208/3/3 209/3/3
f 213/5/3 212/5/3 211/5/3
f 214/5/3 212/5/3 213/5/3
f 217/3/3 216/3/3 215/3/3
f 218/3/3 216/3/3 217/3/3
f 221/5/3 220/5/3 219/5/3
f 222/5/3 220/5/3 221/5/3
f 225/3/3 224/3/3 223/3/3
f 226/3/3 224/3/3 225/3/3
f 229/5/3 228/5/3 227/5/3
f 230/5/3 228/5/3 229/5/3
f 233/5/3 232/5/3 231/5/3
f 234/5/3 232/5/3 233/5/3
f 237/4/3 236/4/3 235/4/3
f 238/4/3 236/4/3 237/4/3
f 241/5/3 240/5/3 239/5/3
f 242/5/3 240/5/3 241/5/3
f 245/6/3 244/6/3 243/6/3
f 246/6/3 244/6/3 245/6/3
f 249/5/3 248/5/3 247/5/3
f 250/5/3 248/5/3 249/5/3
f 251/4/4 252/4/4 253/4/4
f 253/4/4 252/4/4 254/4/4
f 255/3/4 256/3/4 257/3/4
f 257/3/4 256/3/4 258/3/4
f 259/5/4 260/5/4 261/5/4
f 261/5/4 260/5/4 262/5/4
f 263/4/4 264/4/4 265/4/4
f 265/4/4 264/4/4 266/4/4
f 267/3/4 268/3/4 269/3/4
f 269/3/4 268/3/4 270/3/4
f 271/3/4 272/3/4 273/3/4
f 273/3/4 272/3/4 274/3/4
f 275/6/4 276/6/4 277/6/4
f 277/6/4 276/6/4 278/6/4
f 279/5/4 280/5/4 281/5/4
f 281/5/4 280/5/4 282/5/4
f 283/3/4 284/3/4 285/3/4
f 285/3/4 284/3/4 286/3/4
f 287/5/4 288/5/4 289/5/4
f 289/5/4 288/5/4 290/5/4
f 291/3/4 292/3/4 293/3/4
f 293/3/4 292/3/4 294/3/4
f 295/5/4 296/5/4 297/5/4
f 297/5/4 296/5/4 298/5/4
f 299/3/4 300/3/4 301/3/4
f 301/3/4 300/3/4 302/3/4
f 303/5/4 304/5/4 305/5/4
f 305/5/4 304/5/4 306/5/4
f 307/5/4 308/5/4 309/5/4
f 309/5/4 308/5/4 310/5/4
f 311/4/4 312/4/4 313/4/4
f 313/4/4 312/4/4 314/4/4
f 315/4/4 316/4/4 317/4/4
f 317/4/4 316/4/4 318/4/4
f 319/5/4 320/5/4 321/5/4
f 321/5/4 320/5/4 322/5/4
f 323/6/4 324/6/4 325/6/4
f 325/6/4 324/6/4 326/6/4
f 327/5/4 328/5/4 329/5/4
f 329/5/4 328/5/4 330/5/4
f 331/1/4 332/1/4 334/1/4
f 332/2/4 333/2/4 335/2/4
f 334/1/4 332/1/4 335/1/4
f 335/2/4 333/2/4 336/2/4
f 339/1/5 338/1/5 337/1/5
f 340/1/5 338/1/5 339/1/5
f 341/2/6 342/2/6 349/2/6
f 343/2/6 344/2/6 350/2/6
f 350/2/6 344/2/6 351/2/6
f 351/2/6 344/2/6 352/2/6
f 352/2/6 344/2/6 353/2/6
f 353/2/6 344/2/6 354/2/6
f 354/2/6 344/2/6 355/2/6
f 345/2/6 346/2/6 356/2/6
f 356/2/6 346/2/6 357/2/6
f 347/2/6 348/2/6 358/2/6
f 349/2/6 350/2/6 359/2/6
f 350/2/6 351/2/6 359/2/6
f 352/2/6 353/2/6 360/2/6
f 360/2/6 353/2/6 361/2/6
f 356/2/6 357/2/6 362/2/6
f 354/2/6 355/2/6 362/2/6
f 357/2/6 358/2/6 362/2/6
f 355/2/6 356/2/6 362/2/6
f 362/2/6 358/2/6 363/2/6
f 363/2/6 358/2/6 364/2/6
f 364/2/6 358/2/6 365/2/6
f 360/2/6 361/2/6 366/2/6
f 341/2/6 349/2/6 366/2/6
f 359/2/6 360/2/6 366/2/6
f 361/2/6 362/2/6 366/2/6
f 349/2/6 359/2/6 366/2/6
f 366/2/6 362/2/6 367/2/6
f 367/2/6 362/2/6 368/2/6
f 368/2/6 362/2/6 369/2/6
f 369/2/6 362/2/6 370/2/6
f 363/2/6 364/2/6 371/2/6
f 371/2/6 364/2/6 372/2/6
f 365/2/6 358/2/6 373/2/6
f 341/2/6 366/2/6 374/2/6
f 367/2/6 368/2/6 375/2/6
f 375/2/6 368/2/6 376/2/6
f 371/2/6 372/2/6 377/2/6
f 369/2/6 370/2/6 377/2/6
f 372/2/6 373/2/6 377/2/6
f 370/2/6 371/2/6 377/2/6
f 377/2/6 373/2/6 378/2/6
f 378/2/6 373/2/6 379/2/6
f 375/2/6 376/2/6 380/2/6
f 374/2/6 375/2/6 380/2/6
f 377/2/6 378/2/6 380/2/6
f 376/2/6 377/2/6 380/2/6
f 341/2/6 374/2/6 380/2/6
f 380/2/6 378/2/6 381/2/6
f 381/2/6 378/2/6 382/2/6
f 382/2/6 378/2/6 383/2/6
f 383/2/6 378/2/6 384/2/6
f 379/2/6 373/2/6 385/2/6
f 341/2/6 380/2/6 386/2/6
f 381/2/6 382/2/6 387/2/6
f 387/2/6 382/2/6 388/2/6
f 383/2/6 384/2/6 389/2/6
f 384/2/6 385/2/6 389/2/6
f 358/2/6 348/2/6 390/2/6
f 373/2/6 358/2/6 390/2/6
f 389/2/6 385/2/6 390/2/6
f 385/2/6 373/2/6 390/2/6
f 390/2/6 348/2/6 391/2/6
f 387/2/6 388/2/6 392/2/6
f 388/2/6 389/2/6 392/2/6
f 389/2/6 390/2/6 392/2/6
f 386/2/6 387/2/6 392/2/6
f 391/2/6 348/2/6 393/2/6
f 386/2/6 392/2/6 394/2/6
f 392/2/6 393/2/6 394/2/6
f 341/2/6 386/2/6 394/2/6
f 394/2/6 393/2/6 395/2/6
f 395/2/6 393/2/6 396/2/6
f 396/2/6 393/2/6 397/2/6
f 341/2/6 394/2/6 398/2/6
f 395/2/6 396/2/6 399/2/6
f 399/2/6 396/2/6 400/2/6
f 397/2/6 393/2/6 401/2/6
f 399/2/6 400/2/6 402/2/6
f 400/2/6 401/2/6 402/2/6
f 398/2/6 399/2/6 402/2/6
f 402/2/6 401/2/6 403/2/6
f 401/2/6 393/2/6 404/2/6
f 403/2/6 401/2/6 404/2/6
f 404/2/6 393/2/6 405/2/6
f 398/2/6 402/2/6 406/2/6
f 403/2/6 404/2/6 407/2/6
f 407/2/6 404/2/6 408/2/6
f 408/2/6 404/2/6 409/2/6
f 409/2/6 404/2/6 410/2/6
f 405/2/6 393/2/6 411/2/6
f 341/2/6 398/2/6 412/2/6
f 398/2/6 406/2/6 412/2/6
f 406/2/6 407/2/6 412/2/6
f 407/2/6 408/2/6 412/2/6
f 412/2/6 408/2/6 413/2/6
f 413/2/6 408/2/6 414/2/6
f 409/2/6 410/2/6 415/2/6
f 410/2/6 411/2/6 415/2/6
f 341/2/6 412/2/6 416/2/6
f 413/2/6 414/2/6 417/2/6
f 414/2/6 415/2/6 417/2/6
f 341/2/6 416/2/6 418/2/6
f 416/2/6 417/2/6 418/2/6
f 393/2/6 348/2/6 419/2/6
f 418/2/6 417/2/6 419/2/6
f 417/2/6 415/2/6 419/2/6
f 411/2/6 393/2/6 419/2/6
f 415/2/6 411/2/6 419/2/6
f 420/3/6 421/3/6 428/3/6
f 428/3/6 421/3/6 429/3/6
f 422/5/6 423/5/6 430/5/6
f 430/5/6 423/5/6 431/5/6
f 424/4/6 425/4/6 432/4/6
f 432/4/6 425/4/6 433/4/6
f 426/3/6 427/3/6 434/3/6
f 434/3/6 427/3/6 435/3/6
f 435/3/6 436/3/6 439/3/6
f 439/3/6 436/3/6 440/3/6
f 437/6/6 438/6/6 441/6/6
f 441/6/6 438/6/6 442/6/6
f 443/3/6 444/3/6 447/3/6
f 447/3/6 444/3/6 448/3/6
f 445/5/6 446/5/6 449/5/6
f 449/5/6 446/5/6 450/5/6
f 451/5/6 452/5/6 453/5/6
f 453/5/6 452/5/6 454/5/6
f 455/4/6 456/4/6 459/4/6
f 459/4/6 456/4/6 460/4/6
f 457/5/6 458/5/6 461/5/6
f 461/5/6 458/5/6 462/5/6
f 463/4/6 464/4/6 465/4/6
f 465/4/6 464/4/6 466/4/6
f 467/5/6 468/5/6 471/5/6
f 471/5/6 468/5/6 472/5/6
f 469/3/6 470/3/6 473/3/6
f 473/3/6 470/3/6 474/3/6
f 475/5/6 476/5/6 477/5/6
f 477/5/6 476/5/6 478/5/6
f 479/3/6 480/3/6 481/3/6
f 481/3/6 480/3/6 482/3/6
f 483/5/6 484/5/6 485/5/6
f 485/5/6 484/5/6 486/5/6
f 487/4/6 488/4/6 489/4/6
f 489/4/6 488/4/6 490/4/6
f 491/6/6 492/6/6 493/6/6
f 493/6/6 492/6/6 494/6/6
f 495/5/6 496/5/6 497/5/6
f 497/5/6 496/5/6 498/5/6
