# MagicaVoxel @ Ephtracy

# group
o 

# material
mtllib haute herbes 2-4.mtl
usemtl palette

# normals
vn -1 0 0
vn 1 0 0
vn 0 0 1
vn 0 0 -1
vn 0 -1 0
vn 0 1 0

# texcoords
vt 0.537109 0.5
vt 0.677734 0.5
vt 0.892578 0.5
vt 0.900391 0.5
vt 0.904297 0.5
vt 0.912109 0.5

# verts
v 0 2 -0.5
v 0 2 -2.9
v 0 6.2 -0.5
v 0 6.2 -2.9
v 0 6.4 -0.5
v 0 6.4 -2.9
v 0.2 6.4 -0.6
v 0.2 6.4 -0.7
v 0.2 6.7 -0.6
v 0.2 6.7 -0.7
v 0.3 6.4 -1.1
v 0.3 6.4 -1.2
v 0.3 6.6 -1.1
v 0.3 6.6 -1.2
v 0.4 6.4 -0.7
v 0.4 6.4 -0.8
v 0.4 6.4 -2.5
v 0.4 6.4 -2.6
v 0.4 6.5 -0.7
v 0.4 6.5 -0.8
v 0.4 6.5 -2.5
v 0.4 6.5 -2.6
v 0.5 6.5 -0.7
v 0.5 6.5 -0.8
v 0.5 6.6 -0.7
v 0.5 6.6 -0.8
v 0.8 6.4 -0.6
v 0.8 6.4 -0.7
v 0.8 6.4 -0.8
v 0.8 6.4 -0.9
v 0.8 6.5 -0.6
v 0.8 6.5 -0.7
v 0.8 6.6 -0.8
v 0.8 6.6 -0.9
v 1.7 6.4 -2.6
v 1.7 6.4 -2.7
v 1.7 6.6 -2.6
v 1.7 6.6 -2.7
v 1.8 6.4 -0.7
v 1.8 6.4 -0.8
v 1.8 6.4 -1.2
v 1.8 6.4 -1.3
v 1.8 6.5 -0.7
v 1.8 6.5 -0.8
v 1.8 6.5 -1.2
v 1.8 6.5 -1.3
v 1.9 6.4 -1.9
v 1.9 6.4 -2
v 1.9 6.6 -1.9
v 1.9 6.6 -2
v 2 6.4 -0.7
v 2 6.4 -0.8
v 2 6.4 -0.9
v 2 6.4 -1
v 2 6.6 -0.7
v 2 6.6 -0.8
v 2 6.6 -0.9
v 2 6.6 -1
v 2.1 6.4 -1.5
v 2.1 6.4 -1.6
v 2.1 6.4 -2
v 2.1 6.4 -2.1
v 2.1 6.5 -1.5
v 2.1 6.5 -1.6
v 2.1 6.5 -2
v 2.1 6.5 -2.1
v 2.2 6.4 -1.1
v 2.2 6.4 -1.2
v 2.2 6.4 -1.4
v 2.2 6.4 -1.5
v 2.2 6.5 -1.1
v 2.2 6.5 -1.2
v 2.2 6.5 -1.4
v 2.2 6.5 -1.5
v 2.3 6.4 -0.7
v 2.3 6.4 -0.8
v 2.3 6.4 -1.8
v 2.3 6.4 -1.9
v 2.3 6.4 -2.5
v 2.3 6.4 -2.6
v 2.3 6.5 -1.8
v 2.3 6.5 -1.9
v 2.3 6.5 -2.5
v 2.3 6.5 -2.6
v 2.3 6.6 -0.7
v 2.3 6.6 -0.8
v 0.3 6.4 -0.6
v 0.3 6.4 -0.7
v 0.3 6.7 -0.6
v 0.3 6.7 -0.7
v 0.4 6.4 -1.1
v 0.4 6.4 -1.2
v 0.4 6.6 -1.1
v 0.4 6.6 -1.2
v 0.5 6.4 -2.5
v 0.5 6.4 -2.6
v 0.5 6.5 -2.5
v 0.5 6.5 -2.6
v 0.6 6.4 -0.7
v 0.6 6.4 -0.8
v 0.6 6.6 -0.7
v 0.6 6.6 -0.8
v 0.9 6.4 -0.6
v 0.9 6.4 -0.7
v 0.9 6.4 -0.8
v 0.9 6.4 -0.9
v 0.9 6.5 -0.6
v 0.9 6.5 -0.7
v 0.9 6.6 -0.8
v 0.9 6.6 -0.9
v 1.8 6.4 -2.6
v 1.8 6.4 -2.7
v 1.8 6.6 -2.6
v 1.8 6.6 -2.7
v 1.9 6.4 -0.7
v 1.9 6.4 -0.8
v 1.9 6.4 -1.2
v 1.9 6.4 -1.3
v 1.9 6.5 -0.7
v 1.9 6.5 -0.8
v 1.9 6.5 -1.2
v 1.9 6.5 -1.3
v 2 6.4 -1.9
v 2 6.4 -2
v 2 6.6 -1.9
v 2 6.6 -2
v 2.1 6.4 -0.7
v 2.1 6.4 -0.8
v 2.1 6.4 -0.9
v 2.1 6.4 -1
v 2.1 6.6 -0.7
v 2.1 6.6 -0.8
v 2.1 6.6 -0.9
v 2.1 6.6 -1
v 2.2 6.4 -1.5
v 2.2 6.4 -1.6
v 2.2 6.4 -2
v 2.2 6.4 -2.1
v 2.2 6.5 -1.5
v 2.2 6.5 -1.6
v 2.2 6.5 -2
v 2.2 6.5 -2.1
v 2.3 6.4 -1.1
v 2.3 6.4 -1.2
v 2.3 6.4 -1.4
v 2.3 6.4 -1.5
v 2.3 6.5 -1.1
v 2.3 6.5 -1.2
v 2.3 6.5 -1.4
v 2.3 6.5 -1.5
v 2.4 2 -0.5
v 2.4 2 -2.9
v 2.4 6.2 -0.5
v 2.4 6.2 -2.9
v 2.4 6.4 -0.5
v 2.4 6.4 -0.7
v 2.4 6.4 -0.8
v 2.4 6.4 -1.8
v 2.4 6.4 -1.9
v 2.4 6.4 -2.5
v 2.4 6.4 -2.6
v 2.4 6.4 -2.9
v 2.4 6.5 -1.8
v 2.4 6.5 -1.9
v 2.4 6.5 -2.5
v 2.4 6.5 -2.6
v 2.4 6.6 -0.7
v 2.4 6.6 -0.8
v 0 2 -0.5
v 0 6.2 -0.5
v 0 6.4 -0.5
v 2.4 2 -0.5
v 2.4 6.2 -0.5
v 2.4 6.4 -0.5
v 0.2 6.4 -0.6
v 0.2 6.7 -0.6
v 0.3 6.4 -0.6
v 0.3 6.7 -0.6
v 0.8 6.4 -0.6
v 0.8 6.5 -0.6
v 0.9 6.4 -0.6
v 0.9 6.5 -0.6
v 0.4 6.4 -0.7
v 0.4 6.5 -0.7
v 0.5 6.5 -0.7
v 0.5 6.6 -0.7
v 0.6 6.4 -0.7
v 0.6 6.6 -0.7
v 1.8 6.4 -0.7
v 1.8 6.5 -0.7
v 1.9 6.4 -0.7
v 1.9 6.5 -0.7
v 2 6.4 -0.7
v 2 6.6 -0.7
v 2.1 6.4 -0.7
v 2.1 6.6 -0.7
v 2.3 6.4 -0.7
v 2.3 6.6 -0.7
v 2.4 6.4 -0.7
v 2.4 6.6 -0.7
v 0.8 6.4 -0.8
v 0.8 6.6 -0.8
v 0.9 6.4 -0.8
v 0.9 6.6 -0.8
v 2 6.4 -0.9
v 2 6.6 -0.9
v 2.1 6.4 -0.9
v 2.1 6.6 -0.9
v 0.3 6.4 -1.1
v 0.3 6.6 -1.1
v 0.4 6.4 -1.1
v 0.4 6.6 -1.1
v 2.2 6.4 -1.1
v 2.2 6.5 -1.1
v 2.3 6.4 -1.1
v 2.3 6.5 -1.1
v 1.8 6.4 -1.2
v 1.8 6.5 -1.2
v 1.9 6.4 -1.2
v 1.9 6.5 -1.2
v 2.2 6.4 -1.4
v 2.2 6.5 -1.4
v 2.3 6.4 -1.4
v 2.3 6.5 -1.4
v 2.1 6.4 -1.5
v 2.1 6.5 -1.5
v 2.2 6.4 -1.5
v 2.2 6.5 -1.5
v 2.3 6.4 -1.8
v 2.3 6.5 -1.8
v 2.4 6.4 -1.8
v 2.4 6.5 -1.8
v 1.9 6.4 -1.9
v 1.9 6.6 -1.9
v 2 6.4 -1.9
v 2 6.6 -1.9
v 2.1 6.4 -2
v 2.1 6.5 -2
v 2.2 6.4 -2
v 2.2 6.5 -2
v 0.4 6.4 -2.5
v 0.4 6.5 -2.5
v 0.5 6.4 -2.5
v 0.5 6.5 -2.5
v 2.3 6.4 -2.5
v 2.3 6.5 -2.5
v 2.4 6.4 -2.5
v 2.4 6.5 -2.5
v 1.7 6.4 -2.6
v 1.7 6.6 -2.6
v 1.8 6.4 -2.6
v 1.8 6.6 -2.6
v 0.2 6.4 -0.7
v 0.2 6.7 -0.7
v 0.3 6.4 -0.7
v 0.3 6.7 -0.7
v 0.8 6.4 -0.7
v 0.8 6.5 -0.7
v 0.9 6.4 -0.7
v 0.9 6.5 -0.7
v 0.4 6.4 -0.8
v 0.4 6.5 -0.8
v 0.5 6.5 -0.8
v 0.5 6.6 -0.8
v 0.6 6.4 -0.8
v 0.6 6.6 -0.8
v 1.8 6.4 -0.8
v 1.8 6.5 -0.8
v 1.9 6.4 -0.8
v 1.9 6.5 -0.8
v 2 6.4 -0.8
v 2 6.6 -0.8
v 2.1 6.4 -0.8
v 2.1 6.6 -0.8
v 2.3 6.4 -0.8
v 2.3 6.6 -0.8
v 2.4 6.4 -0.8
v 2.4 6.6 -0.8
v 0.8 6.4 -0.9
v 0.8 6.6 -0.9
v 0.9 6.4 -0.9
v 0.9 6.6 -0.9
v 2 6.4 -1
v 2 6.6 -1
v 2.1 6.4 -1
v 2.1 6.6 -1
v 0.3 6.4 -1.2
v 0.3 6.6 -1.2
v 0.4 6.4 -1.2
v 0.4 6.6 -1.2
v 2.2 6.4 -1.2
v 2.2 6.5 -1.2
v 2.3 6.4 -1.2
v 2.3 6.5 -1.2
v 1.8 6.4 -1.3
v 1.8 6.5 -1.3
v 1.9 6.4 -1.3
v 1.9 6.5 -1.3
v 2.2 6.4 -1.5
v 2.2 6.5 -1.5
v 2.3 6.4 -1.5
v 2.3 6.5 -1.5
v 2.1 6.4 -1.6
v 2.1 6.5 -1.6
v 2.2 6.4 -1.6
v 2.2 6.5 -1.6
v 2.3 6.4 -1.9
v 2.3 6.5 -1.9
v 2.4 6.4 -1.9
v 2.4 6.5 -1.9
v 1.9 6.4 -2
v 1.9 6.6 -2
v 2 6.4 -2
v 2 6.6 -2
v 2.1 6.4 -2.1
v 2.1 6.5 -2.1
v 2.2 6.4 -2.1
v 2.2 6.5 -2.1
v 0.4 6.4 -2.6
v 0.4 6.5 -2.6
v 0.5 6.4 -2.6
v 0.5 6.5 -2.6
v 2.3 6.4 -2.6
v 2.3 6.5 -2.6
v 2.4 6.4 -2.6
v 2.4 6.5 -2.6
v 1.7 6.4 -2.7
v 1.7 6.6 -2.7
v 1.8 6.4 -2.7
v 1.8 6.6 -2.7
v 0 2 -2.9
v 0 6.2 -2.9
v 0 6.4 -2.9
v 2.4 2 -2.9
v 2.4 6.2 -2.9
v 2.4 6.4 -2.9
v 0 2 -0.5
v 2.4 2 -0.5
v 0 2 -2.9
v 2.4 2 -2.9
v 0 6.4 -0.5
v 2.4 6.4 -0.5
v 0.2 6.4 -0.6
v 0.3 6.4 -0.6
v 0.8 6.4 -0.6
v 0.9 6.4 -0.6
v 0.2 6.4 -0.7
v 0.3 6.4 -0.7
v 0.4 6.4 -0.7
v 0.6 6.4 -0.7
v 0.8 6.4 -0.7
v 0.9 6.4 -0.7
v 1.8 6.4 -0.7
v 1.9 6.4 -0.7
v 2 6.4 -0.7
v 2.1 6.4 -0.7
v 2.3 6.4 -0.7
v 2.4 6.4 -0.7
v 0.4 6.4 -0.8
v 0.6 6.4 -0.8
v 0.8 6.4 -0.8
v 0.9 6.4 -0.8
v 1.8 6.4 -0.8
v 1.9 6.4 -0.8
v 2 6.4 -0.8
v 2.1 6.4 -0.8
v 2.3 6.4 -0.8
v 2.4 6.4 -0.8
v 0.8 6.4 -0.9
v 0.9 6.4 -0.9
v 2 6.4 -0.9
v 2.1 6.4 -0.9
v 2 6.4 -1
v 2.1 6.4 -1
v 0.3 6.4 -1.1
v 0.4 6.4 -1.1
v 2.2 6.4 -1.1
v 2.3 6.4 -1.1
v 0.3 6.4 -1.2
v 0.4 6.4 -1.2
v 1.8 6.4 -1.2
v 1.9 6.4 -1.2
v 2.2 6.4 -1.2
v 2.3 6.4 -1.2
v 1.8 6.4 -1.3
v 1.9 6.4 -1.3
v 2.2 6.4 -1.4
v 2.3 6.4 -1.4
v 2.1 6.4 -1.5
v 2.2 6.4 -1.5
v 2.3 6.4 -1.5
v 2.1 6.4 -1.6
v 2.2 6.4 -1.6
v 2.3 6.4 -1.8
v 2.4 6.4 -1.8
v 1.9 6.4 -1.9
v 2 6.4 -1.9
v 2.3 6.4 -1.9
v 2.4 6.4 -1.9
v 1.9 6.4 -2
v 2 6.4 -2
v 2.1 6.4 -2
v 2.2 6.4 -2
v 2.1 6.4 -2.1
v 2.2 6.4 -2.1
v 0.4 6.4 -2.5
v 0.5 6.4 -2.5
v 2.3 6.4 -2.5
v 2.4 6.4 -2.5
v 0.4 6.4 -2.6
v 0.5 6.4 -2.6
v 1.7 6.4 -2.6
v 1.8 6.4 -2.6
v 2.3 6.4 -2.6
v 2.4 6.4 -2.6
v 1.7 6.4 -2.7
v 1.8 6.4 -2.7
v 0 6.4 -2.9
v 2.4 6.4 -2.9
v 0.8 6.5 -0.6
v 0.9 6.5 -0.6
v 0.4 6.5 -0.7
v 0.5 6.5 -0.7
v 0.8 6.5 -0.7
v 0.9 6.5 -0.7
v 1.8 6.5 -0.7
v 1.9 6.5 -0.7
v 0.4 6.5 -0.8
v 0.5 6.5 -0.8
v 1.8 6.5 -0.8
v 1.9 6.5 -0.8
v 2.2 6.5 -1.1
v 2.3 6.5 -1.1
v 1.8 6.5 -1.2
v 1.9 6.5 -1.2
v 2.2 6.5 -1.2
v 2.3 6.5 -1.2
v 1.8 6.5 -1.3
v 1.9 6.5 -1.3
v 2.2 6.5 -1.4
v 2.3 6.5 -1.4
v 2.1 6.5 -1.5
v 2.2 6.5 -1.5
v 2.3 6.5 -1.5
v 2.1 6.5 -1.6
v 2.2 6.5 -1.6
v 2.3 6.5 -1.8
v 2.4 6.5 -1.8
v 2.3 6.5 -1.9
v 2.4 6.5 -1.9
v 2.1 6.5 -2
v 2.2 6.5 -2
v 2.1 6.5 -2.1
v 2.2 6.5 -2.1
v 0.4 6.5 -2.5
v 0.5 6.5 -2.5
v 2.3 6.5 -2.5
v 2.4 6.5 -2.5
v 0.4 6.5 -2.6
v 0.5 6.5 -2.6
v 2.3 6.5 -2.6
v 2.4 6.5 -2.6
v 0.5 6.6 -0.7
v 0.6 6.6 -0.7
v 2 6.6 -0.7
v 2.1 6.6 -0.7
v 2.3 6.6 -0.7
v 2.4 6.6 -0.7
v 0.5 6.6 -0.8
v 0.6 6.6 -0.8
v 0.8 6.6 -0.8
v 0.9 6.6 -0.8
v 2 6.6 -0.8
v 2.1 6.6 -0.8
v 2.3 6.6 -0.8
v 2.4 6.6 -0.8
v 0.8 6.6 -0.9
v 0.9 6.6 -0.9
v 2 6.6 -0.9
v 2.1 6.6 -0.9
v 2 6.6 -1
v 2.1 6.6 -1
v 0.3 6.6 -1.1
v 0.4 6.6 -1.1
v 0.3 6.6 -1.2
v 0.4 6.6 -1.2
v 1.9 6.6 -1.9
v 2 6.6 -1.9
v 1.9 6.6 -2
v 2 6.6 -2
v 1.7 6.6 -2.6
v 1.8 6.6 -2.6
v 1.7 6.6 -2.7
v 1.8 6.6 -2.7
v 0.2 6.7 -0.6
v 0.3 6.7 -0.6
v 0.2 6.7 -0.7
v 0.3 6.7 -0.7

# faces
f 3/1/1 2/1/1 1/1/1
f 4/1/1 2/1/1 3/1/1
f 5/2/1 4/2/1 3/2/1
f 6/2/1 4/2/1 5/2/1
f 9/5/1 8/5/1 7/5/1
f 10/5/1 8/5/1 9/5/1
f 13/6/1 12/6/1 11/6/1
f 14/6/1 12/6/1 13/6/1
f 19/4/1 16/4/1 15/4/1
f 20/4/1 16/4/1 19/4/1
f 21/5/1 18/5/1 17/5/1
f 22/5/1 18/5/1 21/5/1
f 25/4/1 24/4/1 23/4/1
f 26/4/1 24/4/1 25/4/1
f 31/5/1 28/5/1 27/5/1
f 32/5/1 28/5/1 31/5/1
f 33/5/1 30/5/1 29/5/1
f 34/5/1 30/5/1 33/5/1
f 37/3/1 36/3/1 35/3/1
f 38/3/1 36/3/1 37/3/1
f 43/3/1 40/3/1 39/3/1
f 44/3/1 40/3/1 43/3/1
f 45/5/1 42/5/1 41/5/1
f 46/5/1 42/5/1 45/5/1
f 49/5/1 48/5/1 47/5/1
f 50/5/1 48/5/1 49/5/1
f 55/5/1 52/5/1 51/5/1
f 56/5/1 52/5/1 55/5/1
f 57/3/1 54/3/1 53/3/1
f 58/3/1 54/3/1 57/3/1
f 63/3/1 60/3/1 59/3/1
f 64/3/1 60/3/1 63/3/1
f 65/6/1 62/6/1 61/6/1
f 66/6/1 62/6/1 65/6/1
f 71/4/1 68/4/1 67/4/1
f 72/4/1 68/4/1 71/4/1
f 73/3/1 70/3/1 69/3/1
f 74/3/1 70/3/1 73/3/1
f 81/3/1 78/3/1 77/3/1
f 82/3/1 78/3/1 81/3/1
f 83/5/1 80/5/1 79/5/1
f 84/5/1 80/5/1 83/5/1
f 85/4/1 76/4/1 75/4/1
f 86/4/1 76/4/1 85/4/1
f 87/5/2 88/5/2 89/5/2
f 89/5/2 88/5/2 90/5/2
f 91/6/2 92/6/2 93/6/2
f 93/6/2 92/6/2 94/6/2
f 95/5/2 96/5/2 97/5/2
f 97/5/2 96/5/2 98/5/2
f 99/4/2 100/4/2 101/4/2
f 101/4/2 100/4/2 102/4/2
f 103/5/2 104/5/2 107/5/2
f 107/5/2 104/5/2 108/5/2
f 105/5/2 106/5/2 109/5/2
f 109/5/2 106/5/2 110/5/2
f 111/3/2 112/3/2 113/3/2
f 113/3/2 112/3/2 114/3/2
f 115/3/2 116/3/2 119/3/2
f 119/3/2 116/3/2 120/3/2
f 117/5/2 118/5/2 121/5/2
f 121/5/2 118/5/2 122/5/2
f 123/5/2 124/5/2 125/5/2
f 125/5/2 124/5/2 126/5/2
f 127/5/2 128/5/2 131/5/2
f 131/5/2 128/5/2 132/5/2
f 129/3/2 130/3/2 133/3/2
f 133/3/2 130/3/2 134/3/2
f 135/3/2 136/3/2 139/3/2
f 139/3/2 136/3/2 140/3/2
f 137/6/2 138/6/2 141/6/2
f 141/6/2 138/6/2 142/6/2
f 143/4/2 144/4/2 147/4/2
f 147/4/2 144/4/2 148/4/2
f 145/3/2 146/3/2 149/3/2
f 149/3/2 146/3/2 150/3/2
f 151/1/2 152/1/2 153/1/2
f 153/1/2 152/1/2 154/1/2
f 153/2/2 154/2/2 155/2/2
f 155/2/2 154/2/2 156/2/2
f 156/2/2 154/2/2 157/2/2
f 157/2/2 154/2/2 158/2/2
f 158/2/2 154/2/2 159/2/2
f 159/2/2 154/2/2 160/2/2
f 160/2/2 154/2/2 161/2/2
f 161/2/2 154/2/2 162/2/2
f 158/3/2 159/3/2 163/3/2
f 163/3/2 159/3/2 164/3/2
f 160/5/2 161/5/2 165/5/2
f 165/5/2 161/5/2 166/5/2
f 156/4/2 157/4/2 167/4/2
f 167/4/2 157/4/2 168/4/2
f 172/1/3 170/1/3 169/1/3
f 173/2/3 171/2/3 170/2/3
f 173/1/3 170/1/3 172/1/3
f 174/2/3 171/2/3 173/2/3
f 177/5/3 176/5/3 175/5/3
f 178/5/3 176/5/3 177/5/3
f 181/5/3 180/5/3 179/5/3
f 182/5/3 180/5/3 181/5/3
f 185/4/3 184/4/3 183/4/3
f 187/4/3 185/4/3 183/4/3
f 187/4/3 186/4/3 185/4/3
f 188/4/3 186/4/3 187/4/3
f 191/3/3 190/3/3 189/3/3
f 192/3/3 190/3/3 191/3/3
f 195/5/3 194/5/3 193/5/3
f 196/5/3 194/5/3 195/5/3
f 199/4/3 198/4/3 197/4/3
f 200/4/3 198/4/3 199/4/3
f 203/5/3 202/5/3 201/5/3
f 204/5/3 202/5/3 203/5/3
f 207/3/3 206/3/3 205/3/3
f 208/3/3 206/3/3 207/3/3
f 211/6/3 210/6/3 209/6/3
f 212/6/3 210/6/3 211/6/3
f 215/4/3 214/4/3 213/4/3
f 216/4/3 214/4/3 215/4/3
f 219/5/3 218/5/3 217/5/3
f 220/5/3 218/5/3 219/5/3
f 223/3/3 222/3/3 221/3/3
f 224/3/3 222/3/3 223/3/3
f 227/3/3 226/3/3 225/3/3
f 228/3/3 226/3/3 227/3/3
f 231/3/3 230/3/3 229/3/3
f 232/3/3 230/3/3 231/3/3
f 235/5/3 234/5/3 233/5/3
f 236/5/3 234/5/3 235/5/3
f 239/6/3 238/6/3 237/6/3
f 240/6/3 238/6/3 239/6/3
f 243/5/3 242/5/3 241/5/3
f 244/5/3 242/5/3 243/5/3
f 247/5/3 246/5/3 245/5/3
f 248/5/3 246/5/3 247/5/3
f 251/3/3 250/3/3 249/3/3
f 252/3/3 250/3/3 251/3/3
f 253/5/4 254/5/4 255/5/4
f 255/5/4 254/5/4 256/5/4
f 257/5/4 258/5/4 259/5/4
f 259/5/4 258/5/4 260/5/4
f 261/4/4 262/4/4 263/4/4
f 261/4/4 263/4/4 265/4/4
f 263/4/4 264/4/4 265/4/4
f 265/4/4 264/4/4 266/4/4
f 267/3/4 268/3/4 269/3/4
f 269/3/4 268/3/4 270/3/4
f 271/5/4 272/5/4 273/5/4
f 273/5/4 272/5/4 274/5/4
f 275/4/4 276/4/4 277/4/4
f 277/4/4 276/4/4 278/4/4
f 279/5/4 280/5/4 281/5/4
f 281/5/4 280/5/4 282/5/4
f 283/3/4 284/3/4 285/3/4
f 285/3/4 284/3/4 286/3/4
f 287/6/4 288/6/4 289/6/4
f 289/6/4 288/6/4 290/6/4
f 291/4/4 292/4/4 293/4/4
f 293/4/4 292/4/4 294/4/4
f 295/5/4 296/5/4 297/5/4
f 297/5/4 296/5/4 298/5/4
f 299/3/4 300/3/4 301/3/4
f 301/3/4 300/3/4 302/3/4
f 303/3/4 304/3/4 305/3/4
f 305/3/4 304/3/4 306/3/4
f 307/3/4 308/3/4 309/3/4
f 309/3/4 308/3/4 310/3/4
f 311/5/4 312/5/4 313/5/4
f 313/5/4 312/5/4 314/5/4
f 315/6/4 316/6/4 317/6/4
f 317/6/4 316/6/4 318/6/4
f 319/5/4 320/5/4 321/5/4
f 321/5/4 320/5/4 322/5/4
f 323/5/4 324/5/4 325/5/4
f 325/5/4 324/5/4 326/5/4
f 327/3/4 328/3/4 329/3/4
f 329/3/4 328/3/4 330/3/4
f 331/1/4 332/1/4 334/1/4
f 332/2/4 333/2/4 335/2/4
f 334/1/4 332/1/4 335/1/4
f 335/2/4 333/2/4 336/2/4
f 339/1/5 338/1/5 337/1/5
f 340/1/5 338/1/5 339/1/5
f 341/2/6 342/2/6 343/2/6
f 343/2/6 342/2/6 344/2/6
f 344/2/6 342/2/6 345/2/6
f 345/2/6 342/2/6 346/2/6
f 341/2/6 343/2/6 347/2/6
f 344/2/6 345/2/6 348/2/6
f 348/2/6 345/2/6 349/2/6
f 349/2/6 345/2/6 350/2/6
f 350/2/6 345/2/6 351/2/6
f 346/2/6 342/2/6 352/2/6
f 352/2/6 342/2/6 353/2/6
f 353/2/6 342/2/6 354/2/6
f 354/2/6 342/2/6 355/2/6
f 355/2/6 342/2/6 356/2/6
f 356/2/6 342/2/6 357/2/6
f 357/2/6 342/2/6 358/2/6
f 347/2/6 348/2/6 359/2/6
f 348/2/6 349/2/6 359/2/6
f 350/2/6 351/2/6 360/2/6
f 351/2/6 352/2/6 360/2/6
f 352/2/6 353/2/6 360/2/6
f 360/2/6 353/2/6 361/2/6
f 361/2/6 353/2/6 362/2/6
f 362/2/6 353/2/6 363/2/6
f 354/2/6 355/2/6 364/2/6
f 364/2/6 355/2/6 365/2/6
f 356/2/6 357/2/6 366/2/6
f 366/2/6 357/2/6 367/2/6
f 359/2/6 360/2/6 369/2/6
f 360/2/6 361/2/6 369/2/6
f 364/2/6 365/2/6 370/2/6
f 362/2/6 363/2/6 370/2/6
f 367/2/6 368/2/6 370/2/6
f 363/2/6 364/2/6 370/2/6
f 366/2/6 367/2/6 370/2/6
f 365/2/6 366/2/6 370/2/6
f 370/2/6 368/2/6 371/2/6
f 371/2/6 368/2/6 372/2/6
f 369/2/6 370/2/6 373/2/6
f 370/2/6 371/2/6 373/2/6
f 372/2/6 368/2/6 374/2/6
f 347/2/6 359/2/6 375/2/6
f 373/2/6 374/2/6 375/2/6
f 359/2/6 369/2/6 375/2/6
f 369/2/6 373/2/6 375/2/6
f 375/2/6 374/2/6 376/2/6
f 374/2/6 368/2/6 377/2/6
f 376/2/6 374/2/6 377/2/6
f 377/2/6 368/2/6 378/2/6
f 347/2/6 375/2/6 379/2/6
f 376/2/6 377/2/6 380/2/6
f 380/2/6 377/2/6 381/2/6
f 381/2/6 377/2/6 382/2/6
f 382/2/6 377/2/6 383/2/6
f 378/2/6 368/2/6 384/2/6
f 379/2/6 380/2/6 385/2/6
f 380/2/6 381/2/6 385/2/6
f 382/2/6 383/2/6 386/2/6
f 383/2/6 384/2/6 386/2/6
f 386/2/6 384/2/6 387/2/6
f 385/2/6 386/2/6 387/2/6
f 384/2/6 368/2/6 388/2/6
f 387/2/6 384/2/6 388/2/6
f 385/2/6 387/2/6 389/2/6
f 389/2/6 387/2/6 390/2/6
f 388/2/6 368/2/6 391/2/6
f 385/2/6 389/2/6 392/2/6
f 390/2/6 391/2/6 393/2/6
f 391/2/6 368/2/6 394/2/6
f 392/2/6 393/2/6 394/2/6
f 393/2/6 391/2/6 394/2/6
f 394/2/6 368/2/6 395/2/6
f 385/2/6 392/2/6 396/2/6
f 392/2/6 394/2/6 396/2/6
f 396/2/6 394/2/6 397/2/6
f 397/2/6 394/2/6 398/2/6
f 385/2/6 396/2/6 400/2/6
f 398/2/6 399/2/6 401/2/6
f 397/2/6 398/2/6 401/2/6
f 401/2/6 399/2/6 402/2/6
f 402/2/6 399/2/6 403/2/6
f 400/2/6 401/2/6 404/2/6
f 401/2/6 402/2/6 404/2/6
f 403/2/6 399/2/6 405/2/6
f 379/2/6 385/2/6 406/2/6
f 404/2/6 405/2/6 406/2/6
f 385/2/6 400/2/6 406/2/6
f 400/2/6 404/2/6 406/2/6
f 406/2/6 405/2/6 407/2/6
f 405/2/6 399/2/6 408/2/6
f 407/2/6 405/2/6 408/2/6
f 408/2/6 399/2/6 409/2/6
f 379/2/6 406/2/6 410/2/6
f 407/2/6 408/2/6 411/2/6
f 411/2/6 408/2/6 412/2/6
f 412/2/6 408/2/6 413/2/6
f 413/2/6 408/2/6 414/2/6
f 410/2/6 411/2/6 416/2/6
f 411/2/6 412/2/6 416/2/6
f 414/2/6 415/2/6 417/2/6
f 413/2/6 414/2/6 417/2/6
f 341/2/6 347/2/6 418/2/6
f 416/2/6 417/2/6 418/2/6
f 347/2/6 379/2/6 418/2/6
f 379/2/6 410/2/6 418/2/6
f 410/2/6 416/2/6 418/2/6
f 417/2/6 415/2/6 419/2/6
f 418/2/6 417/2/6 419/2/6
f 420/5/6 421/5/6 424/5/6
f 424/5/6 421/5/6 425/5/6
f 422/4/6 423/4/6 428/4/6
f 428/4/6 423/4/6 429/4/6
f 426/3/6 427/3/6 430/3/6
f 430/3/6 427/3/6 431/3/6
f 432/4/6 433/4/6 436/4/6
f 436/4/6 433/4/6 437/4/6
f 434/5/6 435/5/6 438/5/6
f 438/5/6 435/5/6 439/5/6
f 440/3/6 441/3/6 443/3/6
f 443/3/6 441/3/6 444/3/6
f 442/3/6 443/3/6 445/3/6
f 445/3/6 443/3/6 446/3/6
f 447/3/6 448/3/6 449/3/6
f 449/3/6 448/3/6 450/3/6
f 451/6/6 452/6/6 453/6/6
f 453/6/6 452/6/6 454/6/6
f 455/5/6 456/5/6 459/5/6
f 459/5/6 456/5/6 460/5/6
f 457/5/6 458/5/6 461/5/6
f 461/5/6 458/5/6 462/5/6
f 463/4/6 464/4/6 469/4/6
f 469/4/6 464/4/6 470/4/6
f 465/5/6 466/5/6 473/5/6
f 473/5/6 466/5/6 474/5/6
f 467/4/6 468/4/6 475/4/6
f 475/4/6 468/4/6 476/4/6
f 471/5/6 472/5/6 477/5/6
f 477/5/6 472/5/6 478/5/6
f 479/3/6 480/3/6 481/3/6
f 481/3/6 480/3/6 482/3/6
f 483/6/6 484/6/6 485/6/6
f 485/6/6 484/6/6 486/6/6
f 487/5/6 488/5/6 489/5/6
f 489/5/6 488/5/6 490/5/6
f 491/3/6 492/3/6 493/3/6
f 493/3/6 492/3/6 494/3/6
f 495/5/6 496/5/6 497/5/6
f 497/5/6 496/5/6 498/5/6
