# MagicaVoxel @ Ephtracy

# group
o 

# material
mtllib haute herbes 2-6.mtl
usemtl palette

# normals
vn -1 0 0
vn 1 0 0
vn 0 0 1
vn 0 0 -1
vn 0 -1 0
vn 0 1 0

# texcoords
vt 0.537109 0.5
vt 0.677734 0.5
vt 0.892578 0.5
vt 0.900391 0.5
vt 0.904297 0.5
vt 0.912109 0.5

# verts
v 0 2 -0.5
v 0 2 -2.9
v 0 6.2 -0.5
v 0 6.2 -2.9
v 0 6.4 -0.5
v 0 6.4 -2.9
v 0.2 6.4 -1.1
v 0.2 6.4 -1.2
v 0.2 6.6 -1.1
v 0.2 6.6 -1.2
v 0.3 6.4 -0.5
v 0.3 6.4 -0.6
v 0.3 6.4 -2.4
v 0.3 6.4 -2.5
v 0.3 6.5 -0.5
v 0.3 6.5 -0.6
v 0.3 6.5 -2.4
v 0.3 6.5 -2.5
v 0.8 6.4 -0.7
v 0.8 6.4 -0.8
v 0.8 6.5 -0.7
v 0.8 6.5 -0.8
v 0.9 6.4 -0.9
v 0.9 6.4 -1
v 0.9 6.6 -0.9
v 0.9 6.6 -1
v 1 6.4 -0.5
v 1 6.4 -0.6
v 1 6.5 -0.5
v 1 6.5 -0.6
v 1.3 6.4 -0.7
v 1.3 6.4 -0.8
v 1.3 6.5 -0.7
v 1.3 6.5 -0.8
v 1.4 6.4 -0.6
v 1.4 6.4 -0.7
v 1.4 6.5 -0.6
v 1.4 6.5 -0.7
v 1.6 6.4 -1
v 1.6 6.4 -1.1
v 1.6 6.5 -1
v 1.6 6.5 -1.1
v 1.7 6.4 -0.6
v 1.7 6.4 -0.7
v 1.7 6.4 -2.5
v 1.7 6.4 -2.6
v 1.7 6.5 -0.6
v 1.7 6.5 -0.7
v 1.7 6.6 -2.5
v 1.7 6.6 -2.6
v 1.9 6.4 -0.8
v 1.9 6.4 -0.9
v 1.9 6.6 -0.8
v 1.9 6.6 -0.9
v 2 6.4 -2
v 2 6.4 -2.1
v 2 6.6 -2
v 2 6.6 -2.1
v 2.1 6.4 -0.5
v 2.1 6.4 -0.6
v 2.1 6.4 -0.8
v 2.1 6.4 -0.9
v 2.1 6.4 -1
v 2.1 6.4 -1.1
v 2.1 6.4 -2.3
v 2.1 6.4 -2.5
v 2.1 6.5 -1
v 2.1 6.5 -1.1
v 2.1 6.5 -2.4
v 2.1 6.5 -2.5
v 2.1 6.6 -0.5
v 2.1 6.6 -0.6
v 2.1 6.6 -0.8
v 2.1 6.6 -0.9
v 2.1 6.6 -2.3
v 2.1 6.6 -2.4
v 2.2 6.4 -2
v 2.2 6.4 -2.1
v 2.2 6.4 -2.6
v 2.2 6.4 -2.7
v 2.2 6.5 -2
v 2.2 6.5 -2.1
v 2.2 6.7 -2.6
v 2.2 6.7 -2.7
v 0.3 6.4 -1.1
v 0.3 6.4 -1.2
v 0.3 6.6 -1.1
v 0.3 6.6 -1.2
v 0.4 6.4 -0.5
v 0.4 6.4 -0.6
v 0.4 6.4 -2.4
v 0.4 6.4 -2.5
v 0.4 6.5 -0.5
v 0.4 6.5 -0.6
v 0.4 6.5 -2.4
v 0.4 6.5 -2.5
v 0.9 6.4 -0.7
v 0.9 6.4 -0.8
v 0.9 6.5 -0.7
v 0.9 6.5 -0.8
v 1 6.4 -0.9
v 1 6.4 -1
v 1 6.6 -0.9
v 1 6.6 -1
v 1.1 6.4 -0.5
v 1.1 6.4 -0.6
v 1.1 6.5 -0.5
v 1.1 6.5 -0.6
v 1.4 6.4 -0.7
v 1.4 6.4 -0.8
v 1.4 6.5 -0.7
v 1.4 6.5 -0.8
v 1.5 6.4 -0.6
v 1.5 6.4 -0.7
v 1.5 6.5 -0.6
v 1.5 6.5 -0.7
v 1.7 6.4 -1
v 1.7 6.4 -1.1
v 1.7 6.5 -1
v 1.7 6.5 -1.1
v 1.8 6.4 -0.6
v 1.8 6.4 -0.7
v 1.8 6.4 -2.5
v 1.8 6.4 -2.6
v 1.8 6.5 -0.6
v 1.8 6.5 -0.7
v 1.8 6.6 -2.5
v 1.8 6.6 -2.6
v 2 6.4 -0.8
v 2 6.4 -0.9
v 2 6.6 -0.8
v 2 6.6 -0.9
v 2.1 6.4 -2
v 2.1 6.4 -2.1
v 2.1 6.6 -2
v 2.1 6.6 -2.1
v 2.2 6.4 -0.5
v 2.2 6.4 -0.6
v 2.2 6.4 -0.8
v 2.2 6.4 -0.9
v 2.2 6.4 -1
v 2.2 6.4 -1.1
v 2.2 6.4 -2.3
v 2.2 6.4 -2.5
v 2.2 6.5 -1
v 2.2 6.5 -1.1
v 2.2 6.5 -2.4
v 2.2 6.5 -2.5
v 2.2 6.6 -0.5
v 2.2 6.6 -0.6
v 2.2 6.6 -0.8
v 2.2 6.6 -0.9
v 2.2 6.6 -2.3
v 2.2 6.6 -2.4
v 2.3 6.4 -2
v 2.3 6.4 -2.1
v 2.3 6.4 -2.6
v 2.3 6.4 -2.7
v 2.3 6.5 -2
v 2.3 6.5 -2.1
v 2.3 6.7 -2.6
v 2.3 6.7 -2.7
v 2.4 2 -0.5
v 2.4 2 -2.9
v 2.4 6.2 -0.5
v 2.4 6.2 -2.9
v 2.4 6.4 -0.5
v 2.4 6.4 -2.9
v 0 2 -0.5
v 0 6.2 -0.5
v 0 6.4 -0.5
v 0.3 6.4 -0.5
v 0.3 6.5 -0.5
v 0.4 6.4 -0.5
v 0.4 6.5 -0.5
v 1 6.4 -0.5
v 1 6.5 -0.5
v 1.1 6.4 -0.5
v 1.1 6.5 -0.5
v 2.1 6.4 -0.5
v 2.1 6.6 -0.5
v 2.2 6.4 -0.5
v 2.2 6.6 -0.5
v 2.4 2 -0.5
v 2.4 6.2 -0.5
v 2.4 6.4 -0.5
v 1.4 6.4 -0.6
v 1.4 6.5 -0.6
v 1.5 6.4 -0.6
v 1.5 6.5 -0.6
v 1.7 6.4 -0.6
v 1.7 6.5 -0.6
v 1.8 6.4 -0.6
v 1.8 6.5 -0.6
v 0.8 6.4 -0.7
v 0.8 6.5 -0.7
v 0.9 6.4 -0.7
v 0.9 6.5 -0.7
v 1.3 6.4 -0.7
v 1.3 6.5 -0.7
v 1.4 6.4 -0.7
v 1.4 6.5 -0.7
v 1.9 6.4 -0.8
v 1.9 6.6 -0.8
v 2 6.4 -0.8
v 2 6.6 -0.8
v 2.1 6.4 -0.8
v 2.1 6.6 -0.8
v 2.2 6.4 -0.8
v 2.2 6.6 -0.8
v 0.9 6.4 -0.9
v 0.9 6.6 -0.9
v 1 6.4 -0.9
v 1 6.6 -0.9
v 1.6 6.4 -1
v 1.6 6.5 -1
v 1.7 6.4 -1
v 1.7 6.5 -1
v 2.1 6.4 -1
v 2.1 6.5 -1
v 2.2 6.4 -1
v 2.2 6.5 -1
v 0.2 6.4 -1.1
v 0.2 6.6 -1.1
v 0.3 6.4 -1.1
v 0.3 6.6 -1.1
v 2 6.4 -2
v 2 6.6 -2
v 2.1 6.4 -2
v 2.1 6.6 -2
v 2.2 6.4 -2
v 2.2 6.5 -2
v 2.3 6.4 -2
v 2.3 6.5 -2
v 2.1 6.4 -2.3
v 2.1 6.6 -2.3
v 2.2 6.4 -2.3
v 2.2 6.6 -2.3
v 0.3 6.4 -2.4
v 0.3 6.5 -2.4
v 0.4 6.4 -2.4
v 0.4 6.5 -2.4
v 1.7 6.4 -2.5
v 1.7 6.6 -2.5
v 1.8 6.4 -2.5
v 1.8 6.6 -2.5
v 2.2 6.4 -2.6
v 2.2 6.7 -2.6
v 2.3 6.4 -2.6
v 2.3 6.7 -2.6
v 0.3 6.4 -0.6
v 0.3 6.5 -0.6
v 0.4 6.4 -0.6
v 0.4 6.5 -0.6
v 1 6.4 -0.6
v 1 6.5 -0.6
v 1.1 6.4 -0.6
v 1.1 6.5 -0.6
v 2.1 6.4 -0.6
v 2.1 6.6 -0.6
v 2.2 6.4 -0.6
v 2.2 6.6 -0.6
v 1.4 6.4 -0.7
v 1.4 6.5 -0.7
v 1.5 6.4 -0.7
v 1.5 6.5 -0.7
v 1.7 6.4 -0.7
v 1.7 6.5 -0.7
v 1.8 6.4 -0.7
v 1.8 6.5 -0.7
v 0.8 6.4 -0.8
v 0.8 6.5 -0.8
v 0.9 6.4 -0.8
v 0.9 6.5 -0.8
v 1.3 6.4 -0.8
v 1.3 6.5 -0.8
v 1.4 6.4 -0.8
v 1.4 6.5 -0.8
v 1.9 6.4 -0.9
v 1.9 6.6 -0.9
v 2 6.4 -0.9
v 2 6.6 -0.9
v 2.1 6.4 -0.9
v 2.1 6.6 -0.9
v 2.2 6.4 -0.9
v 2.2 6.6 -0.9
v 0.9 6.4 -1
v 0.9 6.6 -1
v 1 6.4 -1
v 1 6.6 -1
v 1.6 6.4 -1.1
v 1.6 6.5 -1.1
v 1.7 6.4 -1.1
v 1.7 6.5 -1.1
v 2.1 6.4 -1.1
v 2.1 6.5 -1.1
v 2.2 6.4 -1.1
v 2.2 6.5 -1.1
v 0.2 6.4 -1.2
v 0.2 6.6 -1.2
v 0.3 6.4 -1.2
v 0.3 6.6 -1.2
v 2 6.4 -2.1
v 2 6.6 -2.1
v 2.1 6.4 -2.1
v 2.1 6.6 -2.1
v 2.2 6.4 -2.1
v 2.2 6.5 -2.1
v 2.3 6.4 -2.1
v 2.3 6.5 -2.1
v 2.1 6.5 -2.4
v 2.1 6.6 -2.4
v 2.2 6.5 -2.4
v 2.2 6.6 -2.4
v 0.3 6.4 -2.5
v 0.3 6.5 -2.5
v 0.4 6.4 -2.5
v 0.4 6.5 -2.5
v 2.1 6.4 -2.5
v 2.1 6.5 -2.5
v 2.2 6.4 -2.5
v 2.2 6.5 -2.5
v 1.7 6.4 -2.6
v 1.7 6.6 -2.6
v 1.8 6.4 -2.6
v 1.8 6.6 -2.6
v 2.2 6.4 -2.7
v 2.2 6.7 -2.7
v 2.3 6.4 -2.7
v 2.3 6.7 -2.7
v 0 2 -2.9
v 0 6.2 -2.9
v 0 6.4 -2.9
v 2.4 2 -2.9
v 2.4 6.2 -2.9
v 2.4 6.4 -2.9
v 0 2 -0.5
v 2.4 2 -0.5
v 0 2 -2.9
v 2.4 2 -2.9
v 0 6.4 -0.5
v 0.3 6.4 -0.5
v 0.4 6.4 -0.5
v 1 6.4 -0.5
v 1.1 6.4 -0.5
v 2.1 6.4 -0.5
v 2.2 6.4 -0.5
v 2.4 6.4 -0.5
v 0.3 6.4 -0.6
v 0.4 6.4 -0.6
v 1 6.4 -0.6
v 1.1 6.4 -0.6
v 1.4 6.4 -0.6
v 1.5 6.4 -0.6
v 1.7 6.4 -0.6
v 1.8 6.4 -0.6
v 2.1 6.4 -0.6
v 2.2 6.4 -0.6
v 0.8 6.4 -0.7
v 0.9 6.4 -0.7
v 1.3 6.4 -0.7
v 1.4 6.4 -0.7
v 1.5 6.4 -0.7
v 1.7 6.4 -0.7
v 1.8 6.4 -0.7
v 0.8 6.4 -0.8
v 0.9 6.4 -0.8
v 1.3 6.4 -0.8
v 1.4 6.4 -0.8
v 1.9 6.4 -0.8
v 2 6.4 -0.8
v 2.1 6.4 -0.8
v 2.2 6.4 -0.8
v 0.9 6.4 -0.9
v 1 6.4 -0.9
v 1.9 6.4 -0.9
v 2 6.4 -0.9
v 2.1 6.4 -0.9
v 2.2 6.4 -0.9
v 0.9 6.4 -1
v 1 6.4 -1
v 1.6 6.4 -1
v 1.7 6.4 -1
v 2.1 6.4 -1
v 2.2 6.4 -1
v 0.2 6.4 -1.1
v 0.3 6.4 -1.1
v 1.6 6.4 -1.1
v 1.7 6.4 -1.1
v 2.1 6.4 -1.1
v 2.2 6.4 -1.1
v 0.2 6.4 -1.2
v 0.3 6.4 -1.2
v 2 6.4 -2
v 2.1 6.4 -2
v 2.2 6.4 -2
v 2.3 6.4 -2
v 2 6.4 -2.1
v 2.1 6.4 -2.1
v 2.2 6.4 -2.1
v 2.3 6.4 -2.1
v 2.1 6.4 -2.3
v 2.2 6.4 -2.3
v 0.3 6.4 -2.4
v 0.4 6.4 -2.4
v 0.3 6.4 -2.5
v 0.4 6.4 -2.5
v 1.7 6.4 -2.5
v 1.8 6.4 -2.5
v 2.1 6.4 -2.5
v 2.2 6.4 -2.5
v 1.7 6.4 -2.6
v 1.8 6.4 -2.6
v 2.2 6.4 -2.6
v 2.3 6.4 -2.6
v 2.2 6.4 -2.7
v 2.3 6.4 -2.7
v 0 6.4 -2.9
v 2.4 6.4 -2.9
v 0.3 6.5 -0.5
v 0.4 6.5 -0.5
v 1 6.5 -0.5
v 1.1 6.5 -0.5
v 0.3 6.5 -0.6
v 0.4 6.5 -0.6
v 1 6.5 -0.6
v 1.1 6.5 -0.6
v 1.4 6.5 -0.6
v 1.5 6.5 -0.6
v 1.7 6.5 -0.6
v 1.8 6.5 -0.6
v 0.8 6.5 -0.7
v 0.9 6.5 -0.7
v 1.3 6.5 -0.7
v 1.4 6.5 -0.7
v 1.5 6.5 -0.7
v 1.7 6.5 -0.7
v 1.8 6.5 -0.7
v 0.8 6.5 -0.8
v 0.9 6.5 -0.8
v 1.3 6.5 -0.8
v 1.4 6.5 -0.8
v 1.6 6.5 -1
v 1.7 6.5 -1
v 2.1 6.5 -1
v 2.2 6.5 -1
v 1.6 6.5 -1.1
v 1.7 6.5 -1.1
v 2.1 6.5 -1.1
v 2.2 6.5 -1.1
v 2.2 6.5 -2
v 2.3 6.5 -2
v 2.2 6.5 -2.1
v 2.3 6.5 -2.1
v 0.3 6.5 -2.4
v 0.4 6.5 -2.4
v 2.1 6.5 -2.4
v 2.2 6.5 -2.4
v 0.3 6.5 -2.5
v 0.4 6.5 -2.5
v 2.1 6.5 -2.5
v 2.2 6.5 -2.5
v 2.1 6.6 -0.5
v 2.2 6.6 -0.5
v 2.1 6.6 -0.6
v 2.2 6.6 -0.6
v 1.9 6.6 -0.8
v 2 6.6 -0.8
v 2.1 6.6 -0.8
v 2.2 6.6 -0.8
v 0.9 6.6 -0.9
v 1 6.6 -0.9
v 1.9 6.6 -0.9
v 2 6.6 -0.9
v 2.1 6.6 -0.9
v 2.2 6.6 -0.9
v 0.9 6.6 -1
v 1 6.6 -1
v 0.2 6.6 -1.1
v 0.3 6.6 -1.1
v 0.2 6.6 -1.2
v 0.3 6.6 -1.2
v 2 6.6 -2
v 2.1 6.6 -2
v 2 6.6 -2.1
v 2.1 6.6 -2.1
v 2.1 6.6 -2.3
v 2.2 6.6 -2.3
v 2.1 6.6 -2.4
v 2.2 6.6 -2.4
v 1.7 6.6 -2.5
v 1.8 6.6 -2.5
v 1.7 6.6 -2.6
v 1.8 6.6 -2.6
v 2.2 6.7 -2.6
v 2.3 6.7 -2.6
v 2.2 6.7 -2.7
v 2.3 6.7 -2.7

# faces
f 3/1/1 2/1/1 1/1/1
f 4/1/1 2/1/1 3/1/1
f 5/2/1 4/2/1 3/2/1
f 6/2/1 4/2/1 5/2/1
f 9/3/1 8/3/1 7/3/1
f 10/3/1 8/3/1 9/3/1
f 15/5/1 12/5/1 11/5/1
f 16/5/1 12/5/1 15/5/1
f 17/5/1 14/5/1 13/5/1
f 18/5/1 14/5/1 17/5/1
f 21/6/1 20/6/1 19/6/1
f 22/6/1 20/6/1 21/6/1
f 25/5/1 24/5/1 23/5/1
f 26/5/1 24/5/1 25/5/1
f 29/3/1 28/3/1 27/3/1
f 30/3/1 28/3/1 29/3/1
f 33/3/1 32/3/1 31/3/1
f 34/3/1 32/3/1 33/3/1
f 37/3/1 36/3/1 35/3/1
f 38/3/1 36/3/1 37/3/1
f 41/5/1 40/5/1 39/5/1
f 42/5/1 40/5/1 41/5/1
f 47/4/1 44/4/1 43/4/1
f 48/4/1 44/4/1 47/4/1
f 49/6/1 46/6/1 45/6/1
f 50/6/1 46/6/1 49/6/1
f 53/3/1 52/3/1 51/3/1
f 54/3/1 52/3/1 53/3/1
f 57/5/1 56/5/1 55/5/1
f 58/5/1 56/5/1 57/5/1
f 67/3/1 64/3/1 63/3/1
f 68/3/1 64/3/1 67/3/1
f 69/4/1 66/4/1 65/4/1
f 70/4/1 66/4/1 69/4/1
f 71/4/1 60/4/1 59/4/1
f 72/4/1 60/4/1 71/4/1
f 73/5/1 62/5/1 61/5/1
f 74/5/1 62/5/1 73/5/1
f 75/4/1 69/4/1 65/4/1
f 76/4/1 69/4/1 75/4/1
f 81/5/1 78/5/1 77/5/1
f 82/5/1 78/5/1 81/5/1
f 83/5/1 80/5/1 79/5/1
f 84/5/1 80/5/1 83/5/1
f 85/3/2 86/3/2 87/3/2
f 87/3/2 86/3/2 88/3/2
f 89/5/2 90/5/2 93/5/2
f 93/5/2 90/5/2 94/5/2
f 91/5/2 92/5/2 95/5/2
f 95/5/2 92/5/2 96/5/2
f 97/6/2 98/6/2 99/6/2
f 99/6/2 98/6/2 100/6/2
f 101/5/2 102/5/2 103/5/2
f 103/5/2 102/5/2 104/5/2
f 105/3/2 106/3/2 107/3/2
f 107/3/2 106/3/2 108/3/2
f 109/3/2 110/3/2 111/3/2
f 111/3/2 110/3/2 112/3/2
f 113/3/2 114/3/2 115/3/2
f 115/3/2 114/3/2 116/3/2
f 117/5/2 118/5/2 119/5/2
f 119/5/2 118/5/2 120/5/2
f 121/4/2 122/4/2 125/4/2
f 125/4/2 122/4/2 126/4/2
f 123/6/2 124/6/2 127/6/2
f 127/6/2 124/6/2 128/6/2
f 129/3/2 130/3/2 131/3/2
f 131/3/2 130/3/2 132/3/2
f 133/5/2 134/5/2 135/5/2
f 135/5/2 134/5/2 136/5/2
f 141/3/2 142/3/2 145/3/2
f 145/3/2 142/3/2 146/3/2
f 143/4/2 144/4/2 147/4/2
f 147/4/2 144/4/2 148/4/2
f 137/4/2 138/4/2 149/4/2
f 149/4/2 138/4/2 150/4/2
f 139/5/2 140/5/2 151/5/2
f 151/5/2 140/5/2 152/5/2
f 143/4/2 147/4/2 153/4/2
f 153/4/2 147/4/2 154/4/2
f 155/5/2 156/5/2 159/5/2
f 159/5/2 156/5/2 160/5/2
f 157/5/2 158/5/2 161/5/2
f 161/5/2 158/5/2 162/5/2
f 163/1/2 164/1/2 165/1/2
f 165/1/2 164/1/2 166/1/2
f 165/2/2 166/2/2 167/2/2
f 167/2/2 166/2/2 168/2/2
f 172/2/3 171/2/3 170/2/3
f 174/2/3 172/2/3 170/2/3
f 174/5/3 173/5/3 172/5/3
f 175/5/3 173/5/3 174/5/3
f 176/2/3 174/2/3 170/2/3
f 178/2/3 176/2/3 170/2/3
f 178/3/3 177/3/3 176/3/3
f 179/3/3 177/3/3 178/3/3
f 180/2/3 178/2/3 170/2/3
f 182/2/3 180/2/3 170/2/3
f 182/4/3 181/4/3 180/4/3
f 183/4/3 181/4/3 182/4/3
f 184/1/3 170/1/3 169/1/3
f 185/2/3 182/2/3 170/2/3
f 185/1/3 170/1/3 184/1/3
f 186/2/3 182/2/3 185/2/3
f 189/3/3 188/3/3 187/3/3
f 190/3/3 188/3/3 189/3/3
f 193/4/3 192/4/3 191/4/3
f 194/4/3 192/4/3 193/4/3
f 197/6/3 196/6/3 195/6/3
f 198/6/3 196/6/3 197/6/3
f 201/3/3 200/3/3 199/3/3
f 202/3/3 200/3/3 201/3/3
f 205/3/3 204/3/3 203/3/3
f 206/3/3 204/3/3 205/3/3
f 209/5/3 208/5/3 207/5/3
f 210/5/3 208/5/3 209/5/3
f 213/5/3 212/5/3 211/5/3
f 214/5/3 212/5/3 213/5/3
f 217/5/3 216/5/3 215/5/3
f 218/5/3 216/5/3 217/5/3
f 221/3/3 220/3/3 219/3/3
f 222/3/3 220/3/3 221/3/3
f 225/3/3 224/3/3 223/3/3
f 226/3/3 224/3/3 225/3/3
f 229/5/3 228/5/3 227/5/3
f 230/5/3 228/5/3 229/5/3
f 233/5/3 232/5/3 231/5/3
f 234/5/3 232/5/3 233/5/3
f 237/4/3 236/4/3 235/4/3
f 238/4/3 236/4/3 237/4/3
f 241/5/3 240/5/3 239/5/3
f 242/5/3 240/5/3 241/5/3
f 245/6/3 244/6/3 243/6/3
f 246/6/3 244/6/3 245/6/3
f 249/5/3 248/5/3 247/5/3
f 250/5/3 248/5/3 249/5/3
f 251/5/4 252/5/4 253/5/4
f 253/5/4 252/5/4 254/5/4
f 255/3/4 256/3/4 257/3/4
f 257/3/4 256/3/4 258/3/4
f 259/4/4 260/4/4 261/4/4
f 261/4/4 260/4/4 262/4/4
f 263/3/4 264/3/4 265/3/4
f 265/3/4 264/3/4 266/3/4
f 267/4/4 268/4/4 269/4/4
f 269/4/4 268/4/4 270/4/4
f 271/6/4 272/6/4 273/6/4
f 273/6/4 272/6/4 274/6/4
f 275/3/4 276/3/4 277/3/4
f 277/3/4 276/3/4 278/3/4
f 279/3/4 280/3/4 281/3/4
f 281/3/4 280/3/4 282/3/4
f 283/5/4 284/5/4 285/5/4
f 285/5/4 284/5/4 286/5/4
f 287/5/4 288/5/4 289/5/4
f 289/5/4 288/5/4 290/5/4
f 291/5/4 292/5/4 293/5/4
f 293/5/4 292/5/4 294/5/4
f 295/3/4 296/3/4 297/3/4
f 297/3/4 296/3/4 298/3/4
f 299/3/4 300/3/4 301/3/4
f 301/3/4 300/3/4 302/3/4
f 303/5/4 304/5/4 305/5/4
f 305/5/4 304/5/4 306/5/4
f 307/5/4 308/5/4 309/5/4
f 309/5/4 308/5/4 310/5/4
f 311/4/4 312/4/4 313/4/4
f 313/4/4 312/4/4 314/4/4
f 315/5/4 316/5/4 317/5/4
f 317/5/4 316/5/4 318/5/4
f 319/4/4 320/4/4 321/4/4
f 321/4/4 320/4/4 322/4/4
f 323/6/4 324/6/4 325/6/4
f 325/6/4 324/6/4 326/6/4
f 327/5/4 328/5/4 329/5/4
f 329/5/4 328/5/4 330/5/4
f 331/1/4 332/1/4 334/1/4
f 332/2/4 333/2/4 335/2/4
f 334/1/4 332/1/4 335/1/4
f 335/2/4 333/2/4 336/2/4
f 339/1/5 338/1/5 337/1/5
f 340/1/5 338/1/5 339/1/5
f 341/2/6 342/2/6 349/2/6
f 343/2/6 344/2/6 350/2/6
f 350/2/6 344/2/6 351/2/6
f 345/2/6 346/2/6 352/2/6
f 352/2/6 346/2/6 353/2/6
f 353/2/6 346/2/6 354/2/6
f 354/2/6 346/2/6 355/2/6
f 355/2/6 346/2/6 356/2/6
f 356/2/6 346/2/6 357/2/6
f 347/2/6 348/2/6 358/2/6
f 350/2/6 351/2/6 359/2/6
f 349/2/6 350/2/6 359/2/6
f 351/2/6 352/2/6 359/2/6
f 352/2/6 353/2/6 359/2/6
f 359/2/6 353/2/6 360/2/6
f 360/2/6 353/2/6 361/2/6
f 361/2/6 353/2/6 362/2/6
f 354/2/6 355/2/6 363/2/6
f 363/2/6 355/2/6 364/2/6
f 356/2/6 357/2/6 365/2/6
f 357/2/6 358/2/6 365/2/6
f 349/2/6 359/2/6 366/2/6
f 360/2/6 361/2/6 367/2/6
f 367/2/6 361/2/6 368/2/6
f 363/2/6 364/2/6 369/2/6
f 362/2/6 363/2/6 369/2/6
f 364/2/6 365/2/6 369/2/6
f 365/2/6 358/2/6 370/2/6
f 369/2/6 365/2/6 370/2/6
f 370/2/6 358/2/6 371/2/6
f 371/2/6 358/2/6 372/2/6
f 358/2/6 348/2/6 373/2/6
f 372/2/6 358/2/6 373/2/6
f 367/2/6 368/2/6 374/2/6
f 366/2/6 367/2/6 374/2/6
f 369/2/6 370/2/6 374/2/6
f 368/2/6 369/2/6 374/2/6
f 374/2/6 370/2/6 375/2/6
f 375/2/6 370/2/6 376/2/6
f 371/2/6 372/2/6 377/2/6
f 377/2/6 372/2/6 378/2/6
f 373/2/6 348/2/6 379/2/6
f 366/2/6 374/2/6 380/2/6
f 377/2/6 378/2/6 381/2/6
f 375/2/6 376/2/6 381/2/6
f 378/2/6 379/2/6 381/2/6
f 376/2/6 377/2/6 381/2/6
f 381/2/6 379/2/6 382/2/6
f 382/2/6 379/2/6 383/2/6
f 383/2/6 379/2/6 384/2/6
f 379/2/6 348/2/6 385/2/6
f 384/2/6 379/2/6 385/2/6
f 366/2/6 380/2/6 386/2/6
f 341/2/6 349/2/6 386/2/6
f 381/2/6 382/2/6 386/2/6
f 380/2/6 381/2/6 386/2/6
f 349/2/6 366/2/6 386/2/6
f 386/2/6 382/2/6 387/2/6
f 387/2/6 382/2/6 388/2/6
f 383/2/6 384/2/6 389/2/6
f 389/2/6 384/2/6 390/2/6
f 385/2/6 348/2/6 391/2/6
f 341/2/6 386/2/6 392/2/6
f 389/2/6 390/2/6 393/2/6
f 387/2/6 388/2/6 393/2/6
f 390/2/6 391/2/6 393/2/6
f 388/2/6 389/2/6 393/2/6
f 393/2/6 391/2/6 394/2/6
f 392/2/6 393/2/6 394/2/6
f 394/2/6 391/2/6 395/2/6
f 391/2/6 348/2/6 396/2/6
f 395/2/6 391/2/6 396/2/6
f 396/2/6 348/2/6 397/2/6
f 392/2/6 394/2/6 398/2/6
f 395/2/6 396/2/6 399/2/6
f 399/2/6 396/2/6 400/2/6
f 397/2/6 348/2/6 401/2/6
f 399/2/6 400/2/6 402/2/6
f 400/2/6 401/2/6 402/2/6
f 398/2/6 399/2/6 402/2/6
f 402/2/6 401/2/6 403/2/6
f 392/2/6 398/2/6 404/2/6
f 398/2/6 402/2/6 404/2/6
f 404/2/6 402/2/6 405/2/6
f 392/2/6 404/2/6 406/2/6
f 405/2/6 402/2/6 407/2/6
f 407/2/6 402/2/6 408/2/6
f 408/2/6 402/2/6 409/2/6
f 409/2/6 402/2/6 410/2/6
f 403/2/6 401/2/6 411/2/6
f 406/2/6 407/2/6 412/2/6
f 407/2/6 408/2/6 412/2/6
f 409/2/6 410/2/6 413/2/6
f 410/2/6 411/2/6 413/2/6
f 411/2/6 401/2/6 414/2/6
f 413/2/6 411/2/6 414/2/6
f 401/2/6 348/2/6 415/2/6
f 414/2/6 401/2/6 415/2/6
f 413/2/6 414/2/6 416/2/6
f 412/2/6 413/2/6 416/2/6
f 415/2/6 348/2/6 417/2/6
f 341/2/6 392/2/6 418/2/6
f 416/2/6 417/2/6 418/2/6
f 412/2/6 416/2/6 418/2/6
f 406/2/6 412/2/6 418/2/6
f 392/2/6 406/2/6 418/2/6
f 417/2/6 348/2/6 419/2/6
f 418/2/6 417/2/6 419/2/6
f 420/5/6 421/5/6 424/5/6
f 424/5/6 421/5/6 425/5/6
f 422/3/6 423/3/6 426/3/6
f 426/3/6 423/3/6 427/3/6
f 428/3/6 429/3/6 435/3/6
f 435/3/6 429/3/6 436/3/6
f 430/4/6 431/4/6 437/4/6
f 437/4/6 431/4/6 438/4/6
f 432/6/6 433/6/6 439/6/6
f 439/6/6 433/6/6 440/6/6
f 434/3/6 435/3/6 441/3/6
f 441/3/6 435/3/6 442/3/6
f 443/5/6 444/5/6 447/5/6
f 447/5/6 444/5/6 448/5/6
f 445/3/6 446/3/6 449/3/6
f 449/3/6 446/3/6 450/3/6
f 451/5/6 452/5/6 453/5/6
f 453/5/6 452/5/6 454/5/6
f 455/5/6 456/5/6 459/5/6
f 459/5/6 456/5/6 460/5/6
f 457/4/6 458/4/6 461/4/6
f 461/4/6 458/4/6 462/4/6
f 463/4/6 464/4/6 465/4/6
f 465/4/6 464/4/6 466/4/6
f 467/3/6 468/3/6 473/3/6
f 473/3/6 468/3/6 474/3/6
f 469/5/6 470/5/6 475/5/6
f 475/5/6 470/5/6 476/5/6
f 471/5/6 472/5/6 477/5/6
f 477/5/6 472/5/6 478/5/6
f 479/3/6 480/3/6 481/3/6
f 481/3/6 480/3/6 482/3/6
f 483/5/6 484/5/6 485/5/6
f 485/5/6 484/5/6 486/5/6
f 487/4/6 488/4/6 489/4/6
f 489/4/6 488/4/6 490/4/6
f 491/6/6 492/6/6 493/6/6
f 493/6/6 492/6/6 494/6/6
f 495/5/6 496/5/6 497/5/6
f 497/5/6 496/5/6 498/5/6
