# MagicaVoxel @ Ephtracy

# group
o 

# material
mtllib Chemin3.mtl
usemtl palette

# normals
vn -1 0 0
vn 1 0 0
vn 0 0 1
vn 0 0 -1
vn 0 -1 0
vn 0 1 0

# texcoords
vt 0.537109 0.5
vt 0.677734 0.5

# verts
v 0.2 4.8 -20
v 0.2 4.8 -22.4
v 0.2 9 -20
v 0.2 9 -22.4
v 0.2 9.2 -20
v 0.2 9.2 -22.4
v 0.3 8.9 -20
v 0.3 8.9 -20.1
v 0.3 9 -20
v 0.3 9 -20.1
v 0.3 9.2 -20
v 0.3 9.2 -20.1
v 0.4 8.9 -20.1
v 0.4 8.9 -20.2
v 0.4 9 -20.1
v 0.4 9 -20.2
v 0.4 9.2 -20.1
v 0.4 9.2 -20.2
v 0.5 8.9 -20.2
v 0.5 8.9 -20.3
v 0.5 9 -20.2
v 0.5 9 -20.3
v 0.5 9.2 -20.2
v 0.5 9.2 -20.3
v 0.6 8.9 -20.3
v 0.6 8.9 -20.4
v 0.6 9 -20.3
v 0.6 9 -20.4
v 0.6 9.2 -20.3
v 0.6 9.2 -20.4
v 0.7 8.9 -20.4
v 0.7 8.9 -20.5
v 0.7 9 -20.4
v 0.7 9 -20.5
v 0.7 9.2 -20.4
v 0.7 9.2 -20.5
v 0.8 8.9 -20.5
v 0.8 8.9 -20.6
v 0.8 9 -20.5
v 0.8 9 -20.6
v 0.8 9.2 -20.5
v 0.8 9.2 -20.6
v 0.9 8.9 -20.6
v 0.9 8.9 -20.7
v 0.9 9 -20.6
v 0.9 9 -20.7
v 0.9 9.2 -20.6
v 0.9 9.2 -20.7
v 1 8.9 -20.7
v 1 8.9 -20.8
v 1 9 -20.7
v 1 9 -20.8
v 1 9.2 -20.7
v 1 9.2 -20.8
v 1.1 8.9 -20.8
v 1.1 8.9 -20.9
v 1.1 9 -20.8
v 1.1 9 -20.9
v 1.1 9.2 -20.8
v 1.1 9.2 -20.9
v 1.2 8.9 -20.9
v 1.2 8.9 -21
v 1.2 9 -20.9
v 1.2 9 -21
v 1.2 9.2 -20.9
v 1.2 9.2 -21
v 1.3 8.9 -21
v 1.3 8.9 -21.1
v 1.3 9 -21
v 1.3 9 -21.1
v 1.3 9.2 -21
v 1.3 9.2 -21.1
v 1.4 8.9 -21.1
v 1.4 8.9 -21.2
v 1.4 9 -21.1
v 1.4 9 -21.2
v 1.4 9.2 -21.1
v 1.4 9.2 -21.2
v 1.5 8.9 -21.2
v 1.5 8.9 -21.3
v 1.5 9 -21.2
v 1.5 9 -21.3
v 1.5 9.2 -21.2
v 1.5 9.2 -21.3
v 1.6 8.9 -21.3
v 1.6 8.9 -21.4
v 1.6 9 -21.3
v 1.6 9 -21.4
v 1.6 9.2 -21.3
v 1.6 9.2 -21.4
v 1.7 8.9 -21.4
v 1.7 8.9 -21.5
v 1.7 9 -21.4
v 1.7 9 -21.5
v 1.7 9.2 -21.4
v 1.7 9.2 -21.5
v 1.8 8.9 -21.5
v 1.8 8.9 -21.6
v 1.8 9 -21.5
v 1.8 9 -21.6
v 1.8 9.2 -21.5
v 1.8 9.2 -21.6
v 1.9 8.9 -21.6
v 1.9 8.9 -21.7
v 1.9 9 -21.6
v 1.9 9 -21.7
v 1.9 9.2 -21.6
v 1.9 9.2 -21.7
v 2 8.9 -21.7
v 2 8.9 -21.8
v 2 9 -21.7
v 2 9 -21.8
v 2 9.2 -21.7
v 2 9.2 -21.8
v 2.1 8.9 -21.8
v 2.1 8.9 -21.9
v 2.1 9 -21.8
v 2.1 9 -21.9
v 2.1 9.2 -21.8
v 2.1 9.2 -21.9
v 2.2 8.9 -21.9
v 2.2 8.9 -22
v 2.2 9 -21.9
v 2.2 9 -22
v 2.2 9.2 -21.9
v 2.2 9.2 -22
v 2.3 8.9 -22
v 2.3 8.9 -22.1
v 2.3 9 -22
v 2.3 9 -22.1
v 2.3 9.2 -22
v 2.3 9.2 -22.1
v 2.4 8.9 -22.1
v 2.4 8.9 -22.2
v 2.4 9 -22.1
v 2.4 9 -22.2
v 2.4 9.2 -22.1
v 2.4 9.2 -22.2
v 2.5 8.9 -22.2
v 2.5 8.9 -22.3
v 2.5 9 -22.2
v 2.5 9 -22.3
v 2.5 9.2 -22.2
v 2.5 9.2 -22.3
v 2.6 4.8 -20
v 2.6 4.8 -22.4
v 2.6 8.9 -20
v 2.6 8.9 -22.3
v 2.6 9 -22.3
v 2.6 9 -22.4
v 2.6 9.2 -22.3
v 2.6 9.2 -22.4
v 0.2 4.8 -20
v 0.2 9 -20
v 0.2 9.2 -20
v 0.3 8.9 -20
v 0.3 9 -20
v 0.3 9.2 -20
v 2.6 4.8 -20
v 2.6 8.9 -20
v 0.3 8.9 -20.1
v 0.3 9 -20.1
v 0.3 9.2 -20.1
v 0.4 8.9 -20.1
v 0.4 9 -20.1
v 0.4 9.2 -20.1
v 0.4 8.9 -20.2
v 0.4 9 -20.2
v 0.4 9.2 -20.2
v 0.5 8.9 -20.2
v 0.5 9 -20.2
v 0.5 9.2 -20.2
v 0.5 8.9 -20.3
v 0.5 9 -20.3
v 0.5 9.2 -20.3
v 0.6 8.9 -20.3
v 0.6 9 -20.3
v 0.6 9.2 -20.3
v 0.6 8.9 -20.4
v 0.6 9 -20.4
v 0.6 9.2 -20.4
v 0.7 8.9 -20.4
v 0.7 9 -20.4
v 0.7 9.2 -20.4
v 0.7 8.9 -20.5
v 0.7 9 -20.5
v 0.7 9.2 -20.5
v 0.8 8.9 -20.5
v 0.8 9 -20.5
v 0.8 9.2 -20.5
v 0.8 8.9 -20.6
v 0.8 9 -20.6
v 0.8 9.2 -20.6
v 0.9 8.9 -20.6
v 0.9 9 -20.6
v 0.9 9.2 -20.6
v 0.9 8.9 -20.7
v 0.9 9 -20.7
v 0.9 9.2 -20.7
v 1 8.9 -20.7
v 1 9 -20.7
v 1 9.2 -20.7
v 1 8.9 -20.8
v 1 9 -20.8
v 1 9.2 -20.8
v 1.1 8.9 -20.8
v 1.1 9 -20.8
v 1.1 9.2 -20.8
v 1.1 8.9 -20.9
v 1.1 9 -20.9
v 1.1 9.2 -20.9
v 1.2 8.9 -20.9
v 1.2 9 -20.9
v 1.2 9.2 -20.9
v 1.2 8.9 -21
v 1.2 9 -21
v 1.2 9.2 -21
v 1.3 8.9 -21
v 1.3 9 -21
v 1.3 9.2 -21
v 1.3 8.9 -21.1
v 1.3 9 -21.1
v 1.3 9.2 -21.1
v 1.4 8.9 -21.1
v 1.4 9 -21.1
v 1.4 9.2 -21.1
v 1.4 8.9 -21.2
v 1.4 9 -21.2
v 1.4 9.2 -21.2
v 1.5 8.9 -21.2
v 1.5 9 -21.2
v 1.5 9.2 -21.2
v 1.5 8.9 -21.3
v 1.5 9 -21.3
v 1.5 9.2 -21.3
v 1.6 8.9 -21.3
v 1.6 9 -21.3
v 1.6 9.2 -21.3
v 1.6 8.9 -21.4
v 1.6 9 -21.4
v 1.6 9.2 -21.4
v 1.7 8.9 -21.4
v 1.7 9 -21.4
v 1.7 9.2 -21.4
v 1.7 8.9 -21.5
v 1.7 9 -21.5
v 1.7 9.2 -21.5
v 1.8 8.9 -21.5
v 1.8 9 -21.5
v 1.8 9.2 -21.5
v 1.8 8.9 -21.6
v 1.8 9 -21.6
v 1.8 9.2 -21.6
v 1.9 8.9 -21.6
v 1.9 9 -21.6
v 1.9 9.2 -21.6
v 1.9 8.9 -21.7
v 1.9 9 -21.7
v 1.9 9.2 -21.7
v 2 8.9 -21.7
v 2 9 -21.7
v 2 9.2 -21.7
v 2 8.9 -21.8
v 2 9 -21.8
v 2 9.2 -21.8
v 2.1 8.9 -21.8
v 2.1 9 -21.8
v 2.1 9.2 -21.8
v 2.1 8.9 -21.9
v 2.1 9 -21.9
v 2.1 9.2 -21.9
v 2.2 8.9 -21.9
v 2.2 9 -21.9
v 2.2 9.2 -21.9
v 2.2 8.9 -22
v 2.2 9 -22
v 2.2 9.2 -22
v 2.3 8.9 -22
v 2.3 9 -22
v 2.3 9.2 -22
v 2.3 8.9 -22.1
v 2.3 9 -22.1
v 2.3 9.2 -22.1
v 2.4 8.9 -22.1
v 2.4 9 -22.1
v 2.4 9.2 -22.1
v 2.4 8.9 -22.2
v 2.4 9 -22.2
v 2.4 9.2 -22.2
v 2.5 8.9 -22.2
v 2.5 9 -22.2
v 2.5 9.2 -22.2
v 2.5 8.9 -22.3
v 2.5 9 -22.3
v 2.5 9.2 -22.3
v 2.6 8.9 -22.3
v 2.6 9 -22.3
v 2.6 9.2 -22.3
v 0.2 4.8 -22.4
v 0.2 9 -22.4
v 0.2 9.2 -22.4
v 2.6 4.8 -22.4
v 2.6 9 -22.4
v 2.6 9.2 -22.4
v 0.2 4.8 -20
v 2.6 4.8 -20
v 0.2 4.8 -22.4
v 2.6 4.8 -22.4
v 0.3 8.9 -20
v 2.6 8.9 -20
v 0.3 8.9 -20.1
v 0.4 8.9 -20.1
v 0.4 8.9 -20.2
v 0.5 8.9 -20.2
v 0.5 8.9 -20.3
v 0.6 8.9 -20.3
v 0.6 8.9 -20.4
v 0.7 8.9 -20.4
v 0.7 8.9 -20.5
v 0.8 8.9 -20.5
v 0.8 8.9 -20.6
v 0.9 8.9 -20.6
v 0.9 8.9 -20.7
v 1 8.9 -20.7
v 1 8.9 -20.8
v 1.1 8.9 -20.8
v 1.1 8.9 -20.9
v 1.2 8.9 -20.9
v 1.2 8.9 -21
v 1.3 8.9 -21
v 1.3 8.9 -21.1
v 1.4 8.9 -21.1
v 1.4 8.9 -21.2
v 1.5 8.9 -21.2
v 1.5 8.9 -21.3
v 1.6 8.9 -21.3
v 1.6 8.9 -21.4
v 1.7 8.9 -21.4
v 1.7 8.9 -21.5
v 1.8 8.9 -21.5
v 1.8 8.9 -21.6
v 1.9 8.9 -21.6
v 1.9 8.9 -21.7
v 2 8.9 -21.7
v 2 8.9 -21.8
v 2.1 8.9 -21.8
v 2.1 8.9 -21.9
v 2.2 8.9 -21.9
v 2.2 8.9 -22
v 2.3 8.9 -22
v 2.3 8.9 -22.1
v 2.4 8.9 -22.1
v 2.4 8.9 -22.2
v 2.5 8.9 -22.2
v 2.5 8.9 -22.3
v 2.6 8.9 -22.3
v 0.2 9.2 -20
v 0.3 9.2 -20
v 0.3 9.2 -20.1
v 0.4 9.2 -20.1
v 0.4 9.2 -20.2
v 0.5 9.2 -20.2
v 0.5 9.2 -20.3
v 0.6 9.2 -20.3
v 0.6 9.2 -20.4
v 0.7 9.2 -20.4
v 0.7 9.2 -20.5
v 0.8 9.2 -20.5
v 0.8 9.2 -20.6
v 0.9 9.2 -20.6
v 0.9 9.2 -20.7
v 1 9.2 -20.7
v 1 9.2 -20.8
v 1.1 9.2 -20.8
v 1.1 9.2 -20.9
v 1.2 9.2 -20.9
v 1.2 9.2 -21
v 1.3 9.2 -21
v 1.3 9.2 -21.1
v 1.4 9.2 -21.1
v 1.4 9.2 -21.2
v 1.5 9.2 -21.2
v 1.5 9.2 -21.3
v 1.6 9.2 -21.3
v 1.6 9.2 -21.4
v 1.7 9.2 -21.4
v 1.7 9.2 -21.5
v 1.8 9.2 -21.5
v 1.8 9.2 -21.6
v 1.9 9.2 -21.6
v 1.9 9.2 -21.7
v 2 9.2 -21.7
v 2 9.2 -21.8
v 2.1 9.2 -21.8
v 2.1 9.2 -21.9
v 2.2 9.2 -21.9
v 2.2 9.2 -22
v 2.3 9.2 -22
v 2.3 9.2 -22.1
v 2.4 9.2 -22.1
v 2.4 9.2 -22.2
v 2.5 9.2 -22.2
v 2.5 9.2 -22.3
v 2.6 9.2 -22.3
v 0.2 9.2 -22.4
v 2.6 9.2 -22.4

# faces
f 3/1/1 2/1/1 1/1/1
f 4/1/1 2/1/1 3/1/1
f 5/2/1 4/2/1 3/2/1
f 6/2/1 4/2/1 5/2/1
f 7/1/2 8/1/2 9/1/2
f 9/1/2 8/1/2 10/1/2
f 9/2/2 10/2/2 11/2/2
f 11/2/2 10/2/2 12/2/2
f 13/1/2 14/1/2 15/1/2
f 15/1/2 14/1/2 16/1/2
f 15/2/2 16/2/2 17/2/2
f 17/2/2 16/2/2 18/2/2
f 19/1/2 20/1/2 21/1/2
f 21/1/2 20/1/2 22/1/2
f 21/2/2 22/2/2 23/2/2
f 23/2/2 22/2/2 24/2/2
f 25/1/2 26/1/2 27/1/2
f 27/1/2 26/1/2 28/1/2
f 27/2/2 28/2/2 29/2/2
f 29/2/2 28/2/2 30/2/2
f 31/1/2 32/1/2 33/1/2
f 33/1/2 32/1/2 34/1/2
f 33/2/2 34/2/2 35/2/2
f 35/2/2 34/2/2 36/2/2
f 37/1/2 38/1/2 39/1/2
f 39/1/2 38/1/2 40/1/2
f 39/2/2 40/2/2 41/2/2
f 41/2/2 40/2/2 42/2/2
f 43/1/2 44/1/2 45/1/2
f 45/1/2 44/1/2 46/1/2
f 45/2/2 46/2/2 47/2/2
f 47/2/2 46/2/2 48/2/2
f 49/1/2 50/1/2 51/1/2
f 51/1/2 50/1/2 52/1/2
f 51/2/2 52/2/2 53/2/2
f 53/2/2 52/2/2 54/2/2
f 55/1/2 56/1/2 57/1/2
f 57/1/2 56/1/2 58/1/2
f 57/2/2 58/2/2 59/2/2
f 59/2/2 58/2/2 60/2/2
f 61/1/2 62/1/2 63/1/2
f 63/1/2 62/1/2 64/1/2
f 63/2/2 64/2/2 65/2/2
f 65/2/2 64/2/2 66/2/2
f 67/1/2 68/1/2 69/1/2
f 69/1/2 68/1/2 70/1/2
f 69/2/2 70/2/2 71/2/2
f 71/2/2 70/2/2 72/2/2
f 73/1/2 74/1/2 75/1/2
f 75/1/2 74/1/2 76/1/2
f 75/2/2 76/2/2 77/2/2
f 77/2/2 76/2/2 78/2/2
f 79/1/2 80/1/2 81/1/2
f 81/1/2 80/1/2 82/1/2
f 81/2/2 82/2/2 83/2/2
f 83/2/2 82/2/2 84/2/2
f 85/1/2 86/1/2 87/1/2
f 87/1/2 86/1/2 88/1/2
f 87/2/2 88/2/2 89/2/2
f 89/2/2 88/2/2 90/2/2
f 91/1/2 92/1/2 93/1/2
f 93/1/2 92/1/2 94/1/2
f 93/2/2 94/2/2 95/2/2
f 95/2/2 94/2/2 96/2/2
f 97/1/2 98/1/2 99/1/2
f 99/1/2 98/1/2 100/1/2
f 99/2/2 100/2/2 101/2/2
f 101/2/2 100/2/2 102/2/2
f 103/1/2 104/1/2 105/1/2
f 105/1/2 104/1/2 106/1/2
f 105/2/2 106/2/2 107/2/2
f 107/2/2 106/2/2 108/2/2
f 109/1/2 110/1/2 111/1/2
f 111/1/2 110/1/2 112/1/2
f 111/2/2 112/2/2 113/2/2
f 113/2/2 112/2/2 114/2/2
f 115/1/2 116/1/2 117/1/2
f 117/1/2 116/1/2 118/1/2
f 117/2/2 118/2/2 119/2/2
f 119/2/2 118/2/2 120/2/2
f 121/1/2 122/1/2 123/1/2
f 123/1/2 122/1/2 124/1/2
f 123/2/2 124/2/2 125/2/2
f 125/2/2 124/2/2 126/2/2
f 127/1/2 128/1/2 129/1/2
f 129/1/2 128/1/2 130/1/2
f 129/2/2 130/2/2 131/2/2
f 131/2/2 130/2/2 132/2/2
f 133/1/2 134/1/2 135/1/2
f 135/1/2 134/1/2 136/1/2
f 135/2/2 136/2/2 137/2/2
f 137/2/2 136/2/2 138/2/2
f 139/1/2 140/1/2 141/1/2
f 141/1/2 140/1/2 142/1/2
f 141/2/2 142/2/2 143/2/2
f 143/2/2 142/2/2 144/2/2
f 145/1/2 146/1/2 147/1/2
f 147/1/2 146/1/2 148/1/2
f 148/1/2 146/1/2 149/1/2
f 149/1/2 146/1/2 150/1/2
f 149/2/2 150/2/2 151/2/2
f 151/2/2 150/2/2 152/2/2
f 156/1/3 154/1/3 153/1/3
f 157/2/3 155/2/3 154/2/3
f 157/1/3 154/1/3 156/1/3
f 158/2/3 155/2/3 157/2/3
f 159/1/3 156/1/3 153/1/3
f 160/1/3 156/1/3 159/1/3
f 164/1/3 162/1/3 161/1/3
f 165/2/3 163/2/3 162/2/3
f 165/1/3 162/1/3 164/1/3
f 166/2/3 163/2/3 165/2/3
f 170/1/3 168/1/3 167/1/3
f 171/2/3 169/2/3 168/2/3
f 171/1/3 168/1/3 170/1/3
f 172/2/3 169/2/3 171/2/3
f 176/1/3 174/1/3 173/1/3
f 177/2/3 175/2/3 174/2/3
f 177/1/3 174/1/3 176/1/3
f 178/2/3 175/2/3 177/2/3
f 182/1/3 180/1/3 179/1/3
f 183/2/3 181/2/3 180/2/3
f 183/1/3 180/1/3 182/1/3
f 184/2/3 181/2/3 183/2/3
f 188/1/3 186/1/3 185/1/3
f 189/2/3 187/2/3 186/2/3
f 189/1/3 186/1/3 188/1/3
f 190/2/3 187/2/3 189/2/3
f 194/1/3 192/1/3 191/1/3
f 195/2/3 193/2/3 192/2/3
f 195/1/3 192/1/3 194/1/3
f 196/2/3 193/2/3 195/2/3
f 200/1/3 198/1/3 197/1/3
f 201/2/3 199/2/3 198/2/3
f 201/1/3 198/1/3 200/1/3
f 202/2/3 199/2/3 201/2/3
f 206/1/3 204/1/3 203/1/3
f 207/2/3 205/2/3 204/2/3
f 207/1/3 204/1/3 206/1/3
f 208/2/3 205/2/3 207/2/3
f 212/1/3 210/1/3 209/1/3
f 213/2/3 211/2/3 210/2/3
f 213/1/3 210/1/3 212/1/3
f 214/2/3 211/2/3 213/2/3
f 218/1/3 216/1/3 215/1/3
f 219/2/3 217/2/3 216/2/3
f 219/1/3 216/1/3 218/1/3
f 220/2/3 217/2/3 219/2/3
f 224/1/3 222/1/3 221/1/3
f 225/2/3 223/2/3 222/2/3
f 225/1/3 222/1/3 224/1/3
f 226/2/3 223/2/3 225/2/3
f 230/1/3 228/1/3 227/1/3
f 231/2/3 229/2/3 228/2/3
f 231/1/3 228/1/3 230/1/3
f 232/2/3 229/2/3 231/2/3
f 236/1/3 234/1/3 233/1/3
f 237/2/3 235/2/3 234/2/3
f 237/1/3 234/1/3 236/1/3
f 238/2/3 235/2/3 237/2/3
f 242/1/3 240/1/3 239/1/3
f 243/2/3 241/2/3 240/2/3
f 243/1/3 240/1/3 242/1/3
f 244/2/3 241/2/3 243/2/3
f 248/1/3 246/1/3 245/1/3
f 249/2/3 247/2/3 246/2/3
f 249/1/3 246/1/3 248/1/3
f 250/2/3 247/2/3 249/2/3
f 254/1/3 252/1/3 251/1/3
f 255/2/3 253/2/3 252/2/3
f 255/1/3 252/1/3 254/1/3
f 256/2/3 253/2/3 255/2/3
f 260/1/3 258/1/3 257/1/3
f 261/2/3 259/2/3 258/2/3
f 261/1/3 258/1/3 260/1/3
f 262/2/3 259/2/3 261/2/3
f 266/1/3 264/1/3 263/1/3
f 267/2/3 265/2/3 264/2/3
f 267/1/3 264/1/3 266/1/3
f 268/2/3 265/2/3 267/2/3
f 272/1/3 270/1/3 269/1/3
f 273/2/3 271/2/3 270/2/3
f 273/1/3 270/1/3 272/1/3
f 274/2/3 271/2/3 273/2/3
f 278/1/3 276/1/3 275/1/3
f 279/2/3 277/2/3 276/2/3
f 279/1/3 276/1/3 278/1/3
f 280/2/3 277/2/3 279/2/3
f 284/1/3 282/1/3 281/1/3
f 285/2/3 283/2/3 282/2/3
f 285/1/3 282/1/3 284/1/3
f 286/2/3 283/2/3 285/2/3
f 290/1/3 288/1/3 287/1/3
f 291/2/3 289/2/3 288/2/3
f 291/1/3 288/1/3 290/1/3
f 292/2/3 289/2/3 291/2/3
f 296/1/3 294/1/3 293/1/3
f 297/2/3 295/2/3 294/2/3
f 297/1/3 294/1/3 296/1/3
f 298/2/3 295/2/3 297/2/3
f 299/1/4 300/1/4 302/1/4
f 300/2/4 301/2/4 303/2/4
f 302/1/4 300/1/4 303/1/4
f 303/2/4 301/2/4 304/2/4
f 307/1/5 306/1/5 305/1/5
f 308/1/5 306/1/5 307/1/5
f 309/1/6 310/1/6 311/1/6
f 311/1/6 310/1/6 312/1/6
f 312/1/6 310/1/6 313/1/6
f 313/1/6 310/1/6 314/1/6
f 314/1/6 310/1/6 315/1/6
f 315/1/6 310/1/6 316/1/6
f 316/1/6 310/1/6 317/1/6
f 317/1/6 310/1/6 318/1/6
f 318/1/6 310/1/6 319/1/6
f 319/1/6 310/1/6 320/1/6
f 320/1/6 310/1/6 321/1/6
f 321/1/6 310/1/6 322/1/6
f 322/1/6 310/1/6 323/1/6
f 323/1/6 310/1/6 324/1/6
f 324/1/6 310/1/6 325/1/6
f 325/1/6 310/1/6 326/1/6
f 326/1/6 310/1/6 327/1/6
f 327/1/6 310/1/6 328/1/6
f 328/1/6 310/1/6 329/1/6
f 329/1/6 310/1/6 330/1/6
f 330/1/6 310/1/6 331/1/6
f 331/1/6 310/1/6 332/1/6
f 332/1/6 310/1/6 333/1/6
f 333/1/6 310/1/6 334/1/6
f 334/1/6 310/1/6 335/1/6
f 335/1/6 310/1/6 336/1/6
f 336/1/6 310/1/6 337/1/6
f 337/1/6 310/1/6 338/1/6
f 338/1/6 310/1/6 339/1/6
f 339/1/6 310/1/6 340/1/6
f 340/1/6 310/1/6 341/1/6
f 341/1/6 310/1/6 342/1/6
f 342/1/6 310/1/6 343/1/6
f 343/1/6 310/1/6 344/1/6
f 344/1/6 310/1/6 345/1/6
f 345/1/6 310/1/6 346/1/6
f 346/1/6 310/1/6 347/1/6
f 347/1/6 310/1/6 348/1/6
f 348/1/6 310/1/6 349/1/6
f 349/1/6 310/1/6 350/1/6
f 350/1/6 310/1/6 351/1/6
f 351/1/6 310/1/6 352/1/6
f 352/1/6 310/1/6 353/1/6
f 353/1/6 310/1/6 354/1/6
f 354/1/6 310/1/6 355/1/6
f 355/1/6 310/1/6 356/1/6
f 357/2/6 358/2/6 359/2/6
f 359/2/6 360/2/6 361/2/6
f 361/2/6 362/2/6 363/2/6
f 363/2/6 364/2/6 365/2/6
f 365/2/6 366/2/6 367/2/6
f 367/2/6 368/2/6 369/2/6
f 369/2/6 370/2/6 371/2/6
f 371/2/6 372/2/6 373/2/6
f 373/2/6 374/2/6 375/2/6
f 375/2/6 376/2/6 377/2/6
f 377/2/6 378/2/6 379/2/6
f 379/2/6 380/2/6 381/2/6
f 381/2/6 382/2/6 383/2/6
f 383/2/6 384/2/6 385/2/6
f 385/2/6 386/2/6 387/2/6
f 387/2/6 388/2/6 389/2/6
f 389/2/6 390/2/6 391/2/6
f 391/2/6 392/2/6 393/2/6
f 393/2/6 394/2/6 395/2/6
f 395/2/6 396/2/6 397/2/6
f 397/2/6 398/2/6 399/2/6
f 399/2/6 400/2/6 401/2/6
f 401/2/6 402/2/6 403/2/6
f 357/2/6 359/2/6 405/2/6
f 403/2/6 404/2/6 405/2/6
f 401/2/6 403/2/6 405/2/6
f 399/2/6 401/2/6 405/2/6
f 397/2/6 399/2/6 405/2/6
f 395/2/6 397/2/6 405/2/6
f 393/2/6 395/2/6 405/2/6
f 391/2/6 393/2/6 405/2/6
f 389/2/6 391/2/6 405/2/6
f 387/2/6 389/2/6 405/2/6
f 385/2/6 387/2/6 405/2/6
f 383/2/6 385/2/6 405/2/6
f 381/2/6 383/2/6 405/2/6
f 379/2/6 381/2/6 405/2/6
f 377/2/6 379/2/6 405/2/6
f 375/2/6 377/2/6 405/2/6
f 373/2/6 375/2/6 405/2/6
f 371/2/6 373/2/6 405/2/6
f 369/2/6 371/2/6 405/2/6
f 367/2/6 369/2/6 405/2/6
f 365/2/6 367/2/6 405/2/6
f 363/2/6 365/2/6 405/2/6
f 361/2/6 363/2/6 405/2/6
f 359/2/6 361/2/6 405/2/6
f 405/2/6 404/2/6 406/2/6
