# MagicaVoxel @ Ephtracy

# group
o 

# material
mtllib petit roche 1-2.mtl
usemtl palette

# normals
vn -1 0 0
vn 1 0 0
vn 0 0 1
vn 0 0 -1
vn 0 -1 0
vn 0 1 0

# texcoords
vt 0.537109 0.5
vt 0.677734 0.5
vt 0.982422 0.5
vt 0.986328 0.5
vt 0.990234 0.5

# verts
v 0 2 -0.5
v 0 2 -2.9
v 0 6.2 -0.5
v 0 6.2 -2.9
v 0 6.4 -0.5
v 0 6.4 -2.9
v 0.2 6.4 -2.7
v 0.2 6.4 -2.8
v 0.2 6.5 -2.7
v 0.2 6.5 -2.8
v 0.3 6.4 -2.3
v 0.3 6.4 -2.4
v 0.3 6.4 -2.6
v 0.3 6.4 -2.7
v 0.3 6.5 -2.3
v 0.3 6.5 -2.4
v 0.3 6.5 -2.6
v 0.3 6.5 -2.7
v 0.4 6.4 -2.4
v 0.4 6.4 -2.5
v 0.4 6.4 -2.6
v 0.4 6.5 -2.4
v 0.4 6.5 -2.5
v 0.4 6.5 -2.6
v 0.5 6.4 -2.7
v 0.5 6.4 -2.8
v 0.5 6.5 -2.7
v 0.5 6.5 -2.8
v 0.6 6.4 -2.4
v 0.6 6.4 -2.5
v 0.6 6.5 -2.4
v 0.6 6.5 -2.5
v 1.6 6.4 -0.9
v 1.6 6.4 -1
v 1.6 6.4 -1.1
v 1.6 6.4 -2.1
v 1.6 6.4 -2.2
v 1.6 6.4 -2.3
v 1.6 6.4 -2.5
v 1.6 6.5 -0.9
v 1.6 6.5 -1
v 1.6 6.5 -1.1
v 1.6 6.5 -2.1
v 1.6 6.5 -2.2
v 1.6 6.5 -2.3
v 1.6 6.5 -2.4
v 1.6 6.5 -2.5
v 1.6 6.6 -2.3
v 1.6 6.6 -2.4
v 1.7 6.4 -0.8
v 1.7 6.4 -0.9
v 1.7 6.4 -1.1
v 1.7 6.4 -1.2
v 1.7 6.4 -2
v 1.7 6.4 -2.1
v 1.7 6.5 -0.8
v 1.7 6.5 -0.9
v 1.7 6.5 -1
v 1.7 6.5 -1.1
v 1.7 6.5 -1.2
v 1.7 6.5 -2
v 1.7 6.5 -2.1
v 1.7 6.6 -1
v 1.7 6.6 -1.1
v 1.8 6.3 -2
v 1.8 6.3 -2.1
v 1.8 6.3 -2.2
v 1.8 6.3 -2.3
v 1.8 6.4 -2
v 1.8 6.4 -2.1
v 1.8 6.4 -2.2
v 1.8 6.4 -2.3
v 1.8 6.4 -2.4
v 1.8 6.4 -2.5
v 1.8 6.5 -0.9
v 1.8 6.5 -1
v 1.8 6.5 -2.4
v 1.8 6.5 -2.5
v 1.8 6.6 -0.9
v 1.8 6.6 -1
v 1.9 6.4 -2.3
v 1.9 6.4 -2.4
v 1.9 6.5 -2.1
v 1.9 6.5 -2.3
v 1.9 6.5 -2.4
v 1.9 6.6 -2.1
v 1.9 6.6 -2.3
v 0.3 6.4 -2.7
v 0.3 6.4 -2.8
v 0.3 6.5 -2.7
v 0.3 6.5 -2.8
v 0.4 6.4 -2.3
v 0.4 6.4 -2.4
v 0.4 6.5 -2.3
v 0.4 6.5 -2.4
v 0.5 6.4 -2.4
v 0.5 6.4 -2.5
v 0.5 6.4 -2.6
v 0.5 6.4 -2.7
v 0.5 6.5 -2.4
v 0.5 6.5 -2.5
v 0.5 6.5 -2.6
v 0.5 6.5 -2.7
v 0.6 6.4 -2.5
v 0.6 6.4 -2.6
v 0.6 6.4 -2.7
v 0.6 6.4 -2.8
v 0.6 6.5 -2.5
v 0.6 6.5 -2.6
v 0.6 6.5 -2.7
v 0.6 6.5 -2.8
v 0.7 6.4 -2.4
v 0.7 6.4 -2.5
v 0.7 6.5 -2.4
v 0.7 6.5 -2.5
v 1.7 6.3 -2
v 1.7 6.3 -2.1
v 1.7 6.3 -2.2
v 1.7 6.3 -2.3
v 1.7 6.4 -2
v 1.7 6.4 -2.1
v 1.7 6.4 -2.2
v 1.7 6.4 -2.3
v 1.7 6.4 -2.4
v 1.7 6.4 -2.5
v 1.7 6.5 -2.3
v 1.7 6.5 -2.4
v 1.7 6.5 -2.5
v 1.7 6.6 -2.3
v 1.7 6.6 -2.4
v 1.8 6.4 -1.1
v 1.8 6.4 -1.2
v 1.8 6.4 -2
v 1.8 6.4 -2.1
v 1.8 6.4 -2.3
v 1.8 6.4 -2.4
v 1.8 6.5 -1.1
v 1.8 6.5 -1.2
v 1.8 6.5 -2
v 1.8 6.5 -2.1
v 1.8 6.5 -2.3
v 1.8 6.5 -2.4
v 1.9 6.4 -2.4
v 1.9 6.4 -2.5
v 1.9 6.5 -0.9
v 1.9 6.5 -1
v 1.9 6.5 -1.1
v 1.9 6.5 -2.4
v 1.9 6.5 -2.5
v 1.9 6.6 -0.9
v 1.9 6.6 -1
v 1.9 6.6 -1.1
v 2 6.4 -0.8
v 2 6.4 -1
v 2 6.4 -1.1
v 2 6.4 -2.1
v 2 6.4 -2.2
v 2 6.4 -2.3
v 2 6.5 -0.8
v 2 6.5 -1
v 2 6.5 -1.1
v 2 6.5 -2.1
v 2 6.5 -2.2
v 2 6.5 -2.3
v 2 6.6 -2.1
v 2 6.6 -2.3
v 2.1 6.4 -2.3
v 2.1 6.4 -2.4
v 2.1 6.5 -2.3
v 2.1 6.5 -2.4
v 2.4 2 -0.5
v 2.4 2 -2.9
v 2.4 6.2 -0.5
v 2.4 6.2 -2.9
v 2.4 6.4 -0.5
v 2.4 6.4 -2.9
v 0 2 -0.5
v 0 6.2 -0.5
v 0 6.4 -0.5
v 2.4 2 -0.5
v 2.4 6.2 -0.5
v 2.4 6.4 -0.5
v 1.7 6.4 -0.8
v 1.7 6.5 -0.8
v 1.9 6.4 -0.8
v 1.9 6.5 -0.8
v 2 6.4 -0.8
v 2 6.5 -0.8
v 1.6 6.4 -0.9
v 1.6 6.5 -0.9
v 1.7 6.4 -0.9
v 1.7 6.5 -0.9
v 1.8 6.5 -0.9
v 1.8 6.6 -0.9
v 1.9 6.5 -0.9
v 1.9 6.6 -0.9
v 1.7 6.5 -1
v 1.7 6.6 -1
v 1.8 6.5 -1
v 1.8 6.6 -1
v 1.7 6.4 -2
v 1.7 6.5 -2
v 1.8 6.4 -2
v 1.8 6.5 -2
v 1.6 6.4 -2.1
v 1.6 6.5 -2.1
v 1.7 6.3 -2.1
v 1.7 6.4 -2.1
v 1.7 6.5 -2.1
v 1.8 6.3 -2.1
v 1.8 6.4 -2.1
v 1.8 6.5 -2.1
v 1.9 6.5 -2.1
v 1.9 6.6 -2.1
v 2 6.4 -2.1
v 2 6.5 -2.1
v 2 6.6 -2.1
v 0.3 6.4 -2.3
v 0.3 6.5 -2.3
v 0.4 6.4 -2.3
v 0.4 6.5 -2.3
v 1.6 6.5 -2.3
v 1.6 6.6 -2.3
v 1.7 6.3 -2.3
v 1.7 6.4 -2.3
v 1.7 6.5 -2.3
v 1.7 6.6 -2.3
v 1.8 6.3 -2.3
v 1.8 6.4 -2.3
v 2 6.4 -2.3
v 2 6.5 -2.3
v 2.1 6.4 -2.3
v 2.1 6.5 -2.3
v 0.4 6.4 -2.4
v 0.4 6.5 -2.4
v 0.5 6.4 -2.4
v 0.5 6.5 -2.4
v 0.6 6.4 -2.4
v 0.6 6.5 -2.4
v 0.7 6.4 -2.4
v 0.7 6.5 -2.4
v 1.8 6.4 -2.4
v 1.8 6.5 -2.4
v 1.9 6.4 -2.4
v 1.9 6.5 -2.4
v 0.5 6.4 -2.5
v 0.5 6.5 -2.5
v 0.6 6.4 -2.5
v 0.6 6.5 -2.5
v 0.3 6.4 -2.6
v 0.3 6.5 -2.6
v 0.4 6.4 -2.6
v 0.4 6.5 -2.6
v 0.2 6.4 -2.7
v 0.2 6.5 -2.7
v 0.3 6.4 -2.7
v 0.3 6.5 -2.7
v 0.5 6.4 -2.7
v 0.5 6.5 -2.7
v 0.6 6.4 -2.7
v 0.6 6.5 -2.7
v 1.6 6.4 -1.1
v 1.6 6.5 -1.1
v 1.7 6.4 -1.1
v 1.7 6.5 -1.1
v 1.7 6.6 -1.1
v 1.8 6.4 -1.1
v 1.8 6.5 -1.1
v 1.8 6.6 -1.1
v 1.9 6.4 -1.1
v 1.9 6.5 -1.1
v 1.9 6.6 -1.1
v 2 6.4 -1.1
v 2 6.5 -1.1
v 1.7 6.4 -1.2
v 1.7 6.5 -1.2
v 1.8 6.4 -1.2
v 1.8 6.5 -1.2
v 1.7 6.3 -2
v 1.7 6.4 -2
v 1.8 6.3 -2
v 1.8 6.4 -2
v 1.7 6.3 -2.2
v 1.7 6.4 -2.2
v 1.8 6.3 -2.2
v 1.8 6.4 -2.2
v 1.8 6.4 -2.3
v 1.8 6.5 -2.3
v 1.9 6.4 -2.3
v 1.9 6.5 -2.3
v 1.9 6.6 -2.3
v 2 6.5 -2.3
v 2 6.6 -2.3
v 0.3 6.4 -2.4
v 0.3 6.5 -2.4
v 0.4 6.4 -2.4
v 0.4 6.5 -2.4
v 1.6 6.5 -2.4
v 1.6 6.6 -2.4
v 1.7 6.4 -2.4
v 1.7 6.5 -2.4
v 1.7 6.6 -2.4
v 1.8 6.4 -2.4
v 1.8 6.5 -2.4
v 1.9 6.4 -2.4
v 1.9 6.5 -2.4
v 2 6.4 -2.4
v 2 6.5 -2.4
v 2.1 6.4 -2.4
v 2.1 6.5 -2.4
v 0.6 6.4 -2.5
v 0.6 6.5 -2.5
v 0.7 6.4 -2.5
v 0.7 6.5 -2.5
v 1.6 6.4 -2.5
v 1.6 6.5 -2.5
v 1.7 6.4 -2.5
v 1.7 6.5 -2.5
v 1.8 6.4 -2.5
v 1.8 6.5 -2.5
v 1.9 6.4 -2.5
v 1.9 6.5 -2.5
v 0.5 6.4 -2.6
v 0.5 6.5 -2.6
v 0.6 6.4 -2.6
v 0.6 6.5 -2.6
v 0.3 6.4 -2.7
v 0.3 6.5 -2.7
v 0.5 6.4 -2.7
v 0.5 6.5 -2.7
v 0.2 6.4 -2.8
v 0.2 6.5 -2.8
v 0.3 6.4 -2.8
v 0.3 6.5 -2.8
v 0.5 6.4 -2.8
v 0.5 6.5 -2.8
v 0.6 6.4 -2.8
v 0.6 6.5 -2.8
v 0 2 -2.9
v 0 6.2 -2.9
v 0 6.4 -2.9
v 2.4 2 -2.9
v 2.4 6.2 -2.9
v 2.4 6.4 -2.9
v 0 2 -0.5
v 2.4 2 -0.5
v 0 2 -2.9
v 2.4 2 -2.9
v 1.7 6.4 -2
v 1.8 6.4 -2
v 1.7 6.4 -2.1
v 1.8 6.4 -2.1
v 1.7 6.4 -2.2
v 1.8 6.4 -2.2
v 1.7 6.4 -2.3
v 1.8 6.4 -2.3
v 1.7 6.3 -2
v 1.8 6.3 -2
v 1.7 6.3 -2.1
v 1.8 6.3 -2.1
v 1.7 6.3 -2.2
v 1.8 6.3 -2.2
v 1.7 6.3 -2.3
v 1.8 6.3 -2.3
v 0 6.4 -0.5
v 2.4 6.4 -0.5
v 1.7 6.4 -0.7
v 1.9 6.4 -0.7
v 1.6 6.4 -0.8
v 1.7 6.4 -0.8
v 1.9 6.4 -0.8
v 2 6.4 -0.8
v 1.6 6.4 -0.9
v 1.7 6.4 -0.9
v 1.6 6.4 -1
v 2 6.4 -1
v 1.6 6.4 -1.1
v 1.7 6.4 -1.1
v 1.8 6.4 -1.1
v 1.9 6.4 -1.1
v 2 6.4 -1.1
v 1.7 6.4 -1.2
v 1.8 6.4 -1.2
v 0.9 6.4 -1.4
v 1 6.4 -1.4
v 0.9 6.4 -1.5
v 1 6.4 -1.5
v 1.1 6.4 -1.5
v 0.6 6.4 -1.6
v 0.7 6.4 -1.6
v 1 6.4 -1.6
v 1.1 6.4 -1.6
v 1.2 6.4 -1.6
v 1.4 6.4 -1.6
v 1.5 6.4 -1.6
v 0.5 6.4 -1.7
v 0.6 6.4 -1.7
v 0.7 6.4 -1.7
v 1.1 6.4 -1.7
v 1.2 6.4 -1.7
v 1.4 6.4 -1.7
v 1.5 6.4 -1.7
v 0.4 6.4 -1.8
v 0.5 6.4 -1.8
v 0.6 6.4 -1.8
v 0.3 6.4 -1.9
v 0.4 6.4 -1.9
v 0.5 6.4 -1.9
v 0.6 6.4 -1.9
v 0.7 6.4 -1.9
v 1.2 6.4 -1.9
v 1.3 6.4 -1.9
v 0.3 6.4 -2
v 0.4 6.4 -2
v 0.5 6.4 -2
v 0.6 6.4 -2
v 0.7 6.4 -2
v 1.2 6.4 -2
v 1.3 6.4 -2
v 1.5 6.4 -2
v 1.7 6.4 -2
v 1.8 6.4 -2
v 2 6.4 -2
v 0.5 6.4 -2.1
v 0.6 6.4 -2.1
v 0.7 6.4 -2.1
v 0.8 6.4 -2.1
v 0.9 6.4 -2.1
v 1 6.4 -2.1
v 1.1 6.4 -2.1
v 1.5 6.4 -2.1
v 1.6 6.4 -2.1
v 1.7 6.4 -2.1
v 1.8 6.4 -2.1
v 2 6.4 -2.1
v 2.1 6.4 -2.1
v 0.2 6.4 -2.2
v 0.3 6.4 -2.2
v 0.4 6.4 -2.2
v 0.5 6.4 -2.2
v 0.6 6.4 -2.2
v 0.8 6.4 -2.2
v 0.9 6.4 -2.2
v 1 6.4 -2.2
v 1.1 6.4 -2.2
v 1.4 6.4 -2.2
v 1.6 6.4 -2.2
v 2 6.4 -2.2
v 0.3 6.4 -2.3
v 0.4 6.4 -2.3
v 0.5 6.4 -2.3
v 0.6 6.4 -2.3
v 0.7 6.4 -2.3
v 0.8 6.4 -2.3
v 0.9 6.4 -2.3
v 1.4 6.4 -2.3
v 1.6 6.4 -2.3
v 1.8 6.4 -2.3
v 1.9 6.4 -2.3
v 2 6.4 -2.3
v 2.1 6.4 -2.3
v 0.2 6.4 -2.4
v 0.3 6.4 -2.4
v 0.4 6.4 -2.4
v 0.5 6.4 -2.4
v 0.6 6.4 -2.4
v 0.7 6.4 -2.4
v 0.8 6.4 -2.4
v 0.9 6.4 -2.4
v 1.7 6.4 -2.4
v 1.8 6.4 -2.4
v 1.9 6.4 -2.4
v 2 6.4 -2.4
v 2.1 6.4 -2.4
v 0.4 6.4 -2.5
v 0.5 6.4 -2.5
v 0.6 6.4 -2.5
v 0.7 6.4 -2.5
v 1.1 6.4 -2.5
v 1.2 6.4 -2.5
v 1.6 6.4 -2.5
v 1.7 6.4 -2.5
v 1.8 6.4 -2.5
v 1.9 6.4 -2.5
v 0.3 6.4 -2.6
v 0.4 6.4 -2.6
v 0.5 6.4 -2.6
v 0.6 6.4 -2.6
v 0.7 6.4 -2.6
v 0.8 6.4 -2.6
v 0.9 6.4 -2.6
v 1 6.4 -2.6
v 1.1 6.4 -2.6
v 1.2 6.4 -2.6
v 1.4 6.4 -2.6
v 1.5 6.4 -2.6
v 1.7 6.4 -2.6
v 1.9 6.4 -2.6
v 2 6.4 -2.6
v 0.2 6.4 -2.7
v 0.3 6.4 -2.7
v 0.5 6.4 -2.7
v 0.6 6.4 -2.7
v 0.7 6.4 -2.7
v 0.9 6.4 -2.7
v 1 6.4 -2.7
v 1.1 6.4 -2.7
v 1.2 6.4 -2.7
v 1.4 6.4 -2.7
v 1.5 6.4 -2.7
v 1.7 6.4 -2.7
v 0.2 6.4 -2.8
v 0.3 6.4 -2.8
v 0.5 6.4 -2.8
v 0.6 6.4 -2.8
v 0.7 6.4 -2.8
v 0.9 6.4 -2.8
v 1.1 6.4 -2.8
v 1.2 6.4 -2.8
v 1.4 6.4 -2.8
v 0 6.4 -2.9
v 2.4 6.4 -2.9
v 1.7 6.5 -0.8
v 1.9 6.5 -0.8
v 2 6.5 -0.8
v 1.6 6.5 -0.9
v 1.7 6.5 -0.9
v 1.8 6.5 -0.9
v 1.9 6.5 -0.9
v 1.6 6.5 -1
v 1.7 6.5 -1
v 1.8 6.5 -1
v 1.9 6.5 -1
v 2 6.5 -1
v 1.6 6.5 -1.1
v 1.7 6.5 -1.1
v 1.8 6.5 -1.1
v 1.9 6.5 -1.1
v 2 6.5 -1.1
v 1.7 6.5 -1.2
v 1.8 6.5 -1.2
v 1.7 6.5 -2
v 1.8 6.5 -2
v 1.6 6.5 -2.1
v 1.7 6.5 -2.1
v 1.8 6.5 -2.1
v 1.9 6.5 -2.1
v 1.6 6.5 -2.2
v 1.7 6.5 -2.2
v 1.8 6.5 -2.2
v 0.3 6.5 -2.3
v 0.4 6.5 -2.3
v 1.6 6.5 -2.3
v 1.7 6.5 -2.3
v 1.8 6.5 -2.3
v 1.9 6.5 -2.3
v 2 6.5 -2.3
v 2.1 6.5 -2.3
v 0.3 6.5 -2.4
v 0.4 6.5 -2.4
v 0.5 6.5 -2.4
v 0.6 6.5 -2.4
v 0.7 6.5 -2.4
v 1.6 6.5 -2.4
v 1.7 6.5 -2.4
v 1.8 6.5 -2.4
v 1.9 6.5 -2.4
v 2 6.5 -2.4
v 2.1 6.5 -2.4
v 0.4 6.5 -2.5
v 0.5 6.5 -2.5
v 0.6 6.5 -2.5
v 0.7 6.5 -2.5
v 1.6 6.5 -2.5
v 1.7 6.5 -2.5
v 1.8 6.5 -2.5
v 1.9 6.5 -2.5
v 0.3 6.5 -2.6
v 0.4 6.5 -2.6
v 0.5 6.5 -2.6
v 0.6 6.5 -2.6
v 0.2 6.5 -2.7
v 0.3 6.5 -2.7
v 0.5 6.5 -2.7
v 0.6 6.5 -2.7
v 0.2 6.5 -2.8
v 0.3 6.5 -2.8
v 0.5 6.5 -2.8
v 0.6 6.5 -2.8
v 1.8 6.6 -0.9
v 1.9 6.6 -0.9
v 1.7 6.6 -1
v 1.8 6.6 -1
v 1.9 6.6 -1
v 1.7 6.6 -1.1
v 1.8 6.6 -1.1
v 1.9 6.6 -1.1
v 1.9 6.6 -2.1
v 2 6.6 -2.1
v 1.6 6.6 -2.3
v 1.7 6.6 -2.3
v 1.9 6.6 -2.3
v 2 6.6 -2.3
v 1.6 6.6 -2.4
v 1.7 6.6 -2.4

# faces
f 3/1/1 2/1/1 1/1/1
f 4/1/1 2/1/1 3/1/1
f 5/2/1 4/2/1 3/2/1
f 6/2/1 4/2/1 5/2/1
f 9/4/1 8/4/1 7/4/1
f 10/4/1 8/4/1 9/4/1
f 15/4/1 12/4/1 11/4/1
f 16/4/1 12/4/1 15/4/1
f 17/4/1 14/4/1 13/4/1
f 18/4/1 14/4/1 17/4/1
f 22/3/1 20/3/1 19/3/1
f 23/5/1 21/5/1 20/5/1
f 23/3/1 20/3/1 22/3/1
f 24/5/1 21/5/1 23/5/1
f 27/3/1 26/3/1 25/3/1
f 28/3/1 26/3/1 27/3/1
f 31/4/1 30/4/1 29/4/1
f 32/4/1 30/4/1 31/4/1
f 40/3/1 34/3/1 33/3/1
f 41/4/1 35/4/1 34/4/1
f 41/3/1 34/3/1 40/3/1
f 42/4/1 35/4/1 41/4/1
f 43/4/1 37/4/1 36/4/1
f 44/3/1 38/3/1 37/3/1
f 44/4/1 37/4/1 43/4/1
f 45/4/1 39/4/1 38/4/1
f 45/3/1 38/3/1 44/3/1
f 46/4/1 39/4/1 45/4/1
f 47/4/1 39/4/1 46/4/1
f 48/3/1 46/3/1 45/3/1
f 49/3/1 46/3/1 48/3/1
f 56/3/1 51/3/1 50/3/1
f 57/3/1 51/3/1 56/3/1
f 59/4/1 53/4/1 52/4/1
f 60/4/1 53/4/1 59/4/1
f 61/4/1 55/4/1 54/4/1
f 62/4/1 55/4/1 61/4/1
f 63/4/1 59/4/1 58/4/1
f 64/4/1 59/4/1 63/4/1
f 69/4/1 66/4/1 65/4/1
f 70/4/1 66/4/1 69/4/1
f 71/2/1 68/2/1 67/2/1
f 72/2/1 68/2/1 71/2/1
f 77/3/1 74/3/1 73/3/1
f 78/3/1 74/3/1 77/3/1
f 79/4/1 76/4/1 75/4/1
f 80/4/1 76/4/1 79/4/1
f 84/3/1 82/3/1 81/3/1
f 85/3/1 82/3/1 84/3/1
f 86/3/1 84/3/1 83/3/1
f 87/3/1 84/3/1 86/3/1
f 88/4/2 89/4/2 90/4/2
f 90/4/2 89/4/2 91/4/2
f 92/4/2 93/4/2 94/4/2
f 94/4/2 93/4/2 95/4/2
f 96/3/2 97/3/2 100/3/2
f 100/3/2 97/3/2 101/3/2
f 98/4/2 99/4/2 102/4/2
f 102/4/2 99/4/2 103/4/2
f 104/3/2 105/3/2 108/3/2
f 108/3/2 105/3/2 109/3/2
f 106/3/2 107/3/2 110/3/2
f 110/3/2 107/3/2 111/3/2
f 112/4/2 113/4/2 114/4/2
f 114/4/2 113/4/2 115/4/2
f 116/3/2 117/3/2 120/3/2
f 120/3/2 117/3/2 121/3/2
f 118/4/2 119/4/2 122/4/2
f 122/4/2 119/4/2 123/4/2
f 124/4/2 125/4/2 127/4/2
f 127/4/2 125/4/2 128/4/2
f 126/3/2 127/3/2 129/3/2
f 129/3/2 127/3/2 130/3/2
f 131/4/2 132/4/2 137/4/2
f 137/4/2 132/4/2 138/4/2
f 133/4/2 134/4/2 139/4/2
f 139/4/2 134/4/2 140/4/2
f 135/4/2 136/4/2 141/4/2
f 141/4/2 136/4/2 142/4/2
f 143/3/2 144/3/2 148/3/2
f 148/3/2 144/3/2 149/3/2
f 145/4/2 146/4/2 150/4/2
f 146/3/2 147/3/2 151/3/2
f 150/4/2 146/4/2 151/4/2
f 151/3/2 147/3/2 152/3/2
f 153/4/2 154/4/2 159/4/2
f 154/3/2 155/3/2 160/3/2
f 159/4/2 154/4/2 160/4/2
f 160/3/2 155/3/2 161/3/2
f 156/4/2 157/4/2 162/4/2
f 157/3/2 158/3/2 163/3/2
f 162/4/2 157/4/2 163/4/2
f 163/3/2 158/3/2 164/3/2
f 163/3/2 164/3/2 165/3/2
f 162/3/2 163/3/2 165/3/2
f 165/3/2 164/3/2 166/3/2
f 167/4/2 168/4/2 169/4/2
f 169/4/2 168/4/2 170/4/2
f 171/1/2 172/1/2 173/1/2
f 173/1/2 172/1/2 174/1/2
f 173/2/2 174/2/2 175/2/2
f 175/2/2 174/2/2 176/2/2
f 180/1/3 178/1/3 177/1/3
f 181/2/3 179/2/3 178/2/3
f 181/1/3 178/1/3 180/1/3
f 182/2/3 179/2/3 181/2/3
f 185/3/3 184/3/3 183/3/3
f 186/3/3 184/3/3 185/3/3
f 187/4/3 186/4/3 185/4/3
f 188/4/3 186/4/3 187/4/3
f 191/3/3 190/3/3 189/3/3
f 192/3/3 190/3/3 191/3/3
f 195/4/3 194/4/3 193/4/3
f 196/4/3 194/4/3 195/4/3
f 199/4/3 198/4/3 197/4/3
f 200/4/3 198/4/3 199/4/3
f 203/4/3 202/4/3 201/4/3
f 204/4/3 202/4/3 203/4/3
f 208/4/3 206/4/3 205/4/3
f 209/4/3 206/4/3 208/4/3
f 210/2/3 208/2/3 207/2/3
f 211/2/3 208/2/3 210/2/3
f 213/4/3 212/4/3 211/4/3
f 215/4/3 213/4/3 211/4/3
f 216/3/3 214/3/3 213/3/3
f 216/4/3 213/4/3 215/4/3
f 217/3/3 214/3/3 216/3/3
f 220/4/3 219/4/3 218/4/3
f 221/4/3 219/4/3 220/4/3
f 226/3/3 223/3/3 222/3/3
f 227/3/3 223/3/3 226/3/3
f 228/2/3 225/2/3 224/2/3
f 229/2/3 225/2/3 228/2/3
f 232/4/3 231/4/3 230/4/3
f 233/4/3 231/4/3 232/4/3
f 236/3/3 235/3/3 234/3/3
f 237/3/3 235/3/3 236/3/3
f 240/4/3 239/4/3 238/4/3
f 241/4/3 239/4/3 240/4/3
f 244/3/3 243/3/3 242/3/3
f 245/3/3 243/3/3 244/3/3
f 248/3/3 247/3/3 246/3/3
f 249/3/3 247/3/3 248/3/3
f 252/4/3 251/4/3 250/4/3
f 253/4/3 251/4/3 252/4/3
f 256/4/3 255/4/3 254/4/3
f 257/4/3 255/4/3 256/4/3
f 260/3/3 259/3/3 258/3/3
f 261/3/3 259/3/3 260/3/3
f 262/4/4 263/4/4 264/4/4
f 264/4/4 263/4/4 265/4/4
f 265/4/4 266/4/4 268/4/4
f 268/4/4 266/4/4 269/4/4
f 267/4/4 268/4/4 270/4/4
f 268/3/4 269/3/4 271/3/4
f 270/4/4 268/4/4 271/4/4
f 271/3/4 269/3/4 272/3/4
f 270/3/4 271/3/4 273/3/4
f 273/3/4 271/3/4 274/3/4
f 275/4/4 276/4/4 277/4/4
f 277/4/4 276/4/4 278/4/4
f 279/2/4 280/2/4 281/2/4
f 281/2/4 280/2/4 282/2/4
f 283/2/4 284/2/4 285/2/4
f 285/2/4 284/2/4 286/2/4
f 287/4/4 288/4/4 289/4/4
f 289/4/4 288/4/4 290/4/4
f 290/3/4 291/3/4 292/3/4
f 292/3/4 291/3/4 293/3/4
f 294/4/4 295/4/4 296/4/4
f 296/4/4 295/4/4 297/4/4
f 298/3/4 299/3/4 301/3/4
f 301/3/4 299/3/4 302/3/4
f 300/4/4 301/4/4 303/4/4
f 303/4/4 301/4/4 304/4/4
f 305/3/4 306/3/4 307/3/4
f 307/3/4 306/3/4 308/3/4
f 307/4/4 308/4/4 309/4/4
f 309/4/4 308/4/4 310/4/4
f 311/4/4 312/4/4 313/4/4
f 313/4/4 312/4/4 314/4/4
f 315/4/4 316/4/4 317/4/4
f 317/4/4 316/4/4 318/4/4
f 319/3/4 320/3/4 321/3/4
f 321/3/4 320/3/4 322/3/4
f 323/3/4 324/3/4 325/3/4
f 325/3/4 324/3/4 326/3/4
f 327/4/4 328/4/4 329/4/4
f 329/4/4 328/4/4 330/4/4
f 331/4/4 332/4/4 333/4/4
f 333/4/4 332/4/4 334/4/4
f 335/3/4 336/3/4 337/3/4
f 337/3/4 336/3/4 338/3/4
f 339/1/4 340/1/4 342/1/4
f 340/2/4 341/2/4 343/2/4
f 342/1/4 340/1/4 343/1/4
f 343/2/4 341/2/4 344/2/4
f 347/1/5 346/1/5 345/1/5
f 348/1/5 346/1/5 347/1/5
f 351/4/5 350/4/5 349/4/5
f 352/4/5 350/4/5 351/4/5
f 355/4/5 354/4/5 353/4/5
f 356/4/5 354/4/5 355/4/5
f 357/2/6 358/2/6 359/2/6
f 359/2/6 358/2/6 360/2/6
f 361/2/6 362/2/6 363/2/6
f 363/2/6 362/2/6 364/2/6
f 365/2/6 366/2/6 367/2/6
f 367/2/6 366/2/6 368/2/6
f 365/2/6 367/2/6 369/2/6
f 367/4/6 368/4/6 370/4/6
f 369/2/6 367/2/6 370/2/6
f 368/2/6 366/2/6 371/2/6
f 370/4/6 368/4/6 371/4/6
f 371/2/6 366/2/6 372/2/6
f 369/4/6 370/4/6 373/4/6
f 365/2/6 369/2/6 373/2/6
f 373/4/6 370/4/6 374/4/6
f 365/2/6 373/2/6 375/2/6
f 372/2/6 366/2/6 376/2/6
f 365/2/6 375/2/6 377/2/6
f 376/2/6 366/2/6 381/2/6
f 377/2/6 378/2/6 382/2/6
f 379/2/6 380/2/6 383/2/6
f 380/2/6 381/2/6 383/2/6
f 377/2/6 382/2/6 384/2/6
f 382/2/6 383/2/6 384/2/6
f 365/2/6 377/2/6 384/2/6
f 384/2/6 383/2/6 385/2/6
f 365/2/6 384/2/6 386/2/6
f 384/3/6 385/3/6 386/3/6
f 385/2/6 383/2/6 387/2/6
f 386/3/6 385/3/6 387/3/6
f 387/2/6 383/2/6 388/2/6
f 365/2/6 386/2/6 389/2/6
f 386/2/6 387/2/6 389/2/6
f 389/2/6 387/2/6 390/2/6
f 387/5/6 388/5/6 391/5/6
f 390/2/6 387/2/6 391/2/6
f 388/2/6 383/2/6 392/2/6
f 391/5/6 388/5/6 392/5/6
f 392/2/6 383/2/6 393/2/6
f 393/2/6 383/2/6 394/2/6
f 394/2/6 383/2/6 395/2/6
f 365/2/6 389/2/6 396/2/6
f 389/5/6 390/5/6 397/5/6
f 396/2/6 389/2/6 397/2/6
f 390/2/6 391/2/6 398/2/6
f 397/5/6 390/5/6 398/5/6
f 391/2/6 392/2/6 398/2/6
f 392/5/6 393/5/6 399/5/6
f 398/2/6 392/2/6 399/2/6
f 393/2/6 394/2/6 400/2/6
f 399/5/6 393/5/6 400/5/6
f 394/4/6 395/4/6 401/4/6
f 400/2/6 394/2/6 401/2/6
f 395/2/6 383/2/6 402/2/6
f 401/4/6 395/4/6 402/4/6
f 365/2/6 396/2/6 403/2/6
f 396/4/6 397/4/6 404/4/6
f 403/2/6 396/2/6 404/2/6
f 400/2/6 401/2/6 405/2/6
f 404/4/6 397/4/6 405/4/6
f 399/2/6 400/2/6 405/2/6
f 401/2/6 402/2/6 405/2/6
f 398/2/6 399/2/6 405/2/6
f 397/2/6 398/2/6 405/2/6
f 365/2/6 403/2/6 406/2/6
f 403/4/6 404/4/6 407/4/6
f 406/2/6 403/2/6 407/2/6
f 404/2/6 405/2/6 408/2/6
f 407/4/6 404/4/6 408/4/6
f 405/2/6 402/2/6 409/2/6
f 408/2/6 405/2/6 409/2/6
f 409/2/6 402/2/6 410/2/6
f 410/2/6 402/2/6 411/2/6
f 411/2/6 402/2/6 412/2/6
f 365/2/6 406/2/6 413/2/6
f 406/4/6 407/4/6 413/4/6
f 407/2/6 408/2/6 414/2/6
f 413/4/6 407/4/6 414/4/6
f 408/4/6 409/4/6 415/4/6
f 414/2/6 408/2/6 415/2/6
f 409/5/6 410/5/6 416/5/6
f 415/4/6 409/4/6 416/4/6
f 410/2/6 411/2/6 417/2/6
f 416/5/6 410/5/6 417/5/6
f 411/4/6 412/4/6 418/4/6
f 417/2/6 411/2/6 418/2/6
f 412/2/6 402/2/6 419/2/6
f 418/4/6 412/4/6 419/4/6
f 402/2/6 383/2/6 420/2/6
f 419/2/6 402/2/6 420/2/6
f 420/2/6 383/2/6 421/2/6
f 383/2/6 381/2/6 422/2/6
f 421/2/6 383/2/6 422/2/6
f 381/2/6 366/2/6 423/2/6
f 422/2/6 381/2/6 423/2/6
f 414/2/6 415/2/6 424/2/6
f 415/5/6 416/5/6 424/5/6
f 418/2/6 419/2/6 425/2/6
f 424/5/6 416/5/6 425/5/6
f 417/2/6 418/2/6 425/2/6
f 419/2/6 420/2/6 425/2/6
f 416/2/6 417/2/6 425/2/6
f 425/2/6 420/2/6 426/2/6
f 426/2/6 420/2/6 427/2/6
f 427/2/6 420/2/6 428/2/6
f 428/2/6 420/2/6 429/2/6
f 429/2/6 420/2/6 430/2/6
f 420/3/6 421/3/6 431/3/6
f 430/2/6 420/2/6 431/2/6
f 431/3/6 421/3/6 432/3/6
f 432/3/6 421/3/6 433/3/6
f 422/4/6 423/4/6 434/4/6
f 423/2/6 366/2/6 435/2/6
f 434/4/6 423/4/6 435/4/6
f 435/2/6 366/2/6 436/2/6
f 365/2/6 413/2/6 437/2/6
f 413/3/6 414/3/6 438/3/6
f 437/2/6 413/2/6 438/2/6
f 414/2/6 424/2/6 439/2/6
f 438/3/6 414/3/6 439/3/6
f 424/2/6 425/2/6 439/2/6
f 439/2/6 425/2/6 440/2/6
f 425/4/6 426/4/6 441/4/6
f 440/2/6 425/2/6 441/2/6
f 426/2/6 427/2/6 442/2/6
f 427/4/6 428/4/6 442/4/6
f 428/2/6 429/2/6 443/2/6
f 442/4/6 428/4/6 443/4/6
f 429/3/6 430/3/6 444/3/6
f 443/2/6 429/2/6 444/2/6
f 431/2/6 432/2/6 445/2/6
f 444/3/6 430/3/6 445/3/6
f 430/2/6 431/2/6 445/2/6
f 445/2/6 432/2/6 446/2/6
f 446/2/6 432/2/6 447/2/6
f 435/3/6 436/3/6 448/3/6
f 437/3/6 438/3/6 449/3/6
f 439/2/6 440/2/6 449/2/6
f 438/2/6 439/2/6 449/2/6
f 449/2/6 440/2/6 450/2/6
f 440/5/6 441/5/6 451/5/6
f 450/2/6 440/2/6 451/2/6
f 441/4/6 426/4/6 452/4/6
f 451/5/6 441/5/6 452/5/6
f 442/2/6 443/2/6 453/2/6
f 452/4/6 426/4/6 453/4/6
f 443/2/6 444/2/6 453/2/6
f 426/2/6 442/2/6 453/2/6
f 444/2/6 445/2/6 453/2/6
f 445/2/6 446/2/6 453/2/6
f 453/2/6 446/2/6 454/2/6
f 454/2/6 446/2/6 455/2/6
f 446/4/6 447/4/6 456/4/6
f 455/2/6 446/2/6 456/2/6
f 456/4/6 447/4/6 457/4/6
f 448/3/6 436/3/6 460/3/6
f 436/2/6 366/2/6 461/2/6
f 460/3/6 436/3/6 461/3/6
f 365/2/6 437/2/6 462/2/6
f 437/3/6 449/3/6 462/3/6
f 462/3/6 449/3/6 463/3/6
f 451/2/6 452/2/6 464/2/6
f 450/2/6 451/2/6 464/2/6
f 464/2/6 452/2/6 465/2/6
f 452/3/6 453/3/6 466/3/6
f 465/2/6 452/2/6 466/2/6
f 453/2/6 454/2/6 467/2/6
f 466/3/6 453/3/6 467/3/6
f 454/3/6 455/3/6 468/3/6
f 467/2/6 454/2/6 468/2/6
f 456/2/6 457/2/6 469/2/6
f 468/3/6 455/3/6 469/3/6
f 455/2/6 456/2/6 469/2/6
f 458/2/6 459/2/6 471/2/6
f 471/2/6 459/2/6 472/2/6
f 461/2/6 366/2/6 474/2/6
f 462/2/6 463/2/6 475/2/6
f 463/2/6 464/2/6 475/2/6
f 465/2/6 466/2/6 476/2/6
f 476/2/6 466/2/6 477/2/6
f 467/3/6 468/3/6 478/3/6
f 469/2/6 457/2/6 479/2/6
f 468/2/6 469/2/6 479/2/6
f 479/2/6 457/2/6 480/2/6
f 480/2/6 457/2/6 481/2/6
f 470/2/6 471/2/6 482/2/6
f 482/2/6 471/2/6 483/2/6
f 472/3/6 473/3/6 484/3/6
f 462/2/6 475/2/6 485/2/6
f 485/2/6 475/2/6 486/2/6
f 477/2/6 478/2/6 488/2/6
f 478/3/6 468/3/6 489/3/6
f 488/2/6 478/2/6 489/2/6
f 468/2/6 479/2/6 490/2/6
f 489/3/6 468/3/6 490/3/6
f 490/2/6 479/2/6 491/2/6
f 491/2/6 479/2/6 492/2/6
f 479/4/6 480/4/6 493/4/6
f 492/2/6 479/2/6 493/2/6
f 482/2/6 483/2/6 494/2/6
f 493/4/6 480/4/6 494/4/6
f 483/2/6 484/2/6 494/2/6
f 480/2/6 481/2/6 494/2/6
f 481/2/6 482/2/6 494/2/6
f 494/2/6 484/2/6 495/2/6
f 495/2/6 484/2/6 496/2/6
f 496/2/6 484/2/6 497/2/6
f 484/3/6 473/3/6 498/3/6
f 497/2/6 484/2/6 498/2/6
f 473/2/6 474/2/6 499/2/6
f 498/3/6 473/3/6 499/3/6
f 365/2/6 462/2/6 500/2/6
f 462/2/6 485/2/6 500/2/6
f 500/2/6 485/2/6 501/2/6
f 490/2/6 491/2/6 502/2/6
f 489/2/6 490/2/6 502/2/6
f 487/2/6 488/2/6 502/2/6
f 488/2/6 489/2/6 502/2/6
f 502/2/6 491/2/6 503/2/6
f 503/2/6 491/2/6 504/2/6
f 491/3/6 492/3/6 505/3/6
f 504/2/6 491/2/6 505/2/6
f 492/2/6 493/2/6 506/2/6
f 505/3/6 492/3/6 506/3/6
f 494/2/6 495/2/6 506/2/6
f 493/2/6 494/2/6 506/2/6
f 506/2/6 495/2/6 507/2/6
f 507/2/6 495/2/6 508/2/6
f 495/4/6 496/4/6 509/4/6
f 508/2/6 495/2/6 509/2/6
f 496/3/6 497/3/6 510/3/6
f 509/4/6 496/4/6 510/4/6
f 497/2/6 498/2/6 511/2/6
f 510/3/6 497/3/6 511/3/6
f 498/2/6 499/2/6 511/2/6
f 365/2/6 500/2/6 512/2/6
f 501/2/6 502/2/6 513/2/6
f 513/2/6 502/2/6 514/2/6
f 503/2/6 504/2/6 515/2/6
f 504/3/6 505/3/6 516/3/6
f 515/2/6 504/2/6 516/2/6
f 506/2/6 507/2/6 517/2/6
f 516/3/6 505/3/6 517/3/6
f 505/2/6 506/2/6 517/2/6
f 507/3/6 508/3/6 518/3/6
f 517/2/6 507/2/6 518/2/6
f 508/5/6 509/5/6 519/5/6
f 518/3/6 508/3/6 519/3/6
f 509/2/6 510/2/6 520/2/6
f 519/5/6 509/5/6 520/5/6
f 510/2/6 511/2/6 520/2/6
f 518/2/6 519/2/6 521/2/6
f 514/2/6 515/2/6 521/2/6
f 519/2/6 520/2/6 521/2/6
f 515/2/6 516/2/6 521/2/6
f 512/2/6 513/2/6 521/2/6
f 516/2/6 517/2/6 521/2/6
f 517/2/6 518/2/6 521/2/6
f 365/2/6 512/2/6 521/2/6
f 513/2/6 514/2/6 521/2/6
f 520/2/6 511/2/6 522/2/6
f 521/2/6 520/2/6 522/2/6
f 499/2/6 474/2/6 522/2/6
f 474/2/6 366/2/6 522/2/6
f 511/2/6 499/2/6 522/2/6
f 523/3/6 524/3/6 527/3/6
f 527/3/6 524/3/6 528/3/6
f 524/4/6 525/4/6 529/4/6
f 528/3/6 524/3/6 529/3/6
f 526/3/6 527/3/6 530/3/6
f 527/4/6 528/4/6 531/4/6
f 530/3/6 527/3/6 531/3/6
f 531/4/6 528/4/6 532/4/6
f 529/4/6 525/4/6 533/4/6
f 533/4/6 525/4/6 534/4/6
f 530/4/6 531/4/6 535/4/6
f 535/4/6 531/4/6 536/4/6
f 533/3/6 534/3/6 538/3/6
f 538/3/6 534/3/6 539/3/6
f 536/4/6 537/4/6 540/4/6
f 540/4/6 537/4/6 541/4/6
f 542/4/6 543/4/6 545/4/6
f 545/4/6 543/4/6 546/4/6
f 544/4/6 545/4/6 548/4/6
f 545/3/6 546/3/6 549/3/6
f 548/4/6 545/4/6 549/4/6
f 546/4/6 547/4/6 550/4/6
f 549/3/6 546/3/6 550/3/6
f 548/3/6 549/3/6 553/3/6
f 549/4/6 550/4/6 554/4/6
f 553/3/6 549/3/6 554/3/6
f 550/4/6 547/4/6 555/4/6
f 554/4/6 550/4/6 555/4/6
f 555/4/6 547/4/6 556/4/6
f 551/4/6 552/4/6 559/4/6
f 559/4/6 552/4/6 560/4/6
f 554/4/6 555/4/6 565/4/6
f 565/4/6 555/4/6 566/4/6
f 556/3/6 557/3/6 567/3/6
f 557/4/6 558/4/6 568/4/6
f 567/3/6 557/3/6 568/3/6
f 568/4/6 558/4/6 569/4/6
f 560/3/6 561/3/6 570/3/6
f 570/3/6 561/3/6 571/3/6
f 562/4/6 563/4/6 572/4/6
f 572/4/6 563/4/6 573/4/6
f 564/4/6 565/4/6 574/4/6
f 574/4/6 565/4/6 575/4/6
f 566/3/6 567/3/6 576/3/6
f 576/3/6 567/3/6 577/3/6
f 570/5/6 571/5/6 579/5/6
f 571/3/6 572/3/6 580/3/6
f 579/5/6 571/5/6 580/5/6
f 580/3/6 572/3/6 581/3/6
f 578/4/6 579/4/6 583/4/6
f 579/4/6 580/4/6 583/4/6
f 583/4/6 580/4/6 584/4/6
f 582/4/6 583/4/6 586/4/6
f 586/4/6 583/4/6 587/4/6
f 584/3/6 585/3/6 588/3/6
f 588/3/6 585/3/6 589/3/6
f 590/4/6 591/4/6 593/4/6
f 593/4/6 591/4/6 594/4/6
f 592/4/6 593/4/6 595/4/6
f 593/3/6 594/3/6 596/3/6
f 595/4/6 593/4/6 596/4/6
f 596/3/6 594/3/6 597/3/6
f 598/3/6 599/3/6 602/3/6
f 602/3/6 599/3/6 603/3/6
f 600/3/6 601/3/6 604/3/6
f 604/3/6 601/3/6 605/3/6
